<?xml version="1.0" encoding="UTF-8"?>
<svg width="22px" height="21px" viewBox="0 0 22 21" version="1.1" xmlns="http://www.w3.org/2000/svg" xmlns:xlink="http://www.w3.org/1999/xlink">
    <title>ic_apcircle</title>
    <g id="icon" stroke="none" stroke-width="1" fill="none" fill-rule="evenodd">
        <g id="Artboard" transform="translate(-306.000000, -211.000000)" fill="#000000" fill-rule="nonzero">
            <g id="ic_apcircle" transform="translate(306.000000, 211.000000)">
                <path d="M21.1281211,0 L5.69615234,0 C5.21460156,0 4.82427344,0.399456761 4.82427344,0.892367845 L4.82427344,9.31020553 L3.28401563,9.31020553 C1.47314063,9.31020553 0,10.8182724 0,12.6713947 L0,17.6388108 C0,19.4922409 1.47314063,21 3.28401563,21 C3.43221484,21 3.57813672,20.9898849 3.72083594,20.9702705 L18.1056992,20.9702705 C20.2528047,20.9702705 22,19.1822804 22,16.9844546 L22,0.892367845 C22,0.399456761 21.6097148,0 21.1281211,0 Z M4.89995258,17.6388108 C4.89995258,18.403553 4.30943175,19.0430885 3.52907356,19.1855348 L3.2,19.1855348 L3.2,19.2152643 C2.262432,19.2152643 1.5,18.507914 1.5,17.6387668 L1.5,12.6713947 C1.5,11.8022475 2.26276397,11.0948972 3.2,11.0948972 L4.9,11.0948972 L4.9,17.6388108 L4.89995258,17.6388108 Z M20.5,17.1283844 C20.5,18.3488455 19.4843449,19.38 18.2816479,19.38 L6,19.38 C6.24311011,18.9062385 6.38042189,18.3679651 6.38042189,17.7977958 L6.38042189,1.58 L20.5,1.58 L20.5,17.1283844 Z" id="Shape-Copy" transform="translate(11.000000, 10.500000) scale(-1, 1) translate(-11.000000, -10.500000) "></path>
                <g id="newspaper" transform="translate(8.049949, 10.892368) scale(-1, 1) translate(-8.049949, -10.892368) translate(3.400000, 6.000000)">
                    <path d="M8.33557031,0 L2.87187891,0 C2.39032812,0 2,0.399456761 2,0.892367845 C2,1.38523495 2.39028516,1.78473569 2.87187891,1.78473569 L8.33557031,1.78473569 C8.81742188,1.78473569 9.20744922,1.38527893 9.20744922,0.892367845 C9.20744922,0.399456761 8.81712109,0 8.33557031,0 Z" id="Path"></path>
                    <path d="M8.42801953,4 L0.871878906,4 C0.390328125,4 0,4.39945676 0,4.89236784 C0,5.38523495 0.390285156,5.78473569 0.871878906,5.78473569 L8.42801953,5.78473569 C8.90957031,5.78473569 9.29989844,5.38527893 9.29989844,4.89236784 C9.29989844,4.39945676 8.90957031,4 8.42801953,4 Z" id="Path"></path>
                    <path d="M8.33557031,8 L2.87187891,8 C2.39032812,8 2,8.39945676 2,8.89236784 C2,9.38523495 2.39028516,9.78473569 2.87187891,9.78473569 L8.33557031,9.78473569 C8.81742188,9.78473569 9.20744922,9.38527893 9.20744922,8.89236784 C9.20744922,8.39945676 8.81712109,8 8.33557031,8 Z" id="Path"></path>
                </g>
            </g>
        </g>
    </g>
</svg>