<svg xmlns="http://www.w3.org/2000/svg" width="354" height="76" viewBox="0 0 354 76"><path fill="#FF6B21" d="M71.8756745,48.295996 C71.7689541,49.2021577 71.7155939,50.0816676 71.7155939,50.9345257 C71.7155939,51.7873837 71.7155939,52.5869381 71.7155939,53.3331889 C71.7155939,55.625245 71.9023545,57.6641088 72.2758759,59.4497803 C72.6493972,61.2354519 73.1829991,62.8478866 73.8766816,64.2870846 C74.5703641,65.7262826 75.3974471,66.9922437 76.3579305,68.0849681 C77.318414,69.1776925 78.3856178,70.1504837 79.559542,71.0033418 C78.0120965,71.7495926 76.8248322,72.2026734 75.9977493,72.3625843 C75.1706663,72.5224952 74.3302433,72.6024506 73.4764802,72.6024506 C72.0891152,72.4958434 70.7150903,72.1360439 69.3544054,71.5230522 C67.9937205,70.9100604 66.7797762,69.9372692 65.7125723,68.6046785 C64.6453685,67.2720878 63.7916054,65.526394 63.1512831,63.367597 C62.5109608,61.2088 62.1907997,58.5302927 62.1907997,55.332075 C62.1907997,54.5325206 62.2174798,53.6396848 62.27084,52.6535677 C62.3242002,51.6674505 62.4042404,50.7213111 62.5109608,49.8151495 C62.5109608,49.6019349 62.5109608,49.3887204 62.5109608,49.1755059 C62.5109608,48.9622914 62.5376409,48.7490769 62.5910011,48.5358624 C62.3242002,48.589166 62.0573992,48.6291437 61.7905982,48.6557955 C61.5237973,48.6824473 61.2569963,48.6957733 60.9901954,48.6957733 C58.5356266,48.8556841 56.1344179,49.0289209 53.7865695,49.2154836 C51.4387211,49.4020463 49.0108324,49.5486313 46.5029034,49.6552386 C43.2479317,53.3864926 39.9395998,56.904532 36.5779077,60.209357 C33.2162157,63.514182 29.8678636,66.4059038 26.5328517,68.8845226 C23.1978397,71.3631413 19.8895078,73.3353755 16.607856,74.8012253 C13.3262043,76.2670751 10.1379328,77 7.0430417,77 C6.29599901,77 5.46891604,76.720156 4.56179279,76.1604679 C3.65466953,75.6007798 2.88094675,74.8678549 2.24062445,73.9616932 C1.60030216,73.0555315 1.20010072,72.0294366 1.04002014,70.8834086 C0.879939569,69.7373806 1.20010072,68.6046785 2.00050359,67.4853023 C3.06770742,68.2315531 4.16159135,68.8711966 5.28215537,69.4042329 C6.4027194,69.9372692 7.38988294,70.2037874 8.24364601,70.2037874 C10.4314139,70.2037874 12.7392421,69.684077 15.1671309,68.6446562 C17.5950196,67.6052355 20.1029486,66.1660375 22.6909179,64.3270623 C25.2788872,62.4880871 27.8935366,60.3426161 30.534866,57.8906492 C33.1761955,55.4386823 35.830865,52.7735008 38.4988746,49.8951049 C36.6312679,49.8418013 34.9237418,49.7085422 33.3762962,49.4953277 C31.8288507,49.2821132 30.521526,48.9089878 29.4543222,48.3759515 C28.3871183,47.8429152 27.5733754,47.149968 27.0130934,46.29711 C26.4528114,45.4442519 26.2527107,44.3781793 26.4127912,43.0988923 C28.6539193,43.6852322 30.815007,44.0716835 32.8960545,44.2582462 C34.977102,44.4448089 37.0314694,44.5380902 39.0591566,44.5380902 C39.8061993,44.5380902 40.4865418,44.5380902 41.100184,44.5380902 C41.7138262,44.5380902 42.4208487,44.5114384 43.2212516,44.4581348 C46.2627825,40.9933989 49.197593,37.4220558 52.0256832,33.7441055 C54.8537733,30.0661551 57.5084429,26.5081379 59.9896918,23.0700538 C62.4709407,19.6319698 64.7120687,16.4204262 66.7130759,13.435423 C68.7140831,10.4504198 70.4082692,7.91849743 71.7956342,5.83965592 L73.4764802,3.36103719 L73.9567219,1.60201745 C74.2235229,1.17558842 74.7571248,0.975699816 75.5575277,1.00235163 C76.3579305,1.02900344 77.1716735,1.18891433 77.9987564,1.48208429 C78.8258394,1.77525424 79.5728821,2.14837964 80.2398845,2.60146049 C80.9068869,3.05454133 81.2403881,3.52094808 81.2403881,4.00068074 C78.6790989,12.9023867 76.6647516,20.6447387 75.1973464,27.2277369 C73.7299411,33.810735 72.7027574,39.554201 72.1157953,44.4581348 C72.7561176,44.8312602 73.2630394,45.3376447 73.6365608,45.9772882 C74.0100821,46.6169317 74.3302433,47.3898344 74.5970442,48.295996 L71.8756745,48.295996 Z M63.2313234,43.418714 C63.8182855,39.4209419 64.511968,35.7296656 65.3123709,32.3448852 C66.1127738,28.9601048 66.9665368,25.7219094 67.8736601,22.6302989 C65.4724515,25.9884275 62.9245023,29.4398374 60.2298126,32.9845287 C57.535123,36.52922 54.5602923,40.2737999 51.3053206,44.2182685 L54.4268918,43.8984467 C56.2411383,43.7918394 57.815264,43.6985581 59.1492688,43.6186026 C60.4832736,43.5386472 61.8439584,43.4720177 63.2313234,43.418714 Z M91.9657866,39.1810756 C92.072507,39.1810756 92.1925674,39.1944015 92.3259679,39.2210533 C92.4593684,39.2477051 92.5794288,39.261031 92.6861492,39.261031 L93.8867535,39.3409864 C94.9539573,35.9295542 95.9544609,32.6780329 96.8882643,29.5864224 C97.8220676,26.494812 98.6891707,23.5364606 99.4895736,20.7113683 L101.490581,13.7552448 C98.8759314,14.4481919 96.4480427,15.2477464 94.2069146,16.153908 C91.9657866,17.0600697 90.0448197,18.019535 88.4440139,19.032304 C87.4835305,19.3521258 86.7098077,19.3921035 86.1228456,19.1522371 C85.5358835,18.9123708 85.1623622,18.5125936 85.0022816,17.9529055 C84.842201,17.3932174 84.9489214,16.7535739 85.3224427,16.0339749 C85.6959641,15.3143759 86.4163267,14.6081028 87.4835305,13.9151556 L87.4034902,13.9951111 C88.9509358,12.8757349 90.9519429,11.8363141 93.4065118,10.8768488 C95.8610806,9.9173835 98.5424302,9.09117726 101.450561,8.39823009 C104.358691,7.70528292 107.386882,7.15892073 110.535133,6.75914351 C113.683385,6.3593663 116.778276,6.15947769 119.819807,6.15947769 C123.234859,6.10617406 126.503171,6.34604039 129.624742,6.87907668 C132.746313,7.41211296 135.481023,8.2383192 137.828871,9.3576954 C140.17672,10.4770716 142.057666,11.9029437 143.471711,13.6353116 C144.885757,15.3676795 145.592779,17.4331951 145.592779,19.8318584 C145.592779,20.8446273 145.379338,22.1239144 144.952457,23.6697197 C144.098694,26.1216866 142.764689,28.3204612 140.950442,30.2660437 C139.136196,32.2116261 137.028468,33.9306682 134.62726,35.4231698 C132.226051,36.9156713 129.611402,38.1949584 126.783312,39.261031 C123.955221,40.3271036 121.100451,41.2066134 118.219001,41.8995606 C115.33755,42.5925078 112.49612,43.1255441 109.69471,43.4986695 C106.8933,43.8717949 104.345351,44.0850094 102.050863,44.138313 L99.329493,51.9739464 C98.1022086,55.4386823 96.9683045,58.7035295 95.9277808,61.7684881 C94.8872571,64.8334468 94.020154,67.4853023 93.3264715,69.7240547 C93.1663909,70.0438765 92.6861492,70.3370464 91.8857463,70.6035646 C91.0853434,70.8700827 90.1782202,71.0832972 89.1643765,71.2432081 C88.1505329,71.403119 87.1500293,71.5097263 86.1628657,71.5630299 C85.1757022,71.6163335 84.4153195,71.5630299 83.8817176,71.403119 C84.3619593,69.9106174 84.9355813,68.1382718 85.6025837,66.0860821 C86.2695861,64.0338924 86.9766087,61.8217918 87.7236513,59.4497803 C88.470694,57.0777688 89.2577569,54.5724983 90.0848398,51.9339687 C90.9119228,49.2954391 91.7256657,46.6169317 92.5260686,43.8984467 L90.5250614,43.5786249 L90.6051017,43.5786249 C89.6979784,43.5253213 89.1510365,43.2588031 88.9642758,42.7790705 C88.7775151,42.2993378 88.8041952,41.7929534 89.0443161,41.2599171 C89.284437,40.7268808 89.6846384,40.2471481 90.2449204,39.8207191 C90.8052024,39.3942901 91.3788245,39.1810756 91.9657866,39.1810756 Z M119.419605,11.5164924 C116.484795,11.4631887 113.549984,11.6230996 110.615174,11.996225 C111.522297,12.3160468 112.029219,12.8224313 112.135939,13.5153784 C111.122095,16.873507 109.908151,20.7246942 108.494106,25.0689399 C107.080061,29.4131856 105.519275,34.1705345 103.811749,39.3409864 C106.79992,39.1277719 109.934831,38.6347134 113.216483,37.8618108 C116.498135,37.0889081 119.606366,36.0361615 122.541176,34.7035708 C125.475987,33.3709801 128.090636,31.7851971 130.385125,29.9462219 C132.679613,28.1072467 134.333779,26.0150793 135.347622,23.6697197 C135.667783,22.6569507 135.827864,21.6708336 135.827864,20.7113683 C135.827864,19.0056522 135.267582,17.5664542 134.147018,16.3937744 C133.026454,15.2210945 131.639089,14.288281 129.984923,13.5953339 C128.330757,12.9023867 126.543191,12.3960022 124.622224,12.0761805 C122.701257,11.7563587 120.967051,11.569796 119.419605,11.5164924 Z M192.336307,5.59978959 C194.310634,5.59978959 196.04484,5.91961136 197.538926,6.5592549 C199.033011,7.19889845 200.286975,8.06508241 201.300819,9.15780679 C202.314663,10.2505312 203.075045,11.5164924 203.581967,12.9556903 C204.088889,14.3948883 204.34235,15.9140417 204.34235,17.5131506 C204.34235,18.739134 204.182269,20.0184211 203.862108,21.3510118 C203.541947,22.6836025 203.035025,23.9628896 202.341343,25.1888731 C201.914461,25.9351239 201.047358,26.5347897 199.740034,26.9878705 C198.432709,27.4409514 197.192084,27.6674918 196.01816,27.6674918 C194.630795,27.6674918 193.603611,27.3876478 192.936609,26.8279597 C192.308842,26.3011944 192.260098,25.5501481 192.790376,24.5748208 L192.858,24.455 L193.083622,23.9544589 C193.603067,22.763286 194.034304,21.5623226 194.377334,20.3515688 C194.777536,18.9390226 194.977636,17.6197578 194.977636,16.3937744 C194.977636,14.9545764 194.604115,13.7552448 193.857072,12.7957794 C193.11003,11.8363141 191.882745,11.4098851 190.175219,11.5164924 C188.681134,11.6230996 186.893567,12.4626318 184.81252,14.0350888 C182.731472,15.6075458 180.583725,17.739691 178.369277,20.4315242 C176.154829,23.1233575 174.007081,26.2549456 171.926034,29.8262888 C169.844986,33.3976319 168.03074,37.2088413 166.483294,41.2599171 C165.736251,43.4986695 165.122609,45.8973328 164.642367,48.4559069 C164.162126,51.0144811 163.922005,53.4397962 163.922005,55.7318522 C163.922005,58.6102482 164.535647,61.0488892 165.762932,63.0477752 C166.990216,65.0466613 168.911183,66.0727562 171.525832,66.1260598 C173.82032,65.9128453 176.008088,65.2598758 178.089136,64.1671514 C180.170183,63.074427 182.06447,61.7818141 183.771996,60.2893125 C185.479522,58.7968109 186.973608,57.2510056 188.254252,55.6518968 C189.31229,54.3307516 190.170007,53.1369479 190.827404,52.0704857 C191.034945,51.4601146 191.271809,50.8414876 191.535904,50.2149267 L191.535904,50.3748376 C191.856065,49.2554614 192.282947,48.2293665 192.816549,47.296553 C193.350151,46.3637395 193.910433,45.4442519 194.497395,44.5380902 L194.417354,44.6180457 C194.470715,44.5114384 194.630795,44.2449203 194.897596,43.8184912 C195.164397,43.3920622 195.564599,42.9389814 196.0982,42.4592487 C196.631802,41.9795161 197.272125,41.553087 198.019167,41.1799616 C198.76621,40.8068362 199.646653,40.5669699 200.660497,40.4603626 C201.4609,38.8612538 202.501423,37.5153372 203.782068,36.4226128 C205.062713,35.3298884 206.476758,34.7302226 208.024203,34.6236153 C210.158611,34.6236153 211.786097,35.3698661 212.906661,36.8623677 C214.027225,38.3548693 214.587507,40.3271036 214.587507,42.7790705 C214.587507,45.3376447 214.000545,48.1094333 212.82662,51.0944365 C212.399739,52.1072055 211.946177,53.0799967 211.465936,54.0128102 C210.985694,54.9456237 210.452092,55.8384595 209.86513,56.6913175 L209.94517,56.6913175 C211.632612,56.6417395 213.75859,54.9551564 216.323105,51.6315682 C216.511599,50.9655901 216.747033,50.2669544 217.028736,49.5353054 C217.428937,48.4958846 217.829138,47.4964416 218.22934,46.5369763 C218.629541,45.577511 219.029743,44.6846752 219.429944,43.858469 C219.830146,43.0322627 220.163647,42.3526415 220.430448,41.8196052 C220.750609,41.2865689 221.404271,40.9134435 222.391435,40.700229 C223.378598,40.4870145 224.392442,40.4203849 225.432966,40.5003404 C226.473489,40.5802958 227.367273,40.7801844 228.114315,41.1000062 C228.861358,41.419828 229.154839,41.846257 228.994759,42.3792933 L228.114315,44.3781793 C227.634074,45.4975555 227.060452,46.8434722 226.393449,48.4159292 C225.726447,49.9883862 225.099465,51.7074283 224.512502,53.5730553 C224.192341,54.5858242 223.92554,55.5319636 223.7121,56.4114735 C223.498659,57.2909834 223.391938,58.1038637 223.391938,58.8501145 C223.391938,59.8095798 223.73878,60.2893125 224.432462,60.2893125 C225.126145,60.2893125 225.846507,60.0094684 226.59355,59.4497803 C227.340593,58.8900922 228.247716,57.9706046 229.31492,56.6913175 C229.901882,56.1049776 230.448824,55.3987045 230.955746,54.5724983 C231.462667,53.7462921 231.929569,52.8801081 232.356451,51.9739464 L232.436491,51.7340801 L232.596571,51.3343029 L232.756652,51.0944365 C232.703292,50.9878293 232.689952,50.9078738 232.716632,50.8545702 C232.743312,50.8012666 232.756652,50.7213111 232.756652,50.6147039 L232.756652,50.454793 L232.763055,50.4483966 L232.859104,50.35245 C232.876179,50.3353929 232.895389,50.3162036 232.916733,50.2948821 C233.396974,49.0688987 233.917236,47.722982 234.477518,46.2571322 C235.0378,44.7912825 235.611422,43.4453658 236.198384,42.2193824 L237.87923,38.3015657 L238.039311,38.0616994 C238.359472,37.5819667 239.026475,37.248819 240.040318,37.0622563 C241.054162,36.8756936 242.081346,36.82239 243.121869,36.9023454 C244.162393,36.9823009 245.042836,37.1688636 245.763199,37.4620335 C246.483561,37.7552035 246.763702,38.1683066 246.603622,38.7013429 C246.336821,39.5008973 245.97664,40.4337108 245.523078,41.4997834 C245.069516,42.565856 244.602615,43.6585804 244.122373,44.7779566 C243.37533,46.4836727 242.668308,48.1360852 242.001305,49.735194 C241.334303,51.3343029 240.867401,52.6402418 240.6006,53.6530107 C240.066998,55.2521196 239.640117,56.6913175 239.319956,57.9706046 C238.999794,59.2498917 238.919754,60.0227943 239.079835,60.2893125 C239.399996,60.2360088 239.960278,59.8895352 240.760681,59.2498917 C241.561084,58.6102482 242.494887,57.7307383 243.562091,56.6113621 C244.362494,55.9184149 245.096196,55.0655569 245.763199,54.0527879 C246.186147,53.4105881 246.582276,52.7898209 246.951586,52.1904864 C246.987881,52.0711863 247.032891,51.9449685 247.083863,51.8140355 C247.190584,51.5475174 247.337324,51.2809992 247.524085,51.0144811 C247.710846,50.747963 247.884266,50.4814448 248.044347,50.2149267 C248.311148,49.735194 248.751369,48.9889432 249.365012,47.9761743 C249.978654,46.9634053 250.538936,45.9239846 251.045858,44.857912 C251.55278,43.7918394 251.939641,42.8323741 252.206442,41.9795161 C252.473243,41.126658 252.393203,40.6202735 251.966321,40.4603626 C251.165918,38.6480393 251.059198,37.2088413 251.64616,36.1427687 C252.233122,35.0766962 253.060205,34.3437713 254.127409,33.9439941 C255.194613,33.5442168 256.341857,33.4642614 257.569141,33.7041277 C258.796426,33.9439941 259.650189,34.4370526 260.13043,35.1833034 C260.343871,35.6630361 260.704052,36.1427687 261.210974,36.6225014 C261.717896,37.102234 262.238158,37.541989 262.77176,37.9417662 C263.305362,38.3415434 263.798943,38.6613652 264.252505,38.9012315 C264.706067,39.1410978 265.012888,39.2876828 265.172968,39.3409864 C266.453613,39.6608082 267.427437,40.0472595 268.094439,40.5003404 C268.761441,40.9534212 269.201663,41.4331539 269.415104,41.9395383 C269.628544,42.4459228 269.668565,42.9656332 269.535164,43.4986695 C269.401764,44.0317058 269.148303,44.564742 268.774781,45.0977783 L268.854822,45.0178229 C268.214499,46.1371991 267.587517,47.3098789 266.973875,48.5358624 C266.360233,49.7618458 265.813291,50.9745034 265.333049,52.173835 C264.852807,53.3731667 264.465946,54.5191947 264.172465,55.6119191 C263.878984,56.7046434 263.732243,57.6774347 263.732243,58.5302927 C263.732243,59.9161871 264.345885,60.5824824 265.57317,60.5291788 C266.320213,60.5291788 267.107275,60.2759866 267.934358,59.7696021 C268.761441,59.2632176 269.588524,58.5969223 270.415607,57.770716 C271.24269,56.9445098 272.056433,55.9850445 272.856836,54.8923201 C273.207606,54.413442 273.553253,53.926886 273.893775,53.4326521 L274.09746,52.9334117 C274.390942,52.1871609 274.724443,51.4675619 275.097964,50.7746148 C275.471485,50.0816676 275.938387,49.4420241 276.498669,48.8556841 C277.058951,48.2693442 277.792654,47.8162634 278.699777,47.4964416 C279.6069,46.2704582 280.447323,45.0977783 281.221046,43.9784021 C281.994769,42.8590259 282.648431,41.8729088 283.182033,41.0200507 C283.182033,39.9006745 283.368794,38.9145574 283.742315,38.0616994 C284.115836,37.2088413 284.729479,36.4759164 285.583242,35.8629247 C286.437005,35.249933 287.570909,34.810178 288.984954,34.5436599 C290.398999,34.2771417 292.199905,34.1705345 294.387673,34.2238381 C293.58727,35.822947 293.040328,37.1821895 292.746847,38.3015657 C292.453366,39.4209419 292.306626,40.4337108 292.306626,41.3398725 C292.306626,42.8856777 292.506727,44.4048312 292.906928,45.8973328 C293.307129,47.3898344 293.774031,48.8023805 294.307633,50.1349712 C294.894595,51.6807765 295.361497,53.1333003 295.708338,54.4925429 C296.055179,55.8517854 296.041839,57.1443984 295.668318,58.3703818 L295.668318,58.4503373 C295.614958,58.5036409 295.588278,58.5835963 295.588278,58.6902036 C295.534917,58.9034181 295.521577,59.0100254 295.548257,59.0100254 C295.574938,59.0100254 295.614958,58.9700477 295.668318,58.8900922 C295.721678,58.8101368 295.775038,58.7168554 295.828398,58.6102482 C295.881759,58.5036409 295.908439,58.4503373 295.908439,58.4503373 C297.029003,57.490872 298.162907,56.3848217 299.310151,55.1321864 C300.10392,54.2654982 300.865758,53.4051893 301.595667,52.5512597 C301.840596,51.5450442 302.160285,50.5529904 302.551783,49.5752831 C303.138745,48.0294779 303.952488,46.3903913 304.993011,44.6580234 C306.033535,42.9256555 307.247479,41.3398725 308.634844,39.9006745 C310.022209,38.4614766 311.556315,37.2621449 313.237161,36.3026796 C314.918007,35.3432143 316.692233,34.8634817 318.55984,34.8634817 C320.267366,34.8634817 321.45463,35.3565402 322.121633,36.3426573 C322.788635,37.3287745 323.122136,38.5147802 323.122136,39.9006745 C323.122136,40.9134435 322.988736,41.9128865 322.721935,42.8990037 C322.455134,43.8851208 322.188333,44.6980011 321.921532,45.3376447 C320.640888,48.0561297 319.040082,50.5614003 317.119115,52.8534563 C315.198148,55.1455123 312.663539,57.3309611 309.515288,59.4098026 C310.04889,60.4225715 310.982693,60.928956 312.316698,60.928956 C313.277181,60.928956 314.237665,60.6491119 315.198148,60.0894239 C316.158631,59.5297358 317.119115,58.8101368 318.079598,57.9306269 C319.040082,57.051117 319.960545,56.051674 320.840988,54.9322978 C321.184115,54.4960534 321.517112,54.055761 321.839978,53.6114207 C321.937954,53.3883977 322.031673,53.1621568 322.121633,52.9334117 C322.415114,52.1871609 322.748615,51.4675619 323.122136,50.7746148 C323.495658,50.0816676 323.962559,49.4420241 324.522841,48.8556841 C325.083124,48.2693442 325.816826,47.8162634 326.723949,47.4964416 C327.631073,46.2704582 328.471496,45.0977783 329.245218,43.9784021 C330.018941,42.8590259 330.672604,41.8729088 331.206205,41.0200507 C331.206205,39.9006745 331.392966,38.9145574 331.766487,38.0616994 C332.140009,37.2088413 332.753651,36.4759164 333.607414,35.8629247 C334.461177,35.249933 335.595081,34.810178 337.009126,34.5436599 C338.423171,34.2771417 340.224078,34.1705345 342.411846,34.2238381 C341.611443,35.822947 341.064501,37.1821895 340.77102,38.3015657 C340.477539,39.4209419 340.330798,40.4337108 340.330798,41.3398725 C340.330798,42.8856777 340.530899,44.4048312 340.9311,45.8973328 C341.331302,47.3898344 341.798204,48.8023805 342.331805,50.1349712 C342.918768,51.6807765 343.385669,53.1333003 343.73251,54.4925429 C344.079352,55.8517854 344.066012,57.1443984 343.69249,58.3703818 L343.69249,58.4503373 C343.63913,58.5036409 343.61245,58.5835963 343.61245,58.6902036 C343.55909,58.9034181 343.54575,59.0100254 343.57243,59.0100254 C343.59911,59.0100254 343.63913,58.9700477 343.69249,58.8900922 C343.745851,58.8101368 343.799211,58.7168554 343.852571,58.6102482 C343.905931,58.5036409 343.932611,58.4503373 343.932611,58.4503373 C345.053175,57.490872 346.187079,56.3848217 347.334323,55.1321864 C348.481568,53.8795511 349.562111,52.6402418 350.575955,51.4142583 C350.842756,51.0944365 351.269638,50.9478516 351.8566,50.9745034 C352.443562,51.0011552 352.990504,51.1210884 353.497426,51.3343029 C354.004347,51.5475174 354.417889,51.8273614 354.73805,52.173835 C355.058211,52.5203086 355.084891,52.8801081 354.81809,53.2532335 C351.776559,57.6774347 348.521588,61.0488892 345.053175,63.367597 C341.584763,65.6863048 338.16971,66.8456588 334.808018,66.8456588 L333.407313,66.8456588 C332.953752,66.8456588 332.51353,66.7923551 332.086649,66.6857479 C328.885037,66.5791406 326.363768,65.6996308 324.522841,64.0472183 C323.465433,63.09809 322.694101,61.9027562 322.208847,60.461217 C321.599653,61.1033152 320.969662,61.7119783 320.320726,62.2881985 C318.880001,63.5674856 317.345896,64.6202323 315.71841,65.4464385 C314.090924,66.2726448 312.423418,66.6857479 310.715892,66.6857479 C307.3542,66.7390515 304.886291,65.9261712 303.312165,64.2471069 C302.239724,63.1031711 301.532606,61.6808938 301.190812,59.9802751 C299.840005,61.2870255 298.45248,62.4159724 297.029003,63.367597 C293.56059,65.6863048 290.145538,66.8456588 286.783846,66.8456588 L285.383141,66.8456588 C284.929579,66.8456588 284.489358,66.7923551 284.062476,66.6857479 C280.860865,66.5791406 278.339596,65.6996308 276.498669,64.0472183 C275.478484,63.1315017 274.724589,61.9866086 274.236985,60.6125391 C273.765414,61.1250643 273.278657,61.6170603 272.776796,62.0883099 C271.442791,63.3409452 270.028746,64.36704 268.53466,65.1665945 C267.040575,65.9661489 265.439769,66.3659261 263.732243,66.3659261 C262.078077,66.3659261 260.690712,66.1793634 259.570148,65.806238 C258.449584,65.4331126 257.542461,64.9134022 256.848779,64.2471069 C256.155096,63.5808115 255.661514,62.7812571 255.368033,61.8484436 C255.074552,60.9156301 254.927812,59.9161871 254.927812,58.8501145 C254.927812,57.7307383 255.061212,56.5847103 255.328013,55.4120304 C255.594814,54.2393506 255.954995,53.0666708 256.408557,51.893991 C256.862119,50.7213111 257.3557,49.6019349 257.889302,48.5358624 C258.422904,47.4697898 258.956506,46.4836727 259.490108,45.577511 C258.476264,45.3109928 257.595821,44.9645193 256.848779,44.5380902 L256.688698,44.7779566 C256.368537,45.3109928 255.995015,45.9373105 255.568134,46.6569095 C255.141252,47.3765084 254.60765,48.3492997 253.967328,49.5752831 L252.501131,51.7952805 C252.486491,52.2954134 252.281541,52.8613531 251.886281,53.4930998 C251.352679,54.2393506 250.725697,55.1455123 250.005334,56.2115849 C249.284971,57.2776574 248.551269,58.2637746 247.804226,59.1699363 C245.829899,61.355385 243.948952,63.1010789 242.161386,64.4070178 C240.373819,65.7129567 238.786354,66.3925779 237.398989,66.4458816 C235.584742,66.5524888 234.210717,66.2459929 233.276914,65.526394 C232.343111,64.806795 231.689448,63.8340038 231.315927,62.6080203 L230.835685,63.3276193 L230.835685,62.4481094 C229.555041,63.7273965 228.234376,64.7135136 226.873691,65.4064608 C225.513006,66.099408 224.112301,66.4458816 222.671576,66.4458816 C221.17749,66.4458816 219.950206,66.2726448 218.989723,65.9261712 C218.029239,65.5796976 217.255516,65.086639 216.668554,64.4469955 C216.081592,63.8073519 215.668051,63.0477752 215.42793,62.1682654 C215.216308,61.3931418 215.097939,60.5455653 215.072822,59.6255361 C214.214958,60.249426 213.332612,60.7767572 212.426419,61.2088 C211.252495,61.7684881 210.105251,62.074984 208.984687,62.1282876 C208.344364,62.2348949 207.730722,62.2482208 207.14376,62.1682654 C206.556798,62.0883099 206.049876,61.9950286 205.622995,61.8884213 C204.022189,63.3809229 202.408043,64.5669286 200.780557,65.4464385 C199.153071,66.3259484 197.565606,66.7657033 196.01816,66.7657033 C193.937113,66.7657033 192.349647,66.0327784 191.255763,64.5669286 C190.600212,63.6884634 190.141093,62.6424904 189.878406,61.4290096 L189.805,61.06 L189.748882,61.1223176 C188.638119,62.3069636 187.419546,63.4818191 186.093165,64.6468841 C184.545719,66.0061266 182.904893,67.245436 181.170687,68.3648122 C179.436481,69.4841884 177.622234,70.3903501 175.727947,71.0832972 C173.83366,71.7762444 171.899354,72.122718 169.925026,72.122718 C164.855808,72.1760216 161.000534,70.5902387 158.359205,67.3653691 C155.717875,64.1404996 154.397211,59.8095798 154.397211,54.3726097 C154.397211,52.3470718 154.597311,50.161623 154.997513,47.8162634 C155.397714,45.4709037 156.024697,43.0189368 156.87846,40.4603626 C158.852787,34.7035708 161.187295,29.6397261 163.881985,25.2688285 C166.576674,20.897931 169.471465,17.2599583 172.566356,14.3549106 C175.661247,11.4498628 178.902879,9.26441405 182.291251,7.79856427 C185.679623,6.33271448 189.027975,5.59978959 192.336307,5.59978959 Z M284.222557,47.7363079 L283.262073,48.8556841 C282.35495,50.028364 281.527867,51.174392 280.780824,52.2937682 C280.033782,53.4131444 279.180019,54.5858242 278.219535,55.8118077 C278.112815,56.5580585 278.192855,57.2510056 278.459656,57.8906492 C278.726457,58.5302927 279.099978,59.0766549 279.58022,59.5297358 C280.060462,59.9828166 280.620744,60.3292902 281.261066,60.5691565 C281.901388,60.8090228 282.541711,60.928956 283.182033,60.928956 C283.982436,60.8756524 284.649438,60.4892011 285.18304,59.7696021 C285.716642,59.0500031 285.956763,58.1038637 285.903403,56.9311839 C285.956763,56.3981476 285.903403,55.7052004 285.743322,54.8523423 C285.583242,53.9994843 285.369801,53.0933226 285.103,52.1338573 C284.782839,50.8012666 284.489358,49.3354168 284.222557,47.7363079 Z M332.246729,47.7363079 L331.286246,48.8556841 C330.379123,50.028364 329.55204,51.174392 328.804997,52.2937682 C328.057954,53.4131444 327.204191,54.5858242 326.243708,55.8118077 C326.136987,56.5580585 326.217028,57.2510056 326.483829,57.8906492 C326.750629,58.5302927 327.124151,59.0766549 327.604393,59.5297358 C328.084634,59.9828166 328.644916,60.3292902 329.285239,60.5691565 C329.925561,60.8090228 330.565883,60.928956 331.206205,60.928956 C332.006608,60.8756524 332.673611,60.4892011 333.207213,59.7696021 C333.740815,59.0500031 333.980935,58.1038637 333.927575,56.9311839 C333.980935,56.3981476 333.927575,55.7052004 333.767495,54.8523423 C333.607414,53.9994843 333.393973,53.0933226 333.127172,52.1338573 C332.807011,50.8012666 332.51353,49.3354168 332.246729,47.7363079 Z M198.65949,52.3737236 C198.232608,53.5997071 197.885767,54.759061 197.618966,55.8517854 C197.352165,56.9445098 197.218764,57.8639974 197.218764,58.6102482 C197.218764,59.8362316 197.458885,60.4492233 197.939127,60.4492233 C198.73953,60.4492233 199.780054,59.8628834 201.060698,58.6902036 C200.367016,57.7840419 199.833414,56.8112507 199.459892,55.7718299 C199.086371,54.7324092 198.81957,53.5997071 198.65949,52.3737236 Z M317.679397,41.0200507 C316.825634,41.0733544 315.971871,41.5264352 315.118108,42.3792933 C314.264345,43.2321513 313.463942,44.2449203 312.716899,45.4176001 C311.969856,46.5902799 311.316194,47.7762857 310.755912,48.9756173 C310.19563,50.1749489 309.782089,51.1210884 309.515288,51.8140355 L309.515288,51.7340801 C309.408567,52.1072055 309.288507,52.5469604 309.155106,53.0533449 C309.021706,53.5597294 308.928326,54.0261361 308.874965,54.4525651 C310.689212,53.0133672 312.183297,51.5341915 313.357221,50.0150381 C314.531146,48.4958846 315.571669,46.6169317 316.478793,44.3781793 C316.532153,44.2182685 316.652213,43.9517503 316.838974,43.5786249 C317.025735,43.2054995 317.199155,42.8323741 317.359236,42.4592487 C317.519316,42.0861233 317.639377,41.7529756 317.719417,41.4598057 C317.799457,41.1666357 317.786117,41.0200507 317.679397,41.0200507 Z M207.944163,40.8601399 C207.624002,41.0200507 207.303841,41.3798502 206.98368,41.9395383 C206.663518,42.4992264 206.383377,43.1921736 206.143256,44.0183799 C205.903136,44.8445861 205.716375,45.7507478 205.582974,46.7368649 C205.449574,47.722982 205.382874,48.7224251 205.382874,49.735194 C205.382874,50.747963 205.462914,51.7340801 205.622995,52.6935454 C205.943156,52.1605091 206.343357,51.3076511 206.823599,50.1349712 C207.517281,48.4825587 207.997523,47.0833385 208.264324,45.9373105 C208.531125,44.7912825 208.664526,43.8451431 208.664526,43.0988923 C208.664526,42.2460342 208.584485,41.6730202 208.424405,41.3798502 C208.264324,41.0866803 208.104244,40.9134435 207.944163,40.8601399 Z" transform="translate(-1 -1)"/></svg>