<?xml version="1.0" encoding="UTF-8"?>
<svg width="27px" height="22px" viewBox="0 0 27 22" version="1.1" xmlns="http://www.w3.org/2000/svg" xmlns:xlink="http://www.w3.org/1999/xlink">
    <title>ic_allbooks_notselected</title>
    <g id="icon" stroke="none" stroke-width="1" fill="none" fill-rule="evenodd">
        <g id="Artboard" transform="translate(-25.000000, -64.000000)" fill="#000000" fill-rule="nonzero">
            <path d="M47.704743,64.0027326 C48.1689775,63.9645836 48.5632545,64.3308036 48.5632545,64.7925547 L48.5632545,64.7925547 L48.5632545,67.9248957 C48.9451938,67.9164548 49.2966951,67.9123202 49.609898,67.9108936 L50.130603,67.910905 C50.765199,67.913899 51.1520301,67.9269669 51.182433,67.9280131 C51.6091525,67.9429134 51.9474741,68.2931235 51.9474741,68.7201072 L51.9474741,68.7201072 L51.9474741,83.1538575 C51.9474741,83.5709605 51.6242114,83.9166794 51.2081123,83.9446307 C48.0543191,84.1569337 42.7741672,84.1807636 38.7846885,85.882305 C38.8375265,85.8597431 38.5183323,86.0341613 38.1627856,85.882305 C34.1732012,84.1807107 28.8920982,84.156828 25.7393618,83.9446307 C25.3232099,83.9166794 25,83.5709605 25,83.1538575 L25,83.1538575 L25,68.7201072 C25,68.2709844 25.3727719,67.9139054 25.8160826,67.9279074 C26.6950423,67.9537452 27.5160916,67.9768354 28.3841139,68.009595 L28.3841139,68.009595 L28.3841139,64.7925547 C28.3841139,64.3295883 28.7792363,63.9650063 29.2426254,64.0027326 C32.2888405,64.2570418 36.1644533,65.6030893 38.4736842,68.0582059 C40.7829152,65.6030893 44.658528,64.2570418 47.704743,64.0027326 Z M26.5851393,69.5363483 L26.5851393,82.4080494 C28.982187,82.5428391 32.2577189,82.6556482 35.3870481,83.3574951 C33.193638,81.7699252 30.8402345,81.0326241 29.0304809,80.6929287 C28.6557011,80.6226013 28.3841139,80.2953229 28.3841139,79.9139912 L28.3841139,79.9139912 L28.3841139,69.5959495 C27.7596747,69.5721196 27.152672,69.5531508 26.5851393,69.5363483 L26.5851393,69.5363483 Z M50.3622291,69.4980936 C49.9140045,69.4940251 49.2926828,69.4942364 48.5632017,69.5105634 L48.5632017,69.5105634 L48.5632017,79.9139912 C48.5632017,80.2953229 48.2916144,80.6226013 47.9168347,80.6929287 C46.107134,81.0326241 43.7536776,81.7699252 41.5602675,83.3574951 C44.6908648,82.6553312 47.9690914,82.5426278 50.3622291,82.4080494 L50.3622291,82.4080494 Z M46.9781152,65.6839842 C44.2845936,66.0921048 41.0003963,67.3962517 39.2662539,69.5599669 L39.2662539,69.5599669 L39.2662539,83.1835524 C41.7960305,80.8702529 44.6925556,79.7792544 46.9781152,79.2679941 L46.9781152,79.2679941 Z M29.9692533,65.6839842 L29.9692533,79.2679941 C32.2548128,79.7792544 35.1513379,80.8702529 37.6811146,83.1835524 L37.6811146,83.1835524 L37.6811146,69.5599669 C35.9469721,67.3962517 32.6627748,66.0921048 29.9692533,65.6839842 L29.9692533,65.6839842 Z M32.7173015,74.7100896 L32.8245119,74.7209163 C33.8772557,74.8988218 34.9819393,75.504028 35.5467245,75.8489015 C35.920289,76.0771087 36.0381705,76.564856 35.8100161,76.9384205 C35.5821259,77.3115623 35.094537,77.4300251 34.720497,77.2017122 C34.3442378,76.971867 33.3805259,76.4224577 32.5604277,76.2838637 C32.1287942,76.2109473 31.8380268,75.8019813 31.9109432,75.3703479 C31.9839125,74.9387145 32.3930898,74.6477886 32.8245119,74.7209163 Z M44.1228566,74.7209692 C44.5543315,74.6475772 44.9634559,74.9387673 45.0364252,75.3704007 C45.1092888,75.8020342 44.8185214,76.2110001 44.3869408,76.2839165 C43.5668425,76.4225105 42.6031307,76.9719198 42.2268714,77.201765 C41.8532541,77.4298666 41.3655067,77.311985 41.1373523,76.9384734 C40.9091979,76.5649089 41.0270795,76.0771087 41.400644,75.8489543 C41.9654291,75.504028 43.0701127,74.8988218 44.1228566,74.7209692 Z M32.7173015,70.2313629 L32.8245119,70.2422108 C33.9539236,70.4330616 35.0122155,70.9580069 35.6260871,71.3856775 C35.9852268,71.6358653 36.0735191,72.1299004 35.8233313,72.4890402 C35.5730378,72.8482856 35.0790027,72.9364193 34.7199686,72.6862843 C34.2687323,72.3718984 33.4324128,71.9525233 32.5604277,71.8051582 C32.1287942,71.7322418 31.8380268,71.323223 31.9109432,70.8916424 C31.9839125,70.4600618 32.3930898,70.1689774 32.8245119,70.2422108 Z M44.1228566,70.2422108 C44.5543315,70.1688189 44.9635088,70.460009 45.0364252,70.8916424 C45.1092888,71.323223 44.8185214,71.7322418 44.3869408,71.8051582 C43.5149556,71.9525233 42.6786361,72.3718984 42.2273998,72.6862843 C41.8685771,72.9363136 41.3743835,72.8483912 41.1240372,72.4890402 C40.8738493,72.1299004 40.9621416,71.6358653 41.3212813,71.3856775 C41.9351529,70.9580069 42.9934448,70.4330088 44.1228566,70.2422108 Z" id="ic_allbooks_notselected"></path>
        </g>
    </g>
</svg>