<?xml version="1.0" encoding="UTF-8"?>
<svg width="300px" height="76px" viewBox="0 0 300 76" version="1.1" xmlns="http://www.w3.org/2000/svg" xmlns:xlink="http://www.w3.org/1999/xlink">
    <title>APCircle Copy 2</title>
    <g id="icon" stroke="none" stroke-width="1" fill="none" fill-rule="evenodd">
        <g id="Artboard" transform="translate(-215.000000, -395.000000)" fill="#FF6B21" fill-rule="nonzero">
            <path d="M221.038229,471 C224.130655,471 227.316387,470.267075 230.595425,468.801225 C233.874463,467.335376 237.18016,465.363141 240.512516,462.884523 C243.844872,460.405904 247.190557,457.514182 250.549572,454.209357 C253.908587,450.904532 257.214284,447.386493 260.466663,443.655239 C262.972595,443.548631 265.39855,443.402046 267.744528,443.215484 C270.090507,443.028921 272.489803,442.855684 274.942417,442.695773 C275.209005,442.695773 275.475594,442.682447 275.742182,442.655796 C276.008771,442.629144 276.275359,442.589166 276.541948,442.535862 C276.48863,442.749077 276.461971,442.962291 276.461971,443.175506 L276.461971,443.175506 L276.461971,443.815149 C276.355336,444.721311 276.275359,445.667451 276.222042,446.653568 C276.168724,447.639685 276.142065,448.532521 276.142065,449.332075 C276.142065,452.530293 276.461971,455.2088 277.101783,457.367597 C277.741596,459.526394 278.594679,461.272088 279.661033,462.604679 C280.727387,463.937269 281.940364,464.91006 283.299965,465.523052 C284.659567,466.136044 286.032497,466.495843 287.418757,466.602451 C288.27184,466.602451 289.111594,466.522495 289.938018,466.362584 C290.764442,466.202673 291.950761,465.749593 293.496974,465.003342 C292.323985,464.150484 291.257631,463.177693 290.297913,462.084968 C289.338194,460.992244 288.51177,459.726283 287.81864,458.287085 C287.12551,456.847887 286.592333,455.235452 286.219109,453.44978 C285.845885,451.664109 285.659273,449.625245 285.659273,447.333189 L285.659273,447.333189 L285.659273,444.934526 C285.659273,444.081668 285.712591,443.202158 285.819226,442.295996 L285.819226,442.295996 L288.538429,442.295996 C288.27184,441.389834 287.951934,440.616932 287.57871,439.977288 C287.205486,439.337645 286.698968,438.83126 286.059156,438.458135 C286.645651,433.554201 287.672016,427.810735 289.138253,421.227737 C290.604489,414.644739 292.617232,406.902387 295.176482,398.000681 C295.176482,397.520948 294.843246,397.054541 294.176775,396.60146 C293.510304,396.14838 292.763856,395.775254 291.937432,395.482084 C291.111007,395.188914 290.297913,395.029003 289.498147,395.002352 C288.698382,394.9757 288.165205,395.175588 287.898616,395.602017 L287.898616,395.602017 L287.418757,397.361037 L285.73925,399.839656 L285.73925,399.839656 L285.237252,400.592178 C283.950432,402.520515 282.424928,404.801597 280.66074,407.435423 C278.661326,410.420426 276.421983,413.63197 273.94271,417.070054 C271.463437,420.508138 268.810882,424.066155 265.985044,427.744105 C263.159207,431.422056 260.226733,434.993399 257.187625,438.458135 C256.38786,438.511438 255.6814,438.53809 255.068247,438.53809 L255.068247,438.53809 L253.028845,438.53809 C251.002773,438.53809 248.950041,438.444809 246.870651,438.258246 C244.791261,438.071683 242.631895,437.685232 240.392552,437.098892 C240.232598,438.378179 240.43254,439.444252 240.992376,440.29711 C241.552211,441.149968 242.365306,441.842915 243.43166,442.375951 C244.498014,442.908988 245.804297,443.282113 247.350511,443.495328 C248.896724,443.708542 250.60289,443.841801 252.469009,443.895105 C249.803124,446.773501 247.150569,449.438682 244.511343,451.890649 C241.872118,454.342616 239.259551,456.488087 236.673642,458.327062 C234.087734,460.166038 231.581803,461.605235 229.155848,462.644656 C226.729893,463.684077 224.423902,464.203787 222.237877,464.203787 C221.384794,464.203787 220.398416,463.937269 219.278745,463.404233 C218.159073,462.871197 217.066061,462.231553 215.999707,461.485302 C215.199941,462.604679 214.880035,463.737381 215.039988,464.883409 C215.199941,466.029437 215.599824,467.055531 216.239636,467.961693 C216.879449,468.867855 217.652555,469.60078 218.558956,470.160468 C219.465357,470.720156 220.291781,471 221.038229,471 Z M265.265256,438.218268 C268.517635,434.2738 271.490096,430.52922 274.18264,426.984529 C276.875183,423.439837 279.421103,419.988428 281.820399,416.630299 C280.913999,419.721909 280.060915,422.960105 279.26115,426.344885 C278.461385,429.729666 277.768255,433.420942 277.18176,437.418714 C275.7955,437.472018 274.435899,437.538647 273.102956,437.618603 C271.770014,437.698558 270.197142,437.791839 268.384341,437.898447 L268.384341,437.898447 L265.265256,438.218268 Z M297.815707,465.403119 C298.348884,465.56303 299.108661,465.616334 300.095039,465.56303 C301.081416,465.509726 302.081123,465.403119 303.094159,465.243208 C304.107195,465.083297 305.013596,464.870083 305.813361,464.603565 C306.613127,464.337046 307.092986,464.043876 307.252939,463.724055 C307.946069,461.485302 308.812482,458.833447 309.852177,455.768488 C310.891872,452.70353 312.024873,449.438682 313.25118,445.973946 L313.25118,445.973946 L315.970382,438.138313 C318.263043,438.085009 320.808963,437.871795 323.608142,437.498669 C326.407321,437.125544 329.246488,436.592508 332.125643,435.899561 C335.004799,435.206613 337.857295,434.327104 340.683133,433.261031 C343.508971,432.194958 346.121538,430.915671 348.520834,429.42317 C350.92013,427.930668 353.026179,426.211626 354.838981,424.266044 C356.651782,422.320461 357.984724,420.121687 358.837808,417.66972 C359.264349,416.123914 359.47762,414.844627 359.47762,413.831858 C359.47762,411.433195 358.77116,409.36768 357.358242,407.635312 C355.945323,405.902944 354.065874,404.477072 351.719895,403.357695 C349.373917,402.238319 346.641385,401.412113 343.5223,400.879077 C340.403215,400.34604 337.137506,400.106174 333.725174,400.159478 C330.686065,400.159478 327.593639,400.359366 324.447895,400.759144 C321.302151,401.158921 318.276372,401.705283 315.370558,402.39823 C312.464744,403.091177 309.78553,403.917384 307.332916,404.876849 C304.880302,405.836314 302.880888,406.875735 301.334675,407.995111 L301.334675,407.995111 L301.414652,407.915156 C300.348298,408.608103 299.628509,409.314376 299.255285,410.033975 C298.882061,410.753574 298.775426,411.393217 298.935379,411.952906 C299.095332,412.512594 299.468556,412.912371 300.055051,413.152237 C300.641545,413.392103 301.414652,413.352126 302.37437,413.032304 C303.973901,412.019535 305.893338,411.06007 308.132681,410.153908 C310.372024,409.247746 312.797979,408.448192 315.410546,407.755245 L315.410546,407.755245 L313.411133,414.711368 C312.611367,417.536461 311.744955,420.494812 310.811895,423.586422 C309.878836,426.678033 308.879129,429.929554 307.812775,433.340986 L307.812775,433.340986 L306.613127,433.261031 C306.506491,433.261031 306.386527,433.247705 306.253232,433.221053 C306.119938,433.194401 305.999973,433.181076 305.893338,433.181076 C305.306843,433.181076 304.733678,433.39429 304.173842,433.820719 C303.614007,434.247148 303.214124,434.726881 302.974194,435.259917 C302.734265,435.792953 302.707606,436.299338 302.894218,436.77907 C303.08083,437.258803 303.627336,437.525321 304.533737,437.578625 L304.533737,437.578625 L304.45376,437.578625 L306.453174,437.898447 C305.653408,440.616932 304.840314,443.295439 304.013889,445.933969 C303.187465,448.572498 302.401029,451.077769 301.654581,453.44978 C300.908134,455.821792 300.201674,458.033892 299.535203,460.086082 C298.868732,462.138272 298.295567,463.910617 297.815707,465.403119 Z M317.729866,433.340986 C319.436032,428.170534 320.995575,423.413186 322.408494,419.06894 C323.821412,414.724694 325.03439,410.873507 326.047426,407.515378 C325.940791,406.822431 325.434273,406.316047 324.527872,405.996225 C327.460345,405.6231 330.392818,405.463189 333.325291,405.516492 C334.871504,405.569796 336.604329,405.756359 338.523766,406.07618 C340.443203,406.396002 342.229346,406.902387 343.882195,407.595334 C345.535043,408.288281 346.921303,409.221095 348.040975,410.393774 C349.160646,411.566454 349.720482,413.005652 349.720482,414.711368 C349.720482,415.670834 349.560529,416.656951 349.240623,417.66972 C348.227587,420.015079 346.574738,422.107247 344.282077,423.946222 C341.989416,425.785197 339.376849,427.37098 336.444376,428.703571 C333.511903,430.036161 330.406148,431.088908 327.127109,431.861811 C323.848071,432.634713 320.715657,433.127772 317.729866,433.340986 Z M383.42203,466.124018 L383.790488,466.122718 C385.763243,466.122718 387.696009,465.776244 389.588787,465.083297 C391.481565,464.39035 393.294367,463.484188 395.027192,462.364812 C396.760017,461.245436 398.399536,460.006127 399.945749,458.646884 C401.491962,457.287642 402.891552,455.915073 404.144518,454.529179 C405.397483,453.143284 406.477167,451.810694 407.383567,450.531407 C408.289968,449.25212 409.009757,448.159395 409.542934,447.253233 C409.916158,446.560286 409.982805,445.960621 409.742875,445.454236 C409.502946,444.947852 409.103063,444.588052 408.543227,444.374838 C407.983392,444.161623 407.370238,444.134971 406.703767,444.294882 C406.037296,444.454793 405.490789,444.827918 405.064248,445.414258 C404.371118,446.640242 403.38474,448.052788 402.105116,449.651897 C400.825491,451.251006 399.332596,452.796811 397.62643,454.289312 C395.920263,455.781814 394.027485,457.074427 391.948095,458.167151 C389.868705,459.259876 387.68268,459.912845 385.390019,460.12606 C382.777452,460.072756 380.858015,459.046661 379.631708,457.047775 C378.405401,455.048889 377.792248,452.610248 377.792248,449.731852 C377.792248,447.439796 378.032177,445.014481 378.512036,442.455907 C378.991896,439.897333 379.605049,437.498669 380.351497,435.259917 C381.89771,431.208841 383.710512,427.397632 385.789902,423.826289 C387.869292,420.254946 390.015329,417.123357 392.228013,414.431524 C394.440697,411.739691 396.586735,409.607546 398.666125,408.035089 C400.745515,406.462632 402.531657,405.6231 404.024553,405.516492 C405.730719,405.409885 406.957026,405.836314 407.703474,406.795779 C408.449921,407.755245 408.823145,408.954576 408.823145,410.393774 C408.823145,411.619758 408.623204,412.939023 408.223321,414.351569 C407.823438,415.764115 407.303591,417.163335 406.663779,418.54923 L406.706966,418.453283 L406.656797,418.539892 C406.134199,419.482617 406.146258,420.21808 406.692976,420.746282 L406.783743,420.82796 C407.450215,421.387648 408.47658,421.667492 409.86284,421.667492 C411.035829,421.667492 412.275466,421.440951 413.581749,420.987871 C414.888033,420.53479 415.754445,419.935124 416.180987,419.188873 C416.874117,417.96289 417.380635,416.683603 417.700541,415.351012 C418.020447,414.018421 418.1804,412.739134 418.1804,411.513151 C418.1804,409.914042 417.927141,408.394888 417.420623,406.95569 C416.914105,405.516492 416.154328,404.250531 415.141292,403.157807 C414.128256,402.065082 412.87529,401.198898 411.382394,400.559255 C409.889499,399.919611 408.156674,399.59979 406.183919,399.59979 C402.878222,399.59979 399.532537,400.332714 396.146864,401.798564 C392.76119,403.264414 389.52214,405.449863 386.429714,408.354911 C383.337288,411.259958 380.444803,414.897931 377.752259,419.268829 C375.059716,423.639726 372.727067,428.703571 370.754312,434.460363 C369.901229,437.018937 369.274746,439.470904 368.874863,441.816263 C368.474981,444.161623 368.275039,446.347072 368.275039,448.37261 C368.275039,453.80958 369.594652,458.1405 372.233878,461.365369 C374.873104,464.590239 378.725307,466.176022 383.790488,466.122718 L383.42203,466.124018 Z M414.741409,428.54366 C416.021034,428.650267 417.26067,428.277142 418.460318,427.424284 C419.659966,426.571426 420.49972,425.505353 420.979579,424.226066 L420.979579,424.226066 L420.979579,424.306021 C421.619392,422.920127 421.592733,421.667492 420.899603,420.548116 C420.206473,419.428739 419.166778,418.815748 417.780518,418.70914 C416.554211,418.602533 415.341233,418.962333 414.141585,419.788539 C412.941937,420.614745 412.102183,421.694144 411.622324,423.026734 L411.622324,423.026734 L411.622324,422.946779 C410.982512,424.385977 410.955853,425.651938 411.542348,426.744662 C412.128842,427.837387 413.195196,428.437053 414.741409,428.54366 Z M409.42924,460.448843 L409.702887,460.445882 C411.089147,460.392578 412.675349,459.699631 414.461491,458.36704 C416.247634,457.034449 418.047106,455.302081 419.859908,453.169936 C420.49972,452.423685 421.139532,451.624131 421.779345,450.771273 C422.419157,449.918415 422.952334,449.11886 423.378876,448.37261 L423.378876,448.37261 L423.298899,448.37261 C423.405534,448.266002 423.49884,448.119417 423.578817,447.932855 C423.658793,447.746292 423.752099,447.599707 423.858735,447.4931 C424.072006,447.066671 424.018688,446.653568 423.698782,446.25379 C423.378876,445.854013 422.965663,445.534191 422.459145,445.294325 C421.952627,445.054459 421.41945,444.934526 420.859615,444.934526 C420.299779,444.934526 419.886567,445.094437 419.619978,445.414258 C419.406707,445.73408 419.220095,446.02725 419.060142,446.293768 C418.900189,446.560286 418.87353,446.640242 418.980166,446.533635 C418.500307,447.279885 417.993788,448.01281 417.460612,448.732409 C416.927435,449.452008 416.34094,450.104978 415.701128,450.691318 C413.56842,452.983374 412.102183,454.182705 411.302418,454.289312 C411.089147,454.076098 411.142465,453.316521 411.462371,452.010582 C411.782277,450.704643 412.208819,449.25212 412.741996,447.653011 C413.061902,446.586938 413.435126,445.50754 413.861667,444.414815 C414.288209,443.322091 414.71475,442.216041 415.141292,441.096664 C415.514516,440.190503 415.87441,439.297667 416.220975,438.418157 C416.56754,437.538647 416.900776,436.645811 417.220682,435.73965 C417.380635,435.419828 417.074058,435.126658 416.300952,434.86014 C415.527845,434.593622 414.634774,434.407059 413.621738,434.300452 C412.608701,434.193845 411.635654,434.193845 410.702594,434.300452 C409.769534,434.407059 409.196369,434.620274 408.983098,434.940095 L408.983098,434.940095 L408.903122,435.179962 L408.503239,436.059472 L408.503239,435.979516 C408.236651,436.61916 407.903415,437.378736 407.503532,438.258246 C407.10365,439.137756 406.703767,440.043918 406.303884,440.976731 C405.904001,441.909545 405.517448,442.855684 405.144224,443.815149 C404.771001,444.774615 404.477753,445.654125 404.264482,446.453679 C403.997894,447.519752 403.757964,448.639128 403.544694,449.811808 C403.331423,450.984487 403.224787,452.103864 403.224787,453.169936 C403.224787,455.302081 403.704647,457.061101 404.664365,458.446995 C405.624084,459.83289 407.303591,460.499185 409.702887,460.445882 L409.42924,460.448843 Z M436.255099,460.365926 C437.961265,460.365926 439.560795,459.966149 441.053691,459.166594 C442.546586,458.36704 443.959505,457.340945 445.292448,456.08831 C446.62539,454.835675 447.851697,453.436454 448.971368,451.890649 C450.09104,450.344844 451.104076,448.799039 452.010477,447.253233 C452.223748,446.880108 452.17043,446.506983 451.850524,446.133857 C451.530618,445.760732 451.090747,445.480888 450.530911,445.294325 C449.971075,445.107762 449.411239,445.014481 448.851404,445.014481 C448.291568,445.014481 447.905015,445.201044 447.691744,445.574169 L447.691744,445.574169 L447.691744,445.494214 C446.945296,446.666894 446.172189,447.799596 445.372424,448.89232 C444.572659,449.985044 443.759564,450.94451 442.93314,451.770716 C442.106715,452.596922 441.280291,453.263218 440.453867,453.769602 C439.627443,454.275987 438.841007,454.529179 438.094559,454.529179 C436.868252,454.582482 436.255099,453.916187 436.255099,452.530293 C436.255099,451.677435 436.401722,450.704643 436.694969,449.611919 C436.988217,448.519195 437.37477,447.373167 437.854629,446.173835 C438.334489,444.974503 438.880995,443.761846 439.494148,442.535862 C440.107302,441.309879 440.733785,440.137199 441.373597,439.017823 L441.373597,439.017823 L441.293621,439.097778 C441.666844,438.564742 441.920103,438.031706 442.053398,437.498669 C442.186692,436.965633 442.146704,436.445923 441.933433,435.939538 C441.720162,435.433154 441.280291,434.953421 440.61382,434.50034 C439.947349,434.04726 438.974301,433.660808 437.694676,433.340986 C437.534723,433.287683 437.228146,433.141098 436.774946,432.901232 C436.321746,432.661365 435.828557,432.341543 435.29538,431.941766 C434.762203,431.541989 434.242356,431.102234 433.735837,430.622501 C433.229319,430.142769 432.869425,429.663036 432.656154,429.183303 C432.176295,428.437053 431.323212,427.943994 430.096905,427.704128 C428.870598,427.464261 427.724268,427.544217 426.657914,427.943994 C425.59156,428.343771 424.765136,429.076696 424.178641,430.142769 C423.592146,431.208841 423.698782,432.648039 424.498547,434.460363 C424.925089,434.620274 425.005065,435.126658 424.738477,435.979516 C424.471888,436.832374 424.085335,437.791839 423.578817,438.857912 C423.072299,439.923985 422.512463,440.963405 421.89931,441.976174 C421.286156,442.988943 420.846285,443.735194 420.579697,444.214927 C420.419744,444.481445 420.246461,444.747963 420.059849,445.014481 C419.873237,445.280999 419.726614,445.547517 419.619978,445.814036 C419.246754,446.773501 419.193437,447.479774 419.460025,447.932855 C419.726614,448.385936 420.126496,448.66578 420.659673,448.772387 C421.19285,448.878994 421.766015,448.825691 422.379169,448.612476 C422.992322,448.399262 423.485511,448.052788 423.858735,447.573055 L423.858735,447.573055 L426.497961,443.575283 C427.137773,442.3493 427.67095,441.376508 428.097491,440.656909 C428.524033,439.93731 428.897257,439.310993 429.217163,438.777957 L429.217163,438.777957 L429.377116,438.53809 C430.123564,438.964519 431.003306,439.310993 432.016342,439.577511 C431.483165,440.483673 430.949988,441.46979 430.416811,442.535862 C429.883634,443.601935 429.390445,444.721311 428.937245,445.893991 C428.484045,447.066671 428.12415,448.239351 427.857562,449.41203 C427.590973,450.58471 427.457679,451.730738 427.457679,452.850114 C427.457679,453.916187 427.604303,454.91563 427.89755,455.848444 C428.190797,456.781257 428.683986,457.580812 429.377116,458.247107 C430.070246,458.913402 430.976647,459.433113 432.096318,459.806238 C433.21599,460.179363 434.60225,460.365926 436.255099,460.365926 Z M455.824958,460.688208 L456.169257,460.685748 C457.875423,460.685748 459.541601,460.272645 461.167791,459.446439 C462.79398,458.620232 464.326864,457.567486 465.766442,456.288199 C467.20602,455.008911 468.552291,453.569713 469.805257,451.970605 C471.058223,450.371496 472.164565,448.799039 473.124284,447.253233 C473.337554,446.880108 473.284237,446.506983 472.96433,446.133857 C472.644424,445.760732 472.204553,445.467562 471.644718,445.254347 C471.084882,445.041133 470.511717,444.934526 469.925222,444.934526 C469.338727,444.934526 468.938845,445.121088 468.725574,445.494214 C467.979126,446.666894 467.166031,447.812922 466.286289,448.932298 C465.406547,450.051674 464.486817,451.051117 463.527099,451.930627 C462.56738,452.810137 461.607662,453.529736 460.647943,454.089424 C459.688225,454.649112 458.728506,454.928956 457.768788,454.928956 C456.489163,454.928956 455.582762,454.422572 455.049585,453.409803 C454.516409,452.397034 454.24982,451.251006 454.24982,449.971719 C454.24982,449.278771 454.316467,448.572498 454.449761,447.852899 C454.583056,447.1333 454.756338,446.453679 454.969609,445.814036 C455.289515,445.014481 455.742715,444.015038 456.32921,442.815706 C456.915705,441.616375 457.582176,440.443695 458.328624,439.297667 C459.075071,438.151639 459.861507,437.165522 460.687932,436.339316 C461.514356,435.513109 462.327451,435.073354 463.127216,435.020051 C463.233851,435.020051 463.247181,435.166636 463.167204,435.459806 C463.087228,435.752976 462.967263,436.099449 462.80731,436.499226 C462.647357,436.899004 462.474074,437.285455 462.287462,437.65858 C462.10085,438.031706 461.980886,438.298224 461.927568,438.458135 C461.501026,439.524207 461.021167,440.576954 460.48799,441.616375 C459.954813,442.655796 459.34166,443.628587 458.64853,444.534748 C458.328624,444.907874 458.301965,445.307651 458.568553,445.73408 C458.835142,446.160509 459.235024,446.506983 459.768201,446.773501 C460.301378,447.040019 460.874543,447.186604 461.487697,447.213256 C462.10085,447.239908 462.56738,447.040019 462.887286,446.61359 C463.793687,445.494214 464.620111,444.308208 465.366559,443.055573 C466.113007,441.802937 466.779478,440.563628 467.365973,439.337645 C467.632561,438.698001 467.89915,437.885121 468.165738,436.899004 C468.432327,435.912887 468.565621,434.913443 468.565621,433.900675 C468.565621,432.51478 468.232385,431.328774 467.565914,430.342657 C466.899443,429.35654 465.713124,428.863482 464.006958,428.863482 C462.140839,428.863482 460.368025,429.343214 458.688518,430.30268 C457.009011,431.262145 455.476127,432.461477 454.089867,433.900675 C452.703607,435.339873 451.490629,436.925655 450.450934,438.658023 C449.411239,440.390391 448.598145,442.029478 448.01165,443.575283 C447.478473,444.907874 447.07859,446.267116 446.812002,447.653011 C446.545413,449.038905 446.412119,450.29154 446.412119,451.410917 C446.412119,454.289312 447.198555,456.568043 448.771427,458.247107 C450.344299,459.926171 452.810242,460.739052 456.169257,460.685748 L455.824958,460.688208 Z M476.243369,460.285971 C478.05617,460.285971 479.788995,459.899519 481.441844,459.126617 C483.094692,458.353714 484.640905,457.354271 486.080483,456.128288 C487.520061,454.902304 488.879662,453.51641 490.159287,451.970605 C491.438911,450.424799 492.611901,448.878994 493.678254,447.333189 C493.944843,446.960064 493.931513,446.573612 493.638266,446.173835 C493.345019,445.774058 492.945136,445.454236 492.438618,445.21437 C491.9321,444.974503 491.385594,444.85457 490.799099,444.85457 C490.212604,444.85457 489.786063,445.041133 489.519474,445.414258 C488.613073,446.586938 487.693343,447.71964 486.760284,448.812365 C485.827224,449.905089 484.907494,450.87788 484.001093,451.730738 C483.094692,452.583596 482.201621,453.263218 481.321879,453.769602 C480.442137,454.275987 479.629042,454.529179 478.882594,454.529179 L478.882594,454.529179 L478.642665,454.529179 C477.842899,454.68909 477.309722,454.289312 477.043134,453.329847 C476.776546,452.370382 476.723228,451.037791 476.883181,449.332075 L476.883181,449.332075 L477.36304,448.772387 C478.589347,447.439796 480.028925,445.840687 481.681773,443.97506 C483.334622,442.109433 485.067447,439.950636 486.880248,437.498669 C488.69305,435.046703 490.492522,432.28824 492.278665,429.223281 C494.064808,426.158323 495.730986,422.786868 497.277199,419.108918 C497.543787,418.41597 497.863693,417.563112 498.236917,416.550343 C498.610141,415.537575 498.956706,414.484828 499.276612,413.392103 C499.596518,412.299379 499.876436,411.193329 500.116366,410.073953 C500.356295,408.954576 500.47626,407.915156 500.47626,406.95569 C500.47626,405.409885 500.089707,404.130598 499.3166,403.117829 C498.543494,402.10506 497.330516,401.545372 495.677668,401.438765 C493.864866,401.651979 491.945429,402.598119 489.919357,404.277183 C487.893285,405.956247 485.893871,408.115044 483.921116,410.753574 C481.948362,413.392103 480.042254,416.377107 478.202794,419.708583 C476.363333,423.04006 474.750473,426.438167 473.364213,429.902902 C471.977953,433.367638 470.871611,436.77907 470.045187,440.137199 C469.218762,443.495328 468.80555,446.533635 468.80555,449.25212 C468.80555,452.397034 469.378716,454.968934 470.525046,456.96782 C471.671376,458.966706 473.577484,460.072756 476.243369,460.285971 Z M478.402735,440.457021 C478.935912,438.164965 479.589054,435.792953 480.36216,433.340986 C481.135267,430.88902 481.98835,428.490356 482.92141,426.144997 C483.854469,423.799637 484.827517,421.57421 485.840553,419.468717 C486.85359,417.363224 487.879955,415.497597 488.91965,413.871836 C489.959345,412.246075 490.959052,410.953462 491.91877,409.993997 C492.878489,409.034532 493.78489,408.501496 494.637973,408.394888 C495.011197,408.448192 495.091173,408.967902 494.877902,409.954019 C494.664632,410.940137 494.344726,412.046187 493.918184,413.27217 C493.491642,414.498154 493.051771,415.670834 492.598571,416.79021 C492.145371,417.909586 491.838794,418.602533 491.678841,418.869051 C489.172909,424.359325 486.800272,428.783526 484.560929,432.141655 C482.321586,435.499783 480.268854,438.271572 478.402735,440.457021 Z M497.572712,460.688208 L497.917011,460.685748 C499.623177,460.685748 501.289355,460.272645 502.915545,459.446439 C504.541734,458.620232 506.074618,457.567486 507.514196,456.288199 C508.953774,455.008911 510.300045,453.569713 511.553011,451.970605 C512.805977,450.371496 513.912319,448.799039 514.872038,447.253233 C515.085308,446.880108 515.031991,446.506983 514.712084,446.133857 C514.392178,445.760732 513.952307,445.467562 513.392472,445.254347 C512.832636,445.041133 512.259471,444.934526 511.672976,444.934526 C511.086481,444.934526 510.686599,445.121088 510.473328,445.494214 C509.72688,446.666894 508.913785,447.812922 508.034043,448.932298 C507.154301,450.051674 506.234571,451.051117 505.274853,451.930627 C504.315134,452.810137 503.355416,453.529736 502.395697,454.089424 C501.435979,454.649112 500.47626,454.928956 499.516542,454.928956 C498.183599,454.928956 497.25054,454.422572 496.717363,453.409803 C499.863107,451.330961 502.395697,449.145512 504.315134,446.853456 C506.234571,444.5614 507.834102,442.05613 509.113727,439.337645 C509.380315,438.698001 509.646904,437.885121 509.913492,436.899004 C510.180081,435.912887 510.313375,434.913443 510.313375,433.900675 C510.313375,432.51478 509.980139,431.328774 509.313668,430.342657 C508.647197,429.35654 507.460878,428.863482 505.754712,428.863482 C503.888593,428.863482 502.115779,429.343214 500.436272,430.30268 C498.756765,431.262145 497.223881,432.461477 495.837621,433.900675 C494.451361,435.339873 493.238383,436.925655 492.198688,438.658023 C491.158993,440.390391 490.345899,442.029478 489.759404,443.575283 C489.226227,444.907874 488.826344,446.267116 488.559756,447.653011 C488.293167,449.038905 488.159873,450.29154 488.159873,451.410917 C488.159873,454.289312 488.946309,456.568043 490.519181,458.247107 C492.092053,459.926171 494.557996,460.739052 497.917011,460.685748 L497.572712,460.688208 Z M496.077551,448.452565 C496.130868,448.026136 496.224174,447.559729 496.357468,447.053345 C496.490763,446.54696 496.610728,446.107205 496.717363,445.73408 L496.717363,445.73408 L496.717363,445.814036 C496.983951,445.121088 497.397163,444.174949 497.956999,442.975617 C498.516835,441.776286 499.169977,440.59028 499.916425,439.4176 C500.662872,438.24492 501.462638,437.232151 502.315721,436.379293 C503.168804,435.526435 504.021887,435.073354 504.87497,435.020051 C504.981605,435.020051 504.994935,435.166636 504.914958,435.459806 C504.834982,435.752976 504.715017,436.086123 504.555064,436.459249 C504.395111,436.832374 504.221828,437.2055 504.035216,437.578625 C503.848604,437.95175 503.72864,438.218268 503.675322,438.378179 C502.768921,440.616932 501.729226,442.495885 500.556237,444.015038 C499.383248,445.534191 497.890352,447.013367 496.077551,448.452565 Z" id="APCircle-Copy-2"></path>
        </g>
    </g>
</svg>