<svg xmlns="http://www.w3.org/2000/svg" width="21" height="17" viewBox="0 0 21 17"><defs><linearGradient id="a" x1="50%" x2="50%" y1="100%" y2="0%"><stop offset="0%" stop-color="#AAB7C7"/><stop offset="100%" stop-color="#718096"/></linearGradient></defs><path fill="url(#a)" d="M8.04146341,4.10274791 C8.26682927,4.10274791 8.46146341,4.02150538 8.62536585,3.85902031 C8.78926829,3.69653524 8.87121951,3.50019912 8.87121951,3.27001195 C8.87121951,3.04659498 8.78926829,2.85364397 8.62536585,2.6911589 C8.46146341,2.52867384 8.26682927,2.4474313 8.04146341,2.4474313 C7.80926829,2.4474313 7.61292683,2.52867384 7.45243902,2.6911589 C7.29195122,2.85364397 7.21170732,3.04659498 7.21170732,3.27001195 C7.21170732,3.50019912 7.29195122,3.69653524 7.45243902,3.85902031 C7.61292683,4.02150538 7.80926829,4.10274791 8.04146341,4.10274791 Z M10.4897561,4.10274791 C10.715122,4.10274791 10.9097561,4.02150538 11.0736585,3.85902031 C11.237561,3.69653524 11.3195122,3.50019912 11.3195122,3.27001195 C11.3195122,3.04659498 11.237561,2.85364397 11.0736585,2.6911589 C10.9097561,2.52867384 10.715122,2.4474313 10.4897561,2.4474313 C10.2643902,2.4474313 10.0697561,2.52867384 9.90585366,2.6911589 C9.74195122,2.85364397 9.66,3.04659498 9.66,3.27001195 C9.66,3.50019912 9.74195122,3.69653524 9.90585366,3.85902031 C10.0697561,4.02150538 10.2643902,4.10274791 10.4897561,4.10274791 Z M12.9482927,4.10274791 C13.1804878,4.10274791 13.3785366,4.02150538 13.542439,3.85902031 C13.7063415,3.69653524 13.7882927,3.50019912 13.7882927,3.27001195 C13.7882927,3.04659498 13.7063415,2.85364397 13.542439,2.6911589 C13.3785366,2.52867384 13.1804878,2.4474313 12.9482927,2.4474313 C12.7297561,2.4474313 12.5385366,2.52867384 12.3746341,2.6911589 C12.2107317,2.85364397 12.1287805,3.04659498 12.1287805,3.27001195 C12.1287805,3.50019912 12.2107317,3.69653524 12.3746341,3.85902031 C12.5385366,4.02150538 12.7297561,4.10274791 12.9482927,4.10274791 Z M15.2736585,8.40860215 C15.5126829,8.40860215 15.712439,8.32905217 15.8729268,8.16995221 C16.0334146,8.01085225 16.1136585,7.81620868 16.1136585,7.58602151 C16.1136585,7.36937475 16.0334146,7.17811629 15.8729268,7.01224612 C15.712439,6.84637595 15.5126829,6.76344086 15.2736585,6.76344086 C15.055122,6.76344086 14.8639024,6.84637595 14.7,7.01224612 C14.5360976,7.17811629 14.4541463,7.36937475 14.4541463,7.58602151 C14.4541463,7.81620868 14.5360976,8.01085225 14.7,8.16995221 C14.8639024,8.32905217 15.055122,8.40860215 15.2736585,8.40860215 Z M13.4604878,10.4091995 C13.6926829,10.4091995 13.8907317,10.3262644 14.0546341,10.1603943 C14.2185366,9.99452409 14.3004878,9.79988053 14.3004878,9.57646356 C14.3004878,9.35304659 14.2185366,9.16178813 14.0546341,9.00268817 C13.8907317,8.84358821 13.6926829,8.76403823 13.4604878,8.76403823 C13.2419512,8.76403823 13.0507317,8.84358821 12.8868293,9.00268817 C12.7229268,9.16178813 12.6409756,9.35304659 12.6409756,9.57646356 C12.6409756,9.79988053 12.7229268,9.99452409 12.8868293,10.1603943 C13.0507317,10.3262644 13.2419512,10.4091995 13.4604878,10.4091995 Z M7.52926829,10.4091995 C7.75463415,10.4091995 7.94926829,10.3262644 8.11317073,10.1603943 C8.27707317,9.99452409 8.35902439,9.79988053 8.35902439,9.57646356 C8.35902439,9.35304659 8.27707317,9.16178813 8.11317073,9.00268817 C7.94926829,8.84358821 7.75463415,8.76403823 7.52926829,8.76403823 C7.29707317,8.76403823 7.10073171,8.84358821 6.9402439,9.00268817 C6.7797561,9.16178813 6.6995122,9.35304659 6.6995122,9.57646356 C6.6995122,9.79988053 6.7797561,9.99452409 6.9402439,10.1603943 C7.10073171,10.3262644 7.29707317,10.4091995 7.52926829,10.4091995 Z M5.71609756,8.40860215 C5.93463415,8.40860215 6.12585366,8.32905217 6.2897561,8.16995221 C6.45365854,8.01085225 6.53560976,7.81620868 6.53560976,7.58602151 C6.53560976,7.36937475 6.45365854,7.17811629 6.2897561,7.01224612 C6.12585366,6.84637595 5.93463415,6.76344086 5.71609756,6.76344086 C5.48390244,6.76344086 5.28585366,6.84637595 5.12195122,7.01224612 C4.95804878,7.17811629 4.87609756,7.36937475 4.87609756,7.58602151 C4.87609756,7.81620868 4.95804878,8.01085225 5.12195122,8.16995221 C5.28585366,8.32905217 5.48390244,8.40860215 5.71609756,8.40860215 Z M3.21658537,6.37753883 C3.80390244,6.37753883 4.34170732,6.2353644 4.83,5.95101553 C5.31829268,5.66666667 5.70756098,5.28245719 5.99780488,4.7983871 C6.28804878,4.31431701 6.43317073,3.77777778 6.43317073,3.18876941 C6.43317073,2.60653126 6.28804878,2.07506969 5.99780488,1.59438471 C5.70756098,1.11369972 5.31829268,0.72779769 4.83,0.436678614 C4.34170732,0.145559538 3.80390244,0 3.21658537,0 C2.62243902,0 2.08121951,0.145559538 1.59292683,0.436678614 C1.10463415,0.72779769 0.717073171,1.11369972 0.430243902,1.59438471 C0.143414634,2.07506969 0,2.60653126 0,3.18876941 C0,3.77777778 0.143414634,4.31431701 0.430243902,4.7983871 C0.717073171,5.28245719 1.10463415,5.66666667 1.59292683,5.95101553 C2.08121951,6.2353644 2.62243902,6.37753883 3.21658537,6.37753883 Z M3.21658537,4.74253286 C2.78634146,4.74253286 2.41926829,4.59189566 2.11536585,4.29062127 C1.81146341,3.98934687 1.6595122,3.62206292 1.6595122,3.18876941 C1.6595122,2.75547591 1.81146341,2.39157706 2.11536585,2.09707288 C2.41926829,1.8025687 2.78634146,1.65531661 3.21658537,1.65531661 C3.65365854,1.65531661 4.02073171,1.8025687 4.31780488,2.09707288 C4.61487805,2.39157706 4.76341463,2.75547591 4.76341463,3.18876941 C4.76341463,3.62206292 4.61487805,3.98934687 4.31780488,4.29062127 C4.02073171,4.59189566 3.65365854,4.74253286 3.21658537,4.74253286 Z M17.7834146,6.37753883 C18.3843902,6.37753883 18.9273171,6.2353644 19.4121951,5.95101553 C19.8970732,5.66666667 20.2829268,5.28245719 20.5697561,4.7983871 C20.8565854,4.31431701 21,3.77777778 21,3.18876941 C21,2.60653126 20.8565854,2.07506969 20.5697561,1.59438471 C20.2829268,1.11369972 19.8970732,0.72779769 19.4121951,0.436678614 C18.9273171,0.145559538 18.3843902,0 17.7834146,0 C17.1960976,0 16.66,0.145559538 16.175122,0.436678614 C15.6902439,0.72779769 15.3026829,1.11369972 15.012439,1.59438471 C14.7221951,2.07506969 14.5770732,2.60653126 14.5770732,3.18876941 C14.5770732,3.77777778 14.7221951,4.31431701 15.012439,4.7983871 C15.3026829,5.28245719 15.6902439,5.66666667 16.175122,5.95101553 C16.66,6.2353644 17.1960976,6.37753883 17.7834146,6.37753883 Z M17.7834146,4.74253286 C17.3531707,4.74253286 16.9878049,4.59189566 16.6873171,4.29062127 C16.3868293,3.98934687 16.2365854,3.62206292 16.2365854,3.18876941 C16.2365854,2.75547591 16.3868293,2.39157706 16.6873171,2.09707288 C16.9878049,1.8025687 17.3531707,1.65531661 17.7834146,1.65531661 C18.2273171,1.65531661 18.5978049,1.8025687 18.894878,2.09707288 C19.1919512,2.39157706 19.3404878,2.75547591 19.3404878,3.18876941 C19.3404878,3.62206292 19.1919512,3.98934687 18.894878,4.29062127 C18.5978049,4.59189566 18.2273171,4.74253286 17.7834146,4.74253286 Z M10.5,17 C11.0873171,17 11.625122,16.856133 12.1134146,16.568399 C12.6017073,16.2806651 12.9909756,15.894763 13.2812195,15.410693 C13.5714634,14.9266229 13.7165854,14.3934687 13.7165854,13.8112306 C13.7165854,13.2222222 13.5714634,12.6873755 13.2812195,12.2066906 C12.9909756,11.7260056 12.6017073,11.3434886 12.1134146,11.0591398 C11.625122,10.7747909 11.0873171,10.6326165 10.5,10.6326165 C9.91268293,10.6326165 9.37658537,10.7747909 8.89170732,11.0591398 C8.40682927,11.3434886 8.01926829,11.7260056 7.72902439,12.2066906 C7.43878049,12.6873755 7.29365854,13.2222222 7.29365854,13.8112306 C7.29365854,14.3934687 7.43878049,14.9266229 7.72902439,15.410693 C8.01926829,15.894763 8.40682927,16.2806651 8.89170732,16.568399 C9.37658537,16.856133 9.91268293,17 10.5,17 Z M10.5,15.3548387 C10.0697561,15.3548387 9.70439024,15.2058941 9.40390244,14.9080048 C9.10341463,14.6101155 8.95317073,14.2445241 8.95317073,13.8112306 C8.95317073,13.3779371 9.10341463,13.0123457 9.40390244,12.7144564 C9.70439024,12.4165671 10.0697561,12.2676225 10.5,12.2676225 C10.9370732,12.2676225 11.3058537,12.4165671 11.6063415,12.7144564 C11.9068293,13.0123457 12.0570732,13.3779371 12.0570732,13.8112306 C12.0570732,14.2445241 11.9085366,14.6101155 11.6114634,14.9080048 C11.3143902,15.2058941 10.9439024,15.3548387 10.5,15.3548387 Z" transform="matrix(1 0 0 -1 0 17)"/></svg>