<?xml version="1.0" encoding="UTF-8"?>
<svg width="18px" height="12px" viewBox="0 0 18 12" version="1.1" xmlns="http://www.w3.org/2000/svg" xmlns:xlink="http://www.w3.org/1999/xlink">
    <title>ic_listofchapters</title>
    <g id="icon" stroke="none" stroke-width="1" fill="none" fill-rule="evenodd">
        <g id="Artboard" transform="translate(-224.000000, -22.000000)" fill="#000000">
            <path d="M241.802092,32 C241.910599,32 242,32.0891309 242,32.1990795 L242,32.1990795 L242,33.8009205 C242,33.9140625 241.911393,34 241.802092,34 L241.802092,34 L228.197908,34 C228.089401,34 228,33.9108691 228,33.8009205 L228,33.8009205 L228,32.1990795 C228,32.0859375 228.088607,32 228.197908,32 L228.197908,32 Z M225.80092,32 C225.914062,32 226,32.0891309 226,32.1990795 L226,32.1990795 L226,33.8009205 C226,33.9140625 225.910869,34 225.80092,34 L225.80092,34 L224.19908,34 C224.085938,34 224,33.9108691 224,33.8009205 L224,33.8009205 L224,32.1990795 C224,32.0859375 224.089131,32 224.19908,32 L224.19908,32 Z M225.80092,27 C225.914062,27 226,27.0891309 226,27.1990795 L226,27.1990795 L226,28.8009205 C226,28.9140625 225.910869,29 225.80092,29 L225.80092,29 L224.19908,29 C224.085938,29 224,28.9108691 224,28.8009205 L224,28.8009205 L224,27.1990795 C224,27.0859375 224.089131,27 224.19908,27 L224.19908,27 Z M241.802092,27 C241.910599,27 242,27.0891309 242,27.1990795 L242,27.1990795 L242,28.8009205 C242,28.9140625 241.911393,29 241.802092,29 L241.802092,29 L228.197908,29 C228.089401,29 228,28.9108691 228,28.8009205 L228,28.8009205 L228,27.1990795 C228,27.0859375 228.088607,27 228.197908,27 L228.197908,27 Z M225.80092,22 C225.914062,22 226,22.0891309 226,22.1990795 L226,22.1990795 L226,23.8009205 C226,23.9140625 225.910869,24 225.80092,24 L225.80092,24 L224.19908,24 C224.085938,24 224,23.9108691 224,23.8009205 L224,23.8009205 L224,22.1990795 C224,22.0859375 224.089131,22 224.19908,22 L224.19908,22 Z M241.802092,22 C241.910599,22 242,22.0891309 242,22.1990795 L242,22.1990795 L242,23.8009205 C242,23.9140625 241.911393,24 241.802092,24 L241.802092,24 L228.197908,24 C228.089401,24 228,23.9108691 228,23.8009205 L228,23.8009205 L228,22.1990795 C228,22.0859375 228.088607,22 228.197908,22 L228.197908,22 Z" id="ic_listofchapters"></path>
        </g>
    </g>
</svg>