<?xml version="1.0" encoding="UTF-8"?>
<svg width="50px" height="50px" viewBox="0 0 50 50" version="1.1" xmlns="http://www.w3.org/2000/svg" xmlns:xlink="http://www.w3.org/1999/xlink">
    <title>ic_nointernet</title>
    <g id="icon" stroke="none" stroke-width="1" fill="none" fill-rule="evenodd">
        <g id="Artboard" transform="translate(-271.000000, -249.000000)" fill-rule="nonzero">
            <g id="ic_nointernet" transform="translate(271.000000, 249.000000)">
                <path d="M43.3133324,18.3394601 L41.469825,20.1829675 C37.105749,15.8073818 31.1798794,13.3482336 25,13.3482336 C18.8201206,13.3482336 12.894251,15.8073818 8.53017497,20.1829675 L6.68666763,18.3394601 C11.5390896,13.4738495 18.1283069,10.7392666 25,10.7392666 C31.8716931,10.7392666 38.4609104,13.4738495 43.3133324,18.3394601 L43.3133324,18.3394601 Z" id="Path" fill="#718096"></path>
                <path d="M38.7002161,22.9525764 L36.8567088,24.7960837 C33.7174362,21.6414792 29.4504563,19.8679463 25,19.8679463 C20.5495437,19.8679463 16.2825638,21.6414792 13.1432912,24.7960837 L11.2997839,22.9525764 C14.9272311,19.3076253 19.8576229,17.2584352 25,17.2584352 C30.1423771,17.2584352 35.0727689,19.3076253 38.7002161,22.9525764 L38.7002161,22.9525764 Z" id="Path" fill="#718096"></path>
                <path d="M34.0914478,27.5613448 L32.2479404,29.4048521 C30.3294768,27.4754157 27.7208872,26.3905425 25,26.3905425 C22.2791128,26.3905425 19.6705232,27.4754157 17.7520596,29.4048521 L15.9085522,27.5613448 C18.3162769,25.1436013 21.5878714,23.7844818 25,23.7844818 C28.4121286,23.7844818 31.6837231,25.1436013 34.0914478,27.5613448 Z" id="Path" fill="#718096"></path>
                <circle id="Oval" fill="#718096" cx="25" cy="36.6519229" r="2.6087368"></circle>
                <path d="M43.5742061,8.26930129 C43.287245,7.94755708 42.9872403,7.63016077 42.6785397,7.32146025 C42.3698392,7.01275973 42.0524429,6.712755 41.7306987,6.42579395 C31.8490751,-2.47682224 16.7267228,-2.08301192 7.32185546,7.32185546 C-2.08301192,16.7267228 -2.47682224,31.8490751 6.42579395,41.7306987 C7.00502073,42.3794924 7.62050762,42.9949793 8.26930129,43.5742061 C18.1509249,52.4768222 33.2732772,52.0830119 42.6781445,42.6781445 C52.0830119,33.2732772 52.4768222,18.1509249 43.5742061,8.26930129 L43.5742061,8.26930129 Z M2.60833439,25 C2.60704207,16.1801051 7.78410461,8.18127988 15.8309631,4.57037766 C23.8778217,0.959475435 33.2948723,2.4094201 39.8828435,8.27364919 L8.27364919,39.8828435 C4.62045711,35.786658 2.60369,30.4885814 2.60833439,25 L2.60833439,25 Z M40.8350324,40.8350324 C32.4476309,49.2203748 18.97666,49.6112522 10.1171565,41.7263508 L41.7220029,10.1215044 C49.6114805,18.9769939 49.2224076,32.4495993 40.8350324,40.8350324 L40.8350324,40.8350324 Z" id="Shape" fill="#FFAB81"></path>
            </g>
        </g>
    </g>
</svg>