<?xml version="1.0" encoding="UTF-8"?>
<svg width="18px" height="20px" viewBox="0 0 18 20" version="1.1" xmlns="http://www.w3.org/2000/svg" xmlns:xlink="http://www.w3.org/1999/xlink">
    <title>ic_share</title>
    <g id="icon" stroke="none" stroke-width="1" fill="none" fill-rule="evenodd">
        <g id="Artboard" transform="translate(-90.000000, -68.000000)" fill="#000000">
            <path d="M105,82.1365462 C104.24,82.1365462 103.56,82.437751 103.04,82.9096386 L95.91,78.7429719 C95.96,78.5120482 96,78.2811245 96,78.0401606 C96,77.7991968 95.96,77.5682731 95.91,77.3373494 L102.96,73.2108434 C103.5,73.7128514 104.21,74.0240964 105,74.0240964 C106.66,74.0240964 108,72.6787149 108,71.0120482 C108,69.3453815 106.66,68 105,68 C103.34,68 102,69.3453815 102,71.0120482 C102,71.253012 102.04,71.4839357 102.09,71.7148594 L95.04,75.8413655 C94.5,75.3393574 93.79,75.0281124 93,75.0281124 C91.34,75.0281124 90,76.373494 90,78.0401606 C90,79.7068273 91.34,81.0522088 93,81.0522088 C93.79,81.0522088 94.5,80.7409639 95.04,80.2389558 L102.16,84.4156627 C102.11,84.626506 102.08,84.8473896 102.08,85.0682731 C102.08,86.684739 103.39,88 105,88 C106.61,88 107.92,86.684739 107.92,85.0682731 C107.92,83.4518072 106.61,82.1365462 105,82.1365462 L105,82.1365462 Z" id="ic_share"></path>
        </g>
    </g>
</svg>