<svg xmlns="http://www.w3.org/2000/svg" width="17" height="15" viewBox="0 0 17 15"><g fill="none" fill-rule="evenodd"><rect width="17" height="14.41"/><path fill="#000" fill-rule="nonzero" d="M11.33,8.42907032 L6.99666667,5.72907549 C6.89333333,5.67687559 6.76733333,5.67807559 6.66533333,5.73147549 C6.56266667,5.78547539 6.5,5.8838752 6.5,5.99067499 L6.5,11.3906646 C6.5,11.4974644 6.56266667,11.5958642 6.66533333,11.6498641 C6.71733333,11.6768641 6.77533333,11.6906641 6.83333333,11.6906641 C6.88933333,11.6906641 6.946,11.6780641 6.99666667,11.6522641 L11.33,8.95226931 C11.4346667,8.89886942 11.5,8.79926961 11.5,8.69066406 C11.5,8.58207002 11.4346667,8.48247021 11.33,8.42907032 Z M4.68051405,14.4064453 L12.4988045,14.4064453 C13.1347878,14.4064453 13.6273162,14.2332682 13.9763897,13.8869141 C14.3254632,13.5405599 14.5,13.0278646 14.5,12.3488281 L14.5,5.02070313 C14.5,4.34622396 14.3158996,3.83580729 13.9476987,3.48945313 C13.5794979,3.14309896 13.0367603,2.96992188 12.319486,2.96992188 L4.68051405,2.96992188 C3.96323969,2.96992188 3.42050209,3.14309896 3.05230126,3.48945313 C2.68410042,3.83580729 2.5,4.34622396 2.5,5.02070313 L2.5,12.3488281 C2.5,13.0278646 2.68410042,13.5405599 3.05230126,13.8869141 C3.42050209,14.2332682 3.96323969,14.4064453 4.68051405,14.4064453 Z M4.78798799,13.1106641 C4.46806807,13.1106641 4.22342342,13.0310842 4.05405405,12.8719244 C3.88468468,12.7127646 3.8,12.4762355 3.8,12.162337 L3.8,5.21899114 C3.8,4.90509267 3.88468468,4.66856354 4.05405405,4.50940375 C4.22342342,4.35024396 4.46806807,4.27066406 4.78798799,4.27066406 L12.204955,4.27066406 C12.5248749,4.27066406 12.7706957,4.35024396 12.9424174,4.50940375 C13.1141391,4.66856354 13.2,4.90509267 13.2,5.21899114 L13.2,12.162337 C13.2,12.4762355 13.1211962,12.7127646 12.9635886,12.8719244 C12.805981,13.0310842 12.6142643,13.1106641 12.3884384,13.1106641 L4.78798799,13.1106641 Z M3.99193066,2.39892578 L12.9865511,2.39892578 C12.933951,2.10270182 12.8227735,1.87255859 12.6530185,1.70849609 C12.4832636,1.54443359 12.2238494,1.46240234 11.8747759,1.46240234 L5.10370592,1.46240234 C4.74985057,1.46240234 4.48804543,1.54443359 4.3182905,1.70849609 C4.14853556,1.87255859 4.03974895,2.10270182 3.99193066,2.39892578 Z M5.16108787,0.861328125 L11.8102212,0.861328125 C11.7910938,0.583333333 11.6954573,0.370279948 11.5233114,0.222167969 C11.3511656,0.0740559896 11.1049014,0 10.7845188,0 L6.19396294,0 C5.87358039,0 5.6273162,0.0740559896 5.45517035,0.222167969 C5.28302451,0.370279948 5.18499701,0.583333333 5.16108787,0.861328125 Z"/></g></svg>