<svg xmlns="http://www.w3.org/2000/svg" width="19" height="19" viewBox="0 0 19 19"><path d="M12.8952137,9.07485876 L1.62683761,0.640725794 C1.41555556,0.480477267 1.12821197,0.455174868 0.890167521,0.574658419 C0.65071453,0.694141969 0.5,0.937326136 0.5,1.20300132 L0.5,18.0712673 C0.5,18.3369424 0.65071453,18.5801266 0.888758974,18.6996102 C0.988765812,18.7488093 1.09722393,18.7741117 1.2042735,18.7741117 C1.35357949,18.7741117 1.50288547,18.7263183 1.62683761,18.6335428 L12.8952137,10.1994098 C13.0726906,10.0672751 13.1769231,9.85782744 13.1769231,9.63713429 C13.1769231,9.41644115 13.0726906,9.20699351 12.8952137,9.07485876 Z M18.1068376,0.500156911 L16.6982906,0.500156911 C16.3095316,0.500156911 15.9940171,0.815031208 15.9940171,1.20300132 L15.9940171,18.0712673 C15.9940171,18.4592374 16.3095316,18.7741117 16.6982906,18.7741117 L18.1068376,18.7741117 C18.4955966,18.7741117 18.8111111,18.4592374 18.8111111,18.0712673 L18.8111111,1.20300132 C18.8111111,0.815031208 18.4955966,0.500156911 18.1068376,0.500156911 Z"/></svg>