<?xml version="1.0" encoding="UTF-8"?>
<svg width="18px" height="16px" viewBox="0 0 18 16" version="1.1" xmlns="http://www.w3.org/2000/svg" xmlns:xlink="http://www.w3.org/1999/xlink">
    <title>ic_comments</title>
    <g id="ic_comments" stroke="none" stroke-width="1" fill="none" fill-rule="evenodd">
        <g transform="translate(1.000000, 1.000000)">
            <path d="M16,7 C16,10.8660125 12.4183111,14 8,14 C6.63173333,14 5.34375111,13.6994375 4.21748444,13.1697125 L0,14 L1.23999111,10.745 C0.45472,9.6620125 0,8.3775125 0,7 C0,3.134005 3.58172444,0 8,0 C12.4183111,0 16,3.134005 16,7 Z" id="Shape" stroke="#4A5568" stroke-width="0.98" stroke-linecap="round" stroke-linejoin="round"></path>
            <path d="M4.44444444,6.125 C4.93536422,6.125 5.33333333,6.51675084 5.33333333,7 C5.33333333,7.48324916 4.93536422,7.875 4.44444444,7.875 C3.95352467,7.875 3.55555556,7.48324916 3.55555556,7 C3.55555556,6.51675084 3.95352467,6.125 4.44444444,6.125 Z M8,6.125 C8.49091978,6.125 8.88888889,6.51675084 8.88888889,7 C8.88888889,7.48324916 8.49091978,7.875 8,7.875 C7.50908022,7.875 7.11111111,7.48324916 7.11111111,7 C7.11111111,6.51675084 7.50908022,6.125 8,6.125 Z M11.5555556,6.125 C12.0464753,6.125 12.4444444,6.51675084 12.4444444,7 C12.4444444,7.48324916 12.0464753,7.875 11.5555556,7.875 C11.0646358,7.875 10.6666667,7.48324916 10.6666667,7 C10.6666667,6.51675084 11.0646358,6.125 11.5555556,6.125 Z" id="Combined-Shape" fill="#4A5568"></path>
        </g>
    </g>
</svg>