<?xml version="1.0" encoding="UTF-8"?>
<svg width="16px" height="16px" viewBox="0 0 16 16" version="1.1" xmlns="http://www.w3.org/2000/svg" xmlns:xlink="http://www.w3.org/1999/xlink">
    <title>ic_like_filled</title>
    <g id="icon" stroke="none" stroke-width="1" fill="none" fill-rule="evenodd" stroke-linecap="round" stroke-linejoin="round">
        <g id="ic_like_filled" fill="#4A5568" stroke="#4A5568" stroke-width="0.5">
            <path d="M10.167987,6.44444444 L13.9219346,6.44444444 C15.0935313,6.44444444 15.8555261,7.66135556 15.3315857,8.69564444 L12.5735898,14.1400889 C12.3066158,14.6671111 11.7609267,15 11.1639388,15 L7.99799589,15 C7.86915808,15 7.74079307,14.9843667 7.61573766,14.9535667 L4.65199529,14.2222222 M10.167987,6.44444444 L10.167987,2.55555556 C10.167987,1.69644556 9.4624129,1 8.5919894,1 L8.51673551,1 C8.1231301,1 7.80399058,1.31497667 7.80399058,1.70352333 C7.80399058,2.25909 7.63740763,2.80222778 7.32512369,3.26449222 L4.65199529,7.22222222 L4.65199529,14.2222222 M10.167987,6.44444444 L8.5919894,6.44444444 M3.22222222,14.2222222 L2.11111111,14.2222222 C1.49746111,14.2222222 1,13.5258 1,12.6666667 L1,8 C1,7.14086667 1.49746111,6.44444444 2.11111111,6.44444444 L3.5,6.44444444"></path>
        </g>
    </g>
</svg>