<?xml version="1.0" encoding="UTF-8"?>
<svg width="16px" height="16px" viewBox="0 0 16 16" version="1.1" xmlns="http://www.w3.org/2000/svg" xmlns:xlink="http://www.w3.org/1999/xlink">
    <title>ic_like_nonfilled</title>
    <g id="ic_like_nonfilled" stroke="none" stroke-width="1" fill="none" fill-rule="evenodd" stroke-linecap="round" stroke-linejoin="round">
        <path d="M9.66798704,6.44444444 L13.4219346,6.44444444 C14.5935313,6.44444444 15.3555261,7.66135556 14.8315857,8.69564444 L12.0735898,14.1400889 C11.8066158,14.6671111 11.2609267,15 10.6639388,15 L7.49799589,15 C7.36915808,15 7.24079307,14.9843667 7.11573766,14.9535667 L4.15199529,14.2222222 M9.66798704,6.44444444 L9.66798704,2.55555556 C9.66798704,1.69644556 8.9624129,1 8.0919894,1 L8.01673551,1 C7.6231301,1 7.30399058,1.31497667 7.30399058,1.70352333 C7.30399058,2.25909 7.13740763,2.80222778 6.82512369,3.26449222 L4.15199529,7.22222222 L4.15199529,14.2222222 M9.66798704,6.44444444 L8.0919894,6.44444444 M4.15199529,14.2222222 L2.57599764,14.2222222 C1.70559779,14.2222222 1,13.5258 1,12.6666667 L1,8 C1,7.14086667 1.70559779,6.44444444 2.57599764,6.44444444 L4.5459947,6.44444444" stroke="#4A5568"></path>
    </g>
</svg>