<?xml version="1.0" encoding="UTF-8"?>
<svg width="36px" height="36px" viewBox="0 0 36 36" version="1.1" xmlns="http://www.w3.org/2000/svg" xmlns:xlink="http://www.w3.org/1999/xlink">
    <title>ic_profile_placeholder</title>
    <g id="icon" stroke="none" stroke-width="1" fill="none" fill-rule="evenodd">
        <g id="ic_profile_placeholder" fill="#A0AEC0" fill-rule="nonzero">
            <path d="M18,0 C8.055,0 0,8.055 0,18 C0,27.945 8.055,36 18,36 C27.945,36 36,27.945 36,18 C36,8.055 27.945,0 18,0 Z M18,5.4 C20.979,5.4 23.4,7.821 23.4,10.8 C23.4,13.788 20.979,16.2 18,16.2 C15.021,16.2 12.6,13.788 12.6,10.8 C12.6,7.821 15.021,5.4 18,5.4 Z M18,30.96 C13.491,30.96 9.531,28.656 7.2,25.164 C7.245,21.591 14.409,19.62 18,19.62 C21.591,19.62 28.746,21.591 28.8,25.164 C26.469,28.656 22.509,30.96 18,30.96 Z"></path>
        </g>
    </g>
</svg>