<svg width="13" height="10" viewBox="0 0 13 10">
  <path fill="#4A5568" d="M6.094 2.5h-1.22V.417a.418.418 0 0 0-.258-.39.402.402 0 0 0-.448.11L.105 4.72c-.14.158-.14.4 0 .56l4.063 4.583a.404.404 0 0 0 .448.11.418.418 0 0 0 .259-.39V7.5h1.13c2.319 0 4.565.852 6.325 2.4.12.106.29.13.434.062A.416.416 0 0 0 13 9.583C13 5.678 9.902 2.5 6.094 2.5zm-.089 4.167H4.47a.412.412 0 0 0-.407.416v1.423L.955 5l3.107-3.506v1.423c0 .23.182.416.407.416h1.625c1.627 0 3.158.65 4.308 1.83a6.261 6.261 0 0 1 1.722 3.514 10.365 10.365 0 0 0-6.119-2.01z"/>
</svg>
