<?xml version="1.0" encoding="UTF-8"?>
<svg width="16px" height="16px" viewBox="0 0 16 16" version="1.1" xmlns="http://www.w3.org/2000/svg" xmlns:xlink="http://www.w3.org/1999/xlink">
    <title>ic_share</title>
    <g id="ic_share" stroke="none" stroke-width="1" fill="none" fill-rule="evenodd" stroke-linecap="round" stroke-linejoin="round">
        <path d="M5.42078778,9.0437 C5.57812444,8.72963333 5.66666667,8.3752 5.66666667,8 C5.66666667,7.6248 5.57812444,7.27036667 5.42078778,6.9563 M5.42078778,9.0437 C5.03770889,9.80841111 4.24682556,10.3333333 3.33333333,10.3333333 C2.04467222,10.3333333 1,9.2887 1,8 C1,6.7113 2.04467222,5.66666667 3.33333333,5.66666667 C4.24682556,5.66666667 5.03770889,6.19160444 5.42078778,6.9563 M5.42078778,9.0437 L10.5791889,11.6229667 M5.42078778,6.9563 L10.5791889,4.37705667 M10.5791889,4.37705667 C10.9623222,5.14172889 11.7531667,5.66666667 12.6666667,5.66666667 C13.9553667,5.66666667 15,4.62199444 15,3.33333333 C15,2.04467222 13.9553667,1 12.6666667,1 C11.3779667,1 10.3333333,2.04467222 10.3333333,3.33333333 C10.3333333,3.70851 10.4218444,4.06300556 10.5791889,4.37705667 Z M10.5791889,11.6229667 C10.4218444,11.9370333 10.3333333,12.2914667 10.3333333,12.6666667 C10.3333333,13.9553667 11.3779667,15 12.6666667,15 C13.9553667,15 15,13.9553667 15,12.6666667 C15,11.3779667 13.9553667,10.3333333 12.6666667,10.3333333 C11.7531667,10.3333333 10.9623222,10.8582556 10.5791889,11.6229667 Z" stroke="#4A5568"></path>
    </g>
</svg>