<svg xmlns="http://www.w3.org/2000/svg" width="31" height="23" viewBox="0 0 31 23"><g fill="none" fill-rule="evenodd" transform="translate(.916 .676)"><g stroke="#A0AEC0" transform="translate(13.664 5.816)"><path stroke-width=".605" d="M1.936,0 L1.94639408,0 L1.94639408,0 L13.552,0 C14.6212233,0 15.488,0.866776724 15.488,1.936 L15.488,13.552 C15.488,14.6212233 14.6212233,15.488 13.552,15.488 L1.936,15.488 C0.866776724,15.488 0,14.6212233 0,13.552 L0,9.65838734 L0,9.65838734"/><path fill="#A0AEC0" fill-rule="nonzero" stroke-width=".4" d="M12.8707701,13.238 L12.8707701,3.79953406 L13.75,3.82472009 L13.7243291,2.43319176 L9.13564761,2.43319176 L10.2844224,3.82472009 L11.5166278,3.82472009 L11.5166278,5.97812593 C11.5166278,6.06207937 11.4717036,6.15442816 11.3818553,6.2551723 C11.3262349,6.32233505 11.2845196,6.36955886 11.2567095,6.39684373 C11.2288993,6.4241286 11.1807662,6.46925358 11.1123104,6.53221866 L10.9775379,6.65814883 L8.12806301,6.65814883 L7.60180863,6.45666056 C7.8499611,6.38110246 8.07886037,6.2551723 8.28850642,6.07887006 C8.49815247,5.90256783 8.66394399,5.69688189 8.78588098,5.46181225 C8.90781797,5.22674261 8.96878646,4.98957413 8.96878646,4.75030681 L8.96878646,4.63696966 C8.93028005,4.3137489 8.8479191,4.00941767 8.72170362,3.72397596 C8.59548814,3.43853425 8.42862699,3.18772334 8.22112019,2.97154322 C8.01361338,2.7553631 7.77508751,2.58430796 7.50554259,2.45837779 C7.3600739,2.38701736 7.21353559,2.33244762 7.06592765,2.29466857 C6.91831972,2.25688952 6.76322443,2.238 6.60064177,2.238 L6.4466161,2.238 C6.10005834,2.238 5.72782964,2.3020145 5.32992999,2.4300435 C4.93203034,2.55807251 4.56194088,2.71023812 4.21966161,2.88654035 C4.02712952,2.98728449 3.86668611,3.0754356 3.73833139,3.1509937 C3.60997666,3.2265518 3.48376118,3.30840641 3.35968495,3.39655753 C3.13720342,3.5518714 3.02596266,3.64631902 3.02596266,3.6799004 L3.05163361,3.6799004 L4.06563594,4.72512078 C4.27528199,4.42288838 4.51701673,4.15423736 4.79084014,3.91916772 C5.06466356,3.68409807 5.36950603,3.48890632 5.70536756,3.33359244 C6.04122909,3.17827857 6.376021,3.07123793 6.70974329,3.01247052 L6.82526254,3.01247052 C7.00923765,3.01247052 7.19749125,3.0691391 7.39002334,3.18247624 C7.58255543,3.29581339 7.74299883,3.44692959 7.87135356,3.63582484 C7.99970828,3.82472009 8.06388565,4.03250487 8.06388565,4.25917916 L8.06388565,4.35362679 C8.01254376,4.76080099 7.82535978,5.11550429 7.50233372,5.41773669 C7.17930766,5.71996909 6.7995916,5.95713757 6.36318553,6.12924213 C5.92677946,6.30134669 5.50320887,6.41048617 5.09247375,6.45666056 L5.98453909,7.52706697 C5.98881758,7.49768327 6.07652664,7.46410189 6.24766628,7.42632284 C6.41880591,7.38854379 6.611338,7.36965426 6.82526254,7.36965426 C7.51837806,7.36965426 7.99970828,7.56274719 8.26925321,7.94893303 C8.3205951,8.0286888 8.38370284,8.17245907 8.45857643,8.38024385 C8.53345002,8.58802862 8.57088681,8.81785117 8.57088681,9.06971151 C8.57088681,9.51046709 8.42327888,9.87566457 8.12806301,10.1653039 C7.92697394,10.3625945 7.69165694,10.5179084 7.42211202,10.6312456 C7.15256709,10.7445827 6.87446519,10.8012513 6.5878063,10.8012513 C6.19846363,10.8012513 5.79628549,10.7057542 5.38127188,10.5147602 C4.96625827,10.3237661 4.5394788,10.0267808 4.10093349,9.62380424 C3.66238818,9.2208277 3.24202645,8.7150082 2.83984831,8.10634574 L2.75,8.44006068 L3.1928238,9.14526961 C3.41530533,9.4936764 3.72763516,9.89245526 4.1298133,10.3416062 C4.5533839,10.8075478 5.04541035,11.2042278 5.60589265,11.5316463 C5.90538701,11.7079485 6.20702061,11.8359775 6.51079347,11.9157333 C6.81456632,11.995489 7.14187087,12.0353669 7.49270712,12.0353669 C7.74941657,12.0353669 8.0285881,11.9797478 8.3302217,11.8685094 C8.63185531,11.7572711 8.90033061,11.6030067 9.13564761,11.4057161 C9.38807857,11.1958325 9.58916764,10.9502687 9.73891482,10.6690246 C9.888662,10.3877806 9.96353559,10.0834493 9.96353559,9.75603091 L9.93786464,9.3719439 C9.87368728,8.96057203 9.72073123,8.59747338 9.4789965,8.28264797 C9.23726177,7.96782255 9.00943213,7.73485175 8.79550758,7.58373555 C8.68426682,7.4997821 8.59014002,7.43261935 8.51312719,7.38224728 C8.43611435,7.33187521 8.37193699,7.29409616 8.3205951,7.26891013 L8.93028005,7.43891586 L9.71324387,7.63410761 L10.4127771,7.81040985 L10.5732205,7.8481889 L10.6887398,7.87337493 C10.8684364,7.87337493 11.0352975,7.83559588 11.1893232,7.76003778 C11.3519059,7.67188666 11.4610074,7.60682274 11.5166278,7.56484602 L11.5166278,12.4635295 L12.3830222,13.238 L12.8707701,13.238 Z"/></g><g stroke="#FF6B21"><rect width="15.488" height="15.488" stroke-width=".605" rx="1.936"/><path fill="#FF6B21" fill-rule="nonzero" stroke-width=".5" d="M8.52589286,2.424 L12.688869,13.0835238 L11.0539286,13.0835238 L9.89434524,10.1305476 L5.37845238,10.1305476 L4.20446429,13.0835238 L2.8,13.0835238 L7.02779762,2.424 L8.52589286,2.424 Z M7.64,4.41185714 L5.81779762,9.00697619 L9.455,9.00697619 L7.64,4.41185714 Z"/></g></g></svg>