<svg width="31" height="23" viewBox="0 0 31 23" xmlns="http://www.w3.org/2000/svg"><g transform="translate(1 1)" stroke="#FF6B21" fill="none" fill-rule="evenodd"><g transform="translate(13.5 6)"><path d="M1.936,0 L1.97888984,0 L1.97888984,0 L13.552,0 C14.6212233,0 15.488,0.866776724 15.488,1.936 L15.488,13.552 C15.488,14.6212233 14.6212233,15.488 13.552,15.488 L1.936,15.488 C0.866776724,15.488 0,14.6212233 0,13.552 L0,9.4876358 L0,9.4876358" stroke-width=".605"/><path d="M4.20446429,13.0795238 L5.37845238,10.1265476 L9.89434524,10.1265476 L11.0539286,13.0795238 L12.688869,13.0795238 L8.52589286,2.42 L7.02779762,2.42 L2.8,13.0795238 L4.20446429,13.0795238 Z M9.455,9.00297619 L5.81779762,9.00297619 L7.64,4.40785714 L9.455,9.00297619 Z" stroke-width=".5" fill="#FF6B21" fill-rule="nonzero"/></g><rect stroke-width=".605" width="15.488" height="15.488" rx="1.936"/><path d="M12.3607701,13.238 L12.3607701,3.79953406 L13.24,3.82472009 L13.2143291,2.43319176 L8.62564761,2.43319176 L9.7744224,3.82472009 L11.0066278,3.82472009 L11.0066278,5.97812593 C11.0066278,6.06207937 10.9617036,6.15442816 10.8718553,6.2551723 C10.8162349,6.32233505 10.7745196,6.36955886 10.7467095,6.39684373 C10.7188993,6.4241286 10.6707662,6.46925358 10.6023104,6.53221866 L10.4675379,6.65814883 L7.61806301,6.65814883 L7.09180863,6.45666056 C7.3399611,6.38110246 7.56886037,6.2551723 7.77850642,6.07887006 C7.98815247,5.90256783 8.15394399,5.69688189 8.27588098,5.46181225 C8.39781797,5.22674261 8.45878646,4.98957413 8.45878646,4.75030681 L8.45878646,4.63696966 C8.42028005,4.3137489 8.3379191,4.00941767 8.21170362,3.72397596 C8.08548814,3.43853425 7.91862699,3.18772334 7.71112019,2.97154322 C7.50361338,2.7553631 7.26508751,2.58430796 6.99554259,2.45837779 C6.8500739,2.38701736 6.70353559,2.33244762 6.55592765,2.29466857 C6.40831972,2.25688952 6.25322443,2.238 6.09064177,2.238 L5.9366161,2.238 C5.59005834,2.238 5.21782964,2.3020145 4.81992999,2.4300435 C4.42203034,2.55807251 4.05194088,2.71023812 3.70966161,2.88654035 C3.51712952,2.98728449 3.35668611,3.0754356 3.22833139,3.1509937 C3.09997666,3.2265518 2.97376118,3.30840641 2.84968495,3.39655753 C2.62720342,3.5518714 2.51596266,3.64631902 2.51596266,3.6799004 L2.54163361,3.6799004 L3.55563594,4.72512078 C3.76528199,4.42288838 4.00701673,4.15423736 4.28084014,3.91916772 C4.55466356,3.68409807 4.85950603,3.48890632 5.19536756,3.33359244 C5.53122909,3.17827857 5.866021,3.07123793 6.19974329,3.01247052 L6.31526254,3.01247052 C6.49923765,3.01247052 6.68749125,3.0691391 6.88002334,3.18247624 C7.07255543,3.29581339 7.23299883,3.44692959 7.36135356,3.63582484 C7.48970828,3.82472009 7.55388565,4.03250487 7.55388565,4.25917916 L7.55388565,4.35362679 C7.50254376,4.76080099 7.31535978,5.11550429 6.99233372,5.41773669 C6.66930766,5.71996909 6.2895916,5.95713757 5.85318553,6.12924213 C5.41677946,6.30134669 4.99320887,6.41048617 4.58247375,6.45666056 L5.47453909,7.52706697 C5.47881758,7.49768327 5.56652664,7.46410189 5.73766628,7.42632284 C5.90880591,7.38854379 6.101338,7.36965426 6.31526254,7.36965426 C7.00837806,7.36965426 7.48970828,7.56274719 7.75925321,7.94893303 C7.8105951,8.0286888 7.87370284,8.17245907 7.94857643,8.38024385 C8.02345002,8.58802862 8.06088681,8.81785117 8.06088681,9.06971151 C8.06088681,9.51046709 7.91327888,9.87566457 7.61806301,10.1653039 C7.41697394,10.3625945 7.18165694,10.5179084 6.91211202,10.6312456 C6.64256709,10.7445827 6.36446519,10.8012513 6.0778063,10.8012513 C5.68846363,10.8012513 5.28628549,10.7057542 4.87127188,10.5147602 C4.45625827,10.3237661 4.0294788,10.0267808 3.59093349,9.62380424 C3.15238818,9.2208277 2.73202645,8.7150082 2.32984831,8.10634574 L2.24,8.44006068 L2.6828238,9.14526961 C2.90530533,9.4936764 3.21763516,9.89245526 3.6198133,10.3416062 C4.0433839,10.8075478 4.53541035,11.2042278 5.09589265,11.5316463 C5.39538701,11.7079485 5.69702061,11.8359775 6.00079347,11.9157333 C6.30456632,11.995489 6.63187087,12.0353669 6.98270712,12.0353669 C7.23941657,12.0353669 7.5185881,11.9797478 7.8202217,11.8685094 C8.12185531,11.7572711 8.39033061,11.6030067 8.62564761,11.4057161 C8.87807857,11.1958325 9.07916764,10.9502687 9.22891482,10.6690246 C9.378662,10.3877806 9.45353559,10.0834493 9.45353559,9.75603091 L9.42786464,9.3719439 C9.36368728,8.96057203 9.21073123,8.59747338 8.9689965,8.28264797 C8.72726177,7.96782255 8.49943213,7.73485175 8.28550758,7.58373555 C8.17426682,7.4997821 8.08014002,7.43261935 8.00312719,7.38224728 C7.92611435,7.33187521 7.86193699,7.29409616 7.8105951,7.26891013 L8.42028005,7.43891586 L9.20324387,7.63410761 L9.90277713,7.81040985 L10.0632205,7.8481889 L10.1787398,7.87337493 C10.3584364,7.87337493 10.5252975,7.83559588 10.6793232,7.76003778 C10.8419059,7.67188666 10.9510074,7.60682274 11.0066278,7.56484602 L11.0066278,12.4635295 L11.8730222,13.238 L12.3607701,13.238 Z" stroke-width=".5" fill="#FF6B21" fill-rule="nonzero"/></g></svg>