<svg xmlns="http://www.w3.org/2000/svg" width="15" height="15" viewBox="0 0 15 15"><path d="M1.8,9.5 L0.5,9.5 L0.5,13.5 C0.5,14.0522847 0.94771525,14.5 1.5,14.5 L5.5,14.5 L5.5,14.5 L5.5,13.2 L1.8,13.2 L1.8,9.5 Z M0.5,5.5 L1.8,5.5 L1.8,1.8 L5.5,1.8 L5.5,0.5 L1.5,0.5 C0.94771525,0.5 0.5,0.94771525 0.5,1.5 L0.5,5.5 L0.5,5.5 Z M13.2,13.2 L9.5,13.2 L9.5,14.5 L13.5,14.5 C14.0522847,14.5 14.5,14.0522847 14.5,13.5 L14.5,9.5 L14.5,9.5 L13.2,9.5 L13.2,13.2 Z M9.5,0.5 L9.5,1.8 L13.2,1.8 L13.2,5.5 L14.5,5.5 L14.5,1.5 C14.5,0.94771525 14.0522847,0.5 13.5,0.5 L9.5,0.5 L9.5,0.5 Z"/></svg>