<svg xmlns="http://www.w3.org/2000/svg" width="13" height="16" viewBox="0 0 13 16"><path d="M3.33156342,17 L11.6684366,17 C12.4456244,17 13.0285152,16.8128002 13.4171091,16.4384007 C13.805703,16.0640012 14,15.5073609 14,14.7684798 L14,7.79869828 C14,7.05981714 13.805703,6.50193708 13.4171091,6.12505811 C13.0285152,5.74817914 12.4456244,5.55973966 11.6684366,5.55973966 L9.6820059,5.55973966 L9.6820059,6.82426778 L11.6224189,6.82426778 C11.9649951,6.82426778 12.2308751,6.91228886 12.420059,7.08833101 C12.6092429,7.26437316 12.7038348,7.53091585 12.7038348,7.88795909 L12.7038348,14.679219 C12.7038348,15.0263443 12.6092429,15.2891678 12.420059,15.4676894 C12.2308751,15.6462111 11.9649951,15.7354719 11.6224189,15.7354719 L3.38525074,15.7354719 C3.03756146,15.7354719 2.77168142,15.6462111 2.58761062,15.4676894 C2.40353982,15.2891678 2.31150442,15.0263443 2.31150442,14.679219 L2.31150442,7.88795909 C2.31150442,7.53091585 2.40353982,7.26437316 2.58761062,7.08833101 C2.77168142,6.91228886 3.03756146,6.82426778 3.38525074,6.82426778 L5.33333333,6.82426778 L5.33333333,5.55973966 L3.33156342,5.55973966 C2.56460177,5.55973966 1.98426745,5.74693941 1.59056047,6.12133891 C1.19685349,6.49573842 1,7.05485821 1,7.79869828 L1,14.7684798 C1,15.5073609 1.19685349,16.0640012 1.59056047,16.4384007 C1.98426745,16.8128002 2.56460177,17 3.33156342,17 Z M7.50383481,11.4360762 C7.67256637,11.4360762 7.81956735,11.376569 7.94483776,11.2575546 C8.07010816,11.1385402 8.13274336,10.9996901 8.13274336,10.8410042 L8.13274336,3.68526267 L8.07905605,2.64388656 L8.54690265,3.14969781 L9.60530973,4.23570432 C9.71268437,4.35967767 9.853294,4.42166434 10.0271386,4.42166434 C10.1856441,4.42166434 10.3198623,4.37083527 10.4297935,4.26917713 C10.5397247,4.16751898 10.5946903,4.0423059 10.5946903,3.89353789 C10.5946903,3.74476987 10.5333333,3.61335813 10.4106195,3.49930265 L7.9640118,1.20827522 C7.88731563,1.13389121 7.81189774,1.08058267 7.73775811,1.0483496 C7.66361849,1.01611653 7.58564405,1 7.50383481,1 C7.42202557,1 7.34277286,1.01611653 7.2660767,1.0483496 C7.18938053,1.08058267 7.11268437,1.13389121 7.0359882,1.20827522 L4.58938053,3.49930265 C4.47177974,3.61335813 4.41297935,3.74476987 4.41297935,3.89353789 C4.41297935,4.0423059 4.4653884,4.16751898 4.57020649,4.26917713 C4.67502458,4.37083527 4.80924287,4.42166434 4.97286136,4.42166434 C5.146706,4.42166434 5.28987217,4.35967767 5.40235988,4.23570432 L6.45309735,3.14969781 L6.92094395,2.63644816 L6.87492625,3.68526267 L6.87492625,10.8410042 C6.87492625,10.9996901 6.93628319,11.1385402 7.05899705,11.2575546 C7.18171091,11.376569 7.32999017,11.4360762 7.50383481,11.4360762 Z" transform="translate(-1 -1)"/></svg>