<svg xmlns="http://www.w3.org/2000/svg" width="66" height="74" viewBox="0 0 66 74"><g fill="none" fill-rule="evenodd"><rect width="66" height="74"/><path fill="#D24115" fill-rule="nonzero" d="M26.6527363,25.5854197 L46.6745025,25.5854197 C47.2006219,25.5854197 47.6487977,25.3939617 48.0190299,25.0110457 C48.389262,24.6281296 48.5743781,24.1813942 48.5743781,23.6708395 C48.5743781,23.140648 48.389262,22.6890034 48.0190299,22.3159057 C47.6487977,21.9428081 47.2006219,21.7562592 46.6745025,21.7562592 L26.6527363,21.7562592 C26.1461028,21.7562592 25.70767,21.9428081 25.3374378,22.3159057 C24.9672056,22.6890034 24.7820896,23.140648 24.7820896,23.6708395 C24.7820896,24.1813942 24.9672056,24.6281296 25.3374378,25.0110457 C25.70767,25.3939617 26.1461028,25.5854197 26.6527363,25.5854197 Z M26.6527363,33.2731959 L41.8517413,33.2731959 C42.3778607,33.2731959 42.8260365,33.0915562 43.1962687,32.7282769 C43.5665008,32.3649975 43.7516169,31.9182622 43.7516169,31.3880707 C43.7516169,30.877516 43.5665008,30.4307806 43.1962687,30.0478645 C42.8260365,29.6649485 42.3778607,29.4734904 41.8517413,29.4734904 L26.6527363,29.4734904 C26.1461028,29.4734904 25.70767,29.6649485 25.3374378,30.0478645 C24.9672056,30.4307806 24.7820896,30.877516 24.7820896,31.3880707 C24.7820896,31.9182622 24.9672056,32.3649975 25.3374378,32.7282769 C25.70767,33.0915562 26.1461028,33.2731959 26.6527363,33.2731959 Z M18.6464552,67 L54.1287313,67 C54.8034826,67 55.3673818,66.7731141 55.8204291,66.3193422 C56.2734764,65.8655703 56.5,65.3007691 56.5,64.6249386 C56.5,64.0842743 56.3361318,63.6063656 56.0083955,63.1912126 C55.6806592,62.7760596 55.2854478,62.4719359 54.8227612,62.2788414 C53.6853234,61.7961054 52.8708022,61.0285551 52.3791978,59.9761905 C51.8875933,58.9238259 51.7719216,57.7652594 52.0321828,56.5004909 C52.292444,55.2357225 52.9912935,54.0530191 54.1287313,52.952381 C54.7263682,52.3730977 55.2709888,51.6972672 55.7625933,50.9248895 C56.2541978,50.1525119 56.5,49.0808378 56.5,47.7098675 L56.5,16.8051055 C56.5,13.8893798 56.0488623,11.3796722 54.5933275,9.90249991 C53.1377927,8.4253276 50.6875,8 47.795709,8 L18.704291,8 C15.8317786,8 13.6629353,8.42282769 12.1977612,9.9 C10.7325871,11.3771723 10,13.8893798 10,16.8051055 L10,58.3397153 C10,61.1975127 10.7277674,63.3553428 12.1833022,64.8132057 C13.6388371,66.2710686 15.7932214,67 18.6464552,67 Z M12.2310945,51.416053 L12.2310945,14.9397515 C12.2310945,13.4743281 12.6178349,12.3540225 13.3913155,11.5788347 C14.1647962,10.8036469 15.3360669,10.416053 16.9051277,10.416053 L49.490763,10.416053 C51.0598238,10.416053 52.2421443,10.8036469 53.0377244,11.5788347 C53.8333045,12.3540225 54.2310945,13.4743281 54.2310945,14.9397515 L54.2310945,47.8799225 C54.2310945,49.4727741 53.3692161,50.2691999 51.6454592,50.2691999 L17.1371719,50.2691999 C16.1426967,50.2691999 15.2421443,50.3700805 14.4355144,50.5718417 C13.6288846,50.7736029 12.894078,51.0550067 12.2310945,51.416053 Z M17.2634667,65 C15.6431844,65 14.4224987,64.467128 13.6014097,63.4013841 C12.7803206,62.3356401 12.3697761,60.8615917 12.3697761,58.9792388 C12.3697761,57.2352941 12.824112,55.8235294 13.7327839,54.7439446 C14.6414558,53.6643599 15.894985,53.1245675 17.4933716,53.1245675 L48.957503,53.1245675 C49.32973,53.1245675 49.6800613,53.083045 50.0084969,53 C49.2640429,55.0207612 48.9356073,57.0899654 49.0231901,59.2076125 C49.110773,61.3252595 49.5596349,63.2560554 50.3697761,65 L17.2634667,65 Z M17.9133085,51.859352 L20.9133085,51.859352 L20.9133085,9.85935199 L17.9133085,9.85935199 L17.9133085,51.859352 Z"/><path fill="#F9A54F" fill-rule="nonzero" d="M17.5151173,65.0923415 C15.8855777,65.0923415 15.1324068,64.9311327 14.6128939,64.6926875 C14.093381,64.4542423 13.6470194,64.0568712 13.3742236,63.5871512 C13.0554623,63.0382842 12.5923581,61.7580445 12.5923581,60.6863278 C12.5923581,59.6146111 12.3685103,62.1234833 18.5270919,62.1234833 C24.6856735,62.1234833 49.5699935,61.4273796 49.9003055,61.4066184 C49.4335712,62.1234833 50.7765603,64.6563553 51.5913301,65.0923415 L17.5151173,65.0923415 Z M12.3926189,37.083947 C12.284936,23.2263047 12.2310945,15.5832684 12.2310945,14.1548381 C12.2310945,12.0121927 13.9202307,10.3 18.2310945,10.3 C17.2039575,10.7284258 16.5035022,11.0642676 16.1297287,11.3075255 C16.0225265,11.3772944 15.8231818,11.576672 15.5316945,11.9056583 C15.3415536,12.1150628 15.1849799,12.352283 15.0632053,12.6075527 L14.9079393,12.9359572 C14.694146,13.3881534 14.5609838,13.8742187 14.5144563,14.372239 L12.3926189,37.083947 L12.3926189,37.083947 Z M23,50.670792 L52.5965849,50.670792 C53.9587356,50.6525062 54.6398109,48.8492952 54.6398109,45.2611589 C54.6398109,39.8789544 53.9154796,48.5501773 51.7784925,48.5501773 C50.3538344,48.5501773 40.7610036,49.2570489 23,50.670792 Z"/></g></svg>