<svg xmlns="http://www.w3.org/2000/svg" width="66" height="74" viewBox="0 0 66 74"><g fill="none" fill-rule="evenodd"><rect width="66" height="74"/><path stroke="#D24115" stroke-linecap="round" stroke-linejoin="round" stroke-width="2.5" d="M33,17.3758155 L33,30.3767474 M33,15.750699 C35.6764569,15.750699 37.8461538,13.5679307 37.8461538,10.8753495 C37.8461538,8.18276832 35.6764569,6 33,6 C30.3235431,6 28.1538462,8.18276832 28.1538462,10.8753495 C28.1538462,13.5679307 30.3235431,15.750699 33,15.750699 Z M21.1430769,41.6189422 L43.7584615,41.6189422 M21.1430769,51.3696412 L37.2969231,51.3696412 M54.0034393,59 C54.0034393,64.5950693 51.0454035,67.5942196 45.1293318,67.997451 L42.15,67.996958 L42.15,59 L54.0034393,59 Z"/><path stroke="#D24115" stroke-width="2.5" d="M42.2708366,67.9995071 L38.6774968,67.9995071 L15,67.9995071 C13.3431458,67.9995071 12,66.6413548 12,64.9659891 L12,25.530256 C12,23.8548904 13.3431458,22.4967381 15,22.4967381 L51,22.4967381 C52.6568542,22.4967381 54,23.8548904 54,25.530256 L54,58.9702749"/><path fill="#F9A54F" d="M13.6499747,46.3076147 C13.6499747,48.9520767 12.6987227,61.4126848 13.278707,65.2555057 C13.5082684,66.7765177 15.1000919,67.1622275 18.3906126,67.1622275 C22.657328,67.1622275 28.2448774,66.5059065 28.8340878,66.274974 C29.8092886,65.8927581 20.8135015,66.6434548 17.7136579,62.7362062 C14.6138142,58.8289576 13.6499747,43.6631528 13.6499747,46.3076147 Z M52.3489029,44.3546128 C52.3489029,41.7101509 53.3001549,29.2495427 52.7201705,25.4067218 C52.4906092,23.8857098 50.8987857,23.5 47.6082649,23.5 C43.3415495,23.5 37.7540001,24.156321 37.1647898,24.3872535 C36.1895889,24.7694694 45.1853761,24.0187727 48.2852197,27.9260213 C51.3850633,31.8332699 52.3489029,46.9990748 52.3489029,44.3546128 Z M29.6420807,10.3462039 C29.6420807,10.5835243 29.6694011,10.8144564 29.7195564,11.0372331 C30.0444108,9.59700005 31.3619059,8.51573792 32.9338477,8.51573792 C34.5057894,8.51573792 35.8231486,9.59686413 36.1481389,11.0370971 C36.1984302,10.8143204 36.2256146,10.5832525 36.2256146,10.346068 C36.2256146,8.38949674 34.832537,7.05179618 33.0174302,7.05179618 C31.2023234,7.05166026 29.6420807,8.57472821 29.6420807,10.3462039 Z"/></g></svg>