<svg xmlns="http://www.w3.org/2000/svg" width="66" height="74" viewBox="0 0 66 74"><g fill="none" fill-rule="evenodd"><rect width="66" height="74"/><g fill-rule="nonzero" transform="translate(11.083 2)"><path stroke="#D24115" stroke-width="2.5" d="M11.5854676,69.9079984 C12.2692257,70.2714951 12.9905003,69.4843382 12.5718728,68.832835 C10.2996179,65.296348 8.14791855,59.345433 11.5760885,51.6814624 C17.2929839,38.9010866 20.7717094,32.2817402 20.7717094,32.2817402 C20.7717094,32.2817402 22.6220199,40.0064461 27.6377715,46.8747958 C32.4651408,53.4851062 35.107412,61.79875 30.8477061,68.724518 C30.4479512,69.3745343 31.1528695,70.1414461 31.8321669,69.793848 C37.1050427,67.0965605 43.0191277,61.6860866 43.6864153,50.9193546 C43.9324447,47.6293546 43.5634578,43.0233088 41.7184088,37.2109069 C39.3460721,29.8442075 36.4296342,26.4067729 34.7421996,24.9305964 C34.2374447,24.4889788 33.452461,24.880384 33.4938663,25.5497304 C33.985582,33.4983905 30.9952552,35.5154657 29.29318,30.9696977 C28.6134251,29.1540441 28.2169872,26.013652 28.2169872,22.1892729 C28.2169872,15.8223611 26.369765,9.26821079 22.2972976,3.94226308 C21.2382617,2.55724674 19.9990787,1.26304739 18.5773467,0.159403598 C18.0626408,-0.240236924 17.316546,0.161462422 17.3636702,0.811364383 C17.6763826,5.12757353 17.3930656,17.4975572 6.54066365,32.2757925 C-3.29925465,45.9842402 0.513686528,56.5122631 1.86667672,59.3637337 C4.45347411,64.8263644 8.06167672,68.0343546 11.5854676,69.9079984 Z"/><path fill="#F9A54F" d="M10.2735689,69.4345031 C10.8236173,69.7979998 11.4280594,68.8074482 11.0670813,68.3593397 C1.91651333,57.0000735 6.91651333,47.0000735 7.91651333,43.0000735 C9.02971872,38.547252 13.5590886,28.2813594 15.9165133,20.0000735 C18.3459742,11.4657353 18.4240376,3.5226465 17.9165133,2.00007353 C17.2981152,0.144879037 18.3173207,8.28971009 14.9165133,18.0000735 C12.8179393,23.9921555 8.24797373,30.3606718 4.91651333,36.0000735 C-2.99919572,49.7085212 1.91651333,58.0000735 2.91651333,60.0000735 C5.12214073,64.4113283 7.43886012,67.5608593 10.2735689,69.4345031 Z M22.0141925,30.9742738 C22.0025575,31.6408389 22.3125702,32.9797866 22.9442305,34.991117 C23.891721,38.0081125 29.8036975,43.094613 30.7860927,44.1119131 C31.768488,45.1292132 37.6803122,50.2331661 37.5232405,59.2317953 C37.4185261,65.2308815 35.3606052,68.5346198 31.349478,69.1430103 C33.418983,65.1785243 34.1495403,61.524051 33.5411498,58.1795904 C32.6285642,53.1628995 29.7162831,48.1113039 25.8041544,43.0422558 C23.1960685,39.6628904 21.9327479,35.6402297 22.0141925,30.9742738 Z M34.3759484,25.6347955 C38.5437776,30.4498505 40.5927928,33.8567688 40.5229938,35.8555505 C40.4182953,38.8537229 40.4880943,36.8549413 38.5940111,33.7869698 C38.1204903,33.0199769 37.7653497,32.4447323 37.4833788,32.0127535 L37.305742,31.7454602 C36.6066206,30.71574 36.3945585,30.7083346 35.7005371,30.6840988 C34.7011463,30.6491993 34.6662468,31.6485902 33.597057,33.6124723 C32.5278671,35.5763545 31.4935768,36.5408458 29.5296947,35.471656 C27.5658125,34.4024662 26.6362207,32.368785 26.7758187,28.3712217 C26.9154167,24.3736584 27.8450085,26.4073396 27.7752095,28.4061212 C27.7054105,30.4049029 30.494186,36.5059463 32.6325656,32.578182 C34.0581521,29.9596725 34.6392796,27.6452103 34.3759484,25.6347955 Z"/></g></g></svg>