<svg xmlns="http://www.w3.org/2000/svg" width="67" height="74" viewBox="0 0 67 74"><g fill="none" fill-rule="evenodd" transform="translate(1)"><rect width="66" height="74"/><g fill-rule="nonzero" transform="translate(1 20.01)"><path stroke="#D24115" stroke-width="2.5" d="M20.7488794,51.58137 C19.4224134,51.58137 18.0997532,51.4010011 16.817326,51.0451564 L16.7185105,51.0164768 C16.6974425,51.0102244 16.677326,51.003972 16.6574814,50.9971759 L14.9179474,50.4038749 C14.8683357,50.3868846 14.8200833,50.3673118 14.7729183,50.3450205 L14.7035979,50.3122632 C6.63008331,46.8682632 0.585617292,37.3963797 0.0041415642,27.2750594 C-0.0359555232,26.5781856 0.216588166,25.8853895 0.697073603,25.3747293 C1.17932603,24.8618943 1.86070467,24.5642244 2.56641341,24.5575642 L6.10216098,24.5260302 C7.44371438,24.5260302 8.57757846,25.5734477 8.68359787,26.9106516 C8.9302969,30.0157972 10.116627,33.3993118 12.0240251,36.4379914 C13.8187435,39.2972535 16.0224522,41.4495836 18.0722969,42.3457196 L19.2091513,42.7355448 C21.775093,43.4201856 24.4276173,42.3882632 25.9708794,40.1044963 C27.5777532,37.7274865 27.5777532,34.5335836 25.9710154,32.1568458 C24.5064522,29.9901079 22.0728988,28.9450011 19.6188212,29.4286128 C18.6732095,29.615506 17.7114231,29.1433118 17.2798697,28.2789817 L15.2460639,24.2093312 C14.7867823,23.2902244 15.0489765,22.1719914 15.8695396,21.5500108 C15.9134425,21.5167098 15.9596561,21.4858555 16.0068212,21.4582632 L16.3035396,21.28537 C19.1954231,19.5538555 21.5748794,17.1671953 22.8280833,14.7392147 C24.1143163,12.2476225 23.743928,10.8667875 23.4087435,10.265603 C22.9565299,9.45469043 21.8278309,8.99092344 19.5129377,8.66498169 C17.8722192,8.43459334 14.9091124,9.29783606 11.5855396,10.9732147 C10.4679862,11.5368846 9.09652991,11.13537 8.46272409,10.0598166 L6.48138428,6.69886519 C6.1497338,6.13614674 6.06641341,5.45490402 6.252627,4.82993315 C6.43897652,4.20523412 6.88181147,3.67962247 7.46777263,3.38806907 C9.79054933,2.2323215 15.6663357,-0.405523164 20.0510542,0.0529428551 C25.4048988,0.614573923 29.0902969,2.64036033 31.0047629,6.07403023 C33.0040445,9.65952538 32.8390348,14.2568264 30.5518697,18.6872147 C30.1249377,19.5140302 29.6176755,20.3417972 29.0401416,21.1540691 L29.7260056,21.2209429 L34.1065105,21.220671 C34.5029959,21.220671 34.8228212,20.9187875 34.9262581,20.4494477 C34.9301998,20.3994283 38.4329183,9.57593315 41.0184328,7.23317586 C43.8975396,4.62183606 47.5804911,3.46636033 51.1216755,4.06156421 C57.9029765,5.20249625 62.8682192,11.9523992 63.4770154,20.8574865 C64.0671901,29.492904 60.4122387,37.0437972 54.1653843,40.0941662 C50.1598891,42.0499526 46.4020445,40.9855448 44.5184328,40.1770788 C43.9497338,39.9332341 43.5086658,39.4588652 43.3084522,38.8760302 C43.1085105,38.293739 43.1655979,37.6506904 43.4648988,37.1118943 L45.5536173,33.3544574 C46.0807241,32.4061273 47.2033066,31.9865351 48.2225882,32.3574671 C48.7779668,32.5591759 49.6091319,32.7139914 50.4161027,32.3030982 C51.5448018,31.7282827 52.7163163,30.3047681 53.549928,28.4949623 C54.5307435,26.365739 54.9798309,23.8602827 54.8144134,21.4401856 C54.6499474,19.0358555 53.9241221,16.7703021 52.7708212,15.0609429 C51.8344522,13.6733118 50.6761221,12.7440108 49.6720639,12.5751953 C48.6894814,12.409506 47.8496173,12.7199526 46.8641804,13.6140497 C45.6143746,14.74737 44.593326,16.6581662 44.0618697,18.8571176 L43.4912678,21.81737 C43.4870542,21.8397972 43.4820251,21.862904 43.4763163,21.8860108 C42.3947823,28.6259914 37.250394,28.9103409 34.1029765,28.8975642 C35.2649765,31.1382438 35.8720056,33.6528069 35.8618115,36.1950982 C35.8491707,39.3240302 34.9200056,42.3425933 33.1747629,44.924438 C30.3577726,49.0922244 25.7130348,51.5808264 20.7501027,51.58137 L20.7502387,51.58137 C20.7499668,51.58137 20.7492872,51.58137 20.7488794,51.58137 Z"/><path fill="#F9A54F" d="M45.2520056,11.5753312 C45.8065687,11.6687098 46.4080251,11.9947875 46.9933066,12.5010982 C46.9504911,12.538205 46.9078115,12.574904 46.8644522,12.6143215 C45.6840801,13.6846796 44.7077538,15.4484057 44.1552062,17.4936293 L44.0621416,17.8573895 L43.4915396,20.8176419 C43.487462,20.840205 43.4822969,20.8631759 43.4765882,20.8862827 C42.4309739,27.4015972 37.588975,27.8844832 34.4241635,27.8977724 L34.1029765,27.8977001 C35.2649765,30.1383797 35.8720056,32.6529429 35.8618115,35.1952341 C35.8491707,38.3241662 34.9200056,41.3427293 33.1747629,43.9245739 C30.4263471,47.990707 25.9383842,50.4588269 21.1126446,50.5768041 L20.7501027,50.5812341 C20.0119086,50.5812341 19.2765687,50.523603 18.5484328,50.4130982 C22.6521998,49.7911176 26.3626076,47.4638555 28.7547047,43.9245739 C30.4999474,41.3427293 31.4291124,38.3241662 31.4417532,35.1952341 C31.4500445,33.1281273 31.0502969,31.0792341 30.2758115,29.1810788 C30.0278891,28.5732341 30.4474814,27.9036807 31.1030348,27.8688846 C34.1888794,27.7049623 38.1258697,26.6841856 39.0562581,20.8861467 L39.0642945,20.8516225 L39.0642945,20.8516225 L39.0712095,20.817506 L39.6418115,17.8572535 C40.1732678,15.6583021 41.1943163,13.747506 42.4441221,12.6141856 C43.429559,11.7200885 44.2694231,11.4096419 45.2520056,11.5753312 Z M5.84068525,24.989137 C7.18210273,24.989137 8.31610273,26.0364186 8.42212215,27.3737584 C8.66882118,30.4790399 9.85515127,33.8624186 11.7625493,36.9010982 C13.5572678,39.7603603 15.7609765,41.9128264 17.8108212,42.8088264 L17.8108212,42.8088264 L18.3217532,42.9841662 C17.1371901,43.4522827 15.821462,43.5440302 14.5276173,43.1987875 L14.5276173,43.1987875 L13.3907629,42.8089623 C11.3409183,41.9129623 9.13720953,39.7604963 7.34249108,36.9012341 C5.43509302,33.8625545 4.24876292,30.4790399 4.00206389,27.3738943 C3.91072409,26.2220885 3.0561804,25.2870788 1.96390855,25.0494865 C2.07658817,25.0333118 2.19021923,25.0217584 2.30493768,25.020671 L2.30493768,25.020671 Z M19.051326,1.04175952 C24.4051707,1.60339059 28.0905687,3.629177 30.0050348,7.0628469 C32.0043163,10.648342 31.8393066,15.245643 29.5521416,19.6760314 C29.2104872,20.3374838 28.8175086,20.9995452 28.3783555,21.6537948 L28.0404134,22.1428857 L28.7052095,22.2077207 L28.6958988,22.2086552 L28.6958988,22.2086552 L28.6865882,22.2094877 L24.3060833,22.2097595 L24.2262822,22.1940929 C23.9731399,22.1178457 23.853326,21.81147 24.0082775,21.5786721 C24.4271901,20.9488081 24.8032872,20.3121479 25.1318115,19.6758954 C27.4189765,15.2455071 27.5839862,10.6482061 25.5847047,7.06271098 C23.8038503,3.86867214 20.489792,1.89372069 15.7269377,1.18148768 C16.8741221,1.00057506 18.0052678,0.932342047 19.051326,1.04175952 Z M15.0927435,8.66511761 C15.7129571,8.75251567 16.2456367,8.8501079 16.705326,8.96129237 C15.2298891,9.33834091 13.4656173,10.0255642 11.5854037,10.9733506 C10.5500833,11.4954283 9.29796681,11.1881079 8.61522894,10.2850399 C11.3370736,9.06853509 13.695326,8.46898169 15.0927435,8.66511761 Z M63.4772872,20.8577584 C62.8684911,11.952671 57.9032484,5.2027681 51.1219474,4.06183606 C49.7721027,3.83498169 48.4015979,3.86311761 47.0628988,4.12870985 C53.6588018,5.44484577 58.4591707,12.1115642 59.057093,20.8577584 C59.6472678,29.4931759 55.9923163,37.0440691 49.745462,40.094438 C48.8592484,40.5272147 47.9852678,40.8115642 47.1407823,40.9840497 C49.0848794,41.3604186 51.5729377,41.3602827 54.1655202,40.094438 C60.4125105,37.0440691 64.067462,29.4931759 63.4772872,20.8577584 Z"/></g><g fill-rule="nonzero" transform="translate(23.507 7.873)"><path stroke="#C22D01" stroke-width="2" d="M14.2338766,13.2715675 C13.5291193,13.2715675 12.8181096,13.223451 12.1204203,13.1283054 C7.13288632,12.4477423 2.66620671,9.36978112 0.171896031,4.89481025 C-0.194958338,4.23640248 0.0448086525,3.40374229 0.706206711,3.03865491 L5.90007079,0.171237434 C6.21609021,-0.00355868216 6.59667273,-0.0467819831 6.94395428,0.0525772402 C7.29612904,0.153023842 7.58822613,0.383955881 7.76587661,0.703101512 C8.95941059,2.84469375 10.9773135,4.254752 13.302129,4.57172287 C15.6045174,4.88543161 17.8775465,4.07954811 19.5386533,2.35958695 C20.0627698,1.81725685 20.9330805,1.79972287 21.4785368,2.32112093 L25.7583232,6.41115976 C26.0226921,6.66370345 26.1723426,7.0036452 26.1796824,7.36832481 C26.1870222,7.73300442 26.0512358,8.07851899 25.7974688,8.3415287 C22.7729252,11.4746743 18.5581096,13.2715675 14.2338766,13.2715675 Z"/><path fill="#F9A54F" d="M19.5383815,2.35945103 C20.0626339,1.81712093 20.9328087,1.79958695 21.478265,2.32098501 L21.478265,2.32098501 L25.7580514,6.41102384 C26.0222844,6.66356753 26.1719349,7.00350928 26.1792747,7.36818889 C26.1867504,7.7328685 26.050964,8.07838307 25.7970611,8.34139277 C22.7727892,11.4746743 18.5581096,13.2715675 14.2337407,13.2715675 C13.598032,13.2715675 12.9575659,13.2302471 12.3260708,13.1527714 C15.9585951,12.7061306 19.3953912,11.0083248 21.9696242,8.34139277 C22.2233912,8.07838307 22.3591776,7.7328685 22.3518378,7.36818889 C22.344498,7.00350928 22.1948475,6.66356753 21.9304786,6.41102384 L21.9304786,6.41102384 L18.5750999,3.20434423 C18.9139543,2.95343161 19.236498,2.67207239 19.5383815,2.35945103 Z M5.89993487,0.171101512 C6.21609021,-0.00369460449 6.59653681,-0.0469179055 6.94381836,0.0523053955 C7.29599312,0.152751997 7.58809021,0.383684036 7.76574069,0.702829667 C8.79426496,2.54838307 10.4359349,3.84861608 12.3577407,4.37626656 C11.4319737,4.63356753 10.4561873,4.7051986 9.47455623,4.57145103 C7.30333292,4.27541219 5.4004203,3.02547044 4.18609021,1.11725685 L4.18609021,1.11725685 Z"/></g><g fill-rule="nonzero" transform="translate(34.767 2)"><path stroke="#C22D01" stroke-width="2" d="M3.21266019,6.5836699 C1.44118447,6.5836699 0,5.10714563 0,3.29203883 C0,1.47666019 1.44104854,0 3.21238835,0 C4.98372816,0 6.42491262,1.47666019 6.42491262,3.29176699 C6.42491262,5.10687379 4.98386408,6.5836699 3.21266019,6.5836699 Z"/><path fill="#F9A54F" d="M3.21238835,0 C2.97506796,0 2.74413592,0.0273203883 2.52135922,0.0774757282 C3.96159223,0.402330097 5.04285437,1.71982524 5.04285437,3.29176699 C5.04285437,4.86370874 3.96172816,6.18106796 2.52149515,6.50605825 C2.74427184,6.55634951 2.97533981,6.58353398 3.21252427,6.58353398 C4.98372816,6.58353398 6.4247767,5.10687379 6.4247767,3.29176699 C6.42491262,1.47666019 4.98386408,0 3.21238835,0 Z"/></g></g></svg>