<svg xmlns="http://www.w3.org/2000/svg" width="66" height="74" viewBox="0 0 66 74"><g fill="none" fill-rule="evenodd"><rect width="66" height="74"/><path stroke="#D24115" stroke-linecap="round" stroke-linejoin="round" stroke-width="2.5" d="M33,7 C49.5686667,7 63,20.4314667 63,37 C63,53.5686667 49.5686667,67 33,67 C16.4314667,67 3,53.5686667 3,37 C3,20.4314667 16.4314667,7 33,7 Z M26.3333333,29.8950667 L26.3333333,44.105 C26.3333333,46.7673333 29.3003333,48.3553333 31.5156667,46.8783333 L42.173,39.7736667 C44.1523333,38.454 44.1523333,35.546 42.173,34.2263333 L31.5156667,27.1215667 C29.3003333,25.6447667 26.3333333,27.2327333 26.3333333,29.8950667 Z"/><path fill="#F9A54F" d="M30.6126161,46.1721097 C30.6126161,46.1721097 34.6197287,43.4722158 42.6339538,38.0724281 C41.0270356,38.0724281 36.6911577,39.2135978 34.9954167,40.2735472 C31.8911852,42.2138955 30.6126161,46.1721097 30.6126161,46.1721097 Z M9.2509696,52.1109979 C12.2278882,56.7578841 15.1454012,59.9072572 18.0035085,61.5591174 C19.978321,62.700472 22.2141067,63.8367339 24.5037038,64.5051916 C27.8157849,65.4721679 31.129528,65.715411 33,65.715411 C38.9705741,65.715411 44.2609107,64.1158309 48.8710099,60.9166708 C42.0327954,62.9874143 34.0451232,62.9874143 24.9079933,60.9166708 C20.5818875,59.9362475 15.3628796,57.0010232 9.2509696,52.1109979 Z M56.8710099,21.715411 C53.8940913,17.0685248 50.9765784,13.9191517 48.1184711,12.2672915 C46.1436585,11.1259369 43.9078728,9.98967496 41.6182757,9.32121726 C38.3061946,8.35424094 34.9924515,8.11099792 33.1219795,8.11099792 C27.1514054,8.11099792 21.8610688,9.71057797 17.2509696,12.9097381 C24.0891841,10.8389946 32.0768564,10.8389946 41.2139862,12.9097381 C45.540092,13.8901614 50.7590999,16.8253857 56.8710099,21.715411 Z"/></g></svg>