<svg xmlns="http://www.w3.org/2000/svg" width="66" height="74" viewBox="0 0 66 74"><g fill="none" fill-rule="evenodd"><rect width="66" height="74"/><path stroke="#D24115" stroke-width="2.5" d="M33.5784191,16.0007796 C35.3223949,16.0076507 40.7254643,16.0465872 45.9592517,16.2672268 L46.7053707,16.299999 C50.798144,16.4872221 54.6738671,16.7910182 56.4755546,17.2839703 C59.0454534,17.9759583 61.0719839,20.0015793 61.7636685,22.571363 C62.9226422,26.80348 62.9966533,35.1736438 63,36.7792884 L63.0000815,36.9798834 C63.0000571,36.99507 63.0000276,37.0078237 62.9999991,37.0180791 L62.9992087,37.2371698 C62.9915866,38.610994 62.8985972,47.1679397 61.7641263,51.4774244 C61.0719839,54.0467504 59.0459113,56.0728291 56.4755546,56.7643595 C54.6738671,57.2385208 50.7982114,57.5307364 46.7055212,57.7108228 L45.9594175,57.7423457 C40.6011265,57.9596279 35.0654179,57.9937113 33.4605706,57.9990578 L33.1180584,57.9999281 C33.0985706,57.9999592 33.0814155,57.9999825 33.0666446,58 L32.9694975,58.0000363 C32.9595725,58.0000282 32.9472177,58.0000161 32.9324845,57.9999979 L32.5395392,57.9990184 C31.087536,57.9939771 26.4092414,57.9643597 21.5560777,57.7903578 L20.808469,57.7624329 L20.808469,57.7624329 L20.0605702,57.7321329 C15.7017823,57.5482666 11.4542168,57.2382174 9.52340196,56.7153894 C6.95304531,56.0234014 4.92697264,53.9973226 4.23483031,51.4279967 C3.12084524,47.240033 3.01127294,38.8745843 3.00049533,37.26944 L3.00049533,36.7312013 C3.01127294,35.1334614 3.12084524,26.80348 4.23483031,22.571363 C4.92651479,20.002037 7.00248405,17.9265306 9.52294422,17.2350002 C11.3792283,16.7464704 15.4370801,16.4510803 19.6655867,16.2724723 L20.787488,16.2278689 L20.787488,16.2278689 L21.5357172,16.2010086 C26.2687043,16.0379309 30.8417911,16.0067033 32.419636,16.0007235 Z M27.1859783,29.5450316 C27.0767258,29.7347617 27.019222,29.9498593 27.019222,30.1687967 L27.019222,43.830563 C27.019222,44.5209189 27.5788661,45.080563 28.269222,45.080563 C28.4881595,45.080563 28.7032571,45.0230592 28.8929872,44.9138067 L40.7556437,38.0829237 C41.3539027,37.7384277 41.5596183,36.9741738 41.2151224,36.3759148 C41.1051462,36.1849279 40.9466306,36.0264122 40.7556437,35.9164361 L28.8929872,29.085553 C28.2947282,28.741057 27.5304743,28.9467726 27.1859783,29.5450316 Z"/><path fill="#F9A54F" d="M29.0081598,30.5176227 C29.0081598,30.5176227 32.6520829,32.6783084 39.9399291,36.9996798 C38.3330109,36.9996798 36.1697855,36.327429 34.4740445,35.2674796 C31.369813,33.3271313 29.0081598,30.5176227 29.0081598,30.5176227 Z M37.3491614,17.5031866 C28.5054153,17.9325673 21.2047375,18.9738968 15.4471281,20.627175 C9.68951859,22.2804532 5.90059388,27.7380615 4.08035391,37 C3.68050052,27.4372446 4.94161537,21.5635838 7.86369849,19.3790175 C10.7857816,17.1944513 20.6142692,16.5691743 37.3491614,17.5031866 Z M62.2769673,37.0835825 C62.6768207,46.6463379 61.4157058,52.5199987 58.4936227,54.704565 C55.5715396,56.8891312 45.743052,57.5144082 29.0081598,56.5803958 C37.8519059,56.1510152 45.1525837,55.1096857 50.9101932,53.4564075 C56.6678026,51.8031293 60.4567273,46.3455209 62.2769673,37.0835825 Z"/></g></svg>