<svg xmlns="http://www.w3.org/2000/svg" width="61" height="72" viewBox="0 0 61 72"><path d="M40.3422831,19.0268539 L33.720143,14.7410897 C32.3436028,13.8502488 30.5,14.808148 30.5,16.4141308 L30.5,24.9859007 C30.5,26.5918835 32.3436028,27.5498029 33.720143,26.6588414 L40.3422831,22.3731374 C41.5721801,21.5770831 41.5721801,19.8229083 40.3422831,19.0268539 Z M16.1470588,61.2 C14.7117647,61.2 13.4558824,60.66 12.3794118,59.58 C11.3029412,58.5 10.7647059,57.24 10.7647059,55.8 L10.7647059,5.4 C10.7647059,3.96 11.3029412,2.7 12.3794118,1.62 C13.4558824,0.54 14.7117647,0 16.1470588,0 L55.6176471,0 C57.0529412,0 58.3088235,0.54 59.3852941,1.62 C60.4617647,2.7 61,3.96 61,5.4 L61,55.8 C61,57.24 60.4617647,58.5 59.3852941,59.58 C58.3088235,60.66 57.0529412,61.2 55.6176471,61.2 L16.1470588,61.2 Z M16.1470588,55.8 L55.6176471,55.8 C55.6176471,55.8 55.6176471,55.8 55.6176471,55.8 C55.6176471,55.8 55.6176471,55.8 55.6176471,55.8 L55.6176471,5.4 C55.6176471,5.4 55.6176471,5.4 55.6176471,5.4 C55.6176471,5.4 55.6176471,5.4 55.6176471,5.4 L16.1470588,5.4 C16.1470588,5.4 16.1470588,5.4 16.1470588,5.4 C16.1470588,5.4 16.1470588,5.4 16.1470588,5.4 L16.1470588,55.8 C16.1470588,55.8 16.1470588,55.8 16.1470588,55.8 C16.1470588,55.8 16.1470588,55.8 16.1470588,55.8 Z M5.38235294,12.33 L5.38235294,66.6 L47.9029412,66.6 L47.9029412,70.2 C47.9029412,71.1941125 47.0970537,72 46.1029412,72 L5.38235294,72 C3.94705882,72 2.69117647,71.46 1.61470588,70.38 C0.538235294,69.3 0,68.04 0,66.6 L0,14.13 C5.4439014e-16,13.1358875 0.80588745,12.33 1.8,12.33 L5.38235294,12.33 Z M43.95,41.4 C44.9441125,41.4 45.75,42.2058875 45.75,43.2 C45.75,44.1941125 44.9441125,45 43.95,45 L27.8147059,45 C26.8205933,45 26.0147059,44.1941125 26.0147059,43.2 C26.0147059,42.2058875 26.8205933,41.4 27.8147059,41.4 L43.95,41.4 Z M43.95,34.2 C44.9441125,34.2 45.75,35.0058875 45.75,36 C45.75,36.9941125 44.9441125,37.8 43.95,37.8 L27.8147059,37.8 C26.8205933,37.8 26.0147059,36.9941125 26.0147059,36 C26.0147059,35.0058875 26.8205933,34.2 27.8147059,34.2 L43.95,34.2 Z"/></svg>