<svg xmlns="http://www.w3.org/2000/svg" width="32" height="19" viewBox="0 0 32 19"><path d="M7.33518617,8.84 L11.5692553,19.5575099 L11.6225791,19.681015 C11.799264,20.0320293 12.1263697,20.2075364 12.6038963,20.2075364 L12.6038963,20.2075364 L12.97,20.2075364 L12.97,20.81 L8.27432181,20.81 L8.27432181,20.2075364 L8.65634309,20.2075364 L8.82737557,20.2050289 C9.54106668,20.1832966 9.89791223,20.0203046 9.89791223,19.716053 C9.89791223,19.6209272 9.87668883,19.5258013 9.83424202,19.4306755 L9.83424202,19.4306755 L8.86327128,16.9256954 L4.19942819,16.9256954 L3.65823138,18.3684371 L3.61401596,18.4873444 C3.54621897,18.6723113 3.50789894,18.7912185 3.49905585,18.8440662 C3.45660904,19.0026093 3.43538564,19.1611523 3.43538564,19.3196954 C3.43538564,19.5522252 3.56537899,19.7583311 3.82536569,19.9380132 C4.08535239,20.1176954 4.43288564,20.2075364 4.86796543,20.2075364 L4.86796543,20.2075364 L5.26590426,20.2075364 L5.26590426,20.81 L1,20.81 L1,20.2075364 L1.12734043,20.2075364 L1.27144734,20.2011947 C1.9330516,20.1420053 2.44213032,19.6684901 2.79868351,18.780649 L2.79868351,18.780649 L6.80990691,8.84 L7.33518617,8.84 Z M23.7802926,2 L30.4338298,18.8418013 L30.4918964,18.9825141 C30.7628738,19.5696857 31.285473,19.8632715 32.0596941,19.8632715 L32.0596941,19.8632715 L32.635,19.8632715 L32.635,20.81 L25.2560771,20.81 L25.2560771,19.8632715 L25.8563963,19.8632715 L26.0791791,19.8605991 C27.2313487,19.8320932 27.8074335,19.5755403 27.8074335,19.0909404 C27.8074335,18.941457 27.7740824,18.7919735 27.7073803,18.6424901 L27.7073803,18.6424901 L26.1815691,14.7060927 L18.8526729,14.7060927 L18.0022207,16.9732583 L17.9490675,17.1157347 C17.8323388,17.4318299 17.7666789,17.6334768 17.7520878,17.7206755 C17.6853856,17.9698146 17.6520346,18.2189536 17.6520346,18.4680927 C17.6520346,18.8334967 17.8563098,19.1573775 18.2648604,19.4397351 C18.6734109,19.7220927 19.2195346,19.8632715 19.9032314,19.8632715 L19.9032314,19.8632715 L20.5285638,19.8632715 L20.5285638,20.81 L13.825,20.81 L13.825,19.8632715 L14.0251064,19.8632715 L14.2044954,19.8570603 C15.2671102,19.7825256 16.0827793,19.0371788 16.6515027,17.6210199 L16.6515027,17.6210199 L22.9548537,2 L23.7802926,2 Z M6.57114362,11.1071656 L4.4700266,16.3232318 L8.62450798,16.3232318 L6.57114362,11.1071656 Z M22.5796543,5.56268874 L19.2778989,13.7593642 L25.8063697,13.7593642 L22.5796543,5.56268874 Z" transform="translate(-1 -2)"/></svg>