<svg xmlns="http://www.w3.org/2000/svg" width="20" height="17" viewBox="0 0 20 17"><defs><linearGradient id="a" x1="50%" x2="50%" y1="0%" y2="100%"><stop offset="0%" stop-color="#AAB7C7"/><stop offset="100%" stop-color="#718096"/></linearGradient><linearGradient id="b" x1="50%" x2="50%" y1="0%" y2="100%"><stop offset="0%" stop-color="#AAB7C7"/><stop offset="100%" stop-color="#718096"/></linearGradient><linearGradient id="c" x1="50%" x2="50%" y1="0%" y2="100%"><stop offset="0%" stop-color="#AAB7C7"/><stop offset="100%" stop-color="#718096"/></linearGradient></defs><g fill="none" fill-rule="evenodd" transform="translate(1 1)"><path stroke="url(#a)" stroke-width="1.25" d="M9.93103448,4.33333333 L16.7586207,4.33333333 C17.4442156,4.33333333 18,4.930287 18,5.66666667 L18,13.6666667 C18,14.4030463 17.4442156,15 16.7586207,15 L9.31034483,15 C8.62474997,15 8.06896552,14.4030463 8.06896552,13.6666667 C8.06896552,12.3333333 8.06896552,11.3333333 8.06896552,10.6666667"/><rect width="9.931" height="10.667" stroke="url(#a)" stroke-width="1.25" rx="1.296"/><path fill="url(#b)" fill-rule="nonzero" stroke="url(#b)" stroke-width=".3" d="M7.71204324,9 L7.71204324,2.99370349 L8.24210526,3.00973097 L8.226629,2.12421294 L5.46024688,2.12421294 L6.15280968,3.00973097 L6.89567033,3.00973097 L6.89567033,4.38008014 C6.89567033,4.43350506 6.86858687,4.49227247 6.81441995,4.55638237 C6.78088804,4.5991223 6.75573911,4.62917382 6.73897316,4.64653692 C6.72220721,4.66390002 6.69318922,4.69261591 6.65191918,4.7326846 L6.65191918,4.7326846 L6.5706688,4.81282198 L4.85280354,4.81282198 L4.53554013,4.68460218 C4.68514402,4.63651975 4.8231407,4.55638237 4.94953018,4.44419004 C5.07591967,4.33199771 5.17587054,4.20110666 5.24938279,4.05151689 C5.32289504,3.90192711 5.35965117,3.75100172 5.35965117,3.5987407 L5.35965117,3.5987407 L5.35965117,3.52661706 C5.33643677,3.32093112 5.28678376,3.12726579 5.21069213,2.94562106 C5.1346005,2.76397634 5.03400479,2.6043694 4.90890499,2.46680023 C4.7838052,2.32923106 4.64000491,2.22037779 4.47750415,2.14024041 C4.38980532,2.09482923 4.30146165,2.06010303 4.21247313,2.03606182 C4.12348462,2.01202061 4.02998219,2 3.93196585,2 L3.93196585,2 L3.83910827,2 C3.63017871,2 3.40577289,2.0407365 3.16589081,2.1222095 C2.92600872,2.2036825 2.70289259,2.30051517 2.49654241,2.4127075 C2.38047043,2.4768174 2.28374378,2.53291357 2.20636246,2.58099599 C2.12898115,2.62907842 2.05288952,2.68116772 1.97808758,2.73726388 C1.84395996,2.83609998 1.77689615,2.89620301 1.77689615,2.91757298 L1.77689615,2.91757298 L1.79237241,2.91757298 L2.40368482,3.58271322 C2.53007431,3.39038351 2.67580913,3.21942377 2.84088927,3.069834 C3.00596942,2.92024423 3.18975005,2.79603129 3.39223116,2.69719519 C3.59471228,2.59835909 3.79654855,2.53024232 3.99773997,2.49284488 L3.99773997,2.49284488 L4.06738316,2.49284488 C4.17829638,2.49284488 4.29178898,2.5289067 4.40786096,2.60103034 C4.52393294,2.67315398 4.62065958,2.76931883 4.6980409,2.8895249 C4.77542222,3.00973097 4.81411288,3.14195764 4.81411288,3.28620492 L4.81411288,3.28620492 L4.81411288,3.34630796 C4.78316035,3.60541881 4.6703126,3.8311391 4.47556961,4.0234688 C4.28082663,4.21579851 4.0519069,4.36672391 3.78881042,4.47624499 C3.52571393,4.58576608 3.27035559,4.65521847 3.02273537,4.68460218 L3.02273537,4.68460218 L3.56053553,5.36576989 C3.56311491,5.34707117 3.61599214,5.3257012 3.71916723,5.30165999 C3.82234232,5.27761878 3.9384143,5.26559817 4.06738316,5.26559817 C4.48524228,5.26559817 4.77542222,5.38847548 4.93792299,5.63423011 C4.96887551,5.68498378 5.00692133,5.77647396 5.05206043,5.90870063 C5.09719953,6.0409273 5.11976908,6.18717802 5.11976908,6.34745278 C5.11976908,6.6279336 5.03078057,6.860332 4.85280354,7.04464797 C4.73157281,7.17019653 4.58970706,7.26903263 4.42720629,7.34115627 C4.26470552,7.41327991 4.097046,7.44934173 3.92422772,7.44934173 C3.68950439,7.44934173 3.44704293,7.38857088 3.19684333,7.26702919 C2.94664374,7.1454875 2.68935086,6.95649685 2.42496469,6.70005724 C2.16057852,6.44361763 1.9071547,6.12173249 1.66469324,5.73440183 L1.66469324,5.73440183 L1.61052632,5.94676588 L1.87749186,6.3955352 C2.01161948,6.61724862 2.19991402,6.87101698 2.44237548,7.1568403 C2.69773383,7.4533486 2.99436222,7.70578134 3.33226064,7.91413852 C3.51281705,8.02633085 3.69466315,8.10780385 3.87779893,8.15855753 C4.06093472,8.2093112 4.25825708,8.23468804 4.46976601,8.23468804 C4.62452865,8.23468804 4.79283302,8.19929403 4.97467911,8.12850601 C5.15652521,8.05771799 5.31838113,7.9595497 5.46024688,7.83400114 C5.61243014,7.70043885 5.73366087,7.54417096 5.82393908,7.36519748 C5.91421728,7.186224 5.95935638,6.99255867 5.95935638,6.78420149 L5.95935638,6.78420149 L5.94388012,6.53978248 C5.90518946,6.27800038 5.81297672,6.04693761 5.66724191,5.84659416 C5.52150709,5.64625072 5.38415525,5.49799657 5.25518639,5.40183171 C5.18812258,5.34840679 5.13137628,5.30566686 5.08494749,5.27361191 C5.0385187,5.24155695 4.99982804,5.21751574 4.96887551,5.20148827 L4.96887551,5.20148827 L5.33643677,5.30967373 L5.80846281,5.43388666 L6.230191,5.54607899 L6.32691764,5.57012021 L6.39656083,5.58614768 C6.50489468,5.58614768 6.60549039,5.56210647 6.69834797,5.51402404 C6.79636431,5.45792788 6.86213843,5.41652356 6.89567033,5.3898111 L6.89567033,5.3898111 L6.89567033,8.50715512 L7.41799423,9 L7.71204324,9 Z"/><path fill="url(#c)" fill-rule="nonzero" stroke="url(#c)" stroke-width=".3" d="M11.086246,13.2 L11.7610649,11.2608108 L14.3568406,11.2608108 L15.0233795,13.2 L15.9631579,13.2 L13.5702419,6.2 L12.7091233,6.2 L10.2789474,13.2 L11.086246,13.2 Z M14.104301,10.522973 L12.0136045,10.522973 L13.0610227,7.50540541 L14.104301,10.522973 Z"/></g></svg>