<svg xmlns="http://www.w3.org/2000/svg" width="32" height="21" viewBox="0 0 32 21"><path fill-rule="evenodd" d="M32.6481628,18.5 C32.8410645,18.5 33,18.6559791 33,18.8483891 L33,18.8483891 L33,21.6516109 C33,21.8496094 32.8424771,22 32.6481628,22 L32.6481628,22 L8.46294827,22 C8.27004666,22 8.11111111,21.8440209 8.11111111,21.6516109 L8.11111111,21.6516109 L8.11111111,18.8483891 C8.11111111,18.6503906 8.26863397,18.5 8.46294827,18.5 L8.46294827,18.5 Z M4.20163642,18.5 C4.40277778,18.5 4.55555556,18.6559791 4.55555556,18.8483891 L4.55555556,18.8483891 L4.55555556,21.6516109 C4.55555556,21.8496094 4.39710056,22 4.20163642,22 L4.20163642,22 L1.35391914,22 C1.15277778,22 1,21.8440209 1,21.6516109 L1,21.6516109 L1,18.8483891 C1,18.6503906 1.15845499,18.5 1.35391914,18.5 L1.35391914,18.5 Z M4.20163642,9.75 C4.40277778,9.75 4.55555556,9.90597913 4.55555556,10.0983891 L4.55555556,10.0983891 L4.55555556,12.9016109 C4.55555556,13.0996094 4.39710056,13.25 4.20163642,13.25 L4.20163642,13.25 L1.35391914,13.25 C1.15277778,13.25 1,13.0940209 1,12.9016109 L1,12.9016109 L1,10.0983891 C1,9.90039063 1.15845499,9.75 1.35391914,9.75 L1.35391914,9.75 Z M32.6481628,9.75 C32.8410645,9.75 33,9.90597913 33,10.0983891 L33,10.0983891 L33,12.9016109 C33,13.0996094 32.8424771,13.25 32.6481628,13.25 L32.6481628,13.25 L8.46294827,13.25 C8.27004666,13.25 8.11111111,13.0940209 8.11111111,12.9016109 L8.11111111,12.9016109 L8.11111111,10.0983891 C8.11111111,9.90039063 8.26863397,9.75 8.46294827,9.75 L8.46294827,9.75 Z M4.20163642,1 C4.40277778,1 4.55555556,1.15597913 4.55555556,1.34838915 L4.55555556,1.34838915 L4.55555556,4.15161085 C4.55555556,4.34960937 4.39710056,4.5 4.20163642,4.5 L4.20163642,4.5 L1.35391914,4.5 C1.15277778,4.5 1,4.34402087 1,4.15161085 L1,4.15161085 L1,1.34838915 C1,1.15039062 1.15845499,1 1.35391914,1 L1.35391914,1 Z M32.6481628,1 C32.8410645,1 33,1.15597913 33,1.34838915 L33,1.34838915 L33,4.15161085 C33,4.34960937 32.8424771,4.5 32.6481628,4.5 L32.6481628,4.5 L8.46294827,4.5 C8.27004666,4.5 8.11111111,4.34402087 8.11111111,4.15161085 L8.11111111,4.15161085 L8.11111111,1.34838915 C8.11111111,1.15039062 8.26863397,1 8.46294827,1 L8.46294827,1 Z" transform="translate(-1 -1)"/></svg>