<svg xmlns="http://www.w3.org/2000/svg" width="22" height="14" viewBox="0 0 22 14"><path fill="#19202C" d="M9.88476562,8.9375 C9.88476562,8.10416667 9.70084635,7.35221354 9.33300781,6.68164062 C8.96516927,6.01106771 8.46549479,5.47558594 7.83398438,5.07519531 C7.20247396,4.67480469 6.49283854,4.47460938 5.70507812,4.47460938 C5.14518229,4.47460938 4.61458333,4.58203125 4.11328125,4.796875 C3.61197917,5.01171875 3.16927083,5.33398438 2.78515625,5.76367188 L2.50195312,5.76367188 C2.67773438,5.19075521 2.96582031,4.65364583 3.36621094,4.15234375 C3.76660156,3.65104167 4.2516276,3.21321615 4.82128906,2.83886719 C5.39095052,2.46451823 6.02083333,2.1796875 6.7109375,1.984375 C6.86067708,1.93880208 6.98925781,1.89322917 7.09667969,1.84765625 C7.20410156,1.80208333 7.28710938,1.75 7.34570312,1.69140625 C7.42382812,1.62630208 7.48404948,1.5530599 7.52636719,1.47167969 C7.5686849,1.39029948 7.58984375,1.29427083 7.58984375,1.18359375 C7.58984375,0.981770833 7.51822917,0.817382812 7.375,0.690429688 C7.23177083,0.563476562 7.04622396,0.5 6.81835938,0.5 C6.65559896,0.5 6.50260417,0.516276042 6.359375,0.548828125 C6.21614583,0.581380208 6.03710938,0.630208333 5.82226562,0.6953125 C5.19075521,0.91015625 4.59505208,1.19335938 4.03515625,1.54492188 C3.47526042,1.89648438 2.97395833,2.30664062 2.53125,2.77539062 C1.89322917,3.42643229 1.39518229,4.18489583 1.03710938,5.05078125 C0.679036458,5.91666667 0.5,6.86393229 0.5,7.89257813 C0.5,9.06445312 0.722981771,10.0638021 1.16894531,10.890625 C1.61490885,11.7174479 2.20572917,12.3489583 2.94140625,12.7851562 C3.67708333,13.2213542 4.484375,13.4394531 5.36328125,13.4394531 C6.22265625,13.4394531 6.99251302,13.242513 7.67285156,12.8486328 C8.3531901,12.4547526 8.89192708,11.9176432 9.2890625,11.2373047 C9.68619792,10.5569661 9.88476562,9.79036458 9.88476562,8.9375 Z M21.1445312,8.9375 C21.1445312,8.10416667 20.960612,7.35221354 20.5927734,6.68164062 C20.2249349,6.01106771 19.7252604,5.47558594 19.09375,5.07519531 C18.4622396,4.67480469 17.7558594,4.47460938 16.9746094,4.47460938 C16.4082031,4.47460938 15.874349,4.58203125 15.3730469,4.796875 C14.8717448,5.01171875 14.4322917,5.33398438 14.0546875,5.76367188 L13.7714844,5.76367188 C13.9407552,5.19075521 14.2255859,4.65364583 14.6259766,4.15234375 C15.0263672,3.65104167 15.5113932,3.21321615 16.0810547,2.83886719 C16.6507161,2.46451823 17.280599,2.1796875 17.9707031,1.984375 C18.1204427,1.93880208 18.2490234,1.89322917 18.3564453,1.84765625 C18.4638672,1.80208333 18.5501302,1.75 18.6152344,1.69140625 C18.6933594,1.62630208 18.7519531,1.5530599 18.7910156,1.47167969 C18.8300781,1.39029948 18.8496094,1.29427083 18.8496094,1.18359375 C18.8496094,0.981770833 18.7779948,0.817382812 18.6347656,0.690429688 C18.4915365,0.563476562 18.3092448,0.5 18.0878906,0.5 C17.9186198,0.5 17.7639974,0.516276042 17.6240234,0.548828125 C17.4840495,0.581380208 17.3033854,0.630208333 17.0820312,0.6953125 C16.4570312,0.91015625 15.8629557,1.19335938 15.2998047,1.54492188 C14.7366536,1.89648438 14.2304688,2.30664062 13.78125,2.77539062 C13.15625,3.42643229 12.6663411,4.18489583 12.3115234,5.05078125 C11.9567057,5.91666667 11.7792969,6.86393229 11.7792969,7.89257813 C11.7792969,9.06445312 11.9990234,10.0638021 12.4384766,10.890625 C12.8779297,11.7174479 13.4654948,12.3489583 14.2011719,12.7851562 C14.936849,13.2213542 15.7473958,13.4394531 16.6328125,13.4394531 C17.4921875,13.4394531 18.2620443,13.242513 18.9423828,12.8486328 C19.6227214,12.4547526 20.1598307,11.9176432 20.5537109,11.2373047 C20.9475911,10.5569661 21.1445312,9.79036458 21.1445312,8.9375 Z"/></svg>