<svg xmlns="http://www.w3.org/2000/svg" width="18" height="17" viewBox="0 0 18 17"><defs><linearGradient id="a" x1="50%" x2="50%" y1="0%" y2="100%"><stop offset="0%" stop-color="#AAB7C7"/><stop offset="100%" stop-color="#718096"/></linearGradient></defs><path fill="url(#a)" d="M16.8262754,0.5 C17.198416,0.5 17.5,0.804348008 17.5,1.17989931 L17.5,1.17989931 L17.5,13.4405369 C17.5,15.1150708 16.1498945,16.477349 14.4907676,16.477349 L14.4907676,16.477349 L3.37519141,16.477349 C3.26492383,16.4922933 3.15216602,16.5 3.03764844,16.5 C1.63833594,16.5 0.5,15.3512312 0.5,13.939094 L0.5,13.939094 L0.5,10.154396 C0.5,8.74249329 1.63833594,7.59348992 3.03764844,7.59348992 L3.03764844,7.59348992 L4.22784766,7.59348992 L4.22784766,1.17989931 C4.22784766,0.804348008 4.52946484,0.5 4.90157227,0.5 L4.90157227,0.5 Z M4.22791406,8.95325504 L3.03768164,8.95325504 C2.38148828,8.95325504 1.84744922,9.49218858 1.84744922,10.154396 L1.84744922,10.154396 L1.84744922,13.9390605 C1.84744922,14.6012678 2.38125586,15.1402014 3.03768164,15.1402014 L3.03768164,15.1402014 L3.03768164,15.1175504 L3.26807813,15.1175504 C3.81443555,15.0090198 4.22788086,14.5217547 4.22788086,13.939094 L4.22791406,13.939094 L4.22791406,8.95325504 Z M16.152584,1.85976511 L5.57529687,1.85976511 L5.57529687,13.939094 C5.57529687,14.3637672 5.47243359,14.7646836 5.29031445,15.1175504 L5.29031445,15.1175504 L14.4907676,15.1175504 C15.3917344,15.1175504 16.152584,14.3495265 16.152584,13.4405034 L16.152584,13.4405034 L16.152584,1.85976511 Z M14.6683952,11.1666667 C15.0405027,11.1666667 15.3421199,11.4710147 15.3421199,11.846566 C15.3421199,12.1879763 15.0930415,12.4705408 14.7680101,12.5190946 L14.6683952,12.5264653 L10.4464519,12.5264653 C10.0743113,12.5264653 9.77272727,12.2220838 9.77272727,11.846566 C9.77272727,11.5051557 10.0219977,11.2225911 10.3468894,11.1740373 L10.4464519,11.1666667 L14.6683952,11.1666667 Z M14.7398333,8.11904762 C15.1119407,8.11904762 15.4135579,8.42339563 15.4135579,8.79894693 C15.4135579,9.1403572 15.1642875,9.42292178 14.8393958,9.47147559 L14.7398333,9.47884624 L8.90099734,9.47884624 C8.52885671,9.47884624 8.22727273,9.17446472 8.22727273,8.79894693 C8.22727273,8.45753665 8.47654313,8.17497208 8.80143484,8.12641827 L8.90099734,8.11904762 L14.7398333,8.11904762 Z M14.6683952,5.07142857 C15.0405027,5.07142857 15.3421199,5.37577658 15.3421199,5.75132788 C15.3421199,6.09273816 15.0930415,6.37530273 14.7680101,6.42385654 L14.6683952,6.43122719 L10.4464519,6.43122719 C10.0743113,6.43122719 9.77272727,6.12684568 9.77272727,5.75132788 C9.77272727,5.40991761 10.0219977,5.12735303 10.3468894,5.07879922 L10.4464519,5.07142857 L14.6683952,5.07142857 Z" transform="matrix(-1 0 0 1 18 0)"/></svg>