<svg xmlns="http://www.w3.org/2000/svg" width="20" height="20" viewBox="0 0 20 20"><defs><linearGradient id="a" x1="50%" x2="50%" y1="0%" y2="100%"><stop offset="0%" stop-color="#AAB7C7"/><stop offset="100%" stop-color="#718096"/></linearGradient></defs><g fill="none" transform="translate(1 1)"><path fill="url(#a)" d="M9.09279811,3.83343661 C10.4167981,3.83343661 11.4927981,4.90350177 11.4927981,6.22019904 C11.4927981,7.54087426 10.4167981,8.60696148 9.09279811,8.60696148 C7.76879811,8.60696148 6.69279811,7.54087426 6.69279811,6.22019904 C6.69279811,4.90350177 7.76879811,3.83343661 9.09279811,3.83343661 Z M9.09279811,14.6334366 C7.08879811,14.6334366 5.32879811,13.6150846 4.29279811,12.0716449 C4.31279811,10.4924038 7.49679811,9.6212355 9.09279811,9.6212355 C10.6887981,9.6212355 13.8687981,10.4924038 13.8927981,12.0716449 C12.8567981,13.6150846 11.0967981,14.6334366 9.09279811,14.6334366 Z"/><circle cx="9" cy="9" r="9" stroke="#A0AEC0" stroke-width="1.5"/></g></svg>