<svg xmlns="http://www.w3.org/2000/svg" width="32" height="31" viewBox="0 0 32 31"><path fill="#4A5568" d="M16.0000925,0.5 C7.43971621,0.5 0.5,7.24393114 0.5,15.5627998 C0.5,23.0238532 6.08808758,29.2028552 13.4149871,30.3993765 L13.4149871,18.7053079 L9.67591273,18.7053079 L9.67591273,14.4970891 L13.4149871,14.4970891 L13.4149871,11.3941117 C13.4149871,7.79376673 15.6778095,5.83178804 18.9832903,5.83178804 C20.5664154,5.83178804 21.9269192,5.94642697 22.3218685,5.99691841 L22.3218685,9.76023754 L20.029277,9.76131565 C18.2320362,9.76131565 17.8855312,10.5911002 17.8855312,11.8091837 L17.8855312,14.4949329 L22.1739474,14.4949329 L21.6146209,18.7031517 L17.8855312,18.7031517 L17.8855312,30.5 C25.5544982,29.592951 31.5,23.256545 31.5,15.5584874 C31.5,7.24393114 24.5602838,0.5 16.0000925,0.5 Z"/></svg>