<svg xmlns="http://www.w3.org/2000/svg" width="31" height="31" viewBox="0 0 31 31"><path fill="#4A5568" fill-rule="evenodd" d="M15.5,0.5 C23.7842712,0.5 30.5,7.21572875 30.5,15.5 C30.5,23.7842712 23.7842712,30.5 15.5,30.5 C7.21572875,30.5 0.5,23.7842712 0.5,15.5 C0.5,7.21572875 7.21572875,0.5 15.5,0.5 Z M16.2641903,6.49873824 L14.7340927,6.49873782 L14.1140851,6.5002337 C12.8783923,6.50487349 12.5265281,6.51880285 11.7881553,6.5523991 C10.8300561,6.5962116 10.1758952,6.7483879 9.60331555,6.97088393 C9.00271812,7.19681356 8.45870564,7.55115905 8.00904729,8.00906139 C7.55114837,8.45858576 7.19666816,9.00260227 6.97060292,9.60320423 C6.74824589,10.1757881 6.59620806,10.8300913 6.55267059,11.7880603 C6.5425284,12.0096055 6.53417084,12.19635 6.52731436,12.3825983 L6.52731436,12.3825983 L6.52094773,12.5699517 C6.50917319,12.9494098 6.50302486,13.3726223 6.50023425,14.1140244 L6.50023425,14.1140244 L6.49873543,14.7340246 L6.49873543,14.7340246 L6.49873543,16.2641711 L6.50023425,16.8842159 C6.50302486,17.6256746 6.50917319,18.0489302 6.52094773,18.4283909 L6.52094773,18.4283909 L6.52731436,18.6157422 C6.53417084,18.8019847 6.5425284,18.9887121 6.55267059,19.2102256 C6.5963454,20.1681946 6.74852059,20.8224978 6.97101492,21.3950817 C7.19694286,21.9955462 7.55128574,22.5397001 8.00918462,22.9892245 C8.45870564,23.4471268 9.00285545,23.8014723 9.60345289,24.027402 C10.1758952,24.2500353 10.8301934,24.4020743 11.7882926,24.4458868 C11.9336806,24.4525218 12.0640812,24.4583883 12.1891898,24.4635668 L12.4352233,24.4730304 C12.8838815,24.4887863 13.3482874,24.4960155 14.3063762,24.4986921 L14.3063762,24.4986921 L14.7342349,24.4995529 L14.7342349,24.4995529 L16.2643277,24.4995529 L16.6921938,24.4986921 C17.5549074,24.496282 18.0173674,24.4901808 18.4284403,24.4774871 L18.4284403,24.4774871 L18.6157878,24.4711498 C18.8020272,24.4643233 18.9887533,24.4559973 19.2102651,24.4458868 C20.1683643,24.4020743 20.8225252,24.2500353 21.3951049,24.027402 C22.6041283,23.5598856 23.5598926,22.6041141 24.0274055,21.3950817 C24.2500372,20.8224978 24.402075,20.1681946 24.4458872,19.2102256 C24.455966,18.9886804 24.4642748,18.8019359 24.4710938,18.6156876 L24.4710938,18.6156876 L24.4774265,18.4283342 C24.4901164,18.0172545 24.4962509,17.5548244 24.4986798,16.6921232 L24.4986798,16.6921232 L24.4995481,16.2642613 L24.4995481,16.2642613 L24.4995481,14.7341199 L24.4986798,14.306236 C24.4947562,12.9125736 24.481163,12.5634948 24.4458872,11.7881976 C24.402075,10.8300913 24.2498999,10.1757881 24.0274055,9.60334157 C23.8014776,9.00273964 23.4471347,8.45872309 22.9892358,8.00906139 C22.5397148,7.55115905 21.995565,7.19667619 21.3949675,6.97060926 C20.8223879,6.74825056 20.168227,6.5962116 19.2101278,6.55267381 C18.988616,6.54253154 18.8018899,6.53417392 18.6156505,6.52731739 L18.6156505,6.52731739 L18.428303,6.52095071 C18.0488511,6.50917608 17.6256137,6.5030277 16.8841979,6.50023708 L16.8841979,6.50023708 L16.2641903,6.49873824 L16.2641903,6.49873824 Z M16.5166595,8.12087486 C17.5123263,8.12291411 17.9910417,8.12907336 18.43412,8.14367555 L18.43412,8.14367555 L18.6242051,8.15050075 C18.7831474,8.15664493 18.9464033,8.16395709 19.1362377,8.17263718 C20.0138544,8.21260403 20.4902944,8.35928663 20.8075549,8.4824835 C21.1984308,8.6268312 21.552087,8.85688112 21.8424284,9.15573998 C22.1414224,9.44608358 22.3714706,9.7997424 22.5156799,10.1907585 C22.6390132,10.507884 22.7856947,10.9844651 22.8256612,11.8620883 C22.8343138,12.0518966 22.8416039,12.2151318 22.8477305,12.3740577 L22.8477305,12.3740577 L22.8545366,12.5641252 C22.8702192,13.0412472 22.8761456,13.5597358 22.8776855,14.7207157 L22.8772956,16.5169216 C22.8752772,17.5126286 22.8691676,17.9913158 22.8545964,18.4343726 L22.8545964,18.4343726 L22.8477832,18.6244491 C22.8416479,18.7833848 22.8343413,18.9466365 22.8256612,19.1364723 C22.7856947,20.0140955 22.6390132,20.4906765 22.5158172,20.807802 C22.2129777,21.5928559 21.592603,22.2132353 20.8075549,22.5160771 C20.4904318,22.639274 20.0138544,22.7859565 19.1362377,22.8259234 C18.9506755,22.8344106 18.7905132,22.8415847 18.6349385,22.8476348 L18.4024157,22.8558904 C17.9338452,22.8708101 17.4129083,22.8764635 16.2776752,22.8779532 L14.4492236,22.8774911 C13.4988345,22.8754569 13.0253294,22.8695668 12.5957939,22.8558904 L12.3632604,22.8476348 C12.2076757,22.8415847 12.047497,22.8344106 11.861908,22.8259234 C10.9844287,22.7859565 10.5078513,22.639274 10.1905908,22.5160771 C9.79971492,22.3717294 9.44605874,22.1416794 9.15571731,21.8426832 C8.85672335,21.5523396 8.62667516,21.1988182 8.48232853,20.807802 C8.35913255,20.4906765 8.21245108,20.0140955 8.17248452,19.1364723 C8.16383196,18.946664 8.15654184,18.7834288 8.15041528,18.6245029 L8.15041528,18.6245029 L8.14360918,18.4344354 C8.12792659,17.9573133 8.12200013,17.4388248 8.12046027,16.2778449 L8.12085933,14.481639 C8.12289654,13.485932 8.12904677,13.0072447 8.14360918,12.564188 L8.14360918,12.564188 L8.15041528,12.3741115 C8.15654184,12.2151757 8.16383196,12.0519241 8.17248452,11.8620883 C8.21258841,10.9844651 8.35913255,10.507884 8.48232853,10.1907585 C8.62667516,9.7997424 8.85686068,9.44608358 9.15571731,9.15573998 C9.44605874,8.85674378 9.79971492,8.62669387 10.1907281,8.4824835 C10.5078513,8.35914926 10.9844287,8.21260403 11.8620454,8.17249984 C12.0518523,8.16384722 12.2150863,8.15655704 12.374011,8.15043043 L12.374011,8.15043043 L12.564077,8.14362429 C13.0411955,8.12794158 13.5596802,8.12201507 14.7206514,8.1204752 Z M15.4990042,10.8770626 C12.946362,10.8770626 10.8770271,12.9465504 10.8770271,15.4992116 C10.8770271,18.0518728 12.946362,20.1212232 15.4990042,20.1212232 C18.0517837,20.1212232 20.1211186,18.0518728 20.1211186,15.4992116 C20.1211186,12.9465504 18.0517837,10.8770626 15.4990042,10.8770626 Z M15.4991415,12.4988115 C17.1561752,12.4989488 18.4993819,13.8421656 18.4993819,15.4990743 C18.4993819,17.1561203 17.1560378,18.4994744 15.4990042,18.4994744 C13.8421079,18.4993371 12.4987638,17.1561203 12.4989012,15.4990743 C12.4989012,13.8421656 13.8421079,12.4988115 15.4991415,12.4988115 Z M20.3037838,9.61432902 C19.7071692,9.61432902 19.2235874,10.0979145 19.2235874,10.6945335 C19.2235874,11.2910151 19.7071692,11.7746006 20.3037838,11.7746006 C20.9002609,11.7746006 21.3838428,11.2910151 21.3838428,10.6945335 C21.3838428,10.0979145 20.9002609,9.61432902 20.3037838,9.61432902 Z"/></svg>