<svg xmlns="http://www.w3.org/2000/svg" width="31" height="31" viewBox="0 0 31 31"><path fill="#4A5568" fill-rule="evenodd" d="M15.5,0.5 C23.7842712,0.5 30.5,7.21572875 30.5,15.5 C30.5,23.7842712 23.7842712,30.5 15.5,30.5 C7.21572875,30.5 0.5,23.7842712 0.5,15.5 C0.5,7.21572875 7.21572875,0.5 15.5,0.5 Z M10.6322327,11.53552 L7.04288867,11.53552 L7.04288867,23.5 L10.6322327,23.5 L10.6322327,11.53552 Z M20.562751,11.2005146 C18.9834397,11.2005146 17.7869917,11.7748096 17.1409098,12.6601811 L17.1409098,11.53552 L13.5515658,11.53552 L13.5515658,23.5 L17.1409098,23.5 L17.1409098,16.9673939 C17.1409098,15.2684378 18.0502102,14.502711 19.366303,14.502711 C20.5148931,14.502711 21.4481226,15.1966509 21.4481226,16.6802464 L21.4481226,23.5 L25.0374666,23.5 L25.0374666,16.1538093 C25.0374666,12.9233997 22.979576,11.2005146 20.562751,11.2005146 Z M8.83756067,6.17543296 C7.66504163,6.17543296 6.68395427,7.15652032 6.68395427,8.32903936 C6.68395427,9.5015584 7.66504163,10.4826458 8.83756067,10.4826458 C10.0100797,10.4826458 10.9911671,9.5015584 10.9911671,8.32903936 C10.9911671,7.15652032 10.0100797,6.17543296 8.83756067,6.17543296 Z"/></svg>