<svg xmlns="http://www.w3.org/2000/svg" width="31" height="31" viewBox="0 0 31 31"><path fill="#4A5568" fill-rule="evenodd" d="M15.5,0.5 C23.7842712,0.5 30.5,7.21572875 30.5,15.5 C30.5,23.7842712 23.7842712,30.5 15.5,30.5 C7.21572875,30.5 0.5,23.7842712 0.5,15.5 C0.5,7.21572875 7.21572875,0.5 15.5,0.5 Z M19.7233992,8.7 C17.5522127,8.7 15.7921184,10.3672419 15.7921184,12.4238892 C15.7921184,12.697178 15.8231969,12.9635909 15.8821886,13.2201297 C12.6620321,13.0216864 9.80527845,11.5607851 7.85805695,9.35474222 C7.51440679,9.89862486 7.31688953,10.5348801 7.31688953,11.2148343 C7.31688953,12.5244564 8.04960896,13.6719707 9.14790928,14.3096068 C8.4831052,14.3002504 7.85934931,14.1304125 7.31789489,13.83917 C7.31722585,13.8670758 7.31688953,13.8950594 7.31688953,13.9231174 C7.31688953,15.7322337 8.71511991,17.2320039 10.5437717,17.5056707 C10.1707377,17.6205175 9.77257834,17.6825918 9.35911335,17.6825918 C9.12427195,17.6825918 8.89436824,17.6625663 8.67120111,17.6242193 C9.16373402,19.0884758 10.6112812,20.1490639 12.3552437,20.1489163 C10.9931309,21.1359457 9.29029805,21.7223519 7.44287486,21.7223519 C7.12393745,21.7223519 6.80930944,21.7048745 6.5,21.6708757 C8.24020678,22.7434881 10.3174919,23.3666667 12.5484344,23.3666667 C18.6813315,23.3666667 23.6530264,18.6572496 23.6530264,12.8478886 L23.6530264,12.8478886 L23.6536085,12.6894688 C23.6537673,12.6550873 23.6539393,12.618962 23.654098,12.5844609 L23.6544462,12.3828394 L23.6544462,12.3828394 L23.653746,12.3418954 C24.4259994,11.8479491 25.0798841,11.2005798 25.5666667,10.4459503 C24.8871629,10.7481882 24.1477281,10.9495455 23.3650824,11.018491 C24.1646291,10.5709878 24.7710794,9.84678024 25.0375604,8.98499247 C24.3151641,9.43633305 23.4876815,9.74899794 22.5973601,9.88296839 C21.8798188,9.15506075 20.8577112,8.7 19.7233992,8.7 Z"/></svg>