<svg xmlns="http://www.w3.org/2000/svg" width="31" height="31" viewBox="0 0 31 31"><path fill="#4A5568" fill-rule="evenodd" d="M15.5,0.5 C23.7842712,0.5 30.5,7.21572875 30.5,15.5 C30.5,23.7842712 23.7842712,30.5 15.5,30.5 C7.21572875,30.5 0.5,23.7842712 0.5,15.5 C0.5,7.21572875 7.21572875,0.5 15.5,0.5 Z M16.48016,5.0768 C13.0290792,5.08562909 9.84215173,6.92601247 8.10954094,9.91065588 C6.37693015,12.8952993 6.35916503,16.5754083 8.06288,19.57664 L8.06288,19.57664 L6.7112,24.61472 L11.81072,23.2016 L12.1031251,23.3451776 C15.0445084,24.7288662 18.4929094,24.5504149 21.2818752,22.8527836 C24.1638066,21.0985645 25.9282384,17.9738147 25.94192,14.6 C25.94192,9.31616 21.764,5.0768 16.48016,5.0768 Z M16.50608,6.884 C20.684,6.884 24.24752,10.14032 24.24752,14.68688 C24.24752,19.11056 20.684,22.73552 16.32176,22.79696 C13.80272,22.79696 11.89808,21.44528 11.89808,21.44528 L11.89808,21.44528 L8.88752,22.244 L9.6248,19.29488 C9.54151629,19.1629411 8.396,17.3076138 8.396,14.99408 C8.396,10.5704 12.02096,6.884 16.50608,6.884 Z M13.56176,10.2969244 L13.4696,10.2992 L12.97808,10.2992 L12.92648,10.30232 C12.79376,10.31744 12.57872,10.39136 12.36368,10.6064 C11.012,11.95808 11.56496,13.86272 12.548,15.09152 C12.73232,15.33728 13.96112,17.54912 16.60304,18.71648 C18.56912,19.57664 18.9992,19.45376 19.55216,19.33088 C20.228,19.26944 20.90384,18.71648 21.21104,18.16352 C21.27248,17.9792 21.57968,17.18048 21.33392,17.0576 L21.33392,17.0576 L19.18352,16.01312 L19.12208,15.9747727 C18.95824,15.8803793 18.7944,15.8561067 18.63056,16.07456 L18.63056,16.07456 L17.89328,17.0576 L17.82668,17.10056 C17.67632,17.19296 17.55536,17.22656 17.34032,17.11904 C16.41872,16.62752 15.12848,16.07456 14.02256,14.23136 C13.96112,13.9856 14.084,13.86272 14.20688,13.73984 L14.20688,13.73984 L14.75984,12.87968 L14.8017553,12.8270171 C14.8651657,12.7216914 14.8125029,12.6163657 14.75984,12.51104 L14.75984,12.51104 L14.02256,10.72928 L13.97648,10.6175644 C13.83824,10.3148444 13.7,10.2943644 13.56176,10.2969244 L13.56176,10.2969244 Z"/></svg>