<svg width="18" height="16" viewBox="0 0 18 16">
  <path fill="#2D3748" stroke="#2D3748" stroke-width=".616" d="M6.65 9c.283 0 .513.134.513.3h0v5.4c0 .166-.23.3-.514.3h0-1.54c-1.133 0-2.055-.538-2.055-1.2h0v-3.6c0-.662.922-1.2 2.055-1.2h0zm6.265 0c1.133 0 2.054.538 2.054 1.2h0v3.6c0 .662-.921 1.2-2.054 1.2h0-1.54c-.285 0-.514-.134-.514-.3h0V9.3c0-.166.23-.3.513-.3h0zm-6.78 1H5.11c-.567 0-1.028.224-1.028.5h0v3c0 .276.461.5 1.028.5h1.027v-4zm6.78 0h-1.027v4h1.027c.566 0 1.027-.224 1.027-.5h0v-3c0-.276-.46-.5-1.027-.5h0zM9 1c4.411 0 8 3.691 8 8.229h0v3.428c0 .19-.163.343-.364.343a.353.353 0 0 1-.363-.343h0V9.23c0-4.16-3.263-7.543-7.273-7.543S1.727 5.069 1.727 9.229h0v3.428c0 .19-.162.343-.363.343-.201 0-.364-.153-.364-.343h0V9.23C1 4.69 4.589 1 9 1z"/>
</svg>
