<svg width="10" height="16" viewBox="0 0 10 16">
  <path fill="#718096" d="M7.64 6.632l-3.074 3.496a.444.444 0 0 1-.334.158.444.444 0 0 1-.335-.158L2.361 8.38a.59.59 0 0 1 0-.76.433.433 0 0 1 .668 0l1.203 1.367L6.97 5.872a.433.433 0 0 1 .668 0 .59.59 0 0 1 0 .76zM1.47 0C.66 0 0 .66 0 1.475v13.05C0 15.34.659 16 1.47 16h7.06c.811 0 1.47-.66 1.47-1.475V1.475C10 .66 9.341 0 8.53 0H1.47zm5.524.59l-.176.885H3.182L3.006.59h3.988zm2.418 13.935a.885.885 0 0 1-.883.885H1.471a.885.885 0 0 1-.883-.885V1.475c0-.489.396-.885.883-.885h.935l.247 1.237a.294.294 0 0 0 .288.238H7.06c.14 0 .26-.1.288-.238L7.594.59h.935c.487 0 .882.396.883.885v13.05z"/>
</svg>
