<svg width="18" height="15" viewBox="0 0 18 15">
  <path fill="#2D3748" stroke="#2D3748" stroke-width=".5" d="M16.827 8.8l-1.46-6.66a1.47 1.47 0 0 0-.778-1.003 1.325 1.325 0 0 0-1.216.022l-.83.44a.513.513 0 0 0-.21.669.456.456 0 0 0 .63.222l.83-.44a.442.442 0 0 1 .405-.007.49.49 0 0 1 .258.328l1.239 5.656a1.336 1.336 0 0 0-.101-.005H10.85c-.423 0-.82.2-1.088.547a1.526 1.526 0 0 0-.257.507 2.223 2.223 0 0 0-1.01 0 1.526 1.526 0 0 0-.257-.507 1.37 1.37 0 0 0-1.088-.547H2.406c-.034 0-.067.002-.101.005l1.24-5.656a.49.49 0 0 1 .257-.328.442.442 0 0 1 .406.007l.83.44a.456.456 0 0 0 .628-.222.513.513 0 0 0-.21-.669l-.829-.44a1.326 1.326 0 0 0-1.216-.022 1.47 1.47 0 0 0-.777.996l-.002.008-1.459 6.658a1.57 1.57 0 0 0-.146 1.01l.412 2.189C1.658 13.158 2.624 14 3.737 14H5.82c1.114 0 2.08-.842 2.298-2.002l.353-1.875c.34-.145.72-.145 1.06 0l.353 1.875C10.1 13.158 11.067 14 12.18 14h2.082c1.113 0 2.08-.842 2.298-2.002l.412-2.188a1.57 1.57 0 0 0-.146-1.01zm-9.217.815l-.412 2.187c-.13.696-.71 1.202-1.379 1.202H3.737c-.668 0-1.247-.506-1.378-1.202l-.412-2.187a.52.52 0 0 1 .097-.414.457.457 0 0 1 .362-.182H7.15c.141 0 .273.066.363.182a.52.52 0 0 1 .097.414zm8.443 0l-.412 2.187c-.13.696-.71 1.202-1.378 1.202H12.18c-.668 0-1.248-.505-1.38-1.202l-.41-2.187a.52.52 0 0 1 .096-.414.457.457 0 0 1 .363-.182h4.744c.14 0 .273.066.362.182a.52.52 0 0 1 .097.414z"/>
</svg>
