<svg width="15" height="22" viewBox="0 0 15 22">
  <path fill="#4A5568" d="M14.703 7.278a.299.299 0 0 1 .239.479l-5.297 7.032a.299.299 0 0 0-.06.18v4.869a.299.299 0 0 1-.16.265l-3.56 1.857a.299.299 0 0 1-.437-.265v-6.727a.299.299 0 0 0-.06-.18L.07 7.758a.299.299 0 0 1 .239-.479h14.393zm-1.078.814H1.444l4.813 6.505v6.235l2.476-1.355v-4.88l4.892-6.505zM5.98 0c.255 0 .467.132.511.306L6.5.373 6.499 2.5h8.225c-.307.928-.46 1.625-.46 2.09 0 .466.153 1.162.46 2.09H2.09a2.09 2.09 0 1 1 0-4.18h.409V.373c.002-.183.185-.335.428-.367L3.02 0h2.96zM2.499 3.396h-.516a1.194 1.194 0 0 0-.122 2.383l.122.007h11.69c-.123-.53-.184-.929-.184-1.195s.061-.664.184-1.194l-7.174-.001v1.436c0 .292-.381.445-.71.146l-.07-.071-1.22-1.392-1.218 1.392c-.32.365-.723.257-.775-.014l-.006-.06-.001-1.437z"/>
</svg>
