<svg width="17" height="20" viewBox="0 0 17 20">
  <g fill="none" fill-rule="evenodd" stroke="#4A5568" stroke-linecap="round" stroke-linejoin="round" stroke-width="1.231" transform="translate(1 1)">
    <path d="M2.727 11.77c1.507 0 2.728-1.24 2.728-2.77S4.234 6.23 2.727 6.23C1.221 6.23 0 7.47 0 9s1.221 2.77 2.727 2.77zM12.273 18C13.779 18 15 16.76 15 15.23c0-1.529-1.221-2.768-2.727-2.768-1.506 0-2.728 1.24-2.728 2.769 0 1.53 1.222 2.769 2.728 2.769zm0-12.462C13.779 5.538 15 4.298 15 2.77 15 1.24 13.779 0 12.273 0c-1.506 0-2.728 1.24-2.728 2.77 0 1.529 1.222 2.768 2.728 2.768z"/>
    <line x1="9.979" x2="5.021" y1="4.267" y2="7.503"/>
    <line x1="5.021" x2="9.979" y1="10.497" y2="13.733"/>
  </g>
</svg>
