<svg xmlns="http://www.w3.org/2000/svg" width="18" height="18" viewBox="0 0 18 18"><path fill="none" stroke="#000" stroke-linecap="round" stroke-linejoin="round" stroke-width="1.6" d="M1,1 L2.77777778,1 L3.13333333,2.77777778 M4.55555556,9.88888889 L13.4444444,9.88888889 L17,2.77777778 L15.524523,2.77777778 M4.55555556,9.88888889 L3.13333333,2.77777778 M4.55555556,9.88888889 L2.51743111,11.9270222 C1.95745778,12.4870222 2.35405333,13.4444444 3.14596444,13.4444444 L13.4444444,13.4444444 M13.4444444,13.4444444 C12.4625778,13.4444444 11.6666667,14.2403556 11.6666667,15.2222222 C11.6666667,16.2040889 12.4625778,17 13.4444444,17 C14.4263111,17 15.2222222,16.2040889 15.2222222,15.2222222 C15.2222222,14.2403556 14.4263111,13.4444444 13.4444444,13.4444444 Z M6.33333333,15.2222222 C6.33333333,16.2040889 5.53739556,17 4.55555556,17 C3.57371556,17 2.77777778,16.2040889 2.77777778,15.2222222 C2.77777778,14.2403556 3.57371556,13.4444444 4.55555556,13.4444444 C5.53739556,13.4444444 6.33333333,14.2403556 6.33333333,15.2222222 Z M9.57142857,1.57142857 L9.57142857,7.28571429 M12.4285714,4.42857143 L6.71428571,4.42857143"/></svg>