<svg xmlns="http://www.w3.org/2000/svg" width="19" height="18" viewBox="0 0 19 18"><path fill="none" stroke="#000" stroke-linecap="round" stroke-linejoin="round" stroke-width="1.6" d="M1.5,1 L3.27777778,1 L3.63333333,2.77777778 M5.05555556,9.88888889 L13.9444444,9.88888889 L17.5,2.77777778 L16.024523,2.77777778 M5.05555556,9.88888889 L3.63333333,2.77777778 M5.05555556,9.88888889 L3.01743111,11.9270222 C2.45745778,12.4870222 2.85405333,13.4444444 3.64596444,13.4444444 L13.9444444,13.4444444 M13.9444444,13.4444444 C12.9625778,13.4444444 12.1666667,14.2403556 12.1666667,15.2222222 C12.1666667,16.2040889 12.9625778,17 13.9444444,17 C14.9263111,17 15.7222222,16.2040889 15.7222222,15.2222222 C15.7222222,14.2403556 14.9263111,13.4444444 13.9444444,13.4444444 Z M6.83333333,15.2222222 C6.83333333,16.2040889 6.03739556,17 5.05555556,17 C4.07371556,17 3.27777778,16.2040889 3.27777778,15.2222222 C3.27777778,14.2403556 4.07371556,13.4444444 5.05555556,13.4444444 C6.03739556,13.4444444 6.83333333,14.2403556 6.83333333,15.2222222 Z M10.0714286,1.57142857 L10.0714286,7.28571429 M12.9285714,4.42857143 L7.21428571,4.42857143"/></svg>