<svg xmlns="http://www.w3.org/2000/svg" width="21" height="21" viewBox="0 0 21 21"><g fill="none" fill-rule="evenodd"><path stroke="#000" stroke-linecap="round" stroke-linejoin="round" stroke-width="1.6" d="M2.5,2.5 L4.27777778,2.5 L4.63333333,4.27777778 M6.05555556,11.3888889 L14.9444444,11.3888889 L18.5,4.27777778 L17.024523,4.27777778 M6.05555556,11.3888889 L4.63333333,4.27777778 M6.05555556,11.3888889 L4.01743111,13.4270222 C3.45745778,13.9870222 3.85405333,14.9444444 4.64596444,14.9444444 L14.9444444,14.9444444 M14.9444444,14.9444444 C13.9625778,14.9444444 13.1666667,15.7403556 13.1666667,16.7222222 C13.1666667,17.7040889 13.9625778,18.5 14.9444444,18.5 C15.9263111,18.5 16.7222222,17.7040889 16.7222222,16.7222222 C16.7222222,15.7403556 15.9263111,14.9444444 14.9444444,14.9444444 Z M7.83333333,16.7222222 C7.83333333,17.7040889 7.03739556,18.5 6.05555556,18.5 C5.07371556,18.5 4.27777778,17.7040889 4.27777778,16.7222222 C4.27777778,15.7403556 5.07371556,14.9444444 6.05555556,14.9444444 C7.03739556,14.9444444 7.83333333,15.7403556 7.83333333,16.7222222 Z M11.0714286,3.07142857 L11.0714286,8.78571429 M13.9285714,5.92857143 L8.21428571,5.92857143"/><rect width="21" height="21"/></g></svg>