<svg xmlns="http://www.w3.org/2000/svg" width="16" height="21" viewBox="0 0 16 21"><path d="M3.97512438,20.5 L16.1840796,20.5 C16.4162521,20.5 16.6102819,20.4230895 16.7661692,20.2692685 C16.9220564,20.1154476 17,19.9239895 17,19.6948945 C17,19.5116184 16.9436153,19.3496154 16.8308458,19.2088856 C16.7180763,19.0681558 16.5820896,18.965063 16.4228856,18.8996073 C16.0315091,18.7359679 15.7512438,18.4757814 15.5820896,18.1190476 C15.4129353,17.7623139 15.3731343,17.3695794 15.4626866,16.9408444 C15.5522388,16.5121093 15.7927032,16.1111929 16.1840796,15.7380952 C16.3897181,15.541728 16.5771144,15.312633 16.7462687,15.05081 C16.9154229,14.7889871 17,14.4257077 17,13.960972 L17,3.48478154 C17,2.49639993 16.7495854,1.75184094 16.2487562,1.25110457 C15.747927,0.750368189 15,0.5 14.0049751,0.5 L3.99502488,0.5 C3.0066335,0.5 2.26036484,0.750368189 1.75621891,1.25110457 C1.25207297,1.75184094 1,2.49639993 1,3.48478154 L1,17.5643103 C1,18.5330551 1.25041459,19.264523 1.75124378,19.7587138 C2.25207297,20.2529046 2.9933665,20.5 3.97512438,20.5 Z M2.70149254,14.805351 L2.70149254,3.56332842 C2.70149254,3.11168385 2.81757877,2.76640484 3.04975124,2.52749141 C3.28192371,2.28857797 3.63349917,2.16912126 4.10447761,2.16912126 L13.8855721,2.16912126 C14.3565506,2.16912126 14.7114428,2.28857797 14.9502488,2.52749141 C15.1890547,2.76640484 15.3084577,3.11168385 15.3084577,3.56332842 L15.3084577,13.715513 C15.3084577,14.206431 15.0497512,14.45189 14.5323383,14.45189 L4.17412935,14.45189 C3.87562189,14.45189 3.6053068,14.4829815 3.36318408,14.5451645 C3.12106136,14.6073474 2.90049751,14.6940763 2.70149254,14.805351 Z M4.13432836,18.8897889 C3.64344942,18.8897889 3.27363184,18.7637866 3.02487562,18.511782 C2.7761194,18.2597775 2.65174129,17.9112257 2.65174129,17.4661267 C2.65174129,17.0537555 2.7893864,16.7199313 3.06467662,16.4646539 C3.33996683,16.2093765 3.71973466,16.0817378 4.2039801,16.0817378 L13.7363184,16.0817378 C13.8490879,16.0817378 13.9552239,16.0719195 14.0547264,16.0522828 C13.8291874,16.5301096 13.7296849,17.0193913 13.7562189,17.5201276 C13.7827529,18.020864 13.9187396,18.4774178 14.1641791,18.8897889 L4.13432836,18.8897889 Z M3.7960199,15.2864507 L5.08955224,15.2864507 L5.08955224,1.74693176 L3.7960199,1.74693176 L3.7960199,15.2864507 Z" transform="translate(-1)"/></svg>