<svg xmlns="http://www.w3.org/2000/svg" width="21" height="21" viewBox="0 0 21 21"><g fill="none" fill-rule="evenodd"><rect width="21" height="21"/><path fill="#000" fill-rule="nonzero" d="M5.97512438,20.5 L18.1840796,20.5 C18.4162521,20.5 18.6102819,20.4230895 18.7661692,20.2692685 C18.9220564,20.1154476 19,19.9239895 19,19.6948945 C19,19.5116184 18.9436153,19.3496154 18.8308458,19.2088856 C18.7180763,19.0681558 18.5820896,18.965063 18.4228856,18.8996073 C18.0315091,18.7359679 17.7512438,18.4757814 17.5820896,18.1190476 C17.4129353,17.7623139 17.3731343,17.3695794 17.4626866,16.9408444 C17.5522388,16.5121093 17.7927032,16.1111929 18.1840796,15.7380952 C18.3897181,15.541728 18.5771144,15.312633 18.7462687,15.05081 C18.9154229,14.7889871 19,14.4257077 19,13.960972 L19,3.48478154 C19,2.49639993 18.7495854,1.75184094 18.2487562,1.25110457 C17.747927,0.750368189 17,0.5 16.0049751,0.5 L5.99502488,0.5 C5.0066335,0.5 4.26036484,0.750368189 3.75621891,1.25110457 C3.25207297,1.75184094 3,2.49639993 3,3.48478154 L3,17.5643103 C3,18.5330551 3.25041459,19.264523 3.75124378,19.7587138 C4.25207297,20.2529046 4.9933665,20.5 5.97512438,20.5 Z M4.70149254,14.805351 L4.70149254,3.56332842 C4.70149254,3.11168385 4.81757877,2.76640484 5.04975124,2.52749141 C5.28192371,2.28857797 5.63349917,2.16912126 6.10447761,2.16912126 L15.8855721,2.16912126 C16.3565506,2.16912126 16.7114428,2.28857797 16.9502488,2.52749141 C17.1890547,2.76640484 17.3084577,3.11168385 17.3084577,3.56332842 L17.3084577,13.715513 C17.3084577,14.206431 17.0497512,14.45189 16.5323383,14.45189 L6.17412935,14.45189 C5.87562189,14.45189 5.6053068,14.4829815 5.36318408,14.5451645 C5.12106136,14.6073474 4.90049751,14.6940763 4.70149254,14.805351 Z M6.13432836,18.8897889 C5.64344942,18.8897889 5.27363184,18.7637866 5.02487562,18.511782 C4.7761194,18.2597775 4.65174129,17.9112257 4.65174129,17.4661267 C4.65174129,17.0537555 4.7893864,16.7199313 5.06467662,16.4646539 C5.33996683,16.2093765 5.71973466,16.0817378 6.2039801,16.0817378 L15.7363184,16.0817378 C15.8490879,16.0817378 15.9552239,16.0719195 16.0547264,16.0522828 C15.8291874,16.5301096 15.7296849,17.0193913 15.7562189,17.5201276 C15.7827529,18.020864 15.9187396,18.4774178 16.1641791,18.8897889 L6.13432836,18.8897889 Z M5.7960199,15.2864507 L7.08955224,15.2864507 L7.08955224,1.74693176 L5.7960199,1.74693176 L5.7960199,15.2864507 Z"/></g></svg>