<svg xmlns="http://www.w3.org/2000/svg" width="16" height="20" viewBox="0 0 16 20"><path d="M2.97512438,20 L15.1840796,20 C15.4162521,20 15.6102819,19.9230895 15.7661692,19.7692685 C15.9220564,19.6154476 16,19.4239895 16,19.1948945 C16,19.0116184 15.9436153,18.8496154 15.8308458,18.7088856 C15.7180763,18.5681558 15.5820896,18.465063 15.4228856,18.3996073 C15.0315091,18.2359679 14.7512438,17.9757814 14.5820896,17.6190476 C14.4129353,17.2623139 14.3731343,16.8695794 14.4626866,16.4408444 C14.5522388,16.0121093 14.7927032,15.6111929 15.1840796,15.2380952 C15.3897181,15.041728 15.5771144,14.812633 15.7462687,14.55081 C15.9154229,14.2889871 16,13.9257077 16,13.460972 L16,2.98478154 C16,1.99639993 15.7495854,1.25184094 15.2487562,0.751104566 C14.747927,0.250368189 14,0 13.0049751,0 L2.99502488,0 C2.0066335,0 1.26036484,0.250368189 0.756218905,0.751104566 C0.252072968,1.25184094 0,1.99639993 0,2.98478154 L0,17.0643103 C0,18.0330551 0.250414594,18.764523 0.751243781,19.2587138 C1.25207297,19.7529046 1.9933665,20 2.97512438,20 Z M1.70149254,14.305351 L1.70149254,3.06332842 C1.70149254,2.61168385 1.81757877,2.26640484 2.04975124,2.02749141 C2.28192371,1.78857797 2.63349917,1.66912126 3.10447761,1.66912126 L12.8855721,1.66912126 C13.3565506,1.66912126 13.7114428,1.78857797 13.9502488,2.02749141 C14.1890547,2.26640484 14.3084577,2.61168385 14.3084577,3.06332842 L14.3084577,13.215513 C14.3084577,13.706431 14.0497512,13.95189 13.5323383,13.95189 L3.17412935,13.95189 C2.87562189,13.95189 2.6053068,13.9829815 2.36318408,14.0451645 C2.12106136,14.1073474 1.90049751,14.1940763 1.70149254,14.305351 Z M3.13432836,18.3897889 C2.64344942,18.3897889 2.27363184,18.2637866 2.02487562,18.011782 C1.7761194,17.7597775 1.65174129,17.4112257 1.65174129,16.9661267 C1.65174129,16.5537555 1.7893864,16.2199313 2.06467662,15.9646539 C2.33996683,15.7093765 2.71973466,15.5817378 3.2039801,15.5817378 L12.7363184,15.5817378 C12.8490879,15.5817378 12.9552239,15.5719195 13.0547264,15.5522828 C12.8291874,16.0301096 12.7296849,16.5193913 12.7562189,17.0201276 C12.7827529,17.520864 12.9187396,17.9774178 13.1641791,18.3897889 L3.13432836,18.3897889 Z M2.7960199,14.7864507 L4.08955224,14.7864507 L4.08955224,1.24693176 L2.7960199,1.24693176 L2.7960199,14.7864507 Z"/></svg>