<svg xmlns="http://www.w3.org/2000/svg" width="16" height="16" viewBox="0 0 16 16"><path fill="none" stroke="#000" stroke-linecap="round" stroke-linejoin="round" stroke-width="1.2" d="M2,2 L3.55555556,2 L3.86666667,3.55555556 M5.11111111,9.77777778 L12.8888889,9.77777778 L16,3.55555556 L4,3.55555556 M5.11111111,9.77777778 L3.86666667,3.55555556 M5.11111111,9.77777778 L3.32775222,11.5611444 C2.83777556,12.0511444 3.18479667,12.8888889 3.87771889,12.8888889 L12.8888889,12.8888889 M12.8888889,12.8888889 C12.0297556,12.8888889 11.3333333,13.5853111 11.3333333,14.4444444 C11.3333333,15.3035778 12.0297556,16 12.8888889,16 C13.7480222,16 14.4444444,15.3035778 14.4444444,14.4444444 C14.4444444,13.5853111 13.7480222,12.8888889 12.8888889,12.8888889 Z M6.66666667,14.4444444 C6.66666667,15.3035778 5.97022111,16 5.11111111,16 C4.25200111,16 3.55555556,15.3035778 3.55555556,14.4444444 C3.55555556,13.5853111 4.25200111,12.8888889 5.11111111,12.8888889 C5.97022111,12.8888889 6.66666667,13.5853111 6.66666667,14.4444444 Z" transform="translate(-1 -1)"/></svg>