<svg xmlns="http://www.w3.org/2000/svg" width="80" height="80" viewBox="0 0 80 80"><path fill-rule="evenodd" d="M40,1 C61.5391052,1 79,18.4608948 79,40 C79,61.5391052 61.5391052,79 40,79 C18.4608948,79 1,61.5391052 1,40 C1,18.4608948 18.4608948,1 40,1 Z M40,4 C20.117749,4 4,20.117749 4,40 C4,59.882251 20.117749,76 40,76 C59.882251,76 76,59.882251 76,40 C76,20.117749 59.882251,4 40,4 Z M33.356875,57.4171875 C34.4477083,57.4171875 35.3620833,57.7901562 36.1,58.5360937 C36.8379167,59.2820312 37.206875,60.184375 37.206875,61.243125 C37.206875,62.301875 36.8379167,63.2042187 36.1,63.9501562 C35.3620833,64.6960937 34.4477083,65.0690625 33.356875,65.0690625 C32.298125,65.0690625 31.3957813,64.6960937 30.6498438,63.9501562 C29.9039063,63.2042187 29.5309375,62.301875 29.5309375,61.243125 C29.5309375,60.184375 29.9039063,59.2820312 30.6498438,58.5360937 C31.3957813,57.7901562 32.298125,57.4171875 33.356875,57.4171875 Z M54.5559375,57.4171875 C55.6146875,57.4171875 56.5170312,57.7901562 57.2629687,58.5360937 C58.0089062,59.2820312 58.381875,60.184375 58.381875,61.243125 C58.381875,62.301875 58.0089062,63.2042187 57.2629687,63.9501562 C56.5170312,64.6960937 55.6146875,65.0690625 54.5559375,65.0690625 C53.4971875,65.0690625 52.5868229,64.6960937 51.8248437,63.9501562 C51.0628646,63.2042187 50.681875,62.301875 50.681875,61.243125 C50.681875,60.184375 51.0628646,59.2820312 51.8248437,58.5360937 C52.5868229,57.7901562 53.4971875,57.4171875 54.5559375,57.4171875 Z M22.7934375,20 C24.0126042,20 24.8507812,20.2366146 25.3079687,20.7098437 C25.7194375,21.13575 26.0042172,21.7468172 26.1623078,22.5430453 L26.2103125,22.8153125 L26.602,25.51 L63.435,25.5103125 C64.0624074,25.5103125 64.572572,25.6592425 64.9654938,25.9571026 L65.1073438,26.0757812 C65.5164063,26.4527604 65.7209375,26.9380208 65.7209375,27.5315625 C65.7209375,27.6438542 65.7089063,27.7882292 65.6848437,27.9646875 C65.6688021,28.0823264 65.6545428,28.1928356 65.642066,28.2962153 L65.6246875,28.4459375 L63.868125,40.164375 C63.6114583,41.84875 63.0299479,43.1761979 62.1235938,44.1467187 C61.2705545,45.0601501 60.0587149,45.5437314 58.4880747,45.5974627 L58.189375,45.6025 L29.521,45.602 L29.8678125,47.9846875 C29.9520312,48.5321094 30.1406462,48.987417 30.4336572,49.3506104 L30.565625,49.500625 C30.893588,49.8428472 31.3102752,50.0329707 31.8156867,50.0709954 L32.009375,50.078125 L58.0690625,50.078125 C58.5663542,50.078125 58.9994792,50.2545833 59.3684375,50.6075 C59.7373958,50.9604167 59.921875,51.4095833 59.921875,51.955 C59.921875,52.5004167 59.7373958,52.9495833 59.3684375,53.3025 C59.045599,53.6113021 58.6736328,53.7850033 58.2525391,53.8236035 L58.0690625,53.831875 L31.5521875,53.831875 C29.8517708,53.831875 28.5483854,53.350625 27.6420312,52.388125 C26.7961007,51.4897917 26.2331451,50.2840287 25.9531646,48.7708361 L25.8975,48.441875 L22.33625,23.8740625 L14.9009375,23.8740625 C14.4036458,23.8740625 13.9625,23.6855729 13.5775,23.3085937 C13.1925,22.9316146 13,22.4784375 13,21.9490625 C13,21.4196875 13.1925,20.9625 13.5775,20.5775 C13.9197222,20.2352778 14.3063066,20.0451543 14.7372531,20.0071296 L14.9009375,20 L22.7934375,20 Z M27.143,29.239 L28.979,41.871 L57.804375,41.84875 C58.4139583,41.84875 58.8911979,41.6602604 59.2360938,41.2832812 C59.5378776,40.9534245 59.7444767,40.528383 59.8558911,40.0081567 L59.8978125,39.779375 L61.41375,29.24 L27.143,29.239 Z"/></svg>