<svg xmlns="http://www.w3.org/2000/svg" width="21" height="21" viewBox="0 0 21 21"><g fill="none" fill-rule="evenodd"><rect width="21" height="21"/><path fill="#000" fill-rule="nonzero" stroke="#000" stroke-width=".615" d="M20.2834838,12.0991036 L18.4597393,3.90381281 C18.4589971,3.90058379 18.4582549,3.89735477 18.4574737,3.89412575 C18.3274741,3.3500565 17.973647,2.90359355 17.4866563,2.669224 C16.9996656,2.43485446 16.4454485,2.44433714 15.9661531,2.6951379 L14.9290859,3.23769482 C14.6396336,3.38913172 14.5223293,3.75736249 14.6670554,4.06023629 C14.8117816,4.36311009 15.1636164,4.48585368 15.4531078,4.33441678 L16.4901749,3.79185986 C16.6499791,3.70827323 16.8346661,3.70508509 16.9970093,3.78323552 C17.1581417,3.86077284 17.2755241,4.00795888 17.3196646,4.18751686 L18.8686834,11.1483415 C18.8266523,11.1451942 18.7844649,11.1430279 18.741926,11.1430279 L12.8121392,11.1430279 C12.2834689,11.1430279 11.7879626,11.3883925 11.4528464,11.8161762 C11.306089,12.0034592 11.1981597,12.21543 11.1318708,12.4400308 C10.7158174,12.3444682 10.284139,12.3444682 9.86808555,12.4400308 C9.80179669,12.2153892 9.69386733,12.0034184 9.54710996,11.8161762 C9.21191566,11.3883516 8.71648747,11.142987 8.18781719,11.142987 L2.25799134,11.142987 C2.21549147,11.142987 2.1733041,11.1451533 2.13127297,11.1483006 L3.68029173,4.18751686 C3.72439316,4.00795888 3.84177562,3.86077284 4.00290795,3.78323552 C4.16525121,3.70512596 4.35001627,3.70827323 4.50978142,3.79185986 L5.5468486,4.33441678 C5.83630085,4.48585368 6.18817479,4.36306921 6.33290091,4.06023629 C6.47762704,3.75736249 6.36032271,3.38913172 6.07087045,3.23769482 L5.03380327,2.6951379 C4.55446878,2.44433714 4.00017358,2.43489533 3.51322193,2.669224 C3.02627027,2.9036753 2.67244321,3.35009738 2.54248267,3.8942075 C2.54166236,3.89743651 2.54095924,3.90062466 2.54021705,3.90385368 L0.716472556,12.0991036 C0.518973153,12.4753865 0.452254604,12.9134295 0.534363731,13.3429707 L1.04904968,16.0357681 C1.32197854,17.4636076 2.53009989,18.5 3.92173632,18.5 L6.52407221,18.5 C7.91566957,18.5 9.12382999,17.4636076 9.39675885,16.0357681 L9.83773408,13.7288998 C10.2618344,13.5493827 10.7383173,13.5493827 11.1623395,13.7288998 L11.6033147,16.0357681 C11.8762045,17.4636076 13.0843258,18.5 14.4760013,18.5 L17.0783372,18.5 C18.4699346,18.5 19.678095,17.4636484 19.9510239,16.035809 L20.4657098,13.3430525 C20.5477018,12.9134295 20.4809832,12.4753865 20.2834838,12.0991036 Z M8.7623467,13.102511 L8.24766076,15.7952675 C8.08391125,16.6519794 7.35903063,17.2737903 6.52407221,17.2737903 L3.92173632,17.2737903 C3.0867779,17.2737903 2.36189728,16.6519794 2.19814777,15.7952675 L1.68346182,13.1024701 C1.64889162,12.9216451 1.6931493,12.7361604 1.80486771,12.5935931 C1.91658612,12.4509849 2.08174187,12.3691967 2.25795228,12.3691967 L8.18785625,12.3691967 C8.36410572,12.3691967 8.52922241,12.4509849 8.64094082,12.5935931 C8.75265923,12.7362013 8.79691691,12.9216859 8.7623467,13.102511 Z M19.3164945,13.102511 L18.8018086,15.7952675 C18.6380591,16.6519794 17.9131785,17.2737903 17.07822,17.2737903 L14.4758841,17.2737903 C13.6408867,17.2737903 12.916006,16.6520202 12.7522956,15.7952675 L12.2376097,13.1024701 C12.2030394,12.9216451 12.2472971,12.7361195 12.3590155,12.5935522 C12.4707339,12.4509849 12.6358897,12.3691559 12.8121001,12.3691559 L18.741965,12.3691559 C18.9182145,12.3691559 19.0833702,12.450944 19.1950886,12.5935522 C19.3068071,12.7362013 19.3510647,12.9216859 19.3164945,13.102511 Z"/></g></svg>