<svg xmlns="http://www.w3.org/2000/svg" width="27" height="18" viewBox="0 0 27 18"><path stroke="#000" stroke-width=".615" d="M25.7293547,10.5991036 L23.4496741,2.40381281 C23.4487464,2.40058379 23.4478187,2.39735477 23.4468421,2.39412575 C23.2843426,1.8500565 22.8420588,1.40359355 22.2333204,1.169224 C21.624582,0.934854455 20.9318106,0.944337143 20.3326914,1.1951379 L19.0363574,1.73769482 C18.6745421,1.88913172 18.5279116,2.25736249 18.7088193,2.56023629 C18.889727,2.86311009 19.3295206,2.98585368 19.6913847,2.83441678 L20.9877187,2.29185986 C21.1874739,2.20827323 21.4183326,2.20508509 21.6212617,2.28323552 C21.8226771,2.36077284 21.9694052,2.50795888 22.0245808,2.68751686 L23.9608542,9.64834148 C23.9083153,9.6451942 23.8555811,9.6430279 23.8024074,9.6430279 L16.390174,9.6430279 C15.7293361,9.6430279 15.1099532,9.88839246 14.691058,10.3161762 C14.5076113,10.5034592 14.3726996,10.71543 14.2898385,10.9400308 C13.7697717,10.8444682 13.2301737,10.8444682 12.7101069,10.9400308 C12.6272459,10.7153892 12.4923342,10.5034184 12.3088875,10.3161762 C11.8898946,9.88835159 11.2706093,9.64298703 10.6097715,9.64298703 L3.19748918,9.64298703 C3.14436434,9.64298703 3.09163012,9.64515333 3.03909122,9.6483006 L4.97536467,2.68751686 C5.03049145,2.50795888 5.17721953,2.36077284 5.37863493,2.28323552 C5.58156401,2.20512596 5.81252034,2.20827323 6.01222677,2.29185986 L7.30856075,2.83441678 C7.67037606,2.98585368 8.11021849,2.86306921 8.29112614,2.56023629 C8.4720338,2.25736249 8.32540338,1.88913172 7.96358807,1.73769482 L6.66725409,1.1951379 C6.06808598,0.944337143 5.37521698,0.934895329 4.76652741,1.169224 C4.15783784,1.4036753 3.71555402,1.85009738 3.55310334,2.3942075 C3.55207795,2.39743651 3.55119905,2.40062466 3.55027131,2.40385368 L1.2705907,10.5991036 C1.02371644,10.9753865 0.940318255,11.4134295 1.04295466,11.8429707 L1.6863121,14.5357681 C2.02747318,15.9636076 3.53762487,17 5.2771704,17 L8.53009026,17 C10.269587,17 11.7797875,15.9636076 12.1209486,14.5357681 L12.6721676,12.2288998 C13.202293,12.0493827 13.7978966,12.0493827 14.3279243,12.2288998 L14.8791434,14.5357681 C15.2202556,15.9636076 16.7304073,17 18.4700017,17 L21.7229215,17 C23.4624182,17 24.9726188,15.9636484 25.3137798,14.535809 L25.9571373,11.8430525 C26.0596272,11.4134295 25.976229,10.9753865 25.7293547,10.5991036 Z M11.3279334,11.602511 L10.6845759,14.2952675 C10.4798891,15.1519794 9.57378829,15.7737903 8.53009026,15.7737903 L5.2771704,15.7737903 C4.23347238,15.7737903 3.3273716,15.1519794 3.12268471,14.2952675 L2.47932728,11.6024701 C2.43611452,11.4216451 2.49143662,11.2361604 2.63108464,11.0935931 C2.77073265,10.9509849 2.97717734,10.8691967 3.19744035,10.8691967 L10.6098203,10.8691967 C10.8301321,10.8691967 11.036528,10.9509849 11.176176,11.0935931 C11.315824,11.2362013 11.3711461,11.4216859 11.3279334,11.602511 Z M24.5206182,11.602511 L23.8772607,14.2952675 C23.6725738,15.1519794 22.7664731,15.7737903 21.722775,15.7737903 L18.4698552,15.7737903 C17.4261083,15.7737903 16.5200076,15.1520202 16.3153695,14.2952675 L15.6720121,11.6024701 C15.6287993,11.4216451 15.6841214,11.2361195 15.8237694,11.0935522 C15.9634174,10.9509849 16.1698621,10.8691559 16.3901251,10.8691559 L23.8024563,10.8691559 C24.0227681,10.8691559 24.2292128,10.950944 24.3688608,11.0935522 C24.5085088,11.2362013 24.5638309,11.4216859 24.5206182,11.602511 Z"/></svg>