<svg xmlns="http://www.w3.org/2000/svg" width="18" height="18" viewBox="0 0 18 18"><path fill="none" stroke="#000" stroke-linecap="round" stroke-linejoin="round" stroke-width="1.5" d="M6.05232889,10.1928 C6.23214222,9.83386667 6.33333333,9.4288 6.33333333,9 C6.33333333,8.5712 6.23214222,8.16613333 6.05232889,7.8072 M6.05232889,10.1928 C5.61452444,11.0667556 4.71065778,11.6666667 3.66666667,11.6666667 C2.19391111,11.6666667 1,10.4728 1,9 C1,7.5272 2.19391111,6.33333333 3.66666667,6.33333333 C4.71065778,6.33333333 5.61452444,6.93326222 6.05232889,7.8072 M6.05232889,10.1928 L11.9476444,13.1405333 M6.05232889,7.8072 L11.9476444,4.85949333 M11.9476444,4.85949333 C12.3855111,5.73340444 13.2893333,6.33333333 14.3333333,6.33333333 C15.8061333,6.33333333 17,5.13942222 17,3.66666667 C17,2.19391111 15.8061333,1 14.3333333,1 C12.8605333,1 11.6666667,2.19391111 11.6666667,3.66666667 C11.6666667,4.09544 11.7678222,4.50057778 11.9476444,4.85949333 Z M11.9476444,13.1405333 C11.7678222,13.4994667 11.6666667,13.9045333 11.6666667,14.3333333 C11.6666667,15.8061333 12.8605333,17 14.3333333,17 C15.8061333,17 17,15.8061333 17,14.3333333 C17,12.8605333 15.8061333,11.6666667 14.3333333,11.6666667 C13.2893333,11.6666667 12.3855111,12.2665778 11.9476444,13.1405333 Z"/></svg>