<svg xmlns="http://www.w3.org/2000/svg" width="17" height="13" viewBox="0 0 17 13"><path d="M8.64227642,13 L13.4308943,13 C14.195122,13 14.8428184,12.8612148 15.3739837,12.5836443 C15.9051491,12.3060738 16.3089431,11.9031924 16.5853659,11.375 C16.8617886,10.8468076 17,10.2054312 17,9.45087065 L17,3.55721393 C17,2.8026534 16.8617886,2.16127695 16.5853659,1.63308458 C16.3089431,1.10489221 15.9051491,0.70066335 15.3739837,0.42039801 C14.8428184,0.14013267 14.195122,0 13.4308943,0 L3.56910569,0 C2.80487805,0 2.15718157,0.13878524 1.62601626,0.416355721 C1.09485095,0.693926202 0.691056911,1.09815506 0.414634146,1.62904229 C0.138211382,2.15992952 0,2.8026534 0,3.55721393 L0,9.45087065 C0,10.2054312 0.139566396,10.8481551 0.418699187,11.3790423 C0.697831978,11.9099295 1.10162602,12.3128109 1.6300813,12.5876866 C2.15853659,12.8625622 2.79674797,13 3.54471545,13 L3.88617886,13 L8.64227642,13 Z M4.48445714,11.7 L3.53817143,11.7 C2.77565714,11.7 2.212,11.5112076 1.8472,11.1336227 C1.4824,10.7560379 1.3,10.2006051 1.3,9.46732439 L1.3,3.53267561 C1.3,2.7993949 1.4824,2.24396212 1.8472,1.86637727 C2.212,1.48879242 2.77565714,1.3 3.53817143,1.3 L13.4536,1.3 C14.2161143,1.3 14.7811429,1.48879242 15.1486857,1.86637727 C15.5162286,2.24396212 15.7,2.7993949 15.7,3.53267561 L15.7,9.46732439 C15.7,10.2006051 15.5162286,10.7560379 15.1486857,11.1336227 C14.7811429,11.5112076 14.2161143,11.7 13.4536,11.7 L8.57405714,11.7 C8.34365714,11.7 4.70388571,11.7 4.48445714,11.7 Z M4.56097561,4.44534413 L12.3495935,4.44534413 C12.4796748,4.44534413 12.5894309,4.40080972 12.6788618,4.31174089 C12.7682927,4.22267206 12.8130081,4.11336032 12.8130081,3.98380567 C12.8130081,3.85964912 12.7682927,3.75303644 12.6788618,3.66396761 C12.5894309,3.57489879 12.4796748,3.53036437 12.3495935,3.53036437 L4.56097561,3.53036437 C4.43631436,3.53036437 4.32926829,3.57489879 4.2398374,3.66396761 C4.1504065,3.75303644 4.10569106,3.85964912 4.10569106,3.98380567 C4.10569106,4.11336032 4.1504065,4.22267206 4.2398374,4.31174089 C4.32926829,4.40080972 4.43631436,4.44534413 4.56097561,4.44534413 Z M4.56097561,6.91497976 L12.3495935,6.91497976 C12.4796748,6.91497976 12.5894309,6.86909582 12.6788618,6.77732794 C12.7682927,6.68556005 12.8130081,6.57759784 12.8130081,6.4534413 C12.8130081,6.32388664 12.7682927,6.2145749 12.6788618,6.12550607 C12.5894309,6.03643725 12.4796748,5.99190283 12.3495935,5.99190283 L4.56097561,5.99190283 C4.43631436,5.99190283 4.32926829,6.03643725 4.2398374,6.12550607 C4.1504065,6.2145749 4.10569106,6.32388664 4.10569106,6.4534413 C4.10569106,6.57759784 4.1504065,6.68556005 4.2398374,6.77732794 C4.32926829,6.86909582 4.43631436,6.91497976 4.56097561,6.91497976 Z M4.56097561,9.37651822 L9.63414634,9.37651822 C9.75880759,9.37651822 9.86585366,9.33198381 9.95528455,9.24291498 C10.0447154,9.15384615 10.0894309,9.04723347 10.0894309,8.92307692 C10.0894309,8.78812416 10.0447154,8.67611336 9.95528455,8.58704453 C9.86585366,8.49797571 9.75880759,8.4534413 9.63414634,8.4534413 L4.56097561,8.4534413 C4.43631436,8.4534413 4.32926829,8.49797571 4.2398374,8.58704453 C4.1504065,8.67611336 4.10569106,8.78812416 4.10569106,8.92307692 C4.10569106,9.04723347 4.1504065,9.15384615 4.2398374,9.24291498 C4.32926829,9.33198381 4.43631436,9.37651822 4.56097561,9.37651822 Z"/></svg>