<svg xmlns="http://www.w3.org/2000/svg" width="15" height="15" viewBox="0 0 15 15"><path d="M7.00360268,14 C7.95951278,14 8.86018185,13.8162635 9.70560988,13.4487905 C10.5510379,13.0813176 11.295591,12.575742 11.9392692,11.9320638 C12.5829473,11.2883857 13.087322,10.5450335 13.4523932,9.70200721 C13.8174644,8.85898096 14,7.957111 14,6.99639732 C14,6.04048722 13.8162635,5.13981815 13.4487905,4.29439012 C13.0813176,3.44896209 12.575742,2.7032081 11.9320638,2.05712815 C11.2883857,1.41104821 10.5438326,0.906673529 9.69840453,0.544004117 C8.8529765,0.181334706 7.95230743,0 6.99639732,0 C6.04048722,0 5.14101904,0.181334706 4.29799279,0.544004117 C3.45496655,0.906673529 2.71041345,1.41104821 2.0643335,2.05712815 C1.41825356,2.7032081 0.912677989,3.44896209 0.547606794,4.29439012 C0.182535598,5.13981815 0,6.04048722 0,6.99639732 C0,7.957111 0.18373649,8.85898096 0.55120947,9.70200721 C0.91868245,10.5450335 1.42425802,11.2883857 2.06793618,11.9320638 C2.71161434,12.575742 3.45496655,13.0813176 4.29799279,13.4487905 C5.14101904,13.8162635 6.042889,14 7.00360268,14 Z M6.9940625,13.1971875 C6.1346875,13.1971875 5.33,13.0370313 4.58,12.7167188 C3.83,12.3964063 3.17114583,11.9523958 2.6034375,11.3846875 C2.03572917,10.8169792 1.59302083,10.158125 1.2753125,9.408125 C0.957604167,8.658125 0.79875,7.8534375 0.79875,6.9940625 C0.79875,6.1346875 0.957604167,5.33 1.2753125,4.58 C1.59302083,3.83 2.03572917,3.17114583 2.6034375,2.6034375 C3.17114583,2.03572917 3.82869792,1.59302083 4.57609375,1.2753125 C5.32348958,0.957604167 6.126875,0.79875 6.98625,0.79875 C7.845625,0.79875 8.6503125,0.957604167 9.4003125,1.2753125 C10.1503125,1.59302083 10.8091667,2.03572917 11.376875,2.6034375 C11.9445833,3.17114583 12.3885937,3.83 12.7089062,4.58 C13.0292187,5.33 13.189375,6.1346875 13.189375,6.9940625 C13.1945833,7.8534375 13.0370312,8.658125 12.7167187,9.408125 C12.3964062,10.158125 11.9536979,10.8169792 11.3885937,11.3846875 C10.8234896,11.9523958 10.1646354,12.3964063 9.41203125,12.7167188 C8.65942708,13.0370313 7.8534375,13.1971875 6.9940625,13.1971875 Z M6.1815625,10.5096875 C6.4471875,10.5096875 6.65552083,10.3872917 6.8065625,10.1425 L10.1503125,4.908125 C10.1971875,4.83520833 10.2388542,4.75708333 10.2753125,4.67375 C10.3117708,4.59041667 10.33,4.50447917 10.33,4.4159375 C10.33,4.2440625 10.2648958,4.10604167 10.1346875,4.001875 C10.0044792,3.89770833 9.85864583,3.845625 9.6971875,3.845625 C9.4784375,3.845625 9.29354167,3.9628125 9.1425,4.1971875 L6.158125,8.98625 L4.7440625,7.17375 C4.65552083,7.05916667 4.56697917,6.98104167 4.4784375,6.939375 C4.38989583,6.89770833 4.2909375,6.876875 4.1815625,6.876875 C4.0096875,6.876875 3.86515625,6.93677083 3.74796875,7.0565625 C3.63078125,7.17635417 3.5721875,7.3221875 3.5721875,7.4940625 C3.5721875,7.66072917 3.63208333,7.8221875 3.751875,7.9784375 L5.5253125,10.1425 C5.62427083,10.2727083 5.72583333,10.3664583 5.83,10.42375 C5.93416667,10.4810417 6.05135417,10.5096875 6.1815625,10.5096875 Z" transform="translate(.5 .5)"/></svg>