<svg xmlns="http://www.w3.org/2000/svg" width="30" height="30" viewBox="0 0 30 30"><path d="M26.130787,0.5 C26.4598148,0.5 26.7268519,0.766497462 26.7268519,1.09486041 L26.7268519,7.04346447 C26.7268519,7.24511299 26.6261463,7.42343069 26.4722223,7.53102651 C26.4675069,7.5349643 26.4625043,7.53849302 26.4574306,7.54195749 C26.3269042,7.6316559 26.1738345,7.66236632 26.0292464,7.6400177 L20.1701389,7.63832487 C19.8411111,7.63832487 19.5740741,7.37182741 19.5740741,7.04346447 C19.5740741,6.71510152 19.8411111,6.44860406 20.1701389,6.44860406 L24.9177398,6.44798193 C22.4322478,3.44930693 18.7326056,1.68972081 14.8055556,1.68972081 C7.57528935,1.68972081 1.69212963,7.56099302 1.69212963,14.7766497 C1.69212963,21.9923065 7.57528935,27.8635787 14.8055556,27.8635787 C22.0358218,27.8635787 27.9189815,21.9923065 27.9189815,14.7766497 C27.9189815,14.4482868 28.1860185,14.1817893 28.5150463,14.1817893 C28.8440741,14.1817893 29.1111111,14.4482868 29.1111111,14.7766497 C29.1111111,22.6490324 22.6938773,29.0532995 14.8055556,29.0532995 C6.9172338,29.0532995 0.5,22.6490324 0.5,14.7766497 C0.5,6.90426713 6.9172338,0.5 14.8055556,0.5 C18.9332715,0.5 22.8306187,2.28174933 25.5345713,5.33794463 L25.5347222,1.09486041 C25.5347222,0.766497462 25.8017593,0.5 26.130787,0.5 Z"/></svg>