<svg xmlns="http://www.w3.org/2000/svg" width="20" height="20" viewBox="0 0 20 20"><path fill="none" stroke="#718096" stroke-linecap="round" stroke-linejoin="round" stroke-width="1.5" d="M10,19 C14.9705627,19 19,14.9705627 19,10 C19,5.02943725 14.9705627,1 10,1 C5.02943725,1 1,5.02943725 1,10 C1,14.9705627 5.02943725,19 10,19 Z M11.7361364,12.8050613 L14.6287646,12.8050613 L13.8159939,12.0165719 C13.5955756,11.8027385 13.4717133,11.5126884 13.4717133,11.210291 L13.4717133,9.43760697 C13.4717133,7.97140053 12.5058069,6.72405056 11.1576107,6.26177204 L11.1576107,6.07015267 C11.1576107,5.45022117 10.6395989,4.9476679 10.0005594,4.9476679 C9.36152002,4.9476679 8.84350816,5.45022117 8.84350816,6.07015267 L8.84350816,6.26177204 C7.49532358,6.72405056 6.52940559,7.97140053 6.52940559,9.43760697 L6.52940559,11.210291 C6.52940559,11.5126884 6.40557218,11.8027385 6.18514234,12.0165719 L5.37235431,12.8050613 L8.26498252,12.8050613 M11.7361364,12.8050613 L11.7361364,13.3663037 C11.7361364,14.2962262 10.9591186,15.0500308 10.0005594,15.0500308 C9.04200031,15.0500308 8.26498252,14.2962262 8.26498252,13.3663037 L8.26498252,12.8050613 M11.7361364,12.8050613 L8.26498252,12.8050613"/></svg>