<svg xmlns="http://www.w3.org/2000/svg" width="19" height="16" viewBox="0 0 19 16"><defs><linearGradient id="a" x1="50%" x2="50%" y1="0%" y2="100%"><stop offset="0%" stop-color="#AAB7C7"/><stop offset="100%" stop-color="#718096"/></linearGradient></defs><path fill="none" stroke="url(#a)" stroke-width="1.417" d="M16.045977,1 C17.1251541,1 18,1.87484589 18,2.95402299 L18,13.045977 C18,14.1251541 17.1251541,15 16.045977,15 L2.95402299,15 C1.87484589,15 1,14.1251541 1,13.045977 L1,2.95402299 C1,1.87484589 1.87484589,1 2.95402299,1 L16.045977,1 Z M7.9216705,3.71063631 C7.74180765,3.71063631 7.596,3.85644396 7.596,4.03630681 L7.596,4.03630681 L7.596,8.99073165 C7.596,9.05630963 7.61579761,9.12036005 7.65280181,9.17450025 C7.7542944,9.32299233 7.95694702,9.36109294 8.1054391,9.25960034 L8.1054391,9.25960034 L11.6880922,6.81089893 C11.7205262,6.78873064 11.7486816,6.76087678 11.7711979,6.72868332 C11.8742835,6.5812927 11.8383673,6.37824157 11.6909766,6.27515592 L11.6909766,6.27515592 L8.10832358,3.76943249 C8.05360482,3.73116195 7.98844457,3.71063631 7.9216705,3.71063631 Z M1.06910569,12.1612787 L17.9308943,12.1612787"/></svg>