<svg xmlns="http://www.w3.org/2000/svg" width="20" height="20" viewBox="0 0 20 20"><path fill="none" stroke="#718096" stroke-linecap="round" stroke-linejoin="round" stroke-width="1.5" d="M16.364,3.63604 L12.8284,7.17157 M12.8284,12.8284 L16.364,16.364 M7.17157,7.17157 L3.63604,3.63604 M7.17157,12.8284 L3.63604,16.364 M19,10 C19,14.9706 14.9706,19 10,19 C5.02944,19 1,14.9706 1,10 C1,5.02944 5.02944,1 10,1 C14.9706,1 19,5.02944 19,10 Z M14,10 C14,12.2091 12.2091,14 10,14 C7.79086,14 6,12.2091 6,10 C6,7.79086 7.79086,6 10,6 C12.2091,6 14,7.79086 14,10 Z"/></svg>