<svg xmlns="http://www.w3.org/2000/svg" width="20" height="20" viewBox="0 0 20 20"><path fill="none" stroke="#000" stroke-linecap="round" stroke-linejoin="round" stroke-width="1.8" d="M0,0 L2,0 L2.4,2 M4,10 L14,10 L18,2 L2.4,2 M4,10 L2.4,2 M4,10 L1.70711,12.2929 C1.07714,12.9229 1.52331,14 2.41421,14 L14,14 M14,14 C12.8954,14 12,14.8954 12,16 C12,17.1046 12.8954,18 14,18 C15.1046,18 16,17.1046 16,16 C16,14.8954 15.1046,14 14,14 Z M6,16 C6,17.1046 5.10457,18 4,18 C2.89543,18 2,17.1046 2,16 C2,14.8954 2.89543,14 4,14 C5.10457,14 6,14.8954 6,16 Z" transform="translate(1 1)"/></svg>