<svg xmlns="http://www.w3.org/2000/svg" width="13" height="13" viewBox="0 0 13 13"><path d="M6.50334534,13 C7.39097615,13 8.22731172,12.8293875 9.01235203,12.4881626 C9.79739235,12.1469377 10.4887631,11.6774747 11.0864642,11.0797735 C11.6841654,10.4820724 12.1525133,9.79181678 12.491508,9.00900669 C12.8305027,8.2261966 13,7.38874593 13,6.49665466 C13,5.60902385 12.8293875,4.77268828 12.4881626,3.98764797 C12.1469377,3.20260765 11.6774747,2.5101218 11.0797735,1.91019043 C10.4820724,1.31025905 9.79070166,0.841911134 9.00566135,0.50514668 C8.22062103,0.168382227 7.38428547,0 6.49665466,0 C5.60902385,0 4.7738034,0.168382227 3.99099331,0.50514668 C3.20818322,0.841911134 2.51681249,1.31025905 1.91688111,1.91019043 C1.31694973,2.5101218 0.847486704,3.20260765 0.508492023,3.98764797 C0.169497341,4.77268828 0,5.60902385 0,6.49665466 C0,7.38874593 0.170612455,8.2261966 0.511837365,9.00900669 C0.853062275,9.79181678 1.3225253,10.4820724 1.92022645,11.0797735 C2.5179276,11.6774747 3.20818322,12.1469377 3.99099331,12.4881626 C4.7738034,12.8293875 5.61125407,13 6.50334534,13 Z M5.35254761,10.0895522 C5.209813,10.0895522 5.08938068,10.0427174 4.99125064,9.94904786 C4.8931206,9.85537828 4.84405558,9.73717619 4.84405558,9.59444159 C4.84405558,9.4606279 4.8931206,9.34577114 4.99125064,9.24987133 C5.08938068,9.15397152 5.209813,9.10602162 5.35254761,9.10602162 L6.14204838,9.10602162 L6.14204838,6.25579002 L5.46628924,6.25579002 C5.32355464,6.25579002 5.20312232,6.21007034 5.10499228,6.11863098 C5.00686224,6.02719163 4.95779722,5.90787442 4.95779722,5.76067936 C4.95779722,5.63132613 5.00686224,5.51869961 5.10499228,5.42279979 C5.20312232,5.32689998 5.32355464,5.27895008 5.46628924,5.27895008 L6.70406588,5.27895008 C6.88248413,5.27895008 7.01741294,5.3358209 7.10885229,5.44956253 C7.20029165,5.56330417 7.24601132,5.7160748 7.24601132,5.90787442 L7.24601132,9.10602162 L8.01544004,9.10602162 C8.15817464,9.10602162 8.27749185,9.15397152 8.37339166,9.24987133 C8.46929147,9.34577114 8.51724138,9.4606279 8.51724138,9.59444159 C8.51724138,9.73717619 8.46929147,9.85537828 8.37339166,9.94904786 C8.27749185,10.0427174 8.15817464,10.0895522 8.01544004,10.0895522 L5.35254761,10.0895522 Z M6.45651055,4.22851261 C6.21118545,4.22851261 6.00265912,4.14264882 5.83093155,3.97092126 C5.65920398,3.79919369 5.5733402,3.59289758 5.5733402,3.35203294 C5.5733402,3.10224738 5.65920398,2.89149082 5.83093155,2.71976325 C6.00265912,2.54803568 6.21118545,2.4621719 6.45651055,2.4621719 C6.69737519,2.4621719 6.9036713,2.54803568 7.07539887,2.71976325 C7.24712644,2.89149082 7.33299022,3.10224738 7.33299022,3.35203294 C7.33299022,3.59289758 7.24712644,3.79919369 7.07539887,3.97092126 C6.9036713,4.14264882 6.69737519,4.22851261 6.45651055,4.22851261 Z"/></svg>