<svg xmlns="http://www.w3.org/2000/svg" width="30" height="30" viewBox="0 0 30 30"><path fill-rule="evenodd" d="M15,0 C23.2842712,0 30,6.71572875 30,15 C30,23.2842712 23.2842712,30 15,30 C6.71572875,30 0,23.2842712 0,15 C0,6.71572875 6.71572875,0 15,0 Z M10.1322327,11.03552 L6.54288867,11.03552 L6.54288867,23 L10.1322327,23 L10.1322327,11.03552 Z M20.062751,10.7005146 C18.4834397,10.7005146 17.2869917,11.2748096 16.6409098,12.1601811 L16.6409098,11.03552 L13.0515658,11.03552 L13.0515658,23 L16.6409098,23 L16.6409098,16.4673939 C16.6409098,14.7684378 17.5502102,14.002711 18.866303,14.002711 C20.0148931,14.002711 20.9481226,14.6966509 20.9481226,16.1802464 L20.9481226,23 L24.5374666,23 L24.5374666,15.6538093 C24.5374666,12.4233997 22.479576,10.7005146 20.062751,10.7005146 Z M8.33756067,5.67543296 C7.16504163,5.67543296 6.18395427,6.65652032 6.18395427,7.82903936 C6.18395427,9.0015584 7.16504163,9.98264576 8.33756067,9.98264576 C9.51007971,9.98264576 10.4911671,9.0015584 10.4911671,7.82903936 C10.4911671,6.65652032 9.51007971,5.67543296 8.33756067,5.67543296 Z"/></svg>