<svg xmlns="http://www.w3.org/2000/svg" width="18" height="18" viewBox="0 0 18 18"><path fill="none" stroke="none" stroke-linecap="round" stroke-linejoin="round" stroke-width="1.5" d="M10.4892435,2.17094016 C10.7340436,3.17949141 11.8895104,3.6581137 12.7758216,3.11808696 C14.1478218,2.2821224 15.7178665,3.85217595 14.8819553,5.22415836 C14.3418663,6.11044293 14.820533,7.2659542 15.8290665,7.51075424 C17.3903112,7.88977651 17.3903112,10.1102213 15.8290665,10.4892435 C14.820533,10.7340436 14.3418663,11.8895104 14.8819553,12.7758216 C15.7178665,14.1478218 14.1478218,15.7178665 12.7758216,14.8819553 C11.8895104,14.3418663 10.7340436,14.820533 10.4892435,15.8290665 C10.1102213,17.3903112 7.88977651,17.3903112 7.51075424,15.8290665 C7.2659542,14.820533 6.11045182,14.3418663 5.22416725,14.8819553 C3.85217595,15.7178665 2.2821224,14.1478218 3.11808696,12.7758216 C3.6581137,11.8895104 3.17949141,10.7340436 2.17094016,10.4892435 C0.609686612,10.1102213 0.609686612,7.88977651 2.17094016,7.51075424 C3.17949141,7.2659542 3.65810481,6.11045182 3.11808696,5.22415836 C2.2821224,3.85217595 3.85217595,2.2821224 5.22416725,3.11808696 C6.11045182,3.65810481 7.2659542,3.17949141 7.51075424,2.17094016 C7.88977651,0.609686612 10.1102213,0.609686612 10.4892435,2.17094016 Z M8.99999889,6.33333185 C7.52719868,6.33333185 6.33333185,7.52719868 6.33333185,8.99999889 C6.33333185,10.4727991 7.52719868,11.6666659 8.99999889,11.6666659 C10.4727991,11.6666659 11.6666659,10.4727991 11.6666659,8.99999889 C11.6666659,7.52719868 10.4727991,6.33333185 8.99999889,6.33333185 Z"/></svg>