<svg xmlns="http://www.w3.org/2000/svg" width="24" height="22" viewBox="0 0 24 22"><path fill="#2D3748" d="M9.11,20.337986 L14.8342888,20.337986 L14.8342888,13.1565304 C14.8342888,12.9262213 14.7660175,12.7412762 14.6294748,12.6016949 C14.4929322,12.4621137 14.3091247,12.392323 14.0780525,12.392323 L9.88724289,12.392323 C9.64916849,12.392323 9.46010941,12.4621137 9.32006565,12.6016949 C9.18002188,12.7412762 9.11,12.9262213 9.11,13.1565304 L9.11,20.337986 Z M5.53282276,21.5 L18.416849,21.5 C19.1147338,21.5 19.6599562,21.3010967 20.0525164,20.9032901 C20.4450766,20.5054835 20.6413567,19.9471585 20.6413567,19.2283151 L20.6413567,8.26769691 L18.9301969,7.06380857 L18.9301969,18.7258225 C18.9301969,19.0468594 18.8496718,19.2911266 18.6886214,19.4586241 C18.5275711,19.6261216 18.2994165,19.7098704 18.0041575,19.7098704 L5.94551422,19.7098704 C5.64354486,19.7098704 5.41371262,19.6261216 5.25601751,19.4586241 C5.09832239,19.2911266 5.01947484,19.0468594 5.01947484,18.7258225 L5.01947484,7.06380857 L3.3083151,8.26769691 L3.3083151,19.2283151 C3.3083151,19.9471585 3.50291758,20.5054835 3.89212254,20.9032901 C4.2813275,21.3010967 4.82822757,21.5 5.53282276,21.5 Z M0.5,10.3928215 C0.5,10.6231306 0.582202772,10.8255234 0.746608315,11 C0.911013858,11.1744766 1.13078045,11.2617149 1.4059081,11.2617149 C1.54682713,11.2617149 1.67935813,11.2285643 1.80350109,11.1622632 C1.92764406,11.0959621 2.04004376,11.0139581 2.14070022,10.9162512 L11.6426696,2.63559322 C11.7567469,2.52392822 11.8792123,2.46809571 12.0100656,2.46809571 C12.140919,2.46809571 12.2667396,2.52392822 12.3875274,2.63559322 L21.8693654,10.9162512 C21.9767323,11.0139581 22.0924872,11.0959621 22.2166302,11.1622632 C22.3407732,11.2285643 22.4733042,11.2617149 22.6142232,11.2617149 C22.8625091,11.2617149 23.0722101,11.1866899 23.243326,11.0366401 C23.414442,10.8865902 23.5,10.6789631 23.5,10.4137587 C23.5,10.10668 23.3892779,9.8554337 23.1678337,9.66001994 L13.2632385,1.00249252 C12.880744,0.667497507 12.4663749,0.5 12.0201313,0.5 C11.5738877,0.5 11.1561634,0.667497507 10.7669584,1.00249252 L0.852297593,9.66001994 C0.617432531,9.86241276 0.5,10.10668 0.5,10.3928215 Z M18,5.7447657 L20.6678337,7.98504487 L20.6678337,3.29511466 C20.6678337,3.07876371 20.6013129,2.90428714 20.4682713,2.77168495 C20.3352298,2.63908275 20.1601751,2.57278166 19.9431072,2.57278166 L18.7352298,2.57278166 C18.5111597,2.57278166 18.3326039,2.63908275 18.1995624,2.77168495 C18.0665208,2.90428714 18,3.07876371 18,3.29511466 L18,5.7447657 Z"/></svg>