<svg xmlns="http://www.w3.org/2000/svg" width="19" height="21" viewBox="0 0 19 21"><path fill="#2D3748" fill-rule="evenodd" d="M16.5,0.5 C17.6045695,0.5 18.5,1.3954305 18.5,2.5 L18.5,18.5 C18.5,19.6045695 17.6045695,20.5 16.5,20.5 L2.5,20.5 C1.3954305,20.5 0.5,19.6045695 0.5,18.5 L0.5,2.5 C0.5,1.3954305 1.3954305,0.5 2.5,0.5 L16.5,0.5 Z M15.8,2.2 L3.2,2.2 C2.68716416,2.2 2.26449284,2.58604019 2.20672773,3.08337887 L2.2,3.2 L2.2,17.8 C2.2,18.3128358 2.58604019,18.7355072 3.08337887,18.7932723 L3.2,18.8 L15.8,18.8 C16.3128358,18.8 16.7355072,18.4139598 16.7932723,17.9166211 L16.8,17.8 L16.8,3.2 C16.8,2.64771525 16.3522847,2.2 15.8,2.2 Z M14.4699248,14.3095238 C14.8644139,14.3095238 15.1842105,14.6293204 15.1842105,15.0238095 C15.1842105,15.4182986 14.8644139,15.7380952 14.4699248,15.7380952 L4.53007519,15.7380952 C4.13558608,15.7380952 3.81578947,15.4182986 3.81578947,15.0238095 C3.81578947,14.6293204 4.13558608,14.3095238 4.53007519,14.3095238 L14.4699248,14.3095238 Z M12.5080099,4.25780378 C12.5661117,4.28149055 12.6107082,4.32973693 12.6297606,4.38951891 L15.1402452,12.2668094 C15.1579914,12.3224928 15.1272373,12.3820192 15.071554,12.3997654 C15.0611646,12.4030765 15.0503258,12.4047619 15.0394216,12.4047619 L4.02044697,12.4047619 C3.96200414,12.4047619 3.91462686,12.3573846 3.91462686,12.2989418 C3.91462686,12.2770258 3.92143149,12.2556505 3.93410102,12.2377677 L7.2863298,7.50616833 C7.35390086,7.41079323 7.48599482,7.38825359 7.58136992,7.45582465 C7.59447893,7.46511208 7.60648782,7.47586195 7.61716454,7.48786655 L9.79820977,9.94017124 C9.8370492,9.98384118 9.90393625,9.98775708 9.94760619,9.94891766 C9.95969793,9.93816343 9.96916219,9.92477929 9.97527114,9.9097945 L12.2321335,4.37388718 C12.2762591,4.26565046 12.3997732,4.21367815 12.5080099,4.25780378 Z"/></svg>