<svg xmlns="http://www.w3.org/2000/svg" width="23" height="20" viewBox="0 0 23 20"><g fill="none" fill-rule="evenodd" transform="translate(1 1)"><path fill="#718096" fill-rule="nonzero" d="M7.4921875,12.4766667 C8.015625,12.4766667 8.45507813,12.3152778 8.81054688,11.9925 C9.16601563,11.6697222 9.34375,11.2594444 9.34375,10.7616667 C9.34375,10.2561111 9.16601563,9.83416667 8.81054688,9.49583333 C8.45507813,9.1575 8.0546875,8.98833333 7.609375,8.98833333 L7.609375,8.98833333 L7.4453125,8.98833333 C7.4765625,8.52944444 7.61328125,8.14833333 7.85546875,7.845 C8.09765625,7.54166667 8.42578125,7.27722222 8.83984375,7.05166667 C9.14453125,6.88833333 9.296875,6.63555556 9.296875,6.29333333 C9.296875,6.06 9.2265625,5.86944444 9.0859375,5.72166667 C8.9453125,5.57388889 8.75,5.5 8.5,5.5 C8.125,5.5 7.69726563,5.69638889 7.21679687,6.08916667 C6.73632812,6.48194444 6.33007812,7.01472222 5.99804687,7.6875 C5.66601562,8.36027778 5.5,9.08166667 5.5,9.85166667 C5.5,10.6916667 5.68945312,11.3391667 6.06835937,11.7941667 C6.44726562,12.2491667 6.921875,12.4766667 7.4921875,12.4766667 Z M12.6484375,12.5 C13.171875,12.5 13.6113281,12.3327778 13.9667969,11.9983333 C14.3222656,11.6638889 14.5,11.2516667 14.5,10.7616667 C14.5,10.2561111 14.3222656,9.83416667 13.9667969,9.49583333 C13.6113281,9.1575 13.2148438,8.98833333 12.7773438,8.98833333 L12.7773438,8.98833333 L12.625,8.98833333 C12.671875,8.52166667 12.8046875,8.1425 13.0234375,7.85083333 C13.2421875,7.55916667 13.5664063,7.29277778 13.9960938,7.05166667 C14.3007813,6.89611111 14.453125,6.64333333 14.453125,6.29333333 C14.453125,6.05222222 14.3847656,5.85972222 14.2480469,5.71583333 C14.1113281,5.57194444 13.9140625,5.5 13.65625,5.5 C13.375,5.5 13.0566406,5.61472222 12.7011719,5.84416667 C12.3457031,6.07361111 12.0136719,6.38472222 11.7050781,6.7775 C11.3964844,7.17027778 11.1445312,7.63111111 10.9492187,8.16 C10.7539062,8.68888889 10.65625,9.25277778 10.65625,9.85166667 C10.65625,10.6838889 10.84375,11.3333333 11.21875,11.8 C11.59375,12.2666667 12.0703125,12.5 12.6484375,12.5 Z"/><path stroke="#718096" stroke-linecap="round" stroke-linejoin="round" stroke-width="1.5" d="M21,9 C21,13.9705875 16.2990333,18 10.5,18 C8.70415,18 7.01367333,17.6135625 5.53544833,16.9324875 L0,18 L1.62748833,13.815 C0.59682,12.4225875 0,10.7710875 0,9 C0,4.029435 4.70101333,0 10.5,0 C16.2990333,0 21,4.029435 21,9 Z" transform="matrix(-1 0 0 1 21 0)"/></g></svg>