<svg xmlns="http://www.w3.org/2000/svg" width="17" height="12" viewBox="0 0 17 12"><g fill="none" fill-rule="evenodd" stroke="#FF6B21" stroke-linecap="round" stroke-linejoin="round" transform="translate(1 1)"><path stroke-width="1.3" d="M0,8.12863387 L4.13823389,8.12863387 C4.71057861,8.12863387 5.25549906,7.88342645 5.63508791,7.4550682 L9.92506298,2.61391906 C10.3046518,2.18556081 10.8495723,1.9403534 11.421917,1.9403534 L14,1.9403534 L14,1.9403534"/><path stroke-width="1.3" d="M0,8.12863387 L3.76267006,8.12863387 C4.35871924,8.12863387 4.92370737,7.86278121 5.30365748,7.40352907 L9.22357516,2.66545819 C9.60352528,2.20620606 10.1685134,1.9403534 10.7645626,1.9403534 L14,1.9403534 L14,1.9403534" transform="matrix(1 0 0 -1 0 10.069)"/><polyline stroke-width="1.2" points="11.5 3 13.5 1 15.5 3" transform="rotate(90 13.5 2)"/><polyline stroke-width="1.2" points="11.5 9.07 13.5 7.07 15.5 9.07" transform="rotate(90 13.5 8.07)"/></g></svg>