<svg xmlns="http://www.w3.org/2000/svg" width="21" height="17" viewBox="0 0 21 17"><g fill="none" fill-rule="evenodd" stroke="#718096" stroke-linecap="round" stroke-linejoin="round" transform="translate(1 1)"><path stroke-width="1.579" d="M9.5,1.31845672 L9.5,15 M9.5,1.31845672 C8.26721667,0.501859284 6.59351722,0 4.75,0 C2.90648278,0 1.23277278,0.501859284 0,1.31845672 L0,15 C1.23277278,14.1834236 2.90648278,13.6815222 4.75,13.6815222 C6.59351722,13.6815222 8.26721667,14.1834236 9.5,15 M9.5,1.31845672 C10.7327833,0.501859284 12.4064722,0 14.25,0 C16.0935278,0 17.7672167,0.501859284 19,1.31845672 L19,15 C17.7672167,14.1834236 16.0935278,13.6815222 14.25,13.6815222 C12.4064722,13.6815222 10.7327833,14.1834236 9.5,15"/><path stroke-width="1.052" d="M2.86383207 5.74927224C4.2094255 5.15958474 5.44766582 5.15958474 6.57855305 5.74927224M12.3638321 5.74927224C13.7094255 5.15958474 14.9476658 5.15958474 16.078553 5.74927224M2.86383207 9.95897139C4.2094255 9.36928389 5.44766582 9.36928389 6.57855305 9.95897139M12.3638321 9.95897139C13.7094255 9.36928389 14.9476658 9.36928389 16.078553 9.95897139"/></g></svg>