<svg xmlns="http://www.w3.org/2000/svg" width="20" height="20" viewBox="0 0 20 20"><defs><linearGradient id="a" x1="50%" x2="50%" y1="0%" y2="100%"><stop offset="0%" stop-color="#AAB7C7"/><stop offset="100%" stop-color="#718096"/></linearGradient><linearGradient id="b" x1="50%" x2="50%" y1="0%" y2="100%"><stop offset="0%" stop-color="#AAB7C7"/><stop offset="100%" stop-color="#718096"/></linearGradient><linearGradient id="c" x1="50%" x2="50%" y1="0%" y2="100%"><stop offset="0%" stop-color="#AAB7C7"/><stop offset="100%" stop-color="#718096"/></linearGradient><linearGradient id="d" x1="50%" x2="50%" y1="0%" y2="100%"><stop offset="0%" stop-color="#AAB7C7"/><stop offset="100%" stop-color="#718096"/></linearGradient></defs><g fill="none" fill-rule="evenodd" stroke-width="1.5" transform="translate(1 1)"><circle cx="9" cy="9" r="9" stroke="url(#a)"/><g stroke-linecap="round" stroke-linejoin="round" transform="translate(4.5 3.881)"><line x1="5.239" x2="2.636" y1="2.4" y2="4.22" stroke="url(#b)"/><line x1="2.636" x2="5.239" y1="5.905" y2="7.725" stroke="url(#c)"/><path stroke="url(#d)" d="M1.43181818 6.62019231C2.22258909 6.62019231 2.86363636 5.92276154 2.86363636 5.0625 2.86363636 4.20221077 2.22258909 3.50480769 1.43181818 3.50480769.641047273 3.50480769 0 4.20221077 0 5.0625 0 5.92276154.641047273 6.62019231 1.43181818 6.62019231ZM6.44318182 10.125C7.23392727 10.125 7.875 9.42756923 7.875 8.56730769 7.875 7.70704615 7.23392727 7.00961538 6.44318182 7.00961538 5.65243636 7.00961538 5.01136364 7.70704615 5.01136364 8.56730769 5.01136364 9.42756923 5.65243636 10.125 6.44318182 10.125ZM6.44318182 3.11538462C7.23392727 3.11538462 7.875 2.41798154 7.875 1.55769231 7.875.697403077 7.23392727 0 6.44318182 0 5.65243636 0 5.01136364.697403077 5.01136364 1.55769231 5.01136364 2.41798154 5.65243636 3.11538462 6.44318182 3.11538462Z"/></g></g></svg>