<svg xmlns="http://www.w3.org/2000/svg" width="17" height="17" viewBox="0 0 17 17"><defs><linearGradient id="a" x1="50%" x2="50%" y1="0%" y2="100%"><stop offset="0%" stop-color="#AAB7C7"/><stop offset="100%" stop-color="#718096"/></linearGradient></defs><path fill="none" stroke="url(#a)" stroke-linecap="round" stroke-linejoin="round" stroke-width="1.406" d="M15,7.5 C15,11.6421667 11.6421667,15 7.5,15 M15,7.5 C15,3.35786667 11.6421667,0 7.5,0 M15,7.5 L0,7.5 M7.5,15 C3.35786667,15 0,11.6421667 0,7.5 M7.5,15 C8.88075,15 10,11.6421667 10,7.5 C10,3.35786667 8.88075,0 7.5,0 M7.5,15 C6.11925,15 5,11.6421667 5,7.5 C5,3.35786667 6.11925,0 7.5,0 M0,7.5 C0,3.35786667 3.35786667,0 7.5,0" transform="translate(1 1)"/></svg>