<svg xmlns="http://www.w3.org/2000/svg" width="16" height="22" viewBox="0 0 16 22"><path fill="#718096" fill-rule="evenodd" d="M5.06,0.5 C7.06499089,0.5 8.76775085,1.79400439 9.37869835,3.5924316 C9.9200751,3.36472049 10.515371,3.23913043 11.14,3.23913043 C13.6584185,3.23913043 15.7,5.28071198 15.7,7.79913043 L15.7,16.94 C15.7,19.4584185 13.6584185,21.5 11.14,21.5 C9.13500911,21.5 7.43224915,20.2059956 6.82130165,18.4075684 C6.2799249,18.6352795 5.68462902,18.7608696 5.06,18.7608696 C2.54158154,18.7608696 0.5,16.719288 0.5,14.2008696 L0.5,5.06 C0.5,2.54158154 2.54158154,0.5 5.06,0.5 Z M5.2,2 C3.49363057,2 2.09920401,3.33558623 2.00506564,5.01841339 L2,5.2 L2,14.06 C2,15.8273112 3.4326888,17.26 5.2,17.26 C6.33512516,17.26 7.33220666,16.6689649 7.9002929,15.7778462 L8.00171075,15.6073159 L8,16.9 C8,18.6120827 9.38791728,20 11.1,20 C12.7530454,20 14.1038961,18.7061508 14.1950927,17.075912 L14.2,16.9 L14.2,7.84 C14.2,6.12791728 12.8120827,4.74 11.1,4.74 C10.0096914,4.74 9.0508496,5.3028763 8.49820987,6.15389366 L8.39941718,6.31676899 L8.4,5.2 C8.4,3.4326888 6.9673112,2 5.2,2 Z M5.5,8.27881323 C5.5,7.25914161 6.52758189,6.65095159 7.29483381,7.21656486 L7.29483381,7.21656486 L10.9858627,9.93768504 C11.6713791,10.4431164 11.6713791,11.5568781 10.9858627,12.0623095 L10.9858627,12.0623095 L7.29483381,14.7833913 C6.52758189,15.3490812 5.5,14.7408784 5.5,13.7212068 L5.5,13.7212068 Z"/></svg>