<svg xmlns="http://www.w3.org/2000/svg" width="13" height="13" viewBox="0 0 13 13"><path fill-rule="evenodd" d="M0.79289,0.79289 C1.18342,0.40237 1.81658,0.40237 2.20711,0.79289 L6.5,5.08579 L10.7929,0.79289 C11.1834,0.40237 11.8166,0.40237 12.2071,0.79289 C12.5976,1.18342 12.5976,1.81658 12.2071,2.20711 L7.9142,6.5 L12.2071,10.7929 C12.5976,11.1834 12.5976,11.8166 12.2071,12.2071 C11.8166,12.5976 11.1834,12.5976 10.7929,12.2071 L6.5,7.9142 L2.20711,12.2071 C1.81658,12.5976 1.18342,12.5976 0.79289,12.2071 C0.40237,11.8166 0.40237,11.1834 0.79289,10.7929 L5.08579,6.5 L0.79289,2.20711 C0.40237,1.81658 0.40237,1.18342 0.79289,0.79289 Z"/></svg>