<svg xmlns="http://www.w3.org/2000/svg" width="15" height="13" viewBox="0 0 15 13"><path fill-rule="evenodd" d="M7.25629884,0.25104902 C7.59798687,-0.0836830066 8.15203774,-0.0836830066 8.49372577,0.25104902 L13.743734,5.39391535 C14.085422,5.72865594 14.085422,6.27138263 13.743734,6.60609751 L8.49372577,11.7489638 C8.15203774,12.0836787 7.59798687,12.0836787 7.25629884,11.7489638 C6.91458455,11.414249 6.91458455,10.8715051 7.25629884,10.5367902 L11.0125922,6.8571551 L0.875001367,6.8571551 C0.391755612,6.8571551 0,6.47341156 0,6.00001071 C0,5.52662701 0.391755612,5.14286633 0.875001367,5.14286633 L11.0125922,5.14286633 L7.25629884,1.46323976 C6.91458455,1.12849916 6.91458455,0.585789617 7.25629884,0.25104902 Z" transform="translate(.5 .5)"/></svg>