<svg xmlns="http://www.w3.org/2000/svg" width="116" height="34" viewBox="0 0 116 34"><g fill="none" transform="translate(1 1)"><path fill="#000" stroke="#A0AEC0" stroke-width="1.4" d="M114,28.7922932 C114,29.6436102 113.654028,30.4600106 113.038288,31.0616684 C112.422549,31.6633262 111.587552,32.0008873 110.717219,32 L3.28706193,32 C1.47389285,32.0018496 0.00236298874,30.5658457 0,28.7922932 L0,3.21189262 C0.00236173869,1.43766307 1.47319975,0.000460535379 3.28706193,0 L110.716363,0 C111.587159,0 112.422277,0.338421555 113.037942,0.940792352 C113.653608,1.54316315 114,2.36012276 114,3.21189262 L114,28.7922932 Z"/><path fill="#FFF" d="M24.7032247 16.0643177C24.6787226 13.3240141 26.9329193 11.9908475 27.0359972 11.9287804 25.7593514 10.0557153 23.7805925 9.79979494 23.0852387 9.77938933 21.4233178 9.60339093 19.8112461 10.7801145 18.964655 10.7801145 18.1011658 10.7801145 16.7974831 9.79639401 15.3924122 9.82530196 13.5843234 9.85335967 11.8928309 10.9067994 10.9651293 12.5426492 9.05058291 15.8781165 10.4784661 20.7797144 12.3127469 23.4758058 13.2303097 24.7970692 14.3024895 26.2705244 15.7058706 26.2186601 17.0788352 26.1625447 17.5916903 25.3386681 19.2485418 25.3386681 20.8901851 25.3386681 21.3717788 26.2186601 22.8030416 26.185501 24.2765495 26.1625447 25.2042512 24.8591363 26.0897078 23.5268199 27.1500589 22.0142539 27.5758892 20.5229438 27.5927872 20.4464228 27.5589912 20.4345195 24.7319514 19.3479207 24.7032247 16.0643177ZM21.9995405 8.0058016C22.7379842 7.07649604 23.2432352 5.81219835 23.1029816 4.52919553 22.0341814 4.57680862 20.6975476 5.27315012 19.9278425 6.18205006 19.246852 6.98297032 18.6385231 8.29573133 18.7956747 9.53027082 19.9962795 9.62039561 21.2289905 8.92065318 21.9995405 8.0058016L21.9995405 8.0058016ZM44.589667 26.029058 42.6708961 26.029058 41.6198389 22.705494 37.9664856 22.705494 36.9652775 26.029058 35.0972007 26.029058 38.7176029 14.7141464 40.9532117 14.7141464 44.589667 26.029058 44.589667 26.029058ZM41.3030009 21.3111106 40.3524869 18.3565481C40.2519436 18.054715 40.0626857 17.3439196 39.7855581 16.2250119L39.7517621 16.2250119C39.6402351 16.7062442 39.4619609 17.4170397 39.2177844 18.3565481L38.2833236 21.3111106 41.3030009 21.3111106ZM53.8818917 21.8493086C53.8818917 23.2368901 53.5076004 24.3336918 52.7581729 25.1388632 52.0873213 25.8556103 51.2534037 26.2135587 50.2589548 26.2135587 49.1850853 26.2135587 48.4128455 25.8284028 47.9439252 25.0563905L47.9439252 29.3373178 46.1425956 29.3373178 46.1425956 20.5518518C46.1425956 19.6803621 46.1197833 18.7867664 46.0758484 17.8702143L47.6600384 17.8702143 47.7605816 19.1634199 47.7943777 19.1634199C48.3951025 18.189052 49.3067511 17.701868 50.5301682 17.701868 51.4865965 17.701868 52.2850282 18.0819225 52.9237736 18.8428818 53.5616741 19.6055415 53.8818917 20.607117 53.8818917 21.8493086ZM52.046766 21.9156268C52.046766 21.1215084 51.8693368 20.4668284 51.5127884 19.9507365 51.1232889 19.4142389 50.600295 19.145565 49.9446516 19.145565 49.5002335 19.145565 49.0963706 19.2952062 48.7355978 19.5902373 48.37398 19.8878192 48.1374076 20.276376 48.0267256 20.7576083 47.9773149 20.9375787 47.9492379 21.1228001 47.9430803 21.3094101L47.9430803 22.6706344C47.9430803 23.2632474 48.1238892 23.7640351 48.485507 24.1738478 48.8471247 24.58196 49.3168899 24.7868664 49.8948024 24.7868664 50.5732581 24.7868664 51.1013215 24.5224437 51.4789923 23.9978494 51.8575081 23.4715547 52.046766 22.7777639 52.046766 21.9156268L52.046766 21.9156268ZM63.2070675 21.8493086C63.2070675 23.2368901 62.8327762 24.3336918 62.0833488 25.1388632 61.4116522 25.8556103 60.5785795 26.2135587 59.5832858 26.2135587 58.5094162 26.2135587 57.7371764 25.8284028 57.2682562 25.0563905L57.2682562 29.3373178 55.4669266 29.3373178 55.4669266 20.5518518C55.4669266 19.6803621 55.4441142 18.7867664 55.4001794 17.8702143L56.9843693 17.8702143 57.0849126 19.1634199 57.1187086 19.1634199C57.7185886 18.189052 58.6302371 17.701868 59.8544991 17.701868 60.8100825 17.701868 61.6085142 18.0819225 62.2489494 18.8428818 62.886005 19.6055415 63.2070675 20.607117 63.2070675 21.8493086L63.2070675 21.8493086ZM61.371097 21.9156268C61.371097 21.1215084 61.1928228 20.4668284 60.8362744 19.9507365 60.4467749 19.4142389 59.9254708 19.145565 59.2698274 19.145565 58.8254093 19.145565 58.4215465 19.2952062 58.0590838 19.5902373 57.697466 19.8878192 57.4617386 20.276376 57.3510565 20.7576083 57.2961379 20.9820701 57.2665664 21.1648703 57.2665664 21.3094101L57.2665664 22.6706344C57.2665664 23.2632474 57.4482201 23.7640351 57.8081481 24.1738478 58.1697659 24.5811098 58.639531 24.7868664 59.2191333 24.7868664 59.898434 24.7868664 60.4264973 24.5224437 60.8033233 23.9978494 61.1818391 23.4715547 61.371097 22.7777639 61.371097 21.9156268L61.371097 21.9156268ZM73.6331498 22.8551352C73.6331498 23.8184501 73.2985689 24.6015154 72.6336315 25.2060317 71.901947 25.8658131 70.8804613 26.1965541 69.5708642 26.1965541 68.3609656 26.1965541 67.3910188 25.9618895 66.6593343 25.4917102L67.0758707 23.9808447C67.8658534 24.4518743 68.733567 24.6865388 69.6781667 24.6865388 70.3574674 24.6865388 70.8855307 24.5317962 71.2623567 24.2248618 71.6400276 23.9170772 71.8309753 23.505564 71.8309753 22.9920228 71.8309753 22.5320463 71.6729787 22.1468904 71.3628999 21.8331541 71.0511314 21.5202681 70.5357415 21.2286379 69.8116611 20.9608142 67.8430411 20.221961 66.8578861 19.1413139 66.8578861 17.7197229 66.8578861 16.7912676 67.2059855 16.0311586 67.9004943 15.4368451 68.5950032 14.8433819 69.5159457 14.5466503 70.6616318 14.5466503 71.6848073 14.5466503 72.5373128 14.7260497 73.2140787 15.0839981L72.7620565 16.5617045C72.1250009 16.2148091 71.4059899 16.0413614 70.6016439 16.0413614 69.9662781 16.0413614 69.4677863 16.1986546 69.1112379 16.5115407 68.811298 16.7912676 68.6592157 17.1322114 68.6592157 17.5369227 68.6592157 17.9832954 68.8324205 18.3539973 69.1771402 18.6447773 69.4762353 18.912601 70.0220415 19.2042312 70.8111794 19.5171172 71.7794363 19.9099252 72.4908432 20.367351 72.946245 20.8927955 73.4050264 21.41824 73.6331498 22.0737703 73.6331498 22.8551352ZM79.6040674 19.2305884 77.6185493 19.2305884 77.6185493 23.1918278C77.6185493 24.1993548 77.9683384 24.701843 78.6696065 24.701843 78.9915139 24.701843 79.2585027 24.6746355 79.4697281 24.6176699L79.5195773 25.9941984C79.1647187 26.1276851 78.6974883 26.1948536 78.1187309 26.1948536 77.407324 26.1948536 76.8513789 25.9763435 76.4500508 25.5393233 76.0504124 25.1023031 75.8493259 24.3702518 75.8493259 23.3397684L75.8493259 19.2271875 74.6664641 19.2271875 74.6664641 17.8668134 75.8493259 17.8668134 75.8493259 16.3729526 77.6185493 15.8356048 77.6185493 17.8668134 79.6040674 17.8668134 79.6040674 19.2305884 79.6040674 19.2305884ZM88.5448131 21.8824677C88.5448131 23.1365626 88.1882648 24.1661957 87.4768579 24.9713671 86.7324998 25.8003451 85.7422755 26.2135587 84.5078746 26.2135587 83.3165638 26.2135587 82.3694294 25.8164995 81.6630919 25.0232314 80.9567544 24.2282628 80.6035856 23.2266873 80.6035856 22.0185051 80.6035856 20.7542074 80.968583 19.7186226 81.696043 18.9134512 82.4251929 18.1074295 83.4069682 17.7044187 84.641369 17.7044187 85.8309901 17.7044187 86.7865735 18.1023281 87.509809 18.8964465 88.2009383 19.6667584 88.5448131 20.6615319 88.5448131 21.8824677ZM86.6775812 21.9241291C86.6775812 21.1767736 86.51705 20.5356973 86.1951426 19.9991998 85.8174717 19.3513216 85.2767348 19.0273825 84.5763116 19.0273825 83.8547659 19.0273825 83.3013555 19.3513216 82.9245296 19.9991998 82.6017773 20.5356973 82.441246 21.1878267 82.441246 21.9581385 82.441246 22.7063442 82.6017773 23.349121 82.9245296 23.8839181 83.3140291 24.5317962 83.8573006 24.8557353 84.5611034 24.8557353 85.249698 24.8557353 85.7895899 24.5249944 86.1799343 23.8677636 86.5111357 23.3185126 86.6775812 22.6731851 86.6775812 21.9241291ZM94.402514 19.4644027C94.2151626 19.4303653 94.0251193 19.4135747 93.8347403 19.4142389 93.2010643 19.4142389 92.7110215 19.6540049 92.3663018 20.1369377 92.0672067 20.5620546 91.9168143 21.0994023 91.9168143 21.7481307L91.9168143 26.029058 90.1154847 26.029058 90.1154847 20.4396209C90.1170911 19.5831492 90.0996254 18.7267488 90.0631008 17.8710645L91.6320825 17.8710645 91.6979848 19.4320938 91.747834 19.4320938C91.9387817 18.8955963 92.2378768 18.4628273 92.6484988 18.1388882 93.024356 17.8558264 93.4810343 17.7025402 93.9504917 17.701868 94.1169373 17.701868 94.2673297 17.7137713 94.4008241 17.7350271L94.402514 19.4644027 94.402514 19.4644027ZM102.458648 21.56363C102.463216 21.8391905 102.441144 22.114545 102.392746 22.3858061L96.9887569 22.3858061C97.0090345 23.1918278 97.2709539 23.8090975 97.7728253 24.2342144 98.2282271 24.6134187 98.8171233 24.8038711 99.5403589 24.8038711 100.34048 24.8038711 101.070475 24.676336 101.726963 24.4187151L102.009161 25.676211C101.24199 26.0129035 100.336256 26.1803996 99.291113 26.1803996 98.0338998 26.1803996 97.0470551 25.8079972 96.328889 25.0648928 95.6124126 24.3209383 95.2533296 23.3210633 95.2533296 22.0686689 95.2533296 20.8392308 95.5870656 19.814699 96.2553825 18.9976243 96.9549608 18.1252845 97.9004054 17.6891145 99.0900265 17.6891145 100.258525 17.6891145 101.143137 18.1252845 101.743861 18.9976243 102.219541 19.6888644 102.458648 20.5459001 102.458648 21.56363L102.458648 21.56363ZM100.740964 21.0934507C100.753637 20.5552527 100.635351 20.0918753 100.391174 19.6999175 100.079406 19.1948786 99.599502 18.9432094 98.9565321 18.9432094 98.3676358 18.9432094 97.8877319 19.188927 97.5227345 19.6820626 97.2227945 20.0740204 97.0445204 20.5450499 96.9896018 21.0917502L100.740964 21.0934507ZM37.4468713 10.7137963C36.9458448 10.7137963 36.5124104 10.6891395 36.1516376 10.6474781L36.1516376 5.1770737C36.6562199 5.09863548 37.1661192 5.059974 37.6766844 5.06140162 39.7424681 5.06140162 40.693827 6.08427318 40.693827 7.75158168 40.693827 9.67481057 39.5701083 10.7137963 37.4468713 10.7137963ZM37.7493459 5.76288479C37.4705285 5.76288479 37.2331112 5.77988947 37.0362492 5.82070069L37.0362492 9.97919428C37.1427068 9.99619895 37.3471729 10.0038511 37.6344394 10.0038511 38.9879713 10.0038511 39.7585213 9.22843782 39.7585213 7.77623847 39.7585213 6.48133237 39.0614777 5.76288479 37.7493459 5.76288479L37.7493459 5.76288479ZM43.6585858 10.7554578C42.4943117 10.7554578 41.7398149 9.88056716 41.7398149 8.69279052 41.7398149 7.45485008 42.5103649 6.57230738 43.7244881 6.57230738 44.871864 6.57230738 45.6432589 7.40553652 45.6432589 8.62732251 45.6432589 9.88056716 44.8482068 10.7554578 43.6585858 10.7554578ZM43.6923818 7.22358649C43.0527915 7.22358649 42.6430144 7.82555203 42.6430144 8.6672835 42.6430144 9.49286054 43.0612405 10.0948261 43.6839328 10.0948261 44.3066251 10.0948261 44.7248512 9.45119908 44.7248512 8.65027883 44.7248512 7.83405436 44.3150741 7.22358649 43.6923818 7.22358649ZM52.2824935 6.65478006 51.0362641 10.6644827 50.2243139 10.6644827 49.7080792 8.92320388C49.5797208 8.49727538 49.4728451 8.06508828 49.3878616 7.62829778L49.3709636 7.62829778C49.3059062 8.06531796 49.1825506 8.50318838 49.0515909 8.92320388L48.502405 10.6644827 47.6820058 10.6644827 46.5092828 6.65478006 47.4192415 6.65478006 47.8704188 8.56100428C47.9768764 9.01502913 48.0664359 9.44354698 48.1407872 9.84825827L48.1576853 9.84825827C48.2227427 9.51071545 48.3292002 9.08899947 48.485507 8.56950661L49.0515909 6.6556303 49.7731366 6.6556303 50.3147183 8.52869539C50.445678 8.98272025 50.5521356 9.42824277 50.6349359 9.8491085L50.6585932 9.8491085C50.7160465 9.4367451 50.8064509 8.99887469 50.9289616 8.52869539L51.41309 6.6556303 52.2824935 6.65478006 52.2824935 6.65478006ZM56.8703076 10.6644827 55.9848511 10.6644827 55.9848511 8.36204956C55.9848511 7.65295456 55.7144826 7.29755683 55.1813499 7.29755683 54.6566662 7.29755683 54.2958933 7.75158168 54.2958933 8.27957688L54.2958933 10.6644827 53.4104368 10.6644827 53.4104368 7.80089525C53.4104368 7.44634775 53.4019877 7.06629323 53.3774856 6.65392983L54.1564846 6.65392983 54.1978848 7.27290005 54.2223869 7.27290005C54.4606491 6.84438221 54.9439326 6.57230738 55.4855144 6.57230738 56.3219667 6.57230738 56.8711525 7.21593438 56.8711525 8.26342244L56.8703076 10.6644827 56.8703076 10.6644827ZM59.3120725 10.6644827 58.425771 10.6644827 58.425771 4.81487409 59.3120725 4.81487409 59.3120725 10.6644827ZM62.5404404 10.7554578C61.3770113 10.7554578 60.6216695 9.88056716 60.6216695 8.69279052 60.6216695 7.45485008 61.3922195 6.57230738 62.6054978 6.57230738 63.7537187 6.57230738 64.5242694 7.40553652 64.5242694 8.62732251 64.5251136 9.88056716 63.7292165 10.7554578 62.5404404 10.7554578ZM62.5733915 7.22358649C61.9338012 7.22358649 61.5240241 7.82555203 61.5240241 8.6672835 61.5240241 9.49286054 61.9430952 10.0948261 62.5640976 10.0948261 63.1876348 10.0948261 63.6050174 9.45119908 63.6050174 8.65027883 63.6058609 7.83405436 63.1969287 7.22358649 62.5733915 7.22358649L62.5733915 7.22358649ZM68.0154009 10.6644827 67.9511884 10.2028058 67.9275312 10.2028058C67.6571628 10.5743579 67.2625938 10.7554578 66.7624123 10.7554578 66.0484707 10.7554578 65.5415299 10.2521193 65.5415299 9.57533322 65.5415299 8.58566106 66.3940353 8.0738203 67.8700779 8.0738203L67.8700779 7.99984996C67.8700779 7.47185476 67.5921054 7.20743204 67.0429195 7.20743204 66.6500404 7.20743204 66.3053207 7.3069094 66.0020011 7.50501388L65.8220371 6.91920278C66.1904141 6.68793918 66.6500404 6.57230738 67.1899323 6.57230738 68.2308508 6.57230738 68.7563794 7.12495936 68.7563794 8.23111356L68.7563794 9.70796969C68.7563794 10.112681 68.7741223 10.4264173 68.8138327 10.665333L68.0154009 10.6644827 68.0154009 10.6644827ZM67.8937351 8.6672835C66.91027 8.6672835 66.4168476 8.90704944 66.4168476 9.47585586 66.4168476 9.8967216 66.6711629 10.1024782 67.0243317 10.1024782 67.4746641 10.1024782 67.8937351 9.75643302 67.8937351 9.28625372L67.8937351 8.6672835 67.8937351 8.6672835ZM73.0560822 10.6644827 73.014682 10.0208557 72.9901799 10.0208557C72.7358646 10.5071895 72.3083445 10.7554578 71.7109993 10.7554578 70.7503465 10.7554578 70.0389396 9.90522394 70.0389396 8.70894496 70.0389396 7.45485008 70.7765384 6.57145715 71.7836608 6.57145715 72.3167935 6.57145715 72.6944644 6.75255695 72.9073795 7.11645703L72.9251225 7.11645703 72.9251225 4.81487409 73.811424 4.81487409 73.811424 9.58383555C73.811424 9.97154217 73.8207179 10.334592 73.8443751 10.6644827L73.0560822 10.6644827ZM72.9251225 8.3050839C72.9251225 7.74392958 72.5559006 7.26524794 71.9923514 7.26524794 71.3358631 7.26524794 70.934535 7.85105904 70.934535 8.67578584 70.934535 9.4843582 71.3510713 10.0378604 71.9746085 10.0378604 72.5313985 10.0378604 72.9251225 9.55067644 72.9251225 8.97336768L72.9251225 8.3050839ZM79.4308626 10.7554578C78.2674335 10.7554578 77.5129366 9.88056716 77.5129366 8.69279052 77.5129366 7.45485008 78.2834866 6.57230738 79.4967649 6.57230738 80.6449858 6.57230738 81.4155365 7.40553652 81.4155365 8.62732251 81.4163807 9.88056716 80.6213286 10.7554578 79.4308626 10.7554578ZM79.4638138 7.22358649C78.8250684 7.22358649 78.4152912 7.82555203 78.4152912 8.6672835 78.4152912 9.49286054 78.8335174 10.0948261 79.4553648 10.0948261 80.0789019 10.0948261 80.4962884 9.45119908 80.4962884 8.65027883 80.497973 7.83405436 80.0881958 7.22358649 79.4638138 7.22358649ZM86.1773996 10.6644827 85.2910981 10.6644827 85.2910981 8.36204956C85.2910981 7.65295456 85.0207297 7.29755683 84.487597 7.29755683 83.9629133 7.29755683 83.6029853 7.75158168 83.6029853 8.27957688L83.6029853 10.6644827 82.7166838 10.6644827 82.7166838 7.80089525C82.7166838 7.44634775 82.7082348 7.06629323 82.6837327 6.65392983L83.4627317 6.65392983 83.5041319 7.27290005 83.528634 7.27290005C83.7660513 6.84438221 84.2501797 6.57145715 84.7909166 6.57145715 85.6273689 6.57145715 86.1773996 7.21508415 86.1773996 8.26257221L86.1773996 10.6644827ZM92.1347988 7.32306384 91.1606276 7.32306384 91.1606276 9.27009928C91.1606276 9.76578559 91.3312977 10.0132036 91.6760174 10.0132036 91.8323241 10.0132036 91.9632838 9.99619895 92.0688965 9.97154217L92.0933987 10.6483283C91.9218837 10.7146465 91.6920705 10.7478056 91.4064939 10.7478056 90.7086054 10.7478056 90.2912241 10.360099 90.2912241 9.34491985L90.2912241 7.32306384 89.709932 7.32306384 89.709932 6.65478006 90.2912241 6.65478006 90.2912241 5.92017805 91.1606276 5.65575533 91.1606276 6.65392983 92.1347988 6.65392983 92.1347988 7.32306384 92.1347988 7.32306384ZM96.8223113 10.6644827 95.9376996 10.6644827 95.9376996 8.37905424C95.9376996 7.6614569 95.6681761 7.29840706 95.1341985 7.29840706 94.6754171 7.29840706 94.247897 7.61214334 94.247897 8.247268L94.247897 10.6644827 93.3632853 10.6644827 93.3632853 4.81487409 94.247897 4.81487409 94.247897 7.22358649 94.2656399 7.22358649C94.5444574 6.78656631 94.9483202 6.57145715 95.46371 6.57145715 96.3069215 6.57145715 96.8223113 7.23123859 96.8223113 8.27957688L96.8223113 10.6644827 96.8223113 10.6644827ZM101.62473 8.87389032 98.9675158 8.87389032C98.9844138 9.63314912 99.4837505 10.061667 100.223039 10.061667 100.615918 10.061667 100.977536 9.99534872 101.296909 9.87206482L101.434628 10.491035C101.057802 10.6559804 100.614228 10.7384531 100.097994 10.7384531 98.8517643 10.7384531 98.1141654 9.94603516 98.1141654 8.7174473 98.1141654 7.4880092 98.8695072 6.56380505 99.9982954 6.56380505 101.016401 6.56380505 101.655147 7.32306384 101.655147 8.47002926 101.660872 8.60538566 101.650663 8.7409484 101.62473 8.87389032L101.62473 8.87389032ZM100.81278 8.23876566C100.81278 7.61979544 100.502701 7.18277526 99.9366176 7.18277526 99.427987 7.18277526 99.025814 7.62829778 98.9683607 8.23876566L100.81278 8.23876566 100.81278 8.23876566Z"/></g></svg>