<svg xmlns="http://www.w3.org/2000/svg" width="16" height="16" viewBox="0 0 16 16"><path fill="none" stroke="#000" stroke-linecap="round" stroke-linejoin="round" stroke-width="1.556" d="M1,1 L2.55555556,1 L2.86666667,2.55555556 M4.11111111,8.77777778 L11.8888889,8.77777778 L15,2.55555556 L2.86666667,2.55555556 M4.11111111,8.77777778 L2.86666667,2.55555556 M4.11111111,8.77777778 L2.32775222,10.5611444 C1.83777556,11.0511444 2.18479667,11.8888889 2.87771889,11.8888889 L11.8888889,11.8888889 M11.8888889,11.8888889 C11.0297556,11.8888889 10.3333333,12.5853111 10.3333333,13.4444444 C10.3333333,14.3035778 11.0297556,15 11.8888889,15 C12.7480222,15 13.4444444,14.3035778 13.4444444,13.4444444 C13.4444444,12.5853111 12.7480222,11.8888889 11.8888889,11.8888889 Z M5.66666667,13.4444444 C5.66666667,14.3035778 4.97022111,15 4.11111111,15 C3.25200111,15 2.55555556,14.3035778 2.55555556,13.4444444 C2.55555556,12.5853111 3.25200111,11.8888889 4.11111111,11.8888889 C4.97022111,11.8888889 5.66666667,12.5853111 5.66666667,13.4444444 Z"/></svg>