<svg xmlns="http://www.w3.org/2000/svg" width="16" height="13" viewBox="0 0 16 13"><path fill-rule="evenodd" d="M0,1 C0,0.44772 0.4797,0 1.07142857,0 L13.9285714,0 C14.5203214,0 15,0.44772 15,1 C15,1.55228 14.5203214,2 13.9285714,2 L1.07142857,2 C0.4797,2 0,1.55228 0,1 Z M0,6 C0,5.44772 0.38376,5 0.857142857,5 L11.1428571,5 C11.6162571,5 12,5.44772 12,6 C12,6.5523 11.6162571,7 11.1428571,7 L0.857142857,7 C0.38376,7 0,6.5523 0,6 Z M0,11 C0,10.4477 0.44772,10 1,10 L7,10 C7.5523,10 8,10.4477 8,11 C8,11.5523 7.5523,12 7,12 L1,12 C0.44772,12 0,11.5523 0,11 Z" transform="translate(.5 .5)"/></svg>