<svg xmlns="http://www.w3.org/2000/svg" width="64" height="68" viewBox="0 0 64 68"><g fill="none" fill-rule="evenodd" stroke="#000" stroke-linecap="round" stroke-linejoin="round" stroke-width="3.5" transform="translate(2 2)"><path d="M19.7190502,37.5119773 C19.7190502,37.5119773 21.4945204,26.8674708 22.2621779,21.4885608 C23.0298355,16.1096508 29.0615433,16.87599 29.0615433,21.4885608 C29.0615433,24.563608 29.0615433,31.2831399 29.0615433,41.6471566 C28.704372,47.5296077 24.9844206,51.551193 17.9016893,53.7119124 L13.7718522,58.1019781 L16.8416639,61.1692443 L13.7718522,64 L0,50.4708333 L8.87529633,41.6471566 L10.8218425,25.8255987 C16.8295646,13.279803 20.6430098,5.49662544 22.2621779,2.47606619 C24.6909302,-2.05477269 29.4731785,-0.6126052 27.9834169,8.84009076 L26.5945308,17.8964096 M14.5966583,58.840898 L3.23574747,48.0663433 M17.0317847,54.4688793 L7.58837944,44.6938515"/><path d="M50.6575069,37.5119773 C50.6575069,37.5119773 52.4329771,26.8674708 53.2006346,21.4885608 C53.9682922,16.1096508 60,16.87599 60,21.4885608 C60,24.563608 60,31.2831399 60,41.6471566 C59.6428287,47.5296077 55.9228773,51.551193 48.8401459,53.7119124 L44.7103089,58.1019781 L47.7801206,61.1692443 L44.7103089,64 L30.9384567,50.4708333 L39.813753,41.6471566 L41.7602992,25.8255987 C47.7680213,13.279803 51.5814664,5.49662544 53.2006346,2.47606619 C55.6293869,-2.05477269 60.4116351,-0.6126052 58.9218736,8.84009076 L57.5329874,17.8964096 M45.5351149,58.840898 L34.1742041,48.0663433 M47.9702414,54.4688793 L38.5268361,44.6938515" transform="matrix(-1 0 0 1 90.938 0)"/></g></svg>