<svg xmlns="http://www.w3.org/2000/svg" width="76" height="76" viewBox="0 0 76 76"><path d="M38,0 C58.9868205,0 76,17.0131795 76,38 C76,58.9868205 58.9868205,76 38,76 C17.0131795,76 0,58.9868205 0,38 C0,17.0131795 17.0131795,0 38,0 Z M38,3 C18.6700338,3 3,18.6700338 3,38 C3,57.3299662 18.6700338,73 38,73 C57.3299662,73 73,57.3299662 73,38 C73,18.6700338 57.3299662,3 38,3 Z M31.356875,54.89625 C32.4477083,54.89625 33.3620833,55.2692188 34.1,56.0151563 C34.8379167,56.7610938 35.206875,57.6634375 35.206875,58.7221875 C35.206875,59.7809375 34.8379167,60.6832813 34.1,61.4292188 C33.3620833,62.1751563 32.4477083,62.548125 31.356875,62.548125 C30.298125,62.548125 29.3957813,62.1751563 28.6498438,61.4292188 C27.9039063,60.6832813 27.5309375,59.7809375 27.5309375,58.7221875 C27.5309375,57.6634375 27.9039063,56.7610938 28.6498438,56.0151563 C29.3957813,55.2692188 30.298125,54.89625 31.356875,54.89625 Z M52.5559375,54.89625 C53.6146875,54.89625 54.5170313,55.2692188 55.2629688,56.0151563 C56.0089063,56.7610938 56.381875,57.6634375 56.381875,58.7221875 C56.381875,59.7809375 56.0089063,60.6832813 55.2629688,61.4292188 C54.5170313,62.1751563 53.6146875,62.548125 52.5559375,62.548125 C51.4971875,62.548125 50.5868229,62.1751563 49.8248438,61.4292188 C49.0628646,60.6832813 48.681875,59.7809375 48.681875,58.7221875 C48.681875,57.6634375 49.0628646,56.7610938 49.8248438,56.0151563 C50.5868229,55.2692188 51.4971875,54.89625 52.5559375,54.89625 Z M20.7934375,17.4790625 C22.0126042,17.4790625 22.8507813,17.7156771 23.3079688,18.1889063 C23.7651563,18.6621354 24.0659375,19.3639583 24.2103125,20.294375 L24.2103125,20.294375 L24.602,22.989 L61.435,22.989375 C62.0624074,22.989375 62.572572,23.138305 62.9654938,23.4361651 L63.1073438,23.5548438 C63.5164063,23.9318229 63.7209375,24.4170833 63.7209375,25.010625 C63.7209375,25.1229167 63.7089063,25.2672917 63.6848438,25.44375 C63.6607813,25.6202083 63.6407292,25.780625 63.6246875,25.925 L63.6246875,25.925 L61.868125,37.6434375 C61.6114583,39.3278125 61.0299479,40.6552604 60.1235938,41.6257812 C59.2172396,42.5963021 57.9058333,43.0815625 56.189375,43.0815625 L56.189375,43.0815625 L27.521,43.081 L27.8678125,45.46375 C27.9520313,46.0111719 28.1406462,46.4664795 28.4336572,46.8296729 L28.565625,46.9796875 C28.9345833,47.3646875 29.4158333,47.5571875 30.009375,47.5571875 L30.009375,47.5571875 L56.0690625,47.5571875 C56.5663542,47.5571875 56.9994792,47.7336458 57.3684375,48.0865625 C57.7373958,48.4394792 57.921875,48.8886458 57.921875,49.4340625 C57.921875,49.9794792 57.7373958,50.4286458 57.3684375,50.7815625 C56.9994792,51.1344792 56.5663542,51.3109375 56.0690625,51.3109375 L56.0690625,51.3109375 L29.5521875,51.3109375 C27.8517708,51.3109375 26.5483854,50.8296875 25.6420313,49.8671875 C24.7356771,48.9046875 24.1541667,47.5892708 23.8975,45.9209375 L23.8975,45.9209375 L20.33625,21.353125 L12.9009375,21.353125 C12.4036458,21.353125 11.9625,21.1646354 11.5775,20.7876563 C11.1925,20.4106771 11,19.9575 11,19.428125 C11,18.89875 11.1925,18.4415625 11.5775,18.0565625 C11.9625,17.6715625 12.4036458,17.4790625 12.9009375,17.4790625 L12.9009375,17.4790625 Z M59.41375,26.7190625 L25.144,26.719 L27,39.493 L26.9804183,39.351875 L55.804375,39.3278125 C56.4139583,39.3278125 56.8911979,39.1393229 57.2360938,38.7623437 C57.5809896,38.3853646 57.8015625,37.8840625 57.8978125,37.2584375 L57.8978125,37.2584375 L59.41375,26.7190625 Z"/></svg>