<svg xmlns="http://www.w3.org/2000/svg" width="22" height="20" viewBox="0 0 22 20"><path fill="#EA580C" d="M3.64814815,21 L20.3518519,21 C21.1530864,21 21.7947531,20.7482377 22.2768519,20.244713 C22.7589506,19.7411883 23,19.1201746 23,18.3816717 C23,17.93857 22.8777778,17.5156093 22.6333333,17.1127895 L14.2814815,2.34944612 C14.037037,1.90634441 13.707716,1.5706613 13.2935185,1.34239678 C12.879321,1.11413226 12.4549383,1 12.0203704,1 C11.558642,1 11.120679,1.11413226 10.7064815,1.34239678 C10.292284,1.5706613 9.95617284,1.90634441 9.69814815,2.34944612 L1.3462963,17.1127895 C1.1154321,17.5156093 1,17.93857 1,18.3816717 C1,19.1201746 1.24104938,19.7411883 1.72314815,20.244713 C2.20524691,20.7482377 2.84691358,21 3.64814815,21 Z M12,18.0996979 C11.5382716,18.0996979 11.1444444,17.9419268 10.8185185,17.6263847 C10.4925926,17.3108426 10.3296296,16.9180933 10.3296296,16.448137 C10.3296296,16.0050352 10.4925926,15.6189997 10.8185185,15.2900302 C11.1444444,14.9610608 11.5382716,14.796576 12,14.796576 C12.4753086,14.796576 12.879321,14.9610608 13.212037,15.2900302 C13.5447531,15.6189997 13.704321,16.0050352 13.6907407,16.448137 C13.6907407,16.9180933 13.5277778,17.3108426 13.2018519,17.6263847 C12.8759259,17.9419268 12.4753086,18.0996979 12,18.0996979 Z M12.0203704,13.5075529 C11.6537037,13.5075529 11.3549383,13.4001343 11.1240741,13.1852971 C10.8932099,12.9704599 10.7709877,12.6951997 10.7574074,12.3595166 L10.6148148,6.98187311 C10.6012346,6.57905337 10.7234568,6.24672709 10.9814815,5.98489426 C11.2395062,5.72306143 11.5858025,5.59214502 12.0203704,5.59214502 C12.4277778,5.59214502 12.7604938,5.72306143 13.0185185,5.98489426 C13.2765432,6.24672709 13.4055556,6.57905337 13.4055556,6.98187311 L13.2425926,12.3595166 C13.2290123,12.6951997 13.1067901,12.9704599 12.8759259,13.1852971 C12.6450617,13.4001343 12.3598765,13.5075529 12.0203704,13.5075529 Z" transform="translate(-1 -1)"/></svg>