<svg xmlns="http://www.w3.org/2000/svg" width="116" height="34" viewBox="0 0 116 34"><defs><linearGradient id="a" x1="60.88%" x2="26.427%" y1="4.84%" y2="71.968%"><stop offset="0%" stop-color="#00A0FF"/><stop offset=".7%" stop-color="#00A1FF"/><stop offset="26%" stop-color="#00BEFF"/><stop offset="51.2%" stop-color="#00D2FF"/><stop offset="76%" stop-color="#00DFFF"/><stop offset="100%" stop-color="#00E3FF"/></linearGradient><linearGradient id="b" x1="107.724%" x2="-130.67%" y1="49.424%" y2="49.424%"><stop offset="0%" stop-color="#FFE000"/><stop offset="40.9%" stop-color="#FFBD00"/><stop offset="77.5%" stop-color="orange"/><stop offset="100%" stop-color="#FF9C00"/></linearGradient><linearGradient id="c" x1="86.389%" x2="-49.886%" y1="30.576%" y2="137.138%"><stop offset="0%" stop-color="#FF3A44"/><stop offset="100%" stop-color="#C31162"/></linearGradient><linearGradient id="d" x1="-18.581%" x2="42.275%" y1="-12.498%" y2="34.869%"><stop offset="0%" stop-color="#32A071"/><stop offset="6.9%" stop-color="#2DA771"/><stop offset="47.6%" stop-color="#15CF74"/><stop offset="80.1%" stop-color="#06E775"/><stop offset="100%" stop-color="#00F076"/></linearGradient></defs><g fill="none" transform="translate(1 1)"><path fill="#000" stroke="#A0AEC0" stroke-width="1.4" d="M109.777778,32 L4.22222222,32 C1.85777778,32 0,30.24 0,28 L0,4 C0,1.76 1.85777778,0 4.22222222,0 L109.777778,0 C112.142222,0 114,1.76 114,4 L114,28 C114,30.24 112.142222,32 109.777778,32 Z"/><path fill="#FFF" stroke="#FFF" stroke-width=".2" d="M40.0266667,8.67 C40.0266667,9.35 39.8577778,9.945 39.4355556,10.37 C38.9288889,10.88 38.3377778,11.135 37.5777778,11.135 C36.8177778,11.135 36.2266667,10.88 35.72,10.37 C35.2133333,9.86 34.96,9.265 34.96,8.5 C34.96,7.735 35.2133333,7.14 35.72,6.63 C36.2266667,6.12 36.8177778,5.865 37.5777778,5.865 C37.9155556,5.865 38.2533333,5.95 38.5911111,6.12 C38.9288889,6.29 39.1822222,6.46 39.3511111,6.715 L38.9288889,7.14 C38.5911111,6.715 38.1688889,6.545 37.5777778,6.545 C37.0711111,6.545 36.5644444,6.715 36.2266667,7.14 C35.8044444,7.48 35.6355556,7.99 35.6355556,8.585 C35.6355556,9.18 35.8044444,9.69 36.2266667,10.03 C36.6488889,10.37 37.0711111,10.625 37.5777778,10.625 C38.1688889,10.625 38.5911111,10.455 39.0133333,10.03 C39.2666667,9.775 39.4355556,9.435 39.4355556,9.01 L37.5777778,9.01 L37.5777778,8.33 L40.0266667,8.33 L40.0266667,8.67 L40.0266667,8.67 Z M43.9111111,6.545 L41.6311111,6.545 L41.6311111,8.16 L43.7422222,8.16 L43.7422222,8.755 L41.6311111,8.755 L41.6311111,10.37 L43.9111111,10.37 L43.9111111,11.05 L40.9555556,11.05 L40.9555556,5.95 L43.9111111,5.95 L43.9111111,6.545 Z M46.6977778,11.05 L46.0222222,11.05 L46.0222222,6.545 L44.5866667,6.545 L44.5866667,5.95 L48.1333333,5.95 L48.1333333,6.545 L46.6977778,6.545 L46.6977778,11.05 Z M50.5822222,11.05 L50.5822222,5.95 L51.2577778,5.95 L51.2577778,11.05 L50.5822222,11.05 Z M54.1288889,11.05 L53.4533333,11.05 L53.4533333,6.545 L52.0177778,6.545 L52.0177778,5.95 L55.48,5.95 L55.48,6.545 L54.0444444,6.545 L54.0444444,11.05 L54.1288889,11.05 Z M62.1511111,10.37 C61.6444444,10.88 61.0533333,11.135 60.2933333,11.135 C59.5333333,11.135 58.9422222,10.88 58.4355556,10.37 C57.9288889,9.86 57.6755556,9.265 57.6755556,8.5 C57.6755556,7.735 57.9288889,7.14 58.4355556,6.63 C58.9422222,6.12 59.5333333,5.865 60.2933333,5.865 C61.0533333,5.865 61.6444444,6.12 62.1511111,6.63 C62.6577778,7.14 62.9111111,7.735 62.9111111,8.5 C62.9111111,9.265 62.6577778,9.86 62.1511111,10.37 Z M58.9422222,9.945 C59.28,10.285 59.7866667,10.54 60.2933333,10.54 C60.8,10.54 61.3066667,10.37 61.6444444,9.945 C61.9822222,9.605 62.2355556,9.095 62.2355556,8.5 C62.2355556,7.905 62.0666667,7.395 61.6444444,7.055 C61.3066667,6.715 60.8,6.46 60.2933333,6.46 C59.7866667,6.46 59.28,6.63 58.9422222,7.055 C58.6044444,7.395 58.3511111,7.905 58.3511111,8.5 C58.3511111,9.095 58.52,9.605 58.9422222,9.945 Z M63.84,11.05 L63.84,5.95 L64.6,5.95 L67.0488889,9.945 L67.0488889,5.95 L67.7244444,5.95 L67.7244444,11.05 L67.0488889,11.05 L64.4311111,6.885 L64.4311111,11.05 L63.84,11.05 L63.84,11.05 Z"/><path fill="#FFF" d="M57.5066667,18.53 C55.48,18.53 53.8755556,20.06 53.8755556,22.185 C53.8755556,24.225 55.48,25.84 57.5066667,25.84 C59.5333333,25.84 61.1377778,24.31 61.1377778,22.185 C61.1377778,19.975 59.5333333,18.53 57.5066667,18.53 Z M57.5066667,24.31 C56.4088889,24.31 55.48,23.375 55.48,22.1 C55.48,20.825 56.4088889,19.89 57.5066667,19.89 C58.6044444,19.89 59.5333333,20.74 59.5333333,22.1 C59.5333333,23.375 58.6044444,24.31 57.5066667,24.31 Z M49.6533333,18.53 C47.6266667,18.53 46.0222222,20.06 46.0222222,22.185 C46.0222222,24.225 47.6266667,25.84 49.6533333,25.84 C51.68,25.84 53.2844444,24.31 53.2844444,22.185 C53.2844444,19.975 51.68,18.53 49.6533333,18.53 Z M49.6533333,24.31 C48.5555556,24.31 47.6266667,23.375 47.6266667,22.1 C47.6266667,20.825 48.5555556,19.89 49.6533333,19.89 C50.7511111,19.89 51.68,20.74 51.68,22.1 C51.68,23.375 50.7511111,24.31 49.6533333,24.31 Z M40.28,19.635 L40.28,21.165 L43.9111111,21.165 C43.8266667,22.015 43.4888889,22.695 43.0666667,23.12 C42.56,23.63 41.7155556,24.225 40.28,24.225 C38,24.225 36.3111111,22.44 36.3111111,20.145 C36.3111111,17.85 38.0844444,16.065 40.28,16.065 C41.4622222,16.065 42.3911111,16.575 43.0666667,17.17 L44.1644444,16.065 C43.2355556,15.215 42.0533333,14.535 40.3644444,14.535 C37.3244444,14.535 34.7066667,17.085 34.7066667,20.145 C34.7066667,23.205 37.3244444,25.755 40.3644444,25.755 C42.0533333,25.755 43.2355556,25.245 44.2488889,24.14 C45.2622222,23.12 45.6,21.675 45.6,20.57 C45.6,20.23 45.6,19.89 45.5155556,19.635 L40.28,19.635 L40.28,19.635 Z M78.6177778,20.825 C78.28,19.975 77.4355556,18.53 75.5777778,18.53 C73.72,18.53 72.2,19.975 72.2,22.185 C72.2,24.225 73.72,25.84 75.7466667,25.84 C77.3511111,25.84 78.3644444,24.82 78.7022222,24.225 L77.52,23.375 C77.0977778,23.97 76.5911111,24.395 75.7466667,24.395 C74.9022222,24.395 74.3955556,24.055 73.9733333,23.29 L78.7866667,21.25 L78.6177778,20.825 L78.6177778,20.825 Z M73.72,22.015 C73.72,20.655 74.8177778,19.89 75.5777778,19.89 C76.1688889,19.89 76.76,20.23 76.9288889,20.655 L73.72,22.015 Z M69.7511111,25.5 L71.3555556,25.5 L71.3555556,14.875 L69.7511111,14.875 L69.7511111,25.5 Z M67.2177778,19.295 C66.7955556,18.87 66.12,18.445 65.2755556,18.445 C63.5022222,18.445 61.8133333,20.06 61.8133333,22.1 C61.8133333,24.14 63.4177778,25.67 65.2755556,25.67 C66.12,25.67 66.7955556,25.245 67.1333333,24.82 L67.2177778,24.82 L67.2177778,25.33 C67.2177778,26.69 66.4577778,27.455 65.2755556,27.455 C64.3466667,27.455 63.6711111,26.775 63.5022222,26.18 L62.1511111,26.775 C62.5733333,27.71 63.5866667,28.9 65.36,28.9 C67.2177778,28.9 68.7377778,27.795 68.7377778,25.16 L68.7377778,18.7 L67.2177778,18.7 L67.2177778,19.295 L67.2177778,19.295 Z M65.36,24.31 C64.2622222,24.31 63.3333333,23.375 63.3333333,22.1 C63.3333333,20.825 64.2622222,19.89 65.36,19.89 C66.4577778,19.89 67.3022222,20.825 67.3022222,22.1 C67.3022222,23.375 66.4577778,24.31 65.36,24.31 Z M85.9644444,14.875 L82.1644444,14.875 L82.1644444,25.5 L83.7688889,25.5 L83.7688889,21.505 L85.9644444,21.505 C87.7377778,21.505 89.4266667,20.23 89.4266667,18.19 C89.4266667,16.15 87.7377778,14.875 85.9644444,14.875 L85.9644444,14.875 Z M86.0488889,19.975 L83.7688889,19.975 L83.7688889,16.32 L86.0488889,16.32 C87.2311111,16.32 87.9066667,17.34 87.9066667,18.105 C87.8222222,19.04 87.1466667,19.975 86.0488889,19.975 Z M95.76,18.445 C94.5777778,18.445 93.3955556,18.955 92.9733333,20.06 L94.4088889,20.655 C94.7466667,20.06 95.2533333,19.89 95.8444444,19.89 C96.6888889,19.89 97.4488889,20.4 97.5333333,21.25 L97.5333333,21.335 C97.28,21.165 96.6044444,20.91 95.9288889,20.91 C94.4088889,20.91 92.8888889,21.76 92.8888889,23.29 C92.8888889,24.735 94.1555556,25.67 95.5066667,25.67 C96.6044444,25.67 97.1111111,25.16 97.5333333,24.65 L97.6177778,24.65 L97.6177778,25.5 L99.1377778,25.5 L99.1377778,21.42 C98.9688889,19.55 97.5333333,18.445 95.76,18.445 L95.76,18.445 Z M95.5911111,24.31 C95.0844444,24.31 94.3244444,24.055 94.3244444,23.375 C94.3244444,22.525 95.2533333,22.27 96.0133333,22.27 C96.6888889,22.27 97.0266667,22.44 97.4488889,22.61 C97.28,23.63 96.4355556,24.31 95.5911111,24.31 L95.5911111,24.31 Z M104.457778,18.7 L102.684444,23.29 L102.6,23.29 L100.742222,18.7 L99.0533333,18.7 L101.84,25.16 L100.235556,28.73 L101.84,28.73 L106.146667,18.7 L104.457778,18.7 L104.457778,18.7 Z M90.2711111,25.5 L91.8755556,25.5 L91.8755556,14.875 L90.2711111,14.875 L90.2711111,25.5 Z"/><g transform="translate(8.444 5.075)"><path fill="url(#a)" d="M0.337777778,0.299887967 C0.0844444444,0.554887967 4.54747351e-13,0.979887967 4.54747351e-13,1.48988797 L4.54747351e-13,20.274888 C4.54747351e-13,20.784888 0.168888889,21.209888 0.422222222,21.464888 L0.506666667,21.549888 L10.9777778,11.009888 L10.9777778,10.839888 L0.337777778,0.299887967 Z"/><path fill="url(#b)" d="M14.3555556,14.579888 L10.8933333,11.094888 L10.8933333,10.839888 L14.3555556,7.35488797 L14.44,7.43988797 L18.5777778,9.81988797 C19.76,10.499888 19.76,11.604888 18.5777778,12.284888 L14.3555556,14.579888 L14.3555556,14.579888 Z"/><path fill="url(#c)" d="M14.44,14.494888 L10.8933333,10.924888 L0.337777778,21.549888 C0.76,21.974888 1.35111111,21.974888 2.11111111,21.634888 L14.44,14.494888"/><path fill="url(#d)" d="M14.44,7.35488797 L2.11111111,0.299887967 C1.35111111,-0.125112033 0.76,-0.0401120325 0.337777778,0.384887967 L10.8933333,10.924888 L14.44,7.35488797 L14.44,7.35488797 Z"/><path fill="#000" d="M14.3555556,14.409888 L2.11111111,21.379888 C1.43555556,21.804888 0.844444444,21.719888 0.422222222,21.379888 L0.337777778,21.464888 L0.422222222,21.549888 C0.844444444,21.889888 1.43555556,21.974888 2.11111111,21.549888 L14.3555556,14.409888 Z" opacity=".2"/><path fill="#000" d="M0.337777778,21.379888 C0.0844444444,21.124888 2.58126853e-15,20.699888 2.58126853e-15,20.189888 L2.58126853e-15,20.274888 C2.58126853e-15,20.784888 0.168888889,21.209888 0.422222222,21.464888 L0.422222222,21.379888 L0.337777778,21.379888 Z M18.5777778,12.029888 L14.3555556,14.409888 L14.44,14.494888 L18.5777778,12.114888 C19.1688889,11.774888 19.4222222,11.349888 19.4222222,10.924888 C19.4222222,11.349888 19.0844444,11.689888 18.5777778,12.029888 L18.5777778,12.029888 Z" opacity=".12"/><path fill="#FFF" d="M2.11111111,0.384887967 L18.5777778,9.81988797 C19.0844444,10.159888 19.4222222,10.499888 19.4222222,10.924888 C19.4222222,10.499888 19.1688889,10.074888 18.5777778,9.73488797 L2.11111111,0.299887967 C0.928888889,-0.380112033 0,0.129887967 0,1.48988797 L0,1.57488797 C0,0.299887967 0.928888889,-0.295112033 2.11111111,0.384887967 Z" opacity=".25"/></g></g></svg>