<svg xmlns="http://www.w3.org/2000/svg" width="14" height="16" viewBox="0 0 14 16"><path fill="none" stroke="#000" stroke-linecap="round" stroke-linejoin="round" stroke-width="1.556" d="M6,9.33333333 L6,10.8888889 M1.5,14 L10.5,14 C11.32845,14 12,13.3035778 12,12.4444444 L12,7.77777778 C12,6.91864444 11.32845,6.22222222 10.5,6.22222222 L1.5,6.22222222 C0.6715725,6.22222222 0,6.91864444 0,7.77777778 L0,12.4444444 C0,13.3035778 0.6715725,14 1.5,14 Z M9,6.22222222 L9,3.11111111 C9,1.39289111 7.656825,0 6,0 C4.343145,0 3,1.39289111 3,3.11111111 L3,6.22222222 L9,6.22222222 Z" transform="translate(1 1)"/></svg>