<svg xmlns="http://www.w3.org/2000/svg" width="14" height="12" viewBox="0 0 14 12"><path fill-rule="evenodd" d="M14,11 C14.5523,11 15,11.4477 15,12 C15,12.5523 14.5523,13 14,13 L2,13 C1.44772,13 1,12.5523 1,12 C1,11.4477 1.44772,11 2,11 L14,11 Z M14,6 C14.5523,6 15,6.44772 15,7 C15,7.5523 14.5523,8 14,8 L2,8 C1.44772,8 1,7.5523 1,7 C1,6.44772 1.44772,6 2,6 L14,6 Z M14,1 C14.5523,1 15,1.44772 15,2 C15,2.55228 14.5523,3 14,3 L2,3 C1.44772,3 1,2.55228 1,2 C1,1.44772 1.44772,1 2,1 L14,1 Z" transform="translate(-1 -1)"/></svg>