<svg xmlns="http://www.w3.org/2000/svg" width="58" height="49" viewBox="0 0 58 49"><path fill="none" stroke="#000" stroke-width="2.5" d="M49.7471264,2 C53.2004931,2 56,4.79950685 56,8.25287356 L56,40.7471264 C56,44.2004931 53.2004931,47 49.7471264,47 L8.25287356,47 C4.79950685,47 2,44.2004931 2,40.7471264 L2,8.25287356 C2,4.79950685 4.79950685,2 8.25287356,2 L49.7471264,2 Z M23.9941456,10.7221508 C23.4185845,10.7221508 22.952,11.1887353 22.952,11.7642964 L22.952,11.7642964 L22.952,27.6800259 C22.952,27.8918388 23.0165422,28.0986233 23.1370279,28.2728299 C23.4644245,28.746203 24.1135766,28.8645402 24.5869497,28.5371436 L24.5869497,28.5371436 L35.9605619,20.6708684 C36.0607625,20.6015671 36.1480353,20.5152329 36.2184159,20.4157875 C36.5509116,19.945982 36.4396001,19.2955883 35.9697946,18.9630926 L35.9697946,18.9630926 L24.5961824,10.9136383 C24.4201502,10.789055 24.2098035,10.7221508 23.9941456,10.7221508 Z M2.2195122,37.8755388 L55.7804878,37.8755388"/></svg>