<svg xmlns="http://www.w3.org/2000/svg" width="49" height="31" viewBox="0 0 49 31"><path d="M22.320246,20.0622642 C22.320246,18.1301887 21.8926206,16.3867925 21.0373699,14.8320755 C20.1821192,13.2773585 19.0203406,12.0358491 17.5520341,11.1075472 C16.0837275,10.1792453 14.4337748,9.71509434 12.602176,9.71509434 C11.3003784,9.71509434 10.0666982,9.96415094 8.90113529,10.4622642 C7.73557237,10.9603774 6.70624409,11.7075472 5.81315043,12.7037736 L5.15468307,12.7037736 C5.56338694,11.3754717 6.23320719,10.1301887 7.1641438,8.96792453 C8.09508042,7.80566038 9.22280038,6.79056604 10.5473037,5.92264151 C11.871807,5.05471698 13.3363292,4.39433962 14.9408704,3.94150943 C15.2890255,3.83584906 15.5879849,3.73018868 15.8377483,3.6245283 C16.0875118,3.51886792 16.2805109,3.39811321 16.4167455,3.26226415 C16.5983917,3.11132075 16.7384106,2.94150943 16.8368023,2.75283019 C16.9351939,2.56415094 16.9843898,2.34150943 16.9843898,2.08490566 C16.9843898,1.61698113 16.8178808,1.23584906 16.4848628,0.941509434 C16.1518448,0.647169811 15.7204352,0.5 15.1906339,0.5 C14.8122044,0.5 14.4564806,0.537735849 14.1234626,0.613207547 C13.7904447,0.688679245 13.3741722,0.801886792 12.8746452,0.952830189 C11.4063387,1.4509434 10.0212867,2.10754717 8.71948912,2.92264151 C7.41769158,3.73773585 6.25212867,4.68867925 5.22280038,5.7754717 C3.73935667,7.28490566 2.58136235,9.04339623 1.74881741,11.0509434 C0.916272469,13.0584906 0.5,15.254717 0.5,17.6396226 C0.5,20.3566038 1.01844844,22.6735849 2.05534532,24.590566 C3.09224219,26.5075472 4.46594134,27.9716981 6.17644276,28.9830189 C7.88694418,29.9943396 9.76395459,30.5 11.807474,30.5 C13.8055818,30.5 15.5955535,30.0433962 17.1773888,29.1301887 C18.7592242,28.2169811 20.0118259,26.9716981 20.9351939,25.3943396 C21.858562,23.8169811 22.320246,22.0396226 22.320246,20.0622642 Z M48.5,20.0622642 C48.5,18.1301887 48.0723746,16.3867925 47.2171239,14.8320755 C46.3618732,13.2773585 45.2000946,12.0358491 43.7317881,11.1075472 C42.2634816,10.1792453 40.6210974,9.71509434 38.8046358,9.71509434 C37.487701,9.71509434 36.2464522,9.96415094 35.0808893,10.4622642 C33.9153264,10.9603774 32.8935667,11.7075472 32.0156102,12.7037736 L31.3571429,12.7037736 C31.7507096,11.3754717 32.4129612,10.1301887 33.3438978,8.96792453 C34.2748344,7.80566038 35.4025544,6.79056604 36.7270577,5.92264151 C38.051561,5.05471698 39.5160833,4.39433962 41.1206244,3.94150943 C41.4687796,3.83584906 41.7677389,3.73018868 42.0175024,3.6245283 C42.2672658,3.51886792 42.4678335,3.39811321 42.6192053,3.26226415 C42.8008515,3.11132075 42.9370861,2.94150943 43.0279092,2.75283019 C43.1187323,2.56415094 43.1641438,2.34150943 43.1641438,2.08490566 C43.1641438,1.61698113 42.9976348,1.23584906 42.6646168,0.941509434 C42.3315989,0.647169811 41.9077578,0.5 41.3930937,0.5 C40.999527,0.5 40.6400189,0.537735849 40.3145695,0.613207547 C39.9891202,0.688679245 39.5690634,0.801886792 39.0543992,0.952830189 C37.6012299,1.4509434 36.2199622,2.10754717 34.910596,2.92264151 C33.6012299,3.73773585 32.4243141,4.68867925 31.3798486,5.7754717 C29.9266793,7.28490566 28.7876064,9.04339623 27.9626301,11.0509434 C27.1376537,13.0584906 26.7251656,15.254717 26.7251656,17.6396226 C26.7251656,20.3566038 27.2360454,22.6735849 28.2578051,24.590566 C29.2795648,26.5075472 30.6456954,27.9716981 32.3561968,28.9830189 C34.0666982,29.9943396 35.9512772,30.5 38.0099338,30.5 C40.0080416,30.5 41.7980132,30.0433962 43.3798486,29.1301887 C44.961684,28.2169811 46.2105014,26.9716981 47.1263009,25.3943396 C48.0421003,23.8169811 48.5,22.0396226 48.5,20.0622642 Z"/></svg>