<svg xmlns="http://www.w3.org/2000/svg" width="111" height="31" viewBox="0 0 111 31"><path fill="#EA580C" d="M17.7641316,0.7056 C18.8905316,0.7056 19.9289316,0.864 20.8793316,1.1808 C21.8297316,1.4976 22.6510649,1.92 23.3433316,2.448 C24.0355982,2.976 24.5753316,3.58026667 24.9625316,4.2608 C25.3497316,4.94133333 25.5433316,5.65706667 25.5433316,6.408 C25.5433316,7.06506667 25.4259982,7.64 25.1913316,8.1328 L25.0857316,8.2736 C24.7337316,8.67253333 24.2878649,8.98933333 23.7481316,9.224 C23.2083982,9.45866667 22.6979982,9.59946667 22.2169316,9.6464 C21.7358649,9.69333333 21.3427982,9.6464 21.0377316,9.5056 C20.7326649,9.3648 20.6505316,9.1184 20.7913316,8.7664 C20.9086649,8.46133333 21.0083982,8.1504 21.0905316,7.8336 C21.1726649,7.5168 21.2137316,7.19413333 21.2137316,6.8656 C21.2137316,6.4432 21.1374649,6.02666667 20.9849316,5.616 C20.8323982,5.20533333 20.5977316,4.8416 20.2809316,4.5248 C19.9641316,4.208 19.5593316,3.94986667 19.0665316,3.7504 C18.5737316,3.55093333 17.9753316,3.4512 17.2713316,3.4512 C16.1683982,3.4512 15.1593316,3.59786667 14.2441316,3.8912 C13.3289316,4.18453333 12.5369316,4.57173333 11.8681316,5.0528 C11.1993316,5.53386667 10.6478649,6.08533333 10.2137316,6.7072 C9.77959824,7.32906667 9.49213157,7.98026667 9.35133157,8.6608 C9.2574649,9.27093333 9.33373157,9.81066667 9.58013157,10.28 C9.82653157,10.7493333 10.1785316,11.1776 10.6361316,11.5648 C11.0937316,11.952 11.6334649,12.3098667 12.2553316,12.6384 C12.8771982,12.9669333 13.5166649,13.2837333 14.1737316,13.5888 L16.1801316,14.5392 C17.8931982,15.4074667 19.2894649,16.3578667 20.3689316,17.3904 C21.4483982,18.4229333 21.9881316,19.6432 21.9881316,21.0512 C21.9881316,21.2389333 21.9763982,21.4325333 21.9529316,21.632 C21.9294649,21.8314667 21.8825316,22.0485333 21.8121316,22.2832 L21.8473316,22.248 C21.6595982,23.1397333 21.1843982,24.0549333 20.4217316,24.9936 C19.6590649,25.9322667 18.7027982,26.7888 17.5529316,27.5632 C16.4030649,28.3376 15.0947982,28.9712 13.6281316,29.464 C12.1614649,29.9568 10.6419982,30.2032 9.06973157,30.2032 C7.80253157,30.2032 6.65853157,30.0272 5.63773157,29.6752 C4.61693157,29.3232 3.74279824,28.8362667 3.01533157,28.2144 C2.2878649,27.5925333 1.71293157,26.8650667 1.29053157,26.032 C0.868131569,25.1989333 0.609998236,24.3013333 0.516131569,23.3392 C1.0558649,22.2597333 1.63079824,21.6026667 2.24093157,21.368 C2.8510649,21.1333333 3.39079824,21.2272 3.86013157,21.6496 C4.23559824,22.0016 4.6110649,22.4709333 4.98653157,23.0576 C5.36199824,23.6442667 5.79613157,24.2309333 6.28893157,24.8176 C6.78173157,25.4042667 7.36253157,25.9088 8.03133157,26.3312 C8.70013157,26.7536 9.5038649,26.9648 10.4425316,26.9648 C11.1230649,26.9648 11.8505316,26.8709333 12.6249316,26.6832 C13.3993316,26.4954667 14.1267982,26.2314667 14.8073316,25.8912 C15.4878649,25.5509333 16.0745316,25.1402667 16.5673316,24.6592 C17.0601316,24.1781333 17.3769316,23.6442667 17.5177316,23.0576 C17.5881316,22.7056 17.6233316,22.3888 17.6233316,22.1072 C17.6233316,21.0981333 17.2595982,20.2357333 16.5321316,19.52 C15.8046649,18.8042667 14.7955982,18.1296 13.5049316,17.496 L12.0265316,16.7568 C11.2286649,16.3578667 10.4366649,15.9472 9.65053157,15.5248 C8.86439824,15.1024 8.16039824,14.6389333 7.53853157,14.1344 C6.9166649,13.6298667 6.41213157,13.0666667 6.02493157,12.4448 C5.63773157,11.8229333 5.44413157,11.1013333 5.44413157,10.28 C5.44413157,10.0922667 5.4558649,9.8928 5.47933157,9.6816 C5.50279824,9.4704 5.54973157,9.24746667 5.62013157,9.0128 L5.58493157,9.048 C5.74919824,8.1328 6.1950649,7.1824 6.92253157,6.1968 C7.64999824,5.2112 8.5710649,4.3136 9.68573157,3.504 C10.8003982,2.6944 12.0558649,2.0256 13.4521316,1.4976 C14.8483982,0.9696 16.2857316,0.7056 17.7641316,0.7056 Z M46.0297316,1.5856 C46.7571982,1.63253333 47.2910649,1.87893333 47.6313316,2.3248 C47.9715982,2.77066667 48.1417316,3.33386667 48.1417316,4.0144 C48.1417316,4.4368 48.0889316,4.8944 47.9833316,5.3872 C47.8777316,5.88 47.7545316,6.36693333 47.6137316,6.848 C47.4729316,7.32906667 47.3203982,7.79253333 47.1561316,8.2384 C46.9918649,8.68426667 46.8510649,9.05973333 46.7337316,9.3648 C46.0531982,10.984 45.3198649,12.4682667 44.5337316,13.8176 C43.7475982,15.1669333 42.9555982,16.3813333 42.1577316,17.4608 C41.3598649,18.5402667 40.5971982,19.4906667 39.8697316,20.312 C39.1422649,21.1333333 38.5086649,21.8373333 37.9689316,22.424 L37.7577316,22.6704 C37.6873316,23.4213333 37.7107982,24.008 37.8281316,24.4304 C37.9454649,24.8528 38.1801316,25.0288 38.5321316,24.9584 L38.6377316,24.9584 C38.9662649,24.9584 39.3241316,24.8469333 39.7113316,24.624 C40.0985316,24.4010667 40.4915982,24.1018667 40.8905316,23.7264 C41.2894649,23.3509333 41.6942649,22.9226667 42.1049316,22.4416 C42.5056671,21.972167 42.9008162,21.4859749 43.2903791,20.9830238 C43.3692784,20.7085414 43.4673951,20.4198349 43.5833316,20.1184 C43.7593316,19.6608 43.9353316,19.2208 44.1113316,18.7984 C44.2873316,18.376 44.4633316,17.9829333 44.6393316,17.6192 C44.8153316,17.2554667 44.9619982,16.9562667 45.0793316,16.7216 C45.2201316,16.4869333 45.5075982,16.3226667 45.9417316,16.2288 C46.3758649,16.1349333 46.8217316,16.1056 47.2793316,16.1408 C47.7369316,16.176 48.1299982,16.264 48.4585316,16.4048 C48.7870649,16.5456 48.9161316,16.7333333 48.8457316,16.968 L48.4585316,17.848 C48.2473316,18.3408 47.9950649,18.9333333 47.7017316,19.6256 C47.4083982,20.3178667 47.1326649,21.0746667 46.8745316,21.896 C46.7337316,22.3418667 46.6163982,22.7584 46.5225316,23.1456 C46.4286649,23.5328 46.3817316,23.8906667 46.3817316,24.2192 C46.3817316,24.6416 46.5342649,24.8528 46.8393316,24.8528 C47.1443982,24.8528 47.4611982,24.7296 47.7897316,24.4832 C48.1182649,24.2368 48.5171982,23.832 48.9865316,23.2688 C49.2446649,23.0106667 49.4851982,22.6997333 49.7081316,22.336 C49.9310649,21.9722667 50.1363982,21.5909333 50.3241316,21.192 L50.3593316,21.0864 L50.4297316,20.9104 L50.5001316,20.8048 C50.4766649,20.7578667 50.4707982,20.7226667 50.4825316,20.6992 C50.4942649,20.6757333 50.5001316,20.6405333 50.5001316,20.5936 L50.5001316,20.5232 L50.5045316,20.5188 L50.5705316,20.4528 C50.7817316,19.9130667 51.0105316,19.3205333 51.2569316,18.6752 C51.5033316,18.0298667 51.7555982,17.4373333 52.0137316,16.8976 L52.7529316,15.1728 L52.8233316,15.0672 C52.9641316,14.856 53.2574649,14.7093333 53.7033316,14.6272 C54.1491982,14.5450667 54.6009316,14.5216 55.0585316,14.5568 C55.5161316,14.592 55.9033316,14.6741333 56.2201316,14.8032 C56.5369316,14.9322667 56.6601316,15.1141333 56.5897316,15.3488 C56.4723982,15.7008 56.3139982,16.1114667 56.1145316,16.5808 C55.9150649,17.0501333 55.7097316,17.5312 55.4985316,18.024 C55.1699982,18.7749333 54.8590649,19.5024 54.5657316,20.2064 C54.2723982,20.9104 54.0670649,21.4853333 53.9497316,21.9312 C53.7150649,22.6352 53.5273316,23.2688 53.3865316,23.832 C53.2457316,24.3952 53.2105316,24.7354667 53.2809316,24.8528 C53.4217316,24.8293333 53.6681316,24.6768 54.0201316,24.3952 C54.3721316,24.1136 54.7827982,23.7264 55.2521316,23.2336 C55.6041316,22.9285333 55.9267982,22.5530667 56.2201316,22.1072 C56.4229734,21.7988803 56.6117887,21.501782 56.7865773,21.215905 L56.7305316,21.4032 C57.3171982,19.3850667 57.9155982,17.6016 58.5257316,16.0528 C59.1358649,14.504 59.7577316,12.9669333 60.3913316,11.4416 L60.6729316,10.808 L60.5321316,10.808 C60.0393316,10.8784 59.6755982,10.8314667 59.4409316,10.6672 C59.2062649,10.5029333 59.0889316,10.2976 59.0889316,10.0512 C59.0889316,9.8048 59.1945316,9.5584 59.4057316,9.312 C59.6169316,9.0656 59.9219982,8.88373333 60.3209316,8.7664 L61.6233316,8.4848 L63.4185316,4.0496 C63.6062649,3.79146667 63.9289316,3.59786667 64.3865316,3.4688 C64.8441316,3.33973333 65.2841316,3.2752 65.7065316,3.2752 C66.2227982,3.2752 66.6334649,3.37493333 66.9385316,3.5744 C67.2435982,3.77386667 67.3022649,4.07306667 67.1145316,4.472 L67.1497316,4.4368 C66.9854649,4.81226667 66.8387982,5.1408 66.7097316,5.4224 C66.5806649,5.704 66.4633316,5.968 66.3577316,6.2144 C66.2521316,6.4608 66.1465316,6.71306667 66.0409316,6.9712 C65.9353316,7.22933333 65.8121316,7.5344 65.6713316,7.8864 C66.4926649,7.79253333 67.2963982,7.71626667 68.0825316,7.6576 C68.8686649,7.59893333 69.6137316,7.5696 70.3177316,7.5696 C71.0451982,7.5696 71.6787982,7.6048 72.2185316,7.6752 C72.5705316,7.69866667 72.8110649,7.80426667 72.9401316,7.992 C73.0691982,8.17973333 73.0985316,8.38506667 73.0281316,8.608 C72.9577316,8.83093333 72.8110649,9.05973333 72.5881316,9.2944 C72.3651982,9.52906667 72.0777316,9.69333333 71.7257316,9.7872 C71.5614649,9.76373333 71.3913316,9.752 71.2153316,9.752 L70.6697316,9.752 C70.4973621,9.752 70.3210848,9.75370963 70.1408999,9.75712889 C70.2042119,9.82991334 70.2633916,9.91062 70.3177316,9.9984 C70.6227982,10.4912 70.6345316,11.0426667 70.3529316,11.6528 L70.3529316,11.6176 C70.1417316,12.1808 69.7721316,12.6501333 69.2441316,13.0256 C68.7161316,13.4010667 68.1705316,13.5653333 67.6073316,13.5184 C66.9267982,13.4714667 66.4574649,13.2074667 66.1993316,12.7264 C65.9411982,12.2453333 65.9529316,11.688 66.2345316,11.0544 L66.2345316,11.0896 C66.3942816,10.64585 66.6446568,10.2658733 66.9856572,9.94966991 C66.2261263,10.0214306 65.447519,10.1078569 64.6505316,10.2096 C63.8291982,12.2042667 63.0665316,14.1344 62.3625316,16 C61.6585316,17.8656 60.9897316,19.8426667 60.3561316,21.9312 C60.1214649,22.6352 59.9337316,23.2746667 59.7929316,23.8496 C59.6521316,24.4245333 59.6286649,24.7589333 59.7225316,24.8528 C59.8633316,24.8293333 60.1097316,24.6768 60.4617316,24.3952 C60.8137316,24.1136 61.2478649,23.7264 61.7641316,23.2336 L61.7289316,23.2336 C62.0574649,22.9050667 62.3507982,22.5413333 62.6089316,22.1424 C62.7232128,21.9657835 62.8351943,21.7914668 62.944876,21.6194499 C62.960816,21.5460811 62.9783389,21.4743707 62.9961316,21.4032 C63.0899982,21.0512 63.2190649,20.664 63.3833316,20.2416 C63.5475982,19.8192 63.7177316,19.4026667 63.8937316,18.992 C64.0697316,18.5813333 64.2457316,18.1824 64.4217316,17.7952 C64.5977316,17.408 64.7443982,17.0736 64.8617316,16.792 L64.8617316,16.8272 L65.0377316,16.44 L65.0729316,16.3344 C65.1667982,16.1936 65.4190649,16.0997333 65.8297316,16.0528 C66.2403982,16.0058667 66.6686649,16.0058667 67.1145316,16.0528 C67.5603982,16.0997333 67.9534649,16.1818667 68.2937316,16.2992 C68.6339982,16.4165333 68.7689316,16.5456 68.6985316,16.6864 C68.5577316,17.0853333 68.4110649,17.4784 68.2585316,17.8656 C68.1059982,18.2528 67.9475982,18.6458667 67.7833316,19.0448 C67.5955982,19.5376 67.4078649,20.0245333 67.2201316,20.5056 C67.0323982,20.9866667 66.8681316,21.4618667 66.7273316,21.9312 C66.4926649,22.6352 66.3049316,23.2746667 66.1641316,23.8496 C66.0233316,24.4245333 65.9998649,24.7589333 66.0937316,24.8528 C66.4457316,24.8058667 67.0910649,24.2778667 68.0297316,23.2688 C68.3113316,23.0106667 68.5694649,22.7232 68.8041316,22.4064 C69.0387982,22.0896 69.2617316,21.7669333 69.4729316,21.4384 C69.4259982,21.4853333 69.4377316,21.4501333 69.5081316,21.3328 C69.5785316,21.2154667 69.6606649,21.0864 69.7545316,20.9456 C69.8222912,20.7684433 69.89157,20.5937337 69.9657316,20.4176 L69.9657316,20.488 C70.1065316,19.9952 70.2942649,19.5434667 70.5289316,19.1328 C70.7635982,18.7221333 71.0099982,18.3173333 71.2681316,17.9184 L71.2329316,17.9536 C71.2563982,17.9066667 71.3267982,17.7893333 71.4441316,17.6016 C71.5614649,17.4138667 71.7374649,17.2144 71.9721316,17.0032 C72.2067982,16.792 72.4883982,16.6042667 72.8169316,16.44 C73.1454649,16.2757333 73.5326649,16.1701333 73.9785316,16.1232 C74.3305316,15.4192 74.7881316,14.8266667 75.3513316,14.3456 C75.9145316,13.8645333 76.5363982,13.6005333 77.2169316,13.5536 C78.1555982,13.5536 78.8713316,13.8821333 79.3641316,14.5392 C79.8569316,15.1962667 80.1033316,16.0645333 80.1033316,17.144 C80.1033316,18.2704 79.8451982,19.4906667 79.3289316,20.8048 C79.1411982,21.2506667 78.9417316,21.6789333 78.7305316,22.0896 C78.5193316,22.5002667 78.2846649,22.8933333 78.0265316,23.2688 L78.0617316,23.2688 C78.8263269,23.2463119 79.7956504,22.4587869 80.969702,20.9062251 C80.9818479,20.8793103 80.9919612,20.8579406 81.0009316,20.84 C81.0361316,20.7696 80.9833316,20.84 80.8425316,21.0512 C80.8894649,20.9338667 80.9539982,20.8282667 81.0361316,20.7344 C81.1182649,20.6405333 81.1827982,20.5349333 81.2297316,20.4176 C81.3939982,20.136 81.5875982,19.8016 81.8105316,19.4144 C82.0334649,19.0272 82.2622649,18.6341333 82.4969316,18.2352 C82.7315982,17.8362667 82.9603982,17.4490667 83.1833316,17.0736 C83.4062649,16.6981333 83.5881316,16.3696 83.7289316,16.088 C83.8697316,15.9237333 84.1337316,15.7829333 84.5209316,15.6656 C84.9081316,15.5482667 85.3129316,15.4602667 85.7353316,15.4016 C86.1577316,15.3429333 86.5449316,15.3194667 86.8969316,15.3312 C87.2489316,15.3429333 87.4601316,15.3957333 87.5305316,15.4896 C87.2723982,16.2874667 87.0494649,17.144 86.8617316,18.0592 C86.6739982,18.9744 86.4862649,19.9248 86.2985316,20.9104 C86.9086649,19.784 87.5246649,18.6458667 88.1465316,17.496 C88.7683982,16.3461333 89.3491982,15.2784 89.8889316,14.2928 L90.5577316,13.9408 L90.5225316,13.976 C90.6867982,13.8821333 90.8803982,13.8 91.1033316,13.7296 C91.3262649,13.6592 91.5491982,13.5946667 91.7721316,13.536 C91.9950649,13.4773333 92.2062649,13.4304 92.4057316,13.3952 C92.6051982,13.36 92.7635982,13.3424 92.8809316,13.3424 C93.2798649,13.3424 93.5614649,13.4010667 93.7257316,13.5184 C93.8899982,13.6357333 93.9134649,13.8586667 93.7961316,14.1872 C93.7648427,14.3749333 93.7257316,14.5678815 93.6787982,14.7660444 L93.6025316,15.0672 C93.5203982,15.3722667 93.4558649,15.6656 93.4089316,15.9472 C93.2681316,16.5573333 93.1038649,17.2437333 92.9161316,18.0064 C92.7283982,18.7690667 92.5582649,19.5376 92.4057316,20.312 C92.2531982,21.0864 92.1241316,21.8373333 92.0185316,22.5648 C91.9129316,23.2922667 91.8601316,23.9141333 91.8601316,24.4304 C91.8601316,25.0405333 91.8953316,25.3925333 91.9657316,25.4864 C92.1769316,25.4629333 92.4761316,25.2869333 92.8633316,24.9584 C93.2505316,24.6298667 93.6494649,24.2368 94.0601316,23.7792 C94.4707982,23.3216 94.8638649,22.8405333 95.2393316,22.336 C95.4270649,22.0837333 95.5942649,21.8505333 95.7409316,21.6364 L95.7497316,21.6144 C95.8787982,21.2858667 96.0254649,20.9690667 96.1897316,20.664 C96.3539982,20.3589333 96.5593316,20.0773333 96.8057316,19.8192 C97.0521316,19.5610667 97.3747982,19.3616 97.7737316,19.2208 C98.1726649,18.6810667 98.5422649,18.1648 98.8825316,17.672 C99.2227982,17.1792 99.5102649,16.7450667 99.7449316,16.3696 C99.7449316,15.8768 99.8270649,15.4426667 99.9913316,15.0672 C100.155598,14.6917333 100.425465,14.3690667 100.800932,14.0992 C101.176398,13.8293333 101.675065,13.6357333 102.296932,13.5184 C102.918798,13.4010667 103.710798,13.3541333 104.672932,13.3776 C104.320932,14.0816 104.080398,14.68 103.951332,15.1728 C103.822265,15.6656 103.757732,16.1114667 103.757732,16.5104 C103.757732,17.1909333 103.845732,17.8597333 104.021732,18.5168 C104.197732,19.1738667 104.403065,19.7957333 104.637732,20.3824 C104.895865,21.0629333 105.101198,21.7024 105.253732,22.3008 C105.406265,22.8992 105.400398,23.4682667 105.236132,24.008 L105.236132,24.0432 C105.212665,24.0666667 105.200932,24.1018667 105.200932,24.1488 C105.177465,24.2426667 105.171598,24.2896 105.183332,24.2896 C105.195065,24.2896 105.212665,24.272 105.236132,24.2368 C105.259598,24.2016 105.283065,24.1605333 105.306532,24.1136 C105.329998,24.0666667 105.341732,24.0432 105.341732,24.0432 C105.834532,23.6208 106.333198,23.1338667 106.837732,22.5824 C107.342265,22.0309333 107.817465,21.4853333 108.263332,20.9456 C108.380665,20.8048 108.568398,20.7402667 108.826532,20.752 C109.084665,20.7637333 109.325198,20.8165333 109.548132,20.9104 C109.771065,21.0042667 109.952932,21.1274667 110.093732,21.28 C110.234532,21.4325333 110.246265,21.5909333 110.128932,21.7552 C108.791332,23.7029333 107.359865,25.1872 105.834532,26.208 C104.309198,27.2288 102.807332,27.7392 101.328932,27.7392 L100.712932,27.7392 C100.513465,27.7392 100.319865,27.7157333 100.132132,27.6688 C98.7241316,27.6218667 97.6153316,27.2346667 96.8057316,26.5072 C96.3785493,26.123355 96.0575341,25.6480429 95.8426862,25.0812638 C95.5826553,25.3871093 95.310823,25.6864124 95.0281316,25.9792 C94.3710649,26.6597333 93.6787982,27.2464 92.9513316,27.7392 C92.2238649,28.232 91.5081316,28.4784 90.8041316,28.4784 C90.3113316,28.5018667 89.8947982,28.4197333 89.5545316,28.232 C89.2142649,28.0442667 88.9385316,27.7802667 88.7273316,27.44 C88.5161316,27.0997333 88.3635982,26.6949333 88.2697316,26.2256 C88.1758649,25.7562667 88.1289316,25.24 88.1289316,24.6768 C88.1289316,24.2074667 88.1465316,23.7264 88.1817316,23.2336 C88.2169316,22.7408 88.2814649,22.2362667 88.3753316,21.72 C87.7886649,22.6352 87.2195982,23.5562667 86.6681316,24.4832 C86.1166649,25.4101333 85.5710649,26.3429333 85.0313316,27.2816 C85.0313316,27.352 85.0254649,27.4224 85.0137316,27.4928 C85.0019982,27.5632 84.9961316,27.6101333 84.9961316,27.6336 C84.7379982,27.7274667 84.4094649,27.7626667 84.0105316,27.7392 C83.6115982,27.7157333 83.2302649,27.6512 82.8665316,27.5456 C82.5027982,27.44 82.1977316,27.2933333 81.9513316,27.1056 C81.7049316,26.9178667 81.6051982,26.6949333 81.6521316,26.4368 L82.1801316,23.6208 C82.2035982,23.3861333 82.1331982,23.2336 81.9689316,23.1632 L81.8781316,23.1286 L81.7471716,23.276544 C81.3998649,23.653888 81.0337849,23.99744 80.6489316,24.3072 C80.1678649,24.6944 79.6691982,25.0112 79.1529316,25.2576 C78.6366649,25.504 78.1321316,25.6389333 77.6393316,25.6624 C77.3577316,25.7093333 77.0878649,25.7152 76.8297316,25.68 C76.5715982,25.6448 76.3486649,25.6037333 76.1609316,25.5568 C75.4569316,26.2138667 74.7470649,26.736 74.0313316,27.1232 C73.3155982,27.5104 72.6174649,27.704 71.9369316,27.704 C71.0217316,27.704 70.3235982,27.3813333 69.8425316,26.736 C69.51054,26.2906455 69.2931047,25.7474991 69.1902257,25.1065608 C68.6196115,25.7115946 68.0503498,26.2254491 67.4841316,26.648 C66.6979982,27.2346667 65.9998649,27.5397333 65.3897316,27.5632 C64.3337316,27.5866667 63.5945316,27.2933333 63.1721316,26.6832 C62.9072338,26.3005698 62.725398,25.8533358 62.6266244,25.3414979 C62.115718,25.8597328 61.6107953,26.3014907 61.1129316,26.6656 C60.3267982,27.2405333 59.6286649,27.5397333 59.0185316,27.5632 C57.9859982,27.5866667 57.2585316,27.2933333 56.8361316,26.6832 C56.5528443,26.2740073 56.3645519,25.7962071 56.2712544,25.2497996 C55.7082706,25.808035 55.1629788,26.2802938 54.6361316,26.6656 C53.8499982,27.2405333 53.1518649,27.5397333 52.5417316,27.5632 C51.7438649,27.6101333 51.1395982,27.4752 50.7289316,27.1584 C50.3182649,26.8416 50.0307982,26.4133333 49.8665316,25.8736 L49.6553316,26.1904 L49.6553316,25.8032 C49.0921316,26.3664 48.5113316,26.8005333 47.9129316,27.1056 C47.3145316,27.4106667 46.6985316,27.5632 46.0649316,27.5632 C45.4078649,27.5632 44.8681316,27.4869333 44.4457316,27.3344 C44.0233316,27.1818667 43.6830649,26.9648 43.4249316,26.6832 C43.1667982,26.4016 42.9849316,26.0672 42.8793316,25.68 C42.8042646,25.4047545 42.7558787,25.1087569 42.734174,24.7920075 C42.4352436,25.1006672 42.1249552,25.3904688 41.8057316,25.6624 C41.1721316,26.2021333 40.4915982,26.6421333 39.7641316,26.9824 C39.0366649,27.3226667 38.2739982,27.4928 37.4761316,27.4928 C36.3027982,27.3989333 35.4638649,26.912 34.9593316,26.032 C34.6322879,25.4615749 34.4112407,24.7851533 34.2961901,24.0027352 C34.1796171,24.1082833 34.0600096,24.209425 33.9385316,24.3072 C33.4574649,24.6944 32.9587982,25.0112 32.4425316,25.2576 C31.9262649,25.504 31.4217316,25.6389333 30.9289316,25.6624 C30.6473316,25.7093333 30.3774649,25.7152 30.1193316,25.68 C29.8611982,25.6448 29.6382649,25.6037333 29.4505316,25.5568 C28.7465316,26.2138667 28.0366649,26.736 27.3209316,27.1232 C26.6051982,27.5104 25.9070649,27.704 25.2265316,27.704 C24.3113316,27.704 23.6131982,27.3813333 23.1321316,26.736 C22.6510649,26.0906667 22.4105316,25.24 22.4105316,24.184 C22.4105316,23.0106667 22.6921316,21.7552 23.2553316,20.4176 L23.2551316,20.4866 L23.3454436,20.197248 C23.4731022,19.8161493 23.6307982,19.4613333 23.8185316,19.1328 C24.0531982,18.7221333 24.2995982,18.3173333 24.5577316,17.9184 L24.5225316,17.9536 C24.5459982,17.9066667 24.6163982,17.7893333 24.7337316,17.6016 C24.8510649,17.4138667 25.0270649,17.2144 25.2617316,17.0032 C25.4963982,16.792 25.7779982,16.6042667 26.1065316,16.44 C26.4350649,16.2757333 26.8222649,16.1701333 27.2681316,16.1232 C27.6201316,15.4192 28.0777316,14.8266667 28.6409316,14.3456 C29.2041316,13.8645333 29.8259982,13.6005333 30.5065316,13.5536 C31.4451982,13.5536 32.1609316,13.8821333 32.6537316,14.5392 C33.1465316,15.1962667 33.3929316,16.0645333 33.3929316,17.144 C33.3929316,18.2704 33.1347982,19.4906667 32.6185316,20.8048 C32.4307982,21.2506667 32.2313316,21.6789333 32.0201316,22.0896 C31.8089316,22.5002667 31.5742649,22.8933333 31.3161316,23.2688 L31.3513316,23.2688 C32.1312705,23.2458606 33.1242368,22.4268714 34.3302305,20.8118323 C34.4194657,20.1195671 34.5592875,19.3899599 34.7481316,18.6224 C35.1118649,17.144 35.5987982,15.6421333 36.2089316,14.1168 C36.8190649,12.5914667 37.5289316,11.0954667 38.3385316,9.6288 C39.1481316,8.16213333 39.9870649,6.848 40.8553316,5.6864 C41.7235982,4.5248 42.6035982,3.5744 43.4953316,2.8352 C44.3870649,2.096 45.2318649,1.67946667 46.0297316,1.5856 Z M100.202532,19.3264 L99.7801316,19.8192 C99.3811982,20.3354667 99.0174649,20.84 98.6889316,21.3328 C98.3603982,21.8256 97.9849316,22.3418667 97.5625316,22.8816 C97.5155982,23.2101333 97.5507982,23.5152 97.6681316,23.7968 C97.7854649,24.0784 97.9497316,24.3189333 98.1609316,24.5184 C98.3721316,24.7178667 98.6185316,24.8704 98.9001316,24.976 C99.1817316,25.0816 99.4633316,25.1344 99.7449316,25.1344 C100.096932,25.1109333 100.390265,24.9408 100.624932,24.624 C100.859598,24.3072 100.965198,23.8906667 100.941732,23.3744 C100.965198,23.1397333 100.941732,22.8346667 100.871332,22.4592 C100.800932,22.0837333 100.707065,21.6848 100.589732,21.2624 C100.448932,20.6757333 100.319865,20.0304 100.202532,19.3264 Z M26.3881316,21.368 C26.2003982,21.9077333 26.0478649,22.4181333 25.9305316,22.8992 C25.8131982,23.3802667 25.7545316,23.7850667 25.7545316,24.1136 C25.7545316,24.6533333 25.8601316,24.9232 26.0713316,24.9232 C26.4233316,24.9232 26.8809316,24.6650667 27.4441316,24.1488 C27.1390649,23.7498667 26.9043982,23.3216 26.7401316,22.864 C26.5758649,22.4064 26.4585316,21.9077333 26.3881316,21.368 Z M73.0985316,21.368 C72.9107982,21.9077333 72.7582649,22.4181333 72.6409316,22.8992 C72.5235982,23.3802667 72.4649316,23.7850667 72.4649316,24.1136 C72.4649316,24.6533333 72.5705316,24.9232 72.7817316,24.9232 C73.1337316,24.9232 73.5913316,24.6650667 74.1545316,24.1488 C73.8494649,23.7498667 73.6147982,23.3216 73.4505316,22.864 C73.2862649,22.4064 73.1689316,21.9077333 73.0985316,21.368 Z M30.4713316,16.2992 C30.3305316,16.3696 30.1897316,16.528 30.0489316,16.7744 C29.9081316,17.0208 29.7849316,17.3258667 29.6793316,17.6896 C29.5737316,18.0533333 29.4915982,18.4522667 29.4329316,18.8864 C29.3742649,19.3205333 29.3449316,19.7605333 29.3449316,20.2064 C29.3449316,20.6522667 29.3801316,21.0864 29.4505316,21.5088 C29.5913316,21.2741333 29.7673316,20.8986667 29.9785316,20.3824 C30.2835982,19.6549333 30.4947982,19.0389333 30.6121316,18.5344 C30.7294649,18.0298667 30.7881316,17.6133333 30.7881316,17.2848 C30.7881316,16.9093333 30.7529316,16.6570667 30.6825316,16.528 C30.6121316,16.3989333 30.5417316,16.3226667 30.4713316,16.2992 Z M77.1817316,16.2992 C77.0409316,16.3696 76.9001316,16.528 76.7593316,16.7744 C76.6185316,17.0208 76.4953316,17.3258667 76.3897316,17.6896 C76.2841316,18.0533333 76.2019982,18.4522667 76.1433316,18.8864 C76.0846649,19.3205333 76.0553316,19.7605333 76.0553316,20.2064 C76.0553316,20.6522667 76.0905316,21.0864 76.1609316,21.5088 C76.3017316,21.2741333 76.4777316,20.8986667 76.6889316,20.3824 C76.9939982,19.6549333 77.2051982,19.0389333 77.3225316,18.5344 C77.4398649,18.0298667 77.4985316,17.6133333 77.4985316,17.2848 C77.4985316,16.9093333 77.4633316,16.6570667 77.3929316,16.528 C77.3225316,16.3989333 77.2521316,16.3226667 77.1817316,16.2992 Z M45.5721316,4.648 C45.1966649,4.69493333 44.7977316,4.9296 44.3753316,5.352 C43.9529316,5.7744 43.5129316,6.34346667 43.0553316,7.0592 C42.5977316,7.77493333 42.1459982,8.59626667 41.7001316,9.5232 C41.2542649,10.4501333 40.8259982,11.4298667 40.4153316,12.4624 C40.0046649,13.4949333 39.6291982,14.5509333 39.2889316,15.6304 C38.9486649,16.7098667 38.6611982,17.7541333 38.4265316,18.7632 C39.2478649,17.8010667 40.1513316,16.5808 41.1369316,15.1024 C42.1225316,13.624 43.1667982,11.6762667 44.2697316,9.2592 C44.3401316,9.14186667 44.4750649,8.8368 44.6745316,8.344 C44.8739982,7.8512 45.0675982,7.33493333 45.2553316,6.7952 C45.4430649,6.25546667 45.5838649,5.76853333 45.6777316,5.3344 C45.7715982,4.90026667 45.7363982,4.67146667 45.5721316,4.648 Z"/></svg>