<svg xmlns="http://www.w3.org/2000/svg" width="17" height="16" viewBox="0 0 17 16"><path fill-rule="evenodd" d="M6.5,3 C4.29086,3 2.5,4.79086 2.5,7 C2.5,9.2091 4.29086,11 6.5,11 C8.7091,11 10.5,9.2091 10.5,7 C10.5,4.79086 8.7091,3 6.5,3 Z M0.5,7 C0.5,3.68629 3.18629,1 6.5,1 C9.8137,1 12.5,3.68629 12.5,7 C12.5,8.29583 12.0892,9.4957 11.3907,10.4765 L16.2071,15.2929 C16.5976,15.6834 16.5976,16.3166 16.2071,16.7071 C15.8166,17.0976 15.1834,17.0976 14.7929,16.7071 L9.9765,11.8907 C8.9957,12.5892 7.79583,13 6.5,13 C3.18629,13 0.5,10.3137 0.5,7 Z" transform="translate(0 -1)"/></svg>