<svg xmlns="http://www.w3.org/2000/svg" width="17" height="17" viewBox="0 0 17 17"><g fill="none" fill-rule="evenodd" stroke="#718096" transform="translate(1 1)"><circle cx="7.5" cy="7.5" r="7.5" stroke-width="1.5"/><path fill="#718096" fill-rule="nonzero" stroke-width=".5" d="M10.8,4.5 C10.08,4.5 9.4,4.81226766 8.915,5.35315985 L5.4,8.83271375 C5.08,9.18959108 4.655,9.38475836 4.2,9.38475836 C3.265,9.38475836 2.505,8.54275093 2.505,7.5 C2.505,6.45724907 3.265,5.61524164 4.2,5.61524164 C4.655,5.61524164 5.08,5.81040892 5.42,6.18959108 L5.985,6.7472119 L6.74,6 L6.11,5.38104089 C5.6,4.81226766 4.92,4.5 4.2,4.5 C2.71,4.5 1.5,5.84944238 1.5,7.5 C1.5,9.15055762 2.71,10.5 4.2,10.5 C4.92,10.5 5.6,10.1877323 6.085,9.64684015 L9.6,6.16728625 C9.92,5.81040892 10.345,5.61524164 10.8,5.61524164 C11.735,5.61524164 12.495,6.45724907 12.495,7.5 C12.495,8.54275093 11.735,9.38475836 10.8,9.38475836 C10.35,9.38475836 9.92,9.18959108 9.58,8.81040892 L9.01,8.2472119 L8.255,8.99442379 L8.89,9.61895911 C9.4,10.1821561 10.075,10.4944238 10.8,10.4944238 C12.29,10.4944238 13.5,9.15055762 13.5,7.49442379 C13.5,5.83828996 12.29,4.5 10.8,4.5 L10.8,4.5 Z"/></g></svg>