<svg xmlns="http://www.w3.org/2000/svg" width="20" height="20" viewBox="0 0 20 20"><g fill="none" fill-rule="evenodd"><rect width="20" height="20"/><path fill="#19202C" fill-rule="nonzero" d="M10.0043747,18.5 C11.1651227,18.5 12.2587922,18.2768914 13.2853834,17.8306742 C14.3119746,17.384457 15.2160748,16.7705438 15.997684,15.9889346 C16.7792932,15.2073254 17.3917482,14.3046835 17.8350489,13.2810087 C18.2783496,12.257334 18.5,11.1622062 18.5,9.99562532 C18.5,8.83487734 18.2768914,7.74120775 17.8306742,6.71461657 C17.384457,5.68802539 16.7705438,4.78246698 15.9889346,3.99794133 C15.2073254,3.21341568 14.3032253,2.60096071 13.2766341,2.16057643 C12.2500429,1.72019214 11.1563733,1.5 9.99562532,1.5 C8.83487734,1.5 7.74266598,1.72019214 6.71899125,2.16057643 C5.69531652,2.60096071 4.79121633,3.21341568 4.00669068,3.99794133 C3.22216504,4.78246698 2.60825184,5.68802539 2.16495111,6.71461657 C1.72165037,7.74120775 1.5,8.83487734 1.5,9.99562532 C1.5,11.1622062 1.72310859,12.257334 2.16932578,13.2810087 C2.61554297,14.3046835 3.22945617,15.2073254 4.01106536,15.9889346 C4.79267456,16.7705438 5.69531652,17.384457 6.71899125,17.8306742 C7.74266598,18.2768914 8.83779379,18.5 10.0043747,18.5 Z M10.0043747,16.9426145 C9.04194545,16.9426145 8.14076171,16.7632527 7.30082347,16.4045291 C6.46088523,16.0458055 5.72302282,15.5485504 5.08723623,14.9127638 C4.45144965,14.2769772 3.95565277,13.5391148 3.5998456,12.6991765 C3.24403843,11.8592383 3.06613484,10.9580546 3.06613484,9.99562532 C3.06613484,9.03319609 3.24403843,8.13201235 3.5998456,7.29207411 C3.95565277,6.45213587 4.45144965,5.71427346 5.08723623,5.07848688 C5.72302282,4.44270029 6.459427,3.94690341 7.29644879,3.59109624 C8.13347058,3.23528907 9.03319609,3.05738549 9.99562532,3.05738549 C10.9580546,3.05738549 11.8592383,3.23528907 12.6991765,3.59109624 C13.5391148,3.94690341 14.2769772,4.44270029 14.9127638,5.07848688 C15.5485504,5.71427346 16.0458055,6.45213587 16.4045291,7.29207411 C16.7632527,8.13201235 16.9426145,9.03319609 16.9426145,9.99562532 C16.9484474,10.9580546 16.7720021,11.8592383 16.4132784,12.6991765 C16.0545548,13.5391148 15.5587579,14.2769772 14.9258878,14.9127638 C14.2930177,15.5485504 13.5551553,16.0458055 12.7123006,16.4045291 C11.8694459,16.7632527 10.9668039,16.9426145 10.0043747,16.9426145 Z M4.43978384,9.99562532 C4.43978384,10.7772345 4.66872534,11.4101046 5.12660834,11.8942357 C5.58449134,12.3783668 6.18382227,12.6204323 6.92460113,12.6204323 C7.32123863,12.6204323 7.69162807,12.5358552 8.03576943,12.366701 C8.37991079,12.1975467 8.72988506,11.9438154 9.08569223,11.6055069 L10.0043747,10.7305713 L10.9230571,11.6055069 C11.2905301,11.9554812 11.6463373,12.212129 11.9904786,12.3754503 C12.33462,12.5387717 12.6991765,12.6204323 13.0841482,12.6204323 C13.8249271,12.6204323 14.424258,12.3783668 14.882141,11.8942357 C15.340024,11.4101046 15.5689655,10.7772345 15.5689655,9.99562532 C15.5689655,9.20818322 15.340024,8.57239664 14.882141,8.08826557 C14.424258,7.6041345 13.8249271,7.36206897 13.0841482,7.36206897 C12.6933436,7.36206897 12.3258706,7.44372963 11.9817293,7.60705095 C11.6375879,7.77037228 11.2846972,8.02993652 10.9230571,8.3857437 L10.0043747,9.25193001 L9.08569223,8.3857437 C8.73571796,8.04160233 8.38720192,7.78495454 8.04014411,7.61580031 C7.69308629,7.44664608 7.32123863,7.36206897 6.92460113,7.36206897 C6.18382227,7.36206897 5.58449134,7.6041345 5.12660834,8.08826557 C4.66872534,8.57239664 4.43978384,9.20818322 4.43978384,9.99562532 Z M5.51595471,9.99562532 C5.51595471,9.52316006 5.64427861,9.14402127 5.9009264,8.85820896 C6.1575742,8.57239664 6.49879911,8.42949048 6.92460113,8.42949048 C7.15791731,8.43532338 7.38394236,8.49365243 7.60267627,8.60447761 C7.82141019,8.7153028 8.0678504,8.89903929 8.34199691,9.15568708 L9.23443129,9.99562532 L8.34199691,10.8268142 C8.07368331,11.0776291 7.83015955,11.2613656 7.61142563,11.3780237 C7.39269171,11.4946818 7.16375021,11.5530108 6.92460113,11.5530108 C6.49879911,11.5530108 6.1575742,11.4115629 5.9009264,11.128667 C5.64427861,10.8457711 5.51595471,10.4680906 5.51595471,9.99562532 Z M10.7743181,9.99562532 L11.6755018,9.15568708 C11.9438154,8.89903929 12.1887974,8.7153028 12.4104478,8.60447761 C12.6320981,8.49365243 12.856665,8.43532338 13.0841482,8.42949048 C13.5099502,8.42949048 13.8526334,8.57239664 14.1121976,8.85820896 C14.3717619,9.14402127 14.501544,9.52316006 14.501544,9.99562532 C14.501544,10.4680906 14.3717619,10.8457711 14.1121976,11.128667 C13.8526334,11.4115629 13.5099502,11.5530108 13.0841482,11.5530108 C12.850832,11.5530108 12.6233488,11.4946818 12.4016984,11.3780237 C12.180048,11.2613656 11.9379825,11.0776291 11.6755018,10.8268142 L10.7743181,9.99562532 Z"/></g></svg>