<svg xmlns="http://www.w3.org/2000/svg" width="17" height="17" viewBox="0 0 17 17"><path fill="none" stroke="#718096" stroke-linecap="round" stroke-linejoin="round" stroke-width="1.5" d="M1.045775,7.66666667 L2.66666667,7.66666667 C3.58714167,7.66666667 4.33333333,8.41283333 4.33333333,9.33333333 L4.33333333,10.1666667 C4.33333333,11.0871667 5.079525,11.8333333 6,11.8333333 C6.9205,11.8333333 7.66666667,12.5795 7.66666667,13.5 L7.66666667,15.95425 M5.16666667,1.7796 L5.16666667,3.08333333 C5.16666667,4.233925 6.09940833,5.16666667 7.25,5.16666667 L7.66666667,5.16666667 C8.58716667,5.16666667 9.33333333,5.91285833 9.33333333,6.83333333 C9.33333333,7.75383333 10.0795,8.5 11,8.5 C11.9205,8.5 12.6666667,7.75383333 12.6666667,6.83333333 C12.6666667,5.91285833 13.4128333,5.16666667 14.3333333,5.16666667 L15.2204167,5.16666667 M11,15.57325 L11,13.5 C11,12.5795 11.7461667,11.8333333 12.6666667,11.8333333 L15.2204167,11.8333333 M16,8.5 C16,12.6421667 12.6421667,16 8.5,16 C4.35786667,16 1,12.6421667 1,8.5 C1,4.35786667 4.35786667,1 8.5,1 C12.6421667,1 16,4.35786667 16,8.5 Z"/></svg>