<svg xmlns="http://www.w3.org/2000/svg" width="20" height="20" viewBox="0 0 20 20"><g fill="none" fill-rule="evenodd"><rect width="20" height="20"/><path stroke="#000" stroke-linecap="round" stroke-linejoin="round" stroke-width="1.5" d="M2.04882667,9.11111111 L3.77777778,9.11111111 C4.75961778,9.11111111 5.55555556,9.90702222 5.55555556,10.8888889 L5.55555556,11.7777778 C5.55555556,12.7596444 6.35149333,13.5555556 7.33333333,13.5555556 C8.3152,13.5555556 9.11111111,14.3514667 9.11111111,15.3333333 L9.11111111,17.9512 M6.44444444,2.83157333 L6.44444444,4.22222222 C6.44444444,5.44952 7.43936889,6.44444444 8.66666667,6.44444444 L9.11111111,6.44444444 C10.0929778,6.44444444 10.8888889,7.24038222 10.8888889,8.22222222 C10.8888889,9.20408889 11.6848,10 12.6666667,10 C13.6485333,10 14.4444444,9.20408889 14.4444444,8.22222222 C14.4444444,7.24038222 15.2403556,6.44444444 16.2222222,6.44444444 L17.1684444,6.44444444 M12.6666667,17.5448 L12.6666667,15.3333333 C12.6666667,14.3514667 13.4625778,13.5555556 14.4444444,13.5555556 L17.1684444,13.5555556 M18,10 C18,14.4183111 14.4183111,18 10,18 C5.58172444,18 2,14.4183111 2,10 C2,5.58172444 5.58172444,2 10,2 C14.4183111,2 18,5.58172444 18,10 Z"/></g></svg>