<svg xmlns="http://www.w3.org/2000/svg" width="15" height="17" viewBox="0 0 15 17"><path fill="#718096" d="M12.9444444,12.6212121 L11.3888889,12.6212121 L11.3888889,9.51818182 L12.9444444,9.51818182 L12.9444444,12.6212121 Z M3.61111111,12.6212121 L2.83333333,12.6212121 C2.40555556,12.6212121 2.05555556,12.2721212 2.05555556,11.8454545 L2.05555556,9.51818182 L3.61111111,9.51818182 L3.61111111,12.6212121 Z M7.5,0.5 C3.63444444,0.5 0.5,3.62630303 0.5,7.48181818 L0.5,11.8454545 C0.5,13.1332121 1.54222222,14.1727273 2.83333333,14.1727273 L4.1,14.1727273 C4.68910373,14.1727273 5.16666667,13.6951643 5.16666667,13.1060606 L5.16666667,9.03333333 C5.16666667,8.4442296 4.68910373,7.96666667 4.1,7.96666667 L2.05555556,7.96666667 L2.05555556,7.96666667 L2.05555556,7.48181818 C2.05555556,4.47963636 4.49,2.05151515 7.5,2.05151515 C10.51,2.05151515 12.9444444,4.47963636 12.9444444,7.48181818 L12.9444444,7.96666667 L10.9,7.96666667 C10.3108963,7.96666667 9.83333333,8.4442296 9.83333333,9.03333333 L9.83333333,13.1060606 C9.83333333,13.6951643 10.3108963,14.1727273 10.9,14.1727273 L12.9444444,14.1727273 L12.9444444,14.1727273 L12.9444444,14.9484848 L7.5,14.9484848 L7.5,15.4333333 C7.5,16.0224371 7.97756293,16.5 8.56666667,16.5 L12.1666667,16.5 L12.1666667,16.5 C13.4577778,16.5 14.5,15.4604848 14.5,14.1727273 L14.5,7.48181818 C14.5,3.62630303 11.3655556,0.5 7.5,0.5 Z"/></svg>