<svg xmlns="http://www.w3.org/2000/svg" width="20" height="20" viewBox="0 0 20 20"><g fill="none" fill-rule="evenodd"><rect width="20" height="20"/><path fill="#000" fill-rule="nonzero" d="M15.4444444,14.1212121 L13.8888889,14.1212121 L13.8888889,11.0181818 L15.4444444,11.0181818 L15.4444444,14.1212121 Z M6.11111111,14.1212121 L5.33333333,14.1212121 C4.90555556,14.1212121 4.55555556,13.7721212 4.55555556,13.3454545 L4.55555556,11.0181818 L6.11111111,11.0181818 L6.11111111,14.1212121 Z M10,2 C6.13444444,2 3,5.12630303 3,8.98181818 L3,13.3454545 C3,14.6332121 4.04222222,15.6727273 5.33333333,15.6727273 L6.6,15.6727273 C7.18910373,15.6727273 7.66666667,15.1951643 7.66666667,14.6060606 L7.66666667,10.5333333 C7.66666667,9.9442296 7.18910373,9.46666667 6.6,9.46666667 L4.55555556,9.46666667 L4.55555556,9.46666667 L4.55555556,8.98181818 C4.55555556,5.97963636 6.99,3.55151515 10,3.55151515 C13.01,3.55151515 15.4444444,5.97963636 15.4444444,8.98181818 L15.4444444,9.46666667 L13.4,9.46666667 C12.8108963,9.46666667 12.3333333,9.9442296 12.3333333,10.5333333 L12.3333333,14.6060606 C12.3333333,15.1951643 12.8108963,15.6727273 13.4,15.6727273 L15.4444444,15.6727273 L15.4444444,15.6727273 L15.4444444,16.4484848 L10,16.4484848 L10,16.9333333 C10,17.5224371 10.4775629,18 11.0666667,18 L14.6666667,18 L14.6666667,18 C15.9577778,18 17,16.9604848 17,15.6727273 L17,8.98181818 C17,5.12630303 13.8655556,2 10,2 Z"/></g></svg>