<svg xmlns="http://www.w3.org/2000/svg" width="20" height="20" viewBox="0 0 20 20"><g fill="none" fill-rule="evenodd"><rect width="20" height="20"/><path fill="#000" fill-rule="nonzero" d="M10,1.5 C5.325,1.5 1.5,5.325 1.5,10 C1.5,14.675 5.325,18.5 10,18.5 C14.675,18.5 18.5,14.675 18.5,10 C18.5,5.325 14.675,1.5 10,1.5 Z M10,16.90625 C6.19292969,16.90625 3.09375,13.8070703 3.09375,10 C3.09375,6.19292969 6.19292969,3.09375 10,3.09375 C13.8070703,3.09375 16.90625,6.19292969 16.90625,10 C16.90625,13.8070703 13.8070703,16.90625 10,16.90625 Z M10.425,5.75 L9.15,5.75 L9.15,10.85 L13.57,13.57 L14.25,12.465 L10.425,10.17 L10.425,5.75 Z"/></g></svg>