<svg xmlns="http://www.w3.org/2000/svg" width="19" height="15" viewBox="0 0 19 15"><defs><linearGradient id="a" x1="50%" x2="50%" y1="0%" y2="100%"><stop offset="0%" stop-color="#AAB7C7"/><stop offset="100%" stop-color="#718096"/></linearGradient></defs><path fill="none" stroke="url(#a)" stroke-width="1.417" d="M16.2291667,1 C17.2071709,1 18,1.79282909 18,2.77083333 L18,12.2291667 C18,13.2071709 17.2071709,14 16.2291667,14 L2.77083333,14 C1.79282909,14 1,13.2071709 1,12.2291667 L1,2.77083333 C1,1.79282909 1.79282909,1 2.77083333,1 L16.2291667,1 Z M8.51657901,4.71484103 C8.33671616,4.71484103 8.19090852,4.86064868 8.19090852,5.04051153 L8.19090852,5.04051153 L8.19090852,9.96692305 C8.19090852,10.0322367 8.21054702,10.0960415 8.24727359,10.150051 C8.34841238,10.2987843 8.55097372,10.3373673 8.699707,10.2362285 L8.699707,10.2362285 L12.2803717,7.80137252 C12.3132912,7.77898724 12.3418275,7.75075603 12.3645653,7.71807907 C12.4672969,7.57044144 12.4308933,7.36747711 12.2832557,7.26474553 L12.2832557,7.26474553 L8.70259099,4.77318997 C8.64799945,4.7352032 8.58308638,4.71484103 8.51657901,4.71484103 Z"/></svg>