<svg xmlns="http://www.w3.org/2000/svg" width="15" height="21" viewBox="0 0 15 21"><defs><linearGradient id="a" x1="50%" x2="50%" y1="0%" y2="100%"><stop offset="0%" stop-color="#AAB7C7"/><stop offset="100%" stop-color="#718096"/></linearGradient><linearGradient id="b" x1="50%" x2="50%" y1="0%" y2="100%"><stop offset="0%" stop-color="#AAB7C7"/><stop offset="100%" stop-color="#718096"/></linearGradient></defs><g fill="none" fill-rule="evenodd" transform="translate(1 1)"><line x1="6.5" x2="6.5" y1="3.5" y2="7.5" stroke="#A9B6C7" stroke-linecap="round" stroke-linejoin="round" stroke-width="1.2"/><circle cx="6.5" cy="1.5" r="1.5" stroke="#A9B6C7" stroke-width="1.2"/><path stroke="url(#a)" stroke-width="1.5" d="M9.36954467,18.4998483 L8.25732045,18.4998483 L0.928571429,18.4998483 C0.415735589,18.4998483 0,18.0819853 0,17.5665251 L0,5.43332322 C0,4.91786304 0.415735589,4.5 0.928571429,4.5 L12.0714286,4.5 C12.5842644,4.5 13,4.91786304 13,5.43332322 L13,15.7218222"/><path stroke="#718096" stroke-width="1.5" d="M12.9989217,15.731752 C12.9989217,17.4531884 12.0833392,18.3759377 10.2521741,18.5 L9.33,18.4998483 L9.33,15.731752 L12.9989217,15.731752 Z"/><path stroke="url(#b)" stroke-linecap="round" stroke-linejoin="round" stroke-width="1.5" d="M2.83,11 L9.83,11 M2.83,14 L7.83,14"/></g></svg>