<svg xmlns="http://www.w3.org/2000/svg" width="19" height="20" viewBox="0 0 19 20"><defs><linearGradient id="a" x1="50%" x2="50%" y1="0%" y2="100%"><stop offset="0%" stop-color="#AAB7C7"/><stop offset="100%" stop-color="#718096"/></linearGradient></defs><g fill="none" fill-rule="evenodd" stroke="url(#a)" stroke-linecap="round" stroke-linejoin="round" stroke-width="1.074" transform="translate(1 1)"><path d="M5.58706423,10.5502436 C5.58706423,10.5502436 6.09011411,7.55647616 6.30761708,6.04365773 C6.52512006,4.5308393 8.23410394,4.7463722 8.23410394,6.04365773 C8.23410394,6.90851475 8.23410394,8.79838311 8.23410394,11.7132628 C8.1329054,13.3677022 7.07891918,14.498773 5.07214529,15.1064754 L3.90202479,16.3411813 L4.77180478,17.2038499 L3.90202479,18 L0,14.1949219 L2.51466729,11.7132628 L3.06618871,7.26344964 C4.76837664,3.73494458 5.84885277,1.5459259 6.30761708,0.696393615 C6.99576356,-0.577904819 8.3507339,-0.172295212 7.92863479,2.48627552 L7.53511705,5.03336519 M4.13571985,16.5490026 L0.916795116,13.518659 M4.82567234,15.3193723 L2.15004084,12.5701457"/><path d="M14.3529603,10.5502436 C14.3529603,10.5502436 14.8560102,7.55647616 15.0735131,6.04365773 C15.2910161,4.5308393 17,4.7463722 17,6.04365773 C17,6.90851475 17,8.79838311 17,11.7132628 C16.8988015,13.3677022 15.8448152,14.498773 13.8380413,15.1064754 L12.6679208,16.3411813 L13.5377008,17.2038499 L12.6679208,18 L8.76589606,14.1949219 L11.2805634,11.7132628 L11.8320848,7.26344964 C13.5342727,3.73494458 14.6147488,1.5459259 15.0735131,0.696393615 C15.7616596,-0.577904819 17.11663,-0.172295212 16.6945308,2.48627552 L16.3010131,5.03336519 M12.9016159,16.5490026 L9.68269117,13.518659 M13.5915684,15.3193723 L10.9159369,12.5701457" transform="matrix(-1 0 0 1 25.766 0)"/></g></svg>