<svg xmlns="http://www.w3.org/2000/svg" width="20" height="20" viewBox="0 0 20 20"><defs><linearGradient id="a" x1="50%" x2="50%" y1="0%" y2="100%"><stop offset="0%" stop-color="#AAB7C7"/><stop offset="100%" stop-color="#718096"/></linearGradient><linearGradient id="b" x1="50%" x2="50%" y1="0%" y2="100%"><stop offset="0%" stop-color="#AAB7C7"/><stop offset="100%" stop-color="#718096"/></linearGradient></defs><g fill="none" fill-rule="evenodd" transform="translate(1 1)"><path fill="url(#a)" fill-rule="nonzero" d="M9,15.3897281 C8.58024691,15.3897281 8.22222222,15.2477341 7.92592593,14.9637462 C7.62962963,14.6797583 7.48148148,14.326284 7.48148148,13.9033233 C7.48148148,13.5045317 7.62962963,13.1570997 7.92592593,12.8610272 C8.22222222,12.5649547 8.58024691,12.4169184 9,12.4169184 C9.43209877,12.4169184 9.79938272,12.5649547 10.1018519,12.8610272 C10.404321,13.1570997 10.5493827,13.5045317 10.537037,13.9033233 C10.537037,14.326284 10.3888889,14.6797583 10.0925926,14.9637462 C9.7962963,15.2477341 9.43209877,15.3897281 9,15.3897281 Z M9.01851852,11.2567976 C8.68518519,11.2567976 8.41358025,11.1601208 8.2037037,10.9667674 C7.99382716,10.7734139 7.88271605,10.5256798 7.87037037,10.223565 L7.74074074,5.3836858 C7.72839506,5.02114804 7.83950617,4.72205438 8.07407407,4.48640483 C8.30864198,4.25075529 8.62345679,4.13293051 9.01851852,4.13293051 C9.38888889,4.13293051 9.69135802,4.25075529 9.92592593,4.48640483 C10.1604938,4.72205438 10.2777778,5.02114804 10.2777778,5.3836858 L10.1296296,10.223565 C10.117284,10.5256798 10.0061728,10.7734139 9.7962963,10.9667674 C9.58641975,11.1601208 9.32716049,11.2567976 9.01851852,11.2567976 Z"/><circle cx="9" cy="9" r="9" stroke="url(#b)" stroke-width="1.5"/></g></svg>