<svg xmlns="http://www.w3.org/2000/svg" width="19" height="20" viewBox="0 0 19 20"><defs><linearGradient id="a" x1="50%" x2="50%" y1="0%" y2="100%"><stop offset="0%" stop-color="#AAB7C7"/><stop offset="100%" stop-color="#718096"/></linearGradient><linearGradient id="b" x1="50%" x2="50%" y1="0%" y2="100%"><stop offset="0%" stop-color="#AAB7C7"/><stop offset="100%" stop-color="#718096"/></linearGradient></defs><g fill="none" fill-rule="evenodd" stroke-linecap="round" stroke-linejoin="round" transform="translate(1 1)"><path fill="url(#a)" stroke="url(#a)" stroke-width="1.322" d="M8.5,5.27633461 C10.2191106,5.27633461 11.6781408,5.79071709 13.2222222,7.10526316 L3.77777778,7.10526316 C5.321806,5.79071709 6.78088939,5.27633461 8.5,5.27633461 Z M8.5,0 C9.51193633,0 10.3322222,0.823355108 10.3322222,1.83900929 C10.3322222,2.85469412 9.51193633,3.67801858 8.5,3.67801858 C7.48806367,3.67801858 6.66777778,2.85469412 6.66777778,1.83900929 C6.66777778,0.823355108 7.48806367,0 8.5,0 Z"/><path stroke="url(#b)" stroke-width="1.417" d="M8.97222222,8.44736842 L8.97222222,18 M8.5,8.49492783 C7.39698333,7.9276075 5.89946278,7.57894737 4.25,7.57894737 C2.60053722,7.57894737 1.10300722,7.9276075 0,8.49492783 L0,18 C1.10300722,17.4326943 2.60053722,17.0840049 4.25,17.0840049 C5.89946278,17.0840049 7.39698333,17.4326943 8.5,18 M8.5,8.49492783 C9.60301667,7.9276075 11.1005278,7.57894737 12.75,7.57894737 C14.3994722,7.57894737 15.8969833,7.9276075 17,8.49492783 L17,18 C15.8969833,17.4326943 14.3994722,17.0840049 12.75,17.0840049 C11.1005278,17.0840049 9.60301667,17.4326943 8.5,18"/></g></svg>