<svg xmlns="http://www.w3.org/2000/svg" width="19" height="17" viewBox="0 0 19 17"><defs><linearGradient id="a" x1="50%" x2="50%" y1="0%" y2="100%"><stop offset="0%" stop-color="#AAB7C7"/><stop offset="100%" stop-color="#718096"/></linearGradient></defs><path fill="none" stroke="url(#a)" stroke-linecap="round" stroke-linejoin="round" stroke-width="1.342" d="M9.5,10.4445962 L18,5.72229808 L9.5,1 L1,5.72229808 L9.5,10.4445962 Z M9.5,10.4445962 L15.3169278,7.21293869 C15.8293833,8.50524278 16.1111111,9.91418763 16.1111111,11.3889613 C16.1111111,12.0514053 16.0542556,12.7004379 15.9452667,13.3317148 C13.4801722,13.5713242 11.2462778,14.6007851 9.5,16.1637714 C7.75372222,14.6007851 5.51983722,13.5713242 3.05475222,13.3317148 C2.94571611,12.7004379 2.88888889,12.0513109 2.88888889,11.3889613 C2.88888889,9.91418763 3.17056,8.50524278 3.68305333,7.21284424 L9.5,10.4445962 Z M5.72222222,16.1112594 L5.72222222,9.02790673 L9.5,6.92912857"/></svg>