<svg width="14" height="15" viewBox="0 0 14 15" fill="none" xmlns="http://www.w3.org/2000/svg">
<path d="M2.75333 2.53554C2.8 3.22776 2.91667 3.90443 3.10333 4.54998L2.17 5.48331C1.85111 4.54998 1.64889 3.5622 1.57889 2.53554H2.75333ZM10.4222 11.8844C11.0833 12.0711 11.76 12.1878 12.4444 12.2344V13.3933C11.4178 13.3233 10.43 13.1211 9.48889 12.81L10.4222 11.8844ZM3.5 0.97998H0.777778C0.35 0.97998 0 1.32998 0 1.75776C0 9.06109 5.91889 14.98 13.2222 14.98C13.65 14.98 14 14.63 14 14.2022V11.4878C14 11.06 13.65 10.71 13.2222 10.71C12.2578 10.71 11.3167 10.5544 10.4456 10.2666C10.3678 10.2355 10.2822 10.2278 10.2044 10.2278C10.0022 10.2278 9.80778 10.3055 9.65222 10.4533L7.94111 12.1644C5.74 11.0366 3.93556 9.23998 2.81556 7.03887L4.52667 5.32776C4.74444 5.10998 4.80667 4.80665 4.72111 4.53443C4.43333 3.66331 4.27778 2.72998 4.27778 1.75776C4.27778 1.32998 3.92778 0.97998 3.5 0.97998Z" fill="#1E293B"/>
</svg>
