<svg width="20" height="20" viewBox="0 0 20 20" fill="none" xmlns="http://www.w3.org/2000/svg">
<path d="M10.0098 1.66666C5.42145 1.66666 1.68626 5.39864 1.68459 9.98697C1.68376 11.4536 2.06791 12.8855 2.79624 14.1471L1.66669 18.3333L6.02704 17.303C7.24287 17.9664 8.61157 18.3146 10.0049 18.3154H10.0082C14.5957 18.3154 18.3292 14.5826 18.3317 9.99511C18.3334 7.77094 17.4685 5.67977 15.8968 4.10644C14.3252 2.53394 12.2365 1.66749 10.0098 1.66666ZM10.0082 3.33332C11.7882 3.33416 13.4609 4.02815 14.7184 5.28482C15.9759 6.54315 16.6667 8.21515 16.6651 9.99348C16.6634 13.6635 13.6782 16.6488 10.0065 16.6488C8.8957 16.6479 7.79536 16.369 6.82619 15.8398L6.26467 15.5338L5.64455 15.6803L4.00393 16.0677L4.40432 14.5801L4.58498 13.9128L4.23993 13.3138C3.65826 12.3071 3.35042 11.1561 3.35126 9.98697C3.35292 6.31864 6.33899 3.33332 10.0082 3.33332ZM7.06382 6.14582C6.92466 6.14582 6.69964 6.19791 6.50881 6.40624C6.31798 6.61374 5.77964 7.1163 5.77964 8.13964C5.77964 9.16297 6.52509 10.1522 6.62925 10.2913C6.73259 10.4297 8.06815 12.596 10.1823 13.4294C11.939 14.1219 12.2958 13.9852 12.6774 13.9502C13.0591 13.916 13.9087 13.4481 14.0821 12.9622C14.2554 12.4764 14.2558 12.0585 14.2041 11.9726C14.1525 11.886 14.0137 11.8343 13.8054 11.7301C13.5979 11.626 12.5753 11.1238 12.3845 11.0547C12.1936 10.9855 12.054 10.9505 11.9157 11.1588C11.7774 11.3672 11.3798 11.8343 11.2582 11.9726C11.1365 12.1118 11.0156 12.1305 10.8073 12.0264C10.599 11.9214 9.92914 11.7012 9.13414 10.9928C8.5158 10.442 8.09858 9.76236 7.97691 9.55403C7.85608 9.34653 7.96552 9.23255 8.06968 9.12922C8.16302 9.03589 8.27639 8.8863 8.38055 8.76464C8.48389 8.64297 8.51972 8.55629 8.58889 8.41796C8.65805 8.27962 8.62265 8.15754 8.57098 8.05338C8.51932 7.94921 8.11471 6.92207 7.92971 6.51041C7.77387 6.16457 7.60929 6.15654 7.46096 6.15071C7.34012 6.14571 7.20216 6.14582 7.06382 6.14582Z" fill="#1E293B"/>
</svg>
