<svg xmlns="http://www.w3.org/2000/svg" width="18" height="18" viewBox="0 0 18 18"><path d="M9.00463201,18 C10.2336593,18 11.3916624,17.7637674 12.4786413,17.2913021 C13.5656202,16.8188369 14.5229027,16.1688111 15.3504889,15.3412249 C16.1780751,14.5136387 16.8265569,13.5579002 17.2959341,12.4740093 C17.7653114,11.3901184 18,10.2305713 18,8.99536799 C18,7.76634071 17.7637674,6.60833762 17.2913021,5.52135872 C16.8188369,4.43437983 16.1688111,3.47555327 15.3412249,2.64487905 C14.5136387,1.81420484 13.5563562,1.16572311 12.4693773,0.699433865 C11.3823984,0.233144622 10.2243953,0 8.99536799,0 C7.76634071,0 6.60988163,0.233144622 5.52599074,0.699433865 C4.44209985,1.16572311 3.48481729,1.81420484 2.65414308,2.64487905 C1.82346886,3.47555327 1.17344313,4.43437983 0.704065878,5.52135872 C0.234688626,6.60833762 0,7.76634071 0,8.99536799 C0,10.2305713 0.23623263,11.3901184 0.70869789,12.4740093 C1.18116315,13.5579002 1.83118888,14.5136387 2.65877509,15.3412249 C3.4863613,16.1688111 4.44209985,16.8188369 5.52599074,17.2913021 C6.60988163,17.7637674 7.76942872,18 9.00463201,18 Z M8.99992317,16.6153846 C7.94357531,16.6153846 6.95444958,16.4186418 6.03254599,16.0251563 C5.1106424,15.6316708 4.3007757,15.0862295 3.6029459,14.3888323 C2.9051161,13.6914352 2.3609369,12.8820707 1.97040829,11.9607387 C1.57987969,11.0394067 1.38461538,10.0508943 1.38461538,8.9952014 C1.38461538,7.93950851 1.57987969,6.95099607 1.97040829,6.0296641 C2.3609369,5.10833212 2.9051161,4.29896757 3.6029459,3.60157045 C4.3007757,2.90417333 5.10904187,2.36033154 6.02774441,1.97004508 C6.94644695,1.57975862 7.93397215,1.38461538 8.99032001,1.38461538 C10.0466679,1.38461538 11.0357936,1.57975862 11.9576972,1.97004508 C12.8796008,2.36033154 13.6894675,2.90417333 14.3872973,3.60157045 C15.0851271,4.29896757 15.6309068,5.10833212 16.0246365,6.0296641 C16.4183661,6.95099607 16.615231,7.93950851 16.615231,8.9952014 C16.6216331,10.0508943 16.4279693,11.0394067 16.0342396,11.9607387 C15.64051,12.8820707 15.0963308,13.6914352 14.401702,14.3888323 C13.7070733,15.0862295 12.8972066,15.6316708 11.9721019,16.0251563 C11.0469973,16.4186418 10.056271,16.6153846 8.99992317,16.6153846 Z M14.9058157,14.7668554 L14.8780237,14.6556871 C14.7174472,14.2233659 14.3715903,13.8033968 13.8404529,13.3957797 C13.3093155,12.9881626 12.6299537,12.6531137 11.8023675,12.390633 C10.9747813,12.1281523 10.0391148,11.996912 8.99536799,11.996912 C7.95779722,11.996912 7.02676274,12.1281523 6.20226454,12.390633 C5.37776634,12.6531137 4.69994853,12.9881626 4.16881112,13.3957797 C3.6376737,13.8033968 3.28564076,14.2202779 3.1127123,14.6464231 L3.08492023,14.7668554 C3.62223366,15.2794647 4.24446732,15.7164179 4.9516212,16.0777149 C5.65877509,16.4390118 6.36901698,16.7138446 7.08234689,16.9022131 C7.79567679,17.0905816 8.43335049,17.1847658 8.99536799,17.1847658 C9.5635615,17.1847658 10.2027792,17.0905816 10.9130211,16.9022131 C11.623263,16.7138446 12.3304169,16.4405558 13.0344828,16.0823469 C13.7385486,15.7241379 14.3623263,15.2856408 14.9058157,14.7668554 Z M8.99536799,10.5331961 C9.5635615,10.5393721 10.0746269,10.3973237 10.5285641,10.107051 C10.9825013,9.81677818 11.3437983,9.42151312 11.612455,8.92125579 C11.8811117,8.42099846 12.01544,7.85589295 12.01544,7.22593927 C12.01544,6.63304169 11.8811117,6.09109624 11.612455,5.60010293 C11.3437983,5.10910962 10.9809573,4.71538857 10.5239321,4.41893978 C10.0669068,4.12249099 9.55738549,3.9742666 8.99536799,3.9742666 C8.43952651,3.9742666 7.93309315,4.12249099 7.47606794,4.41893978 C7.01904272,4.71538857 6.65620175,5.10910962 6.38754503,5.60010293 C6.11888832,6.09109624 5.98455996,6.63304169 5.98455996,7.22593927 C5.98455996,7.85589295 6.12043232,8.41791045 6.39217705,8.91199177 C6.66392177,9.40607308 7.02521873,9.79825013 7.47606794,10.0885229 C7.92691714,10.3787957 8.43335049,10.5270201 8.99536799,10.5331961 Z"/></svg>