<svg xmlns="http://www.w3.org/2000/svg" width="18" height="20" viewBox="0 0 18 20"><path d="M11.25,0 C11.6642136,0 12,0.335786438 12,0.75 C12,1.16421356 11.6642136,1.5 11.25,1.5 L11.25,1.5 L9.75,1.5 L9.75,2 C9.75,2.01025281 9.74979427,2.02045757 9.74938671,2.03061038 C10.70018,2.10636786 11.6071248,2.32954715 12.4693773,2.69943387 C13.5563562,3.16572311 14.5136387,3.81420484 15.3412249,4.64487905 C16.1688111,5.47555327 16.8188369,6.43437983 17.2913021,7.52135872 C17.7637674,8.60833762 18,9.76634071 18,10.995368 C18,12.2305713 17.7653114,13.3901184 17.2959341,14.4740093 C16.8265569,15.5579002 16.1780751,16.5136387 15.3504889,17.3412249 C14.5229027,18.1688111 13.5656202,18.8188369 12.4786413,19.2913021 C11.3916624,19.7637674 10.2336593,20 9.00463201,20 C7.76942872,20 6.60988163,19.7637674 5.52599074,19.2913021 C4.44209985,18.8188369 3.4863613,18.1688111 2.65877509,17.3412249 C1.83118888,16.5136387 1.18116315,15.5579002 0.70869789,14.4740093 C0.23623263,13.3901184 0,12.2305713 0,10.995368 C0,9.76634071 0.234688626,8.60833762 0.704065878,7.52135872 C1.17344313,6.43437983 1.82346886,5.47555327 2.65414308,4.64487905 C3.48481729,3.81420484 4.44209985,3.16572311 5.52599074,2.69943387 C6.38878945,2.32825835 7.29757084,2.10481438 8.25233489,2.02910196 L8.25,2 L8.25,1.5 L6.75,1.5 C6.33578644,1.5 6,1.16421356 6,0.75 C6,0.335786438 6.33578644,4.4408921e-16 6.75,4.4408921e-16 L6.75,4.4408921e-16 Z M8.99032001,3.38461538 C7.93397215,3.38461538 6.94644695,3.57975862 6.02774441,3.97004508 C5.10904187,4.36033154 4.3007757,4.90417333 3.6029459,5.60157045 C2.9051161,6.29896757 2.3609369,7.10833212 1.97040829,8.0296641 C1.57987969,8.95099607 1.38461538,9.93950851 1.38461538,10.9952014 C1.38461538,12.0508943 1.57987969,13.0394067 1.97040829,13.9607387 C2.3609369,14.8820707 2.9051161,15.6914352 3.6029459,16.3888323 C4.3007757,17.0862295 5.1106424,17.6316708 6.03254599,18.0251563 C6.95444958,18.4186418 7.94357531,18.6153846 8.99992317,18.6153846 C10.056271,18.6153846 11.0469973,18.4186418 11.9721019,18.0251563 C12.8972066,17.6316708 13.7070733,17.0862295 14.401702,16.3888323 C15.0963308,15.6914352 15.64051,14.8820707 16.0342396,13.9607387 C16.4279693,13.0394067 16.6216331,12.0508943 16.615231,10.9952014 C16.615231,9.93950851 16.4183661,8.95099607 16.0246365,8.0296641 C15.6309068,7.10833212 15.0851271,6.29896757 14.3872973,5.60157045 C13.6894675,4.90417333 12.8796008,4.36033154 11.9576972,3.97004508 C11.0357936,3.57975862 10.0466679,3.38461538 8.99032001,3.38461538 Z M9,6 C9.41421356,6 9.75,6.33578644 9.75,6.75 L9.75,10.59 L13.5,10.59 C13.9142136,10.59 14.25,10.9257864 14.25,11.34 C14.25,11.7542136 13.9142136,12.09 13.5,12.09 L9,12.09 C8.58578644,12.09 8.25,11.7542136 8.25,11.34 L8.25137551,11.2958001 C8.2504629,11.2806503 8.25,11.2653792 8.25,11.25 L8.25,6.75 C8.25,6.33578644 8.58578644,6 9,6 Z"/></svg>