<svg xmlns="http://www.w3.org/2000/svg" width="18" height="18" viewBox="0 0 18 18"><g fill="none" fill-rule="evenodd"><rect width="18" height="18"/><g transform="translate(1 2)"><path stroke="#000" stroke-linecap="round" stroke-linejoin="round" stroke-width="1.5" d="M16,7 C16,10.866 12.4183,14 8,14 C6.63173,14 5.34375,13.6994 4.21748,13.1697 L0,14 L1.23999,10.745 C0.45472,9.662 0,8.37751 0,7 C0,3.13401 3.58172,0 8,0 C12.4183,0 16,3.13401 16,7 Z"/><path fill="#000" d="M4.44443,7.875 C4.93535,7.875 5.33332,7.48325 5.33332,7 C5.33332,6.51675 4.93535,6.125 4.44443,6.125 C3.95351,6.125 3.55554,6.51675 3.55554,7 C3.55554,7.48325 3.95351,7.875 4.44443,7.875 Z M7.99999,7.875 C8.49091,7.875 8.88888,7.48325 8.88888,7 C8.88888,6.51675 8.49091,6.125 7.99999,6.125 C7.50907,6.125 7.1111,6.51675 7.1111,7 C7.1111,7.48325 7.50907,7.875 7.99999,7.875 Z M11.5555,7.875 C12.0465,7.875 12.4444,7.48325 12.4444,7 C12.4444,6.51675 12.0465,6.125 11.5555,6.125 C11.0646,6.125 10.6667,6.51675 10.6667,7 C10.6667,7.48325 11.0646,7.875 11.5555,7.875 Z"/></g></g></svg>