<svg xmlns="http://www.w3.org/2000/svg" width="18" height="18" viewBox="0 0 18 18"><g fill="none" fill-rule="evenodd"><rect width="18" height="18"/><path fill="#000" fill-rule="nonzero" d="M10.8645,6.44996 L10.8645,3.04998 C10.8645,2.37369 10.5915,1.72509 10.10554,1.246873 C9.61961,0.768658 8.96055,0.5 8.27334,0.5 L4.64578,8.25195 L4.64578,17.5 L14.5611,17.5 C14.9777,17.5045 15.382,17.3608 15.6994,17.0953 C16.0168,16.8298 16.2261,16.4603 16.2885,16.0549 L17.4804,8.40495 C17.518,8.1613 17.5013,7.91253 17.4315,7.67587 C17.3617,7.4392 17.2404,7.22031 17.0761,7.03434 C16.9118,6.84838 16.7084,6.6998 16.4799,6.5989 C16.2514,6.49799 16.0034,6.44717 15.753,6.44996 L10.8645,6.44996 Z M4.64578,17.4999 L4.5,17.5 L4,17.5 L3.5,17.5 C3.04186,17.5 1.329899,17.3208 1.005947,17.002 C0.681994,16.6832 0.5,16.2508 0.5,15.7999 L0.5,9.84994 C0.5,9.39907 0.681994,8.96668 1.005947,8.64787 C1.329899,8.32906 3.04186,8.40495 3.5,8.40495 L3.5,17.5"/></g></svg>