<svg xmlns="http://www.w3.org/2000/svg" width="18" height="18" viewBox="0 0 18 18"><g fill="none" fill-rule="evenodd"><rect width="18" height="18"/><path stroke="#000" stroke-linecap="round" stroke-linejoin="round" stroke-width="1.5" d="M5.16834,16.91336 L2.79334,16.91336 C2.37341,16.91336 1.97068,16.74656 1.67375,16.44956 C1.37682,16.15266 1.21,15.74996 1.21,15.32996 L1.21,9.78836 C1.21,9.36841 1.37682,8.96568 1.67375,8.66875 C1.97068,8.37182 2.37341,8.205 2.79334,8.205 L5.16834,8.205 M10.70999,6.62167 L10.70999,3.455 C10.70999,2.82511 10.45979,2.22102 10.01439,1.77562 C9.56898,1.33023 8.96489,1.08 8.335,1.08 L5.16834,8.205 L5.16834,16.9134605 L14.09829,16.9134605 C14.48019,16.91766 14.85069,16.78386 15.14169,16.53646 C15.43259,16.28916 15.62439,15.94506 15.68169,15.56746 L16.77419,8.4425 C16.80859,8.21558 16.79329,7.98388 16.72929,7.76345 C16.66529,7.54303 16.55419,7.33915 16.40359,7.16595 C16.25299,6.99275 16.06649,6.85437 15.85709,6.76038 C15.64769,6.6664 15.42039,6.61907 15.19079,6.62167 L10.70999,6.62167 Z"/></g></svg>