<svg xmlns="http://www.w3.org/2000/svg" width="18" height="18" viewBox="0 0 18 18"><g fill="none" fill-rule="evenodd"><rect width="18" height="18"/><g stroke="#000" stroke-linecap="round" stroke-linejoin="round" stroke-width="1.5" transform="translate(1.87 1.08)"><path d="M11.875 4.75C13.1867 4.75 14.25 3.68668 14.25 2.375 14.25 1.06333 13.1867-8.8817842e-16 11.875-8.8817842e-16 10.5633-8.8817842e-16 9.5 1.06333 9.5 2.375 9.5 3.68668 10.5633 4.75 11.875 4.75ZM2.375 10.29166C3.68668 10.29166 4.75 9.22836 4.75 7.91666 4.75 6.60498 3.68668 5.54166 2.375 5.54166 1.06332 5.54166 0 6.60498 0 7.91666 0 9.22836 1.06332 10.29166 2.375 10.29166ZM11.875 15.83336C13.1867 15.83336 14.25 14.76996 14.25 13.45836 14.25 12.14666 13.1867 11.08336 11.875 11.08336 10.5633 11.08336 9.5 12.14666 9.5 13.45836 9.5 14.76996 10.5633 15.83336 11.875 15.83336Z"/><line x1="4.425" x2="9.832" y1="9.112" y2="12.263"/><line x1="9.825" x2="4.425" y1="3.57" y2="6.721"/></g></g></svg>