<svg xmlns="http://www.w3.org/2000/svg" width="17" height="16" viewBox="0 0 17 16"><path d="M3.28888889,11.2791878 L1,11.2791878 L1,16.9898477 L6.72222222,16.9898477 L6.72222222,14.7055838 L3.28888889,14.7055838 L3.28888889,11.2791878 Z M1,6.7106599 L3.28888889,6.7106599 L3.28888889,3.28426396 L6.72222222,3.28426396 L6.72222222,1 L1,1 L1,6.7106599 Z M14.7333333,14.7055838 L11.3,14.7055838 L11.3,16.9898477 L17.0222222,16.9898477 L17.0222222,11.2791878 L14.7333333,11.2791878 L14.7333333,14.7055838 Z M11.3,1 L11.3,3.28426396 L14.7333333,3.28426396 L14.7333333,6.7106599 L17.0222222,6.7106599 L17.0222222,1 L11.3,1 Z" transform="translate(-1 -1)"/></svg>