<svg xmlns="http://www.w3.org/2000/svg" width="22" height="22" viewBox="0 0 22 22"><path fill="#2D3748" d="M6.42539455,21.5 C6.67981827,21.5 6.91248207,21.4309211 7.12338594,21.2927632 C7.33428981,21.1546053 7.59708274,20.9438259 7.91176471,20.6604251 L11.1757532,17.5890688 L17.0911047,17.5890688 C18.0351506,17.5890688 18.8352463,17.4066296 19.4913917,17.041751 C20.1475371,16.6768725 20.6463415,16.1472672 20.9878049,15.4529352 C21.3292683,14.7586032 21.5,13.9154858 21.5,12.923583 L21.5,5.17611336 C21.5,4.18421053 21.3292683,3.34109312 20.9878049,2.64676113 C20.6463415,1.95242915 20.1475371,1.42105263 19.4913917,1.05263158 C18.8352463,0.684210526 18.0351506,0.5 17.0911047,0.5 L4.90889527,0.5 C3.96484935,0.5 3.16475371,0.682439271 2.50860832,1.04731781 C1.85246294,1.41219636 1.35365854,1.94357287 1.01219512,2.64144737 C0.670731707,3.33932186 0.5,4.18421053 0.5,5.17611336 L0.5,12.923583 C0.5,13.9154858 0.672405548,14.7603745 1.01721664,15.458249 C1.36202774,16.1561235 1.86083214,16.6857287 2.51362984,17.0470648 C3.16642755,17.4084008 3.95480631,17.5890688 4.87876614,17.5890688 L5.30057389,17.5890688 L5.30057389,20.1396761 C5.30057389,20.5506073 5.39765662,20.8800607 5.59182209,21.1280364 C5.78598757,21.3760121 6.06384505,21.5 6.42539455,21.5 Z M6.85724534,19.4595142 L6.85724534,16.5794534 C6.85724534,16.2889676 6.79866093,16.083502 6.68149211,15.9630567 C6.56432329,15.8426113 6.37183166,15.7823887 6.10401722,15.7823887 L4.94906743,15.7823887 C4.01841224,15.7823887 3.33046389,15.5379555 2.88522238,15.0490891 C2.43998087,14.5602227 2.21736011,13.8410931 2.21736011,12.8917004 L2.21736011,5.20799595 C2.21736011,4.25860324 2.43998087,3.53947368 2.88522238,3.05060729 C3.33046389,2.56174089 4.01841224,2.31730769 4.94906743,2.31730769 L17.0509326,2.31730769 C17.9815878,2.31730769 18.6712099,2.56174089 19.1197991,3.05060729 C19.5683883,3.53947368 19.7926829,4.25860324 19.7926829,5.20799595 L19.7926829,12.8917004 C19.7926829,13.8410931 19.5683883,14.5602227 19.1197991,15.0490891 C18.6712099,15.5379555 17.9815878,15.7823887 17.0509326,15.7823887 L11.0954089,15.7823887 C10.8142037,15.7823887 10.5882353,15.8142713 10.4175036,15.8780364 C10.2467719,15.9418016 10.067671,16.0799595 9.88020086,16.2925101 L6.85724534,19.4595142 Z M6.2,7.98178138 C6.2,8.56275304 6.36658696,9.04984818 6.69976088,9.4430668 C7.0329348,9.83628543 7.48359637,10.0328947 8.05174558,10.0328947 C8.26217121,10.0328947 8.4673362,10.0045547 8.66724055,9.94787449 C8.86714491,9.89119433 9.03373187,9.77783401 9.16700143,9.60779352 L9.25117169,9.60779352 C9.13894468,9.88410931 8.9863861,10.1267713 8.79349593,10.3357794 C8.60060577,10.5447874 8.38842659,10.7183704 8.15695839,10.8565283 C7.9254902,10.9946862 7.694022,11.0921053 7.4625538,11.1487854 C7.28719911,11.1983806 7.16445082,11.263917 7.09430894,11.3453947 C7.02416707,11.4268725 6.98909613,11.527834 6.98909613,11.6482794 C6.98909613,11.7828947 7.03644189,11.8944838 7.13113343,11.9830466 C7.22582496,12.0716093 7.34331261,12.1158907 7.48359637,12.1158907 C7.74312131,12.1158907 8.04473139,12.0379555 8.38842659,11.882085 C8.73212179,11.7262146 9.06529571,11.4924089 9.38794835,11.180668 C9.71060099,10.8689271 9.98064722,10.479251 10.198087,10.0116397 C10.4155269,9.54402834 10.5242468,8.99848178 10.5242468,8.375 C10.5242468,7.68066802 10.3208353,7.0979251 9.91401243,6.62677126 C9.50718954,6.15561741 8.97411127,5.92004049 8.31477762,5.92004049 C7.71155747,5.92004049 7.20828949,6.11310729 6.8049737,6.49924089 C6.4016579,6.88537449 6.2,7.37955466 6.2,7.98178138 Z M11.5,7.98178138 C11.5,8.56275304 11.666587,9.04984818 11.9997609,9.4430668 C12.3329348,9.83628543 12.7835964,10.0328947 13.3517456,10.0328947 C13.5621712,10.0328947 13.7673362,10.0045547 13.9672406,9.94787449 C14.1671449,9.89119433 14.3302248,9.77783401 14.4564802,9.60779352 L14.561693,9.60779352 C14.4424518,9.88410931 14.2863861,10.1267713 14.0934959,10.3357794 C13.9006058,10.5447874 13.6884266,10.7183704 13.4569584,10.8565283 C13.2254902,10.9946862 12.994022,11.0921053 12.7625538,11.1487854 C12.5871991,11.1983806 12.4644508,11.263917 12.3943089,11.3453947 C12.3241671,11.4268725 12.2890961,11.527834 12.2890961,11.6482794 C12.2890961,11.7828947 12.3364419,11.8944838 12.4311334,11.9830466 C12.525825,12.0716093 12.6433126,12.1158907 12.7835964,12.1158907 C13.0431213,12.1158907 13.3447314,12.0379555 13.6884266,11.882085 C14.0321218,11.7262146 14.3652957,11.4924089 14.6879484,11.180668 C15.010601,10.8689271 15.2806472,10.479251 15.498087,10.0116397 C15.7155269,9.54402834 15.8242468,8.99848178 15.8242468,8.375 C15.8242468,7.68066802 15.6208353,7.0979251 15.2140124,6.62677126 C14.8071895,6.15561741 14.2741113,5.92004049 13.6147776,5.92004049 C13.0115575,5.92004049 12.5082895,6.11310729 12.1049737,6.49924089 C11.7016579,6.88537449 11.5,7.37955466 11.5,7.98178138 Z"/></svg>