<svg xmlns="http://www.w3.org/2000/svg" width="20" height="20" viewBox="0 0 20 20"><path d="M10.0051467,20 C11.3707325,20 12.6574026,19.7375193 13.865157,19.2125579 C15.0729113,18.6875965 16.1365586,17.9653457 17.0560988,17.0458055 C17.975639,16.1262652 18.6961743,15.0643335 19.2177046,13.8600103 C19.7392349,12.6556871 20,11.3673014 20,9.99485332 C20,8.62926746 19.7375193,7.34259736 19.2125579,6.13484303 C18.6875965,4.92708869 17.9653457,3.86172585 17.0458055,2.9387545 C16.1262652,2.01578315 15.0626179,1.2952479 13.8548636,0.777148739 C12.6471093,0.25904958 11.3604392,0 9.99485332,0 C8.62926746,0 7.34431292,0.25904958 6.13998971,0.777148739 C4.9356665,1.2952479 3.87201921,2.01578315 2.94904786,2.9387545 C2.02607651,3.86172585 1.3038257,4.92708869 0.782295419,6.13484303 C0.26076514,7.34259736 0,8.62926746 0,9.99485332 C0,11.3673014 0.2624807,12.6556871 0.7874421,13.8600103 C1.3124035,15.0643335 2.03465431,16.1262652 2.95419454,17.0458055 C3.87373477,17.9653457 4.9356665,18.6875965 6.13998971,19.2125579 C7.34431292,19.7375193 8.63269858,20 10.0051467,20 Z M6.46446843,5.95584345 C8.41709299,4.01471885 11.5829409,4.01471885 13.5355155,5.95584345 C15.4881615,7.89696805 15.4881615,11.0441708 13.5355155,12.9852456 L10,16.5 L6.46446843,12.9852456 C4.51184386,11.0441708 4.51184386,7.89696805 6.46446843,5.95584345 Z M10.0000098,10.8907224 C10.7890111,10.8907224 11.4285835,10.2549167 11.4285835,9.4705623 C11.4285835,8.68622915 10.7890111,8.05040215 10.0000098,8.05040215 C9.21102998,8.05040215 8.5714361,8.68622915 8.5714361,9.4705623 C8.5714361,10.2549167 9.21102998,10.8907224 10.0000098,10.8907224 Z"/></svg>