<svg xmlns="http://www.w3.org/2000/svg" width="20" height="20" viewBox="0 0 20 20"><path d="M10.0051467,20 C11.3707325,20 12.6574026,19.7375193 13.865157,19.2125579 C15.0729113,18.6875965 16.1365586,17.9653457 17.0560988,17.0458055 C17.975639,16.1262652 18.6961743,15.0643335 19.2177046,13.8600103 C19.7392349,12.6556871 20,11.3673014 20,9.99485332 C20,8.62926746 19.7375193,7.34259736 19.2125579,6.13484303 C18.6875965,4.92708869 17.9653457,3.86172585 17.0458055,2.9387545 C16.1262652,2.01578315 15.0626179,1.2952479 13.8548636,0.777148739 C12.6471093,0.25904958 11.3604392,0 9.99485332,0 C8.62926746,0 7.34431292,0.25904958 6.13998971,0.777148739 C4.9356665,1.2952479 3.87201921,2.01578315 2.94904786,2.9387545 C2.02607651,3.86172585 1.3038257,4.92708869 0.782295419,6.13484303 C0.26076514,7.34259736 0,8.62926746 0,9.99485332 C0,11.3673014 0.2624807,12.6556871 0.7874421,13.8600103 C1.3124035,15.0643335 2.03465431,16.1262652 2.95419454,17.0458055 C3.87373477,17.9653457 4.9356665,18.6875965 6.13998971,19.2125579 C7.34431292,19.7375193 8.63269858,20 10.0051467,20 Z M16,8.588425 L16,13 C16,13.82845 15.32845,14.5 14.5,14.5 L14.5,14.5 L5.5,14.5 C4.6715725,14.5 4,13.82845 4,13 L4,13 L4,8.588425 L9.9999625,11.588425 L16,8.588425 Z M14.5,5.5 C15.299125,5.5 15.952225,6.1248625 15.997525,6.912625 L15.997525,6.912625 L9.9999625,9.911395 L4.0024975,6.9126625 C4.0477225,6.124885 4.70089,5.5 5.5,5.5 L5.5,5.5 Z"/></svg>