<svg xmlns="http://www.w3.org/2000/svg" width="20" height="20" viewBox="0 0 20 20"><path d="M10.0051467,20 C11.3707325,20 12.6574026,19.7375193 13.865157,19.2125579 C15.0729113,18.6875965 16.1365586,17.9653457 17.0560988,17.0458055 C17.975639,16.1262652 18.6961743,15.0643335 19.2177046,13.8600103 C19.7392349,12.6556871 20,11.3673014 20,9.99485332 C20,8.62926746 19.7375193,7.34259736 19.2125579,6.13484303 C18.6875965,4.92708869 17.9653457,3.86172585 17.0458055,2.9387545 C16.1262652,2.01578315 15.0626179,1.2952479 13.8548636,0.777148739 C12.6471093,0.25904958 11.3604392,0 9.99485332,0 C8.62926746,0 7.34431292,0.25904958 6.13998971,0.777148739 C4.9356665,1.2952479 3.87201921,2.01578315 2.94904786,2.9387545 C2.02607651,3.86172585 1.3038257,4.92708869 0.782295419,6.13484303 C0.26076514,7.34259736 0,8.62926746 0,9.99485332 C0,11.3673014 0.2624807,12.6556871 0.7874421,13.8600103 C1.3124035,15.0643335 2.03465431,16.1262652 2.95419454,17.0458055 C3.87373477,17.9653457 4.9356665,18.6875965 6.13998971,19.2125579 C7.34431292,19.7375193 8.63269858,20 10.0051467,20 Z M7.57591354,12.3520329 C6.98576085,11.7618803 6.46594613,11.1459942 6.01646938,10.5043747 C5.56699262,9.86275519 5.22731172,9.22456682 4.99742666,8.58980957 C4.7675416,7.95505232 4.68347916,7.35117516 4.74523932,6.77817808 C4.80699949,6.20518099 5.05747126,5.69909075 5.49665466,5.25990736 C5.51724138,5.23932064 5.5378281,5.21873392 5.55841482,5.1981472 C5.57900154,5.17756047 5.60645051,5.16040487 5.64076171,5.14668039 C5.86035341,4.97512438 6.07479842,4.85331961 6.28409676,4.78126608 C6.49339509,4.70921256 6.68725339,4.70063476 6.86567164,4.75553268 C7.0440899,4.81043061 7.20192143,4.93395093 7.33916624,5.12609367 L8.57436953,6.86567164 C8.78709899,7.16761022 8.87630811,7.42322868 8.84199691,7.63252702 C8.80768571,7.84182536 8.67387202,8.06313261 8.44055584,8.29644879 L8.04940813,8.70818322 C7.98764797,8.78366787 7.96191457,8.86258363 7.97220793,8.94493052 C7.98250129,9.02727741 8.00137245,9.09246869 8.02882141,9.14050437 C8.13175502,9.31206039 8.29644879,9.5350832 8.52290273,9.80957283 C8.74935666,10.0840624 8.99982844,10.3619832 9.27431806,10.643335 C9.55566993,10.9246869 9.83187511,11.1751587 10.1029336,11.3947504 C10.3739921,11.6143421 10.5987305,11.7790359 10.7771487,11.8888317 C10.8457711,11.9300051 10.9246869,11.9505919 11.013896,11.9505919 C11.1031052,11.9505919 11.1751587,11.9231429 11.2300566,11.868245 L11.6212043,11.4770973 C11.8476583,11.2506433 12.0689655,11.1202608 12.2851261,11.0859496 C12.5012867,11.0516384 12.7569051,11.1374164 13.0519815,11.3432836 C13.3196089,11.5285641 13.5546406,11.6932578 13.7570767,11.8373649 C13.9595128,11.981472 14.1482244,12.1152856 14.3232115,12.238806 C14.4981987,12.3623263 14.664608,12.4824155 14.8224395,12.5990736 C15.1175159,12.8186653 15.249614,13.081146 15.2187339,13.3865157 C15.1878538,13.6918854 15.0591868,13.9715217 14.8327329,14.2254246 C14.8052839,14.2597358 14.7795505,14.294047 14.7555327,14.3283582 C14.7315148,14.3626694 14.7023503,14.3969806 14.6680391,14.4312918 C14.2219935,14.8704752 13.7141877,15.120947 13.1446217,15.1827072 C12.5750558,15.2444673 11.9711786,15.1604049 11.3329902,14.9305198 C10.6948019,14.7006348 10.0548979,14.3592383 9.41327844,13.9063304 C8.77165895,13.4534225 8.15920398,12.9353234 7.57591354,12.3520329 Z"/></svg>