<svg xmlns="http://www.w3.org/2000/svg" width="64" height="40" viewBox="0 0 64 40"><path d="M29.0936613,26.0830189 C29.0936613,23.5069182 28.5234942,21.1823899 27.3831599,19.109434 C26.2428256,17.036478 24.6937874,15.3811321 22.7360454,14.1433962 C20.7783034,12.9056604 18.5783664,12.2867925 16.1362346,12.2867925 C14.4005046,12.2867925 12.7555976,12.6188679 11.2015137,13.2830189 C9.64742983,13.9471698 8.27499212,14.9433962 7.08420057,16.2716981 L6.20624409,16.2716981 C6.75118259,14.5006289 7.64427625,12.8402516 8.88552507,11.290566 C10.1267739,9.7408805 11.6304005,8.38742138 13.3964049,7.23018868 C15.1624093,6.07295597 17.1151056,5.19245283 19.2544939,4.58867925 C19.7187007,4.44779874 20.1173132,4.30691824 20.4503311,4.16603774 C20.7833491,4.02515723 21.0406812,3.86415094 21.2223273,3.68301887 C21.4645222,3.48176101 21.6512141,3.25534591 21.782403,3.00377358 C21.9135919,2.75220126 21.9791864,2.45534591 21.9791864,2.11320755 C21.9791864,1.48930818 21.7571744,0.981132075 21.3131504,0.588679245 C20.8691265,0.196226415 20.2939136,0 19.5875118,0 C19.0829391,0 18.6086408,0.0503144654 18.1646168,0.150943396 C17.7205929,0.251572327 17.1655629,0.402515723 16.499527,0.603773585 C14.5417849,1.26792453 12.6950489,2.14339623 10.9593188,3.23018868 C9.22358877,4.31698113 7.66950489,5.58490566 6.29706717,7.03396226 C4.31914223,9.04654088 2.7751498,11.391195 1.66508988,14.0679245 C0.555029959,16.7446541 0,19.672956 0,22.8528302 C0,26.4754717 0.691264585,29.5647799 2.07379376,32.1207547 C3.45632293,34.6767296 5.28792179,36.6289308 7.56859035,37.9773585 C9.84925891,39.3257862 12.3519395,40 15.076632,40 C17.7407758,40 20.1274046,39.391195 22.2365184,38.1735849 C24.3456323,36.9559748 26.0157679,35.2955975 27.2469253,33.1924528 C28.4780826,31.0893082 29.0936613,28.7194969 29.0936613,26.0830189 Z M64,26.0830189 C64,23.5069182 63.4298329,21.1823899 62.2894986,19.109434 C61.1491643,17.036478 59.6001261,15.3811321 57.6423841,14.1433962 C55.6846421,12.9056604 53.4947966,12.2867925 51.0728477,12.2867925 C49.3169347,12.2867925 47.6619363,12.6188679 46.1078524,13.2830189 C44.5537685,13.9471698 43.1914223,14.9433962 42.0208136,16.2716981 L41.1428571,16.2716981 C41.6676127,14.5006289 42.5506149,12.8402516 43.7918638,11.290566 C45.0331126,9.7408805 46.5367392,8.38742138 48.3027436,7.23018868 C50.068748,6.07295597 52.0214443,5.19245283 54.1608325,4.58867925 C54.6250394,4.44779874 55.0236518,4.30691824 55.3566698,4.16603774 C55.6896878,4.02515723 55.9571113,3.86415094 56.1589404,3.68301887 C56.4011353,3.48176101 56.5827815,3.25534591 56.7038789,3.00377358 C56.8249763,2.75220126 56.8855251,2.45534591 56.8855251,2.11320755 C56.8855251,1.48930818 56.6635131,0.981132075 56.2194891,0.588679245 C55.7754652,0.196226415 55.2103437,0 54.5241249,0 C53.9993693,0 53.5200252,0.0503144654 53.0860927,0.150943396 C52.6521602,0.251572327 52.0920845,0.402515723 51.4058657,0.603773585 C49.4683065,1.26792453 47.6266162,2.14339623 45.8807947,3.23018868 C44.1349732,4.31698113 42.5657521,5.58490566 41.1731315,7.03396226 C39.2355724,9.04654088 37.7168086,11.391195 36.6168401,14.0679245 C35.5168716,16.7446541 34.9668874,19.672956 34.9668874,22.8528302 C34.9668874,26.4754717 35.6480605,29.5647799 37.0104068,32.1207547 C38.3727531,34.6767296 40.1942605,36.6289308 42.474929,37.9773585 C44.7555976,39.3257862 47.2683696,40 50.013245,40 C52.6773888,40 55.0640177,39.391195 57.1731315,38.1735849 C59.2822453,36.9559748 60.9473352,35.2955975 62.1684011,33.1924528 C63.389467,31.0893082 64,28.7194969 64,26.0830189 Z"/></svg>