<svg xmlns="http://www.w3.org/2000/svg" width="20" height="20" viewBox="0 0 20 20"><path fill-rule="evenodd" d="M10,0 C15.5228475,0 20,4.4771525 20,10 C20,15.5228475 15.5228475,20 10,20 C4.4771525,20 0,15.5228475 0,10 C0,4.4771525 4.4771525,0 10,0 Z M9.99497768,10.9975446 C9.13932292,10.9975446 8.36853609,11.1254278 7.68261719,11.3811942 C6.99669829,11.6369606 6.41192336,11.9694568 5.92829241,12.378683 C5.44466146,12.7879092 5.07380022,13.2261998 4.81570871,13.6935547 C4.55761719,14.1609096 4.42857143,14.6085007 4.42857143,15.0363281 C4.42857143,15.3199963 4.53087798,15.542048 4.73549107,15.7024833 C4.94010417,15.8629185 5.22377232,15.9431362 5.58649554,15.9431362 L14.4034598,15.9431362 C14.7615327,15.9431362 15.0428757,15.8629185 15.2474888,15.7024833 C15.4521019,15.542048 15.5544085,15.3199963 15.5544085,15.0363281 C15.5544085,14.6085007 15.4265253,14.1609096 15.1707589,13.6935547 C14.9149926,13.2261998 14.5441313,12.7879092 14.0581752,12.378683 C13.5722191,11.9694568 12.9874442,11.6369606 12.3038504,11.3811942 C11.6202567,11.1254278 10.8506324,10.9975446 9.99497768,10.9975446 Z M10.0019531,4.05 C9.52762277,4.05 9.08816964,4.17555804 8.68359375,4.42667411 C8.27901786,4.67779018 7.9546596,5.01958705 7.71051897,5.45206473 C7.46637835,5.88454241 7.34663318,6.36817336 7.35128348,6.90295759 C7.35128348,7.44704241 7.47219122,7.93997396 7.7140067,8.38175223 C7.95582217,8.82353051 8.27785528,9.1734654 8.68010603,9.43155692 C9.08235677,9.68964844 9.52297247,9.8186942 10.0019531,9.8186942 C10.4762835,9.8186942 10.9134115,9.68964844 11.3133371,9.43155692 C11.7132626,9.1734654 12.0352958,8.82353051 12.2794364,8.38175223 C12.523577,7.93997396 12.6456473,7.44239211 12.6456473,6.8890067 C12.6456473,6.34957217 12.523577,5.86594122 12.2794364,5.43811384 C12.0352958,5.01028646 11.7132626,4.67197731 11.3133371,4.42318638 C10.9134115,4.17439546 10.4762835,4.05 10.0019531,4.05 Z"/></svg>