<svg xmlns="http://www.w3.org/2000/svg" width="26" height="23" viewBox="0 0 26 23"><path fill="#19202C" d="M15.1969365,20.09172 L9.8030635,20.09172 L9.8030635,13.33599 C9.8030635,13.09472 9.8778264,12.90096 10.0273523,12.75474 C10.1768782,12.60851 10.3719912,12.53539 10.6126915,12.53539 L14.3982495,12.53539 C14.6389497,12.53539 14.8322392,12.60851 14.9781182,12.75474 C15.1239971,12.90096 15.1969365,13.09472 15.1969365,13.33599 L15.1969365,20.09172 Z M3.3041575,19.65304 C3.3041575,20.39149 3.515682,20.96726 3.9387309,21.38036 C4.3617797,21.79345 4.9452954,22 5.6892779,22 L19.321663,22 C20.0729395,22 20.6601021,21.79345 21.083151,21.38036 C21.5061999,20.96726 21.7177243,20.39149 21.7177243,19.65304 L21.7177243,11.60319 L13.1291028,4.38684 C12.7206419,4.02858 12.3048869,4.02858 11.8818381,4.38684 L3.3041575,11.59222 L3.3041575,19.65304 Z M0,10.36391 C0,10.60518 0.0893508,10.81722 0.2680525,11 C0.4467542,11.18278 0.6856309,11.27418 0.9846827,11.27418 C1.1378556,11.27418 1.281911,11.23945 1.416849,11.16999 C1.551787,11.10053 1.6739606,11.01462 1.7833698,10.91226 L12.1115974,2.23729 C12.2355945,2.12031 12.368709,2.06181 12.5109409,2.06181 C12.6531729,2.06181 12.7899344,2.12031 12.9212254,2.23729 L23.2275711,10.91226 C23.3442743,11.01462 23.4700948,11.10053 23.6050328,11.16999 C23.7399708,11.23945 23.8840263,11.27418 24.0371991,11.27418 C24.3070751,11.27418 24.5350109,11.19558 24.7210066,11.03838 C24.9070022,10.88119 25,10.66368 25,10.38584 C25,10.06414 24.8796499,9.80093 24.6389497,9.59621 L13.8730853,0.52642 C13.4573304,0.17547 13.0069292,0 12.5218818,0 C12.0368344,0 11.5827863,0.17547 11.1597374,0.52642 L0.3829322,9.59621 C0.1276441,9.80824 0,10.06414 0,10.36391 Z M18.9606127,5.49452 L21.7396061,7.84148 L21.7396061,2.92822 C21.7396061,2.70156 21.6703136,2.51878 21.5317287,2.37986 C21.3931437,2.24094 21.210795,2.17149 20.9846827,2.17149 L19.726477,2.17149 C19.5003647,2.17149 19.3161926,2.24094 19.1739606,2.37986 C19.0317287,2.51878 18.9606127,2.70156 18.9606127,2.92822 L18.9606127,5.49452 Z" transform="translate(.5 .5)"/></svg>