<svg xmlns="http://www.w3.org/2000/svg" width="23" height="23" viewBox="0 0 23 23"><path fill="#19202C" d="M11.5056613,22.5 C13.0078058,22.5 14.4231429,22.2112712 15.7516727,21.6338137 C17.0802024,21.0563562 18.2502144,20.2618803 19.2617087,19.250386 C20.273203,18.2388917 21.0657917,17.0707669 21.639475,15.7460113 C22.2131583,14.4212558 22.5,13.0040316 22.5,11.4943387 C22.5,9.9921942 22.2112712,8.57685709 21.6338137,7.24832733 C21.0563562,5.91979756 20.2618803,4.74789844 19.250386,3.73262995 C18.2388917,2.71736147 17.0688797,1.92477269 15.74035,1.35486361 C14.4118202,0.784954538 12.9964831,0.5 11.4943387,0.5 C9.9921942,0.5 8.57874421,0.784954538 7.25398868,1.35486361 C5.92923314,1.92477269 4.75922114,2.71736147 3.74395265,3.73262995 C2.72868417,4.74789844 1.93420827,5.91979756 1.36052496,7.24832733 C0.786841654,8.57685709 0.5,9.9921942 0.5,11.4943387 C0.5,13.0040316 0.78872877,14.4212558 1.36618631,15.7460113 C1.94364385,17.0707669 2.73811975,18.2388917 3.749614,19.250386 C4.76110825,20.2618803 5.92923314,21.0563562 7.25398868,21.6338137 C8.57874421,22.2112712 9.99596843,22.5 11.5056613,22.5 Z M6.33118888,13.124807 C5.87828101,13.124807 5.48953508,12.9644021 5.16495111,12.6435924 C4.84036713,12.3227826 4.67807514,11.9359238 4.67807514,11.483016 C4.67807514,11.0301081 4.84036713,10.6432493 5.16495111,10.3224395 C5.48953508,10.0016298 5.87828101,9.84122491 6.33118888,9.84122491 C6.78409676,9.84122491 7.17284268,10.0016298 7.49742666,10.3224395 C7.82201064,10.6432493 7.98430262,11.0301081 7.98430262,11.483016 C7.98430262,11.9359238 7.82389775,12.3227826 7.50308801,12.6435924 C7.18227826,12.9644021 6.79164522,13.124807 6.33118888,13.124807 Z M11.4943387,13.124807 C11.0414308,13.124807 10.654572,12.9644021 10.3337622,12.6435924 C10.0129525,12.3227826 9.85254761,11.9359238 9.85254761,11.483016 C9.85254761,11.0301081 10.0129525,10.6432493 10.3337622,10.3224395 C10.654572,10.0016298 11.0414308,9.84122491 11.4943387,9.84122491 C11.954795,9.84122491 12.345428,10.0016298 12.6662378,10.3224395 C12.9870475,10.6432493 13.1474524,11.0301081 13.1474524,11.483016 C13.1474524,11.9359238 12.9870475,12.3227826 12.6662378,12.6435924 C12.345428,12.9644021 11.954795,13.124807 11.4943387,13.124807 Z M16.6688111,13.124807 C16.2159032,13.124807 15.8271573,12.9644021 15.5025733,12.6435924 C15.1779894,12.3227826 15.0156974,11.9359238 15.0156974,11.483016 C15.0156974,11.0301081 15.1779894,10.6432493 15.5025733,10.3224395 C15.8271573,10.0016298 16.2159032,9.84122491 16.6688111,9.84122491 C17.121719,9.84122491 17.5085778,10.0016298 17.8293875,10.3224395 C18.1501973,10.6432493 18.3106022,11.0301081 18.3106022,11.483016 C18.3106022,11.9359238 18.1501973,12.3227826 17.8293875,12.6435924 C17.5085778,12.9644021 17.121719,13.124807 16.6688111,13.124807 Z"/></svg>