<svg xmlns="http://www.w3.org/2000/svg" width="21" height="23" viewBox="0 0 21 23"><path fill-rule="evenodd" d="M16.0300752,15.6904762 C16.4640132,15.6904762 16.8157895,16.0422525 16.8157895,16.4761905 C16.8157895,16.9101285 16.4640132,17.2619048 16.0300752,17.2619048 L4.96992481,17.2619048 C4.53598679,17.2619048 4.18421053,16.9101285 4.18421053,16.4761905 C4.18421053,16.0422525 4.53598679,15.6904762 4.96992481,15.6904762 L16.0300752,15.6904762 Z M13.8424072,4.6278774 C13.9057417,4.65395823 13.9543773,4.70660629 13.9753661,4.77180552 L16.7668349,13.4431667 C16.7865345,13.5043611 16.7528963,13.5699387 16.6917019,13.5896383 C16.6801757,13.5933488 16.6681412,13.5952381 16.6560326,13.5952381 L4.41064996,13.5952381 C4.34636284,13.5952381 4.29424784,13.5431231 4.29424784,13.478836 C4.29424784,13.4545397 4.30185045,13.4308523 4.31599003,13.4110942 L8.04263762,8.20361151 C8.11746313,8.09905304 8.26288259,8.07494971 8.36744106,8.14977523 C8.38119559,8.15961842 8.39383646,8.17093124 8.40513983,8.18351333 L10.8330806,10.8861213 C10.8760434,10.9339442 10.9496397,10.9378843 10.9974627,10.8949216 C11.0104553,10.8832494 11.0206547,10.8688031 11.0273052,10.8526533 L13.5384948,4.75449834 C13.5874525,4.63560983 13.7235187,4.57891971 13.8424072,4.6278774 Z M3.5,0.5 L17.5,0.5 C19.1568542,0.5 20.5,1.84314575 20.5,3.5 L20.5,19.5 C20.5,21.1568542 19.1568542,22.5 17.5,22.5 L3.5,22.5 C1.84314575,22.5 0.5,21.1568542 0.5,19.5 L0.5,3.5 C0.5,1.84314575 1.84314575,0.5 3.5,0.5 Z"/></svg>