<svg xmlns="http://www.w3.org/2000/svg" width="23" height="23" viewBox="0 0 23 23"><path fill="#19202C" d="M7.20373027,22.5 C7.41638769,22.5 7.61254583,22.4463505 7.79220469,22.3390515 C7.97186354,22.2317524 8.19002072,22.059704 8.44667623,21.8229062 L12.2525108,18.3486377 L19.1712099,18.3486377 C20.205165,18.3560377 21.0814602,18.1691894 21.8000956,17.7880928 C22.5187311,17.4069963 23.0650407,16.8520013 23.4390244,16.123108 C23.8130081,15.3942146 24,14.5117726 24,13.475782 L24,5.3839556 C24,4.34796502 23.8130081,3.46737302 23.4390244,2.74217962 C23.0650407,2.01698621 22.5187311,1.46199125 21.8000956,1.07719475 C21.0814602,0.692398251 20.205165,0.5 19.1712099,0.5 L5.82879005,0.5 C4.79483501,0.5 3.91853977,0.690548268 3.19990435,1.0716448 C2.48126893,1.45274134 1.93495935,2.00773629 1.56097561,2.73662967 C1.18699187,3.46552304 1,4.34796502 1,5.3839556 L1,13.475782 C1,14.5117726 1.18882512,15.3923646 1.56647537,16.117558 C1.94412562,16.8427514 2.4904352,17.3958964 3.20540411,17.7769929 C3.92037303,18.1580895 4.78383549,18.3486377 5.79579149,18.3486377 L6.24677188,18.3486377 L6.24677188,21.3900101 C6.24677188,21.730407 6.33110155,22.0005045 6.49976088,22.2003027 C6.66842021,22.4001009 6.90307668,22.5 7.20373027,22.5 Z M7.2697274,8.30322906 C7.2697274,7.64463505 7.48788458,7.10628994 7.92419895,6.68819374 C8.36051331,6.27009754 8.90865615,6.06104945 9.56862745,6.06104945 C10.2799299,6.06104945 10.8537382,6.31634712 11.2900526,6.82694248 C11.726367,7.33753784 11.9445242,7.97023209 11.9445242,8.72502523 C11.9445242,9.39841911 11.8290292,9.98856374 11.5980392,10.4954591 C11.3670493,11.0023545 11.0755619,11.4241507 10.7235772,11.7608476 C10.3715925,12.0975446 10.0104416,12.3509923 9.64012434,12.5211907 C9.26980711,12.6913892 8.94532122,12.7764884 8.66666667,12.7764884 C8.51267336,12.7764884 8.38434561,12.7265388 8.28168341,12.6266398 C8.1790212,12.5267407 8.1276901,12.4064918 8.1276901,12.265893 C8.1276901,12.1326942 8.16252192,12.0216953 8.23218556,11.9328961 C8.30184919,11.8440969 8.43567671,11.7737975 8.6336681,11.721998 C8.88299059,11.6627985 9.13414634,11.5573495 9.38713534,11.4056509 C9.64012434,11.2539522 9.8711143,11.065254 10.0801052,10.839556 C10.2890961,10.6138581 10.4559222,10.3567104 10.5805835,10.068113 L10.4705882,10.068113 C10.331261,10.2457114 10.1552686,10.3641103 9.94261119,10.4233098 C9.72995377,10.4825092 9.50629683,10.512109 9.27164036,10.512109 C8.65566714,10.512109 8.16802168,10.2993609 7.80870397,9.87386478 C7.44938626,9.44836865 7.2697274,8.92482341 7.2697274,8.30322906 Z M13.0994739,8.30322906 C13.0994739,7.64463505 13.3176311,7.10628994 13.7539455,6.68819374 C14.1902598,6.27009754 14.7347362,6.06104945 15.3873745,6.06104945 C16.0986769,6.06104945 16.6743185,6.31634712 17.1142994,6.82694248 C17.5542802,7.33753784 17.7742707,7.97023209 17.7742707,8.72502523 C17.7742707,9.39841911 17.6587757,9.98856374 17.4277857,10.4954591 C17.1967958,11.0023545 16.9071417,11.4241507 16.5588235,11.7608476 C16.2105053,12.0975446 15.8511876,12.3509923 15.4808704,12.5211907 C15.1105532,12.6913892 14.7860673,12.7764884 14.5074127,12.7764884 C14.3460864,12.7764884 14.2140921,12.7265388 14.1114299,12.6266398 C14.0087677,12.5267407 13.9574366,12.4064918 13.9574366,12.265893 C13.9574366,12.1326942 13.9941017,12.0216953 14.0674319,11.9328961 C14.140762,11.8440969 14.2727563,11.7737975 14.4634146,11.721998 C14.7127371,11.6627985 14.9638929,11.5573495 15.2168819,11.4056509 C15.4698709,11.2539522 15.7008608,11.065254 15.9098517,10.839556 C16.1188427,10.6138581 16.2856687,10.3567104 16.41033,10.068113 L16.3113343,10.068113 C16.164674,10.2457114 15.9831819,10.3641103 15.766858,10.4233098 C15.550534,10.4825092 15.3250438,10.512109 15.0903874,10.512109 C14.4890802,10.512109 14.0069345,10.2993609 13.6439503,9.87386478 C13.280966,9.44836865 13.0994739,8.92482341 13.0994739,8.30322906 Z" transform="translate(-1)"/></svg>