<svg xmlns="http://www.w3.org/2000/svg" width="18" height="23" viewBox="0 0 18 23"><path fill="#19202C" fill-rule="evenodd" d="M5.09836066,0.5 C7.63796512,0.5 9.69672131,2.55875619 9.69672131,5.09836066 L9.69566537,5.46856298 C10.5239579,4.66286782 11.6548517,4.16666667 12.9016393,4.16666667 C15.4412438,4.16666667 17.5,6.22542286 17.5,8.76502732 L17.5,17.9016393 C17.5,20.4412438 15.4412438,22.5 12.9016393,22.5 C10.3620349,22.5 8.30327869,20.4412438 8.30327869,17.9016393 L8.30433463,17.531437 C7.47604205,18.3371322 6.34514835,18.8333333 5.09836066,18.8333333 C2.55875619,18.8333333 0.5,16.7745771 0.5,14.2349727 L0.5,5.09836066 C0.5,2.55875619 2.55875619,0.5 5.09836066,0.5 Z M6.12021858,8.12542339 L6.12021858,13.8269785 C6.12021858,14.895206 7.17026128,15.5323708 7.95428373,14.9397433 L11.7259909,12.0890861 C12.4264912,11.5595866 12.4264912,10.3927886 11.7259909,9.86328909 L7.95428373,7.01259176 C7.17026128,6.42004453 6.12021858,7.05719597 6.12021858,8.12542339 Z"/></svg>