<?xml version="1.0" encoding="UTF-8"?>
<svg width="376px" height="96px" viewBox="0 0 376 96" version="1.1" xmlns="http://www.w3.org/2000/svg" xmlns:xlink="http://www.w3.org/1999/xlink">
    <title>APCircle Copy 2</title>
    <g id="Figma" stroke="none" stroke-width="1" fill="none" fill-rule="evenodd">
        <g id="Artboard-Copy" transform="translate(-11.000000, -158.000000)" fill="#000000" fill-rule="nonzero">
            <path d="M18.5,253.8 C22.3666667,253.8 26.35,252.883333 30.45,251.05 C34.55,249.216667 38.6833333,246.75 42.85,243.65 C47.0166667,240.55 51.2,236.933333 55.4,232.8 C59.6,228.666667 63.7333333,224.266667 67.8,219.6 C70.9333333,219.466667 73.9666667,219.283333 76.9,219.05 C79.8333333,218.816667 82.8333333,218.6 85.9,218.4 C86.2333333,218.4 86.5666667,218.383333 86.9,218.35 C87.2333333,218.316667 87.5666667,218.266667 87.9,218.2 C87.8333333,218.466667 87.8,218.733333 87.8,219 L87.8,219 L87.8,219.8 C87.6666667,220.933333 87.5666667,222.116667 87.5,223.35 C87.4333333,224.583333 87.4,225.7 87.4,226.7 C87.4,230.7 87.8,234.05 88.6,236.75 C89.4,239.45 90.4666667,241.633333 91.8,243.3 C93.1333333,244.966667 94.65,246.183333 96.35,246.95 C98.05,247.716667 99.7666667,248.166667 101.5,248.3 C102.566667,248.3 103.616667,248.2 104.65,248 C105.683333,247.8 107.166667,247.233333 109.1,246.3 C107.633333,245.233333 106.3,244.016667 105.1,242.65 C103.9,241.283333 102.866667,239.7 102,237.9 C101.133333,236.1 100.466667,234.083333 100,231.85 C99.5333333,229.616667 99.3,227.066667 99.3,224.2 L99.3,224.2 L99.3,221.2 C99.3,220.133333 99.3666667,219.033333 99.5,217.9 L99.5,217.9 L102.9,217.9 C102.566667,216.766667 102.166667,215.8 101.7,215 C101.233333,214.2 100.6,213.566667 99.8,213.1 C100.533333,206.966667 101.816667,199.783333 103.65,191.55 C105.483333,183.316667 108,173.633333 111.2,162.5 C111.2,161.9 110.783333,161.316667 109.95,160.75 C109.116667,160.183333 108.183333,159.716667 107.15,159.35 C106.116667,158.983333 105.1,158.783333 104.1,158.75 C103.1,158.716667 102.433333,158.966667 102.1,159.5 L102.1,159.5 L101.5,161.7 L99.4,164.8 L99.4,164.8 L98.7723183,165.741176 C97.1633218,168.152941 95.2558824,171.005882 93.05,174.3 C90.55,178.033333 87.75,182.05 84.65,186.35 C81.55,190.65 78.2333333,195.1 74.7,199.7 C71.1666667,204.3 67.5,208.766667 63.7,213.1 C62.7,213.166667 61.8166667,213.2 61.05,213.2 L61.05,213.2 L58.5,213.2 C55.9666667,213.2 53.4,213.083333 50.8,212.85 C48.2,212.616667 45.5,212.133333 42.7,211.4 C42.5,213 42.75,214.333333 43.45,215.4 C44.15,216.466667 45.1666667,217.333333 46.5,218 C47.8333333,218.666667 49.4666667,219.133333 51.4,219.4 C53.3333333,219.666667 55.4666667,219.833333 57.8,219.9 C54.4666667,223.5 51.15,226.833333 47.85,229.9 C44.55,232.966667 41.2833333,235.65 38.05,237.95 C34.8166667,240.25 31.6833333,242.05 28.65,243.35 C25.6166667,244.65 22.7333333,245.3 20,245.3 C18.9333333,245.3 17.7,244.966667 16.3,244.3 C14.9,243.633333 13.5333333,242.833333 12.2,241.9 C11.2,243.3 10.8,244.716667 11,246.15 C11.2,247.583333 11.7,248.866667 12.5,250 C13.3,251.133333 14.2666667,252.05 15.4,252.75 C16.5333333,253.45 17.5666667,253.8 18.5,253.8 Z M73.8,212.8 C77.8666667,207.866667 81.5833333,203.183333 84.95,198.75 C88.3166667,194.316667 91.5,190 94.5,185.8 C93.3666667,189.666667 92.3,193.716667 91.3,197.95 C90.3,202.183333 89.4333333,206.8 88.7,211.8 C86.9666667,211.866667 85.2666667,211.95 83.6,212.05 C81.9333333,212.15 79.9666667,212.266667 77.7,212.4 L77.7,212.4 L73.8,212.8 Z M114.5,246.8 C115.166667,247 116.116667,247.066667 117.35,247 C118.583333,246.933333 119.833333,246.8 121.1,246.6 C122.366667,246.4 123.5,246.133333 124.5,245.8 C125.5,245.466667 126.1,245.1 126.3,244.7 C127.166667,241.9 128.25,238.583333 129.55,234.75 C130.85,230.916667 132.266667,226.833333 133.8,222.5 L137.2,212.7 C140.066667,212.633333 143.25,212.366667 146.75,211.9 C150.25,211.433333 153.8,210.766667 157.4,209.9 C161,209.033333 164.566667,207.933333 168.1,206.6 C171.633333,205.266667 174.9,203.666667 177.9,201.8 C180.9,199.933333 183.533333,197.783333 185.8,195.35 C188.066667,192.916667 189.733333,190.166667 190.8,187.1 C191.333333,185.166667 191.6,183.566667 191.6,182.3 C191.6,179.3 190.716667,176.716667 188.95,174.55 C187.183333,172.383333 184.833333,170.6 181.9,169.2 C178.966667,167.8 175.55,166.766667 171.65,166.1 C167.75,165.433333 163.666667,165.133333 159.4,165.2 C155.6,165.2 151.733333,165.45 147.8,165.95 C143.866667,166.45 140.083333,167.133333 136.45,168 C132.816667,168.866667 129.466667,169.9 126.4,171.1 C123.333333,172.3 120.833333,173.6 118.9,175 L119,174.9 C117.666667,175.766667 116.766667,176.65 116.3,177.55 C115.833333,178.45 115.7,179.25 115.9,179.95 C116.1,180.65 116.566667,181.15 117.3,181.45 C118.033333,181.75 119,181.7 120.2,181.3 C122.2,180.033333 124.6,178.833333 127.4,177.7 C130.2,176.566667 133.233333,175.566667 136.5,174.7 L134,183.4 C133,186.933333 131.916667,190.633333 130.75,194.5 C129.583333,198.366667 128.333333,202.433333 127,206.7 L125.5,206.6 C125.366667,206.6 125.216667,206.583333 125.05,206.55 C124.883333,206.516667 124.733333,206.5 124.6,206.5 C123.866667,206.5 123.15,206.766667 122.45,207.3 C121.75,207.833333 121.25,208.433333 120.95,209.1 C120.65,209.766667 120.616667,210.4 120.85,211 C121.083333,211.6 121.766667,211.933333 122.9,212 L122.8,212 L125.3,212.4 C124.3,215.8 123.283333,219.15 122.25,222.45 C121.216667,225.75 120.233333,228.883333 119.3,231.85 C118.366667,234.816667 117.483333,237.583333 116.65,240.15 C115.816667,242.716667 115.1,244.933333 114.5,246.8 Z M139.4,206.7 C141.533333,200.233333 143.483333,194.283333 145.25,188.85 C147.016667,183.416667 148.533333,178.6 149.8,174.4 C149.666667,173.533333 149.033333,172.9 147.9,172.5 C151.566667,172.033333 155.233333,171.833333 158.9,171.9 C160.833333,171.966667 163,172.2 165.4,172.6 C167.8,173 170.033333,173.633333 172.1,174.5 C174.166667,175.366667 175.9,176.533333 177.3,178 C178.7,179.466667 179.4,181.266667 179.4,183.4 C179.4,184.6 179.2,185.833333 178.8,187.1 C177.533333,190.033333 175.466667,192.65 172.6,194.95 C169.733333,197.25 166.466667,199.233333 162.8,200.9 C159.133333,202.566667 155.25,203.883333 151.15,204.85 C147.05,205.816667 143.133333,206.433333 139.4,206.7 Z M221.539292,247.701626 L222,247.7 C224.466667,247.7 226.883333,247.266667 229.25,246.4 C231.616667,245.533333 233.883333,244.4 236.05,243 C238.216667,241.6 240.266667,240.05 242.2,238.35 C244.133333,236.65 245.883333,234.933333 247.45,233.2 C249.016667,231.466667 250.366667,229.8 251.5,228.2 C252.633333,226.6 253.533333,225.233333 254.2,224.1 C254.666667,223.233333 254.75,222.483333 254.45,221.85 C254.15,221.216667 253.65,220.766667 252.95,220.5 C252.25,220.233333 251.483333,220.2 250.65,220.4 C249.816667,220.6 249.133333,221.066667 248.6,221.8 C247.733333,223.333333 246.5,225.1 244.9,227.1 C243.3,229.1 241.433333,231.033333 239.3,232.9 C237.166667,234.766667 234.8,236.383333 232.2,237.75 C229.6,239.116667 226.866667,239.933333 224,240.2 C220.733333,240.133333 218.333333,238.85 216.8,236.35 C215.266667,233.85 214.5,230.8 214.5,227.2 C214.5,224.333333 214.8,221.3 215.4,218.1 C216,214.9 216.766667,211.9 217.7,209.1 C219.633333,204.033333 221.9,199.266667 224.5,194.8 C227.1,190.333333 229.783333,186.416667 232.55,183.05 C235.316667,179.683333 238,177.016667 240.6,175.05 C243.2,173.083333 245.433333,172.033333 247.3,171.9 C249.433333,171.766667 250.966667,172.3 251.9,173.5 C252.833333,174.7 253.3,176.2 253.3,178 C253.3,179.533333 253.05,181.183333 252.55,182.95 C252.05,184.716667 251.4,186.466667 250.6,188.2 L250.654,188.08 L250.59127,188.188322 C249.937831,189.367385 249.95291,190.287226 250.636508,190.947846 L250.75,191.05 C251.583333,191.75 252.866667,192.1 254.6,192.1 C256.066667,192.1 257.616667,191.816667 259.25,191.25 C260.883333,190.683333 261.966667,189.933333 262.5,189 C263.366667,187.466667 264,185.866667 264.4,184.2 C264.8,182.533333 265,180.933333 265,179.4 C265,177.4 264.683333,175.5 264.05,173.7 C263.416667,171.9 262.466667,170.316667 261.2,168.95 C259.933333,167.583333 258.366667,166.5 256.5,165.7 C254.633333,164.9 252.466667,164.5 250,164.5 C245.866667,164.5 241.683333,165.416667 237.45,167.25 C233.216667,169.083333 229.166667,171.816667 225.3,175.45 C221.433333,179.083333 217.816667,183.633333 214.45,189.1 C211.083333,194.566667 208.166667,200.9 205.7,208.1 C204.633333,211.3 203.85,214.366667 203.35,217.3 C202.85,220.233333 202.6,222.966667 202.6,225.5 C202.6,232.3 204.25,237.716667 207.55,241.75 C210.85,245.783333 215.666667,247.766667 222,247.7 L221.539292,247.701626 Z M260.7,200.7 C262.3,200.833333 263.85,200.366667 265.35,199.3 C266.85,198.233333 267.9,196.9 268.5,195.3 L268.5,195.3 L268.5,195.4 C269.3,193.666667 269.266667,192.1 268.4,190.7 C267.533333,189.3 266.233333,188.533333 264.5,188.4 C262.966667,188.266667 261.45,188.716667 259.95,189.75 C258.45,190.783333 257.4,192.133333 256.8,193.8 L256.8,193.8 L256.8,193.7 C256,195.5 255.966667,197.083333 256.7,198.45 C257.433333,199.816667 258.766667,200.566667 260.7,200.7 Z M254.05784,240.603704 L254.4,240.6 C256.133333,240.533333 258.116667,239.666667 260.35,238 C262.583333,236.333333 264.833333,234.166667 267.1,231.5 C267.9,230.566667 268.7,229.566667 269.5,228.5 C270.3,227.433333 270.966667,226.433333 271.5,225.5 L271.5,225.5 L271.4,225.5 C271.533333,225.366667 271.65,225.183333 271.75,224.95 C271.85,224.716667 271.966667,224.533333 272.1,224.4 C272.366667,223.866667 272.3,223.35 271.9,222.85 C271.5,222.35 270.983333,221.95 270.35,221.65 C269.716667,221.35 269.05,221.2 268.35,221.2 C267.65,221.2 267.133333,221.4 266.8,221.8 C266.533333,222.2 266.3,222.566667 266.1,222.9 C265.9,223.233333 265.866667,223.333333 266,223.2 C265.4,224.133333 264.766667,225.05 264.1,225.95 C263.433333,226.85 262.7,227.666667 261.9,228.4 C259.233333,231.266667 257.4,232.766667 256.4,232.9 C256.133333,232.633333 256.2,231.683333 256.6,230.05 C257,228.416667 257.533333,226.6 258.2,224.6 C258.6,223.266667 259.066667,221.916667 259.6,220.55 C260.133333,219.183333 260.666667,217.8 261.2,216.4 C261.666667,215.266667 262.116667,214.15 262.55,213.05 C262.983333,211.95 263.4,210.833333 263.8,209.7 C264,209.3 263.616667,208.933333 262.65,208.6 C261.683333,208.266667 260.566667,208.033333 259.3,207.9 C258.033333,207.766667 256.816667,207.766667 255.65,207.9 C254.483333,208.033333 253.766667,208.3 253.5,208.7 L253.5,208.7 L253.4,209 L252.9,210.1 L252.9,210 C252.566667,210.8 252.15,211.75 251.65,212.85 C251.15,213.95 250.65,215.083333 250.15,216.25 C249.65,217.416667 249.166667,218.6 248.7,219.8 C248.233333,221 247.866667,222.1 247.6,223.1 C247.266667,224.433333 246.966667,225.833333 246.7,227.3 C246.433333,228.766667 246.3,230.166667 246.3,231.5 C246.3,234.166667 246.9,236.366667 248.1,238.1 C249.3,239.833333 251.4,240.666667 254.4,240.6 L254.05784,240.603704 Z M287.6,240.5 C289.733333,240.5 291.733333,240 293.6,239 C295.466667,238 297.233333,236.716667 298.9,235.15 C300.566667,233.583333 302.1,231.833333 303.5,229.9 C304.9,227.966667 306.166667,226.033333 307.3,224.1 C307.566667,223.633333 307.5,223.166667 307.1,222.7 C306.7,222.233333 306.15,221.883333 305.45,221.65 C304.75,221.416667 304.05,221.3 303.35,221.3 C302.65,221.3 302.166667,221.533333 301.9,222 L301.9,222 L301.9,221.9 C300.966667,223.366667 300,224.783333 299,226.15 C298,227.516667 296.983333,228.716667 295.95,229.75 C294.916667,230.783333 293.883333,231.616667 292.85,232.25 C291.816667,232.883333 290.833333,233.2 289.9,233.2 C288.366667,233.266667 287.6,232.433333 287.6,230.7 C287.6,229.633333 287.783333,228.416667 288.15,227.05 C288.516667,225.683333 289,224.25 289.6,222.75 C290.2,221.25 290.883333,219.733333 291.65,218.2 C292.416667,216.666667 293.2,215.2 294,213.8 L294,213.8 L293.9,213.9 C294.366667,213.233333 294.683333,212.566667 294.85,211.9 C295.016667,211.233333 294.966667,210.583333 294.7,209.95 C294.433333,209.316667 293.883333,208.716667 293.05,208.15 C292.216667,207.583333 291,207.1 289.4,206.7 C289.2,206.633333 288.816667,206.45 288.25,206.15 C287.683333,205.85 287.066667,205.45 286.4,204.95 C285.733333,204.45 285.083333,203.9 284.45,203.3 C283.816667,202.7 283.366667,202.1 283.1,201.5 C282.5,200.566667 281.433333,199.95 279.9,199.65 C278.366667,199.35 276.933333,199.45 275.6,199.95 C274.266667,200.45 273.233333,201.366667 272.5,202.7 C271.766667,204.033333 271.9,205.833333 272.9,208.1 C273.433333,208.3 273.533333,208.933333 273.2,210 C272.866667,211.066667 272.383333,212.266667 271.75,213.6 C271.116667,214.933333 270.416667,216.233333 269.65,217.5 C268.883333,218.766667 268.333333,219.7 268,220.3 C267.8,220.633333 267.583333,220.966667 267.35,221.3 C267.116667,221.633333 266.933333,221.966667 266.8,222.3 C266.333333,223.5 266.266667,224.383333 266.6,224.95 C266.933333,225.516667 267.433333,225.866667 268.1,226 C268.766667,226.133333 269.483333,226.066667 270.25,225.8 C271.016667,225.533333 271.633333,225.1 272.1,224.5 L272.1,224.5 L275.4,219.5 C276.2,217.966667 276.866667,216.75 277.4,215.85 C277.933333,214.95 278.4,214.166667 278.8,213.5 L278.8,213.5 L279,213.2 C279.933333,213.733333 281.033333,214.166667 282.3,214.5 C281.633333,215.633333 280.966667,216.866667 280.3,218.2 C279.633333,219.533333 279.016667,220.933333 278.45,222.4 C277.883333,223.866667 277.433333,225.333333 277.1,226.8 C276.766667,228.266667 276.6,229.7 276.6,231.1 C276.6,232.433333 276.783333,233.683333 277.15,234.85 C277.516667,236.016667 278.133333,237.016667 279,237.85 C279.866667,238.683333 281,239.333333 282.4,239.8 C283.8,240.266667 285.533333,240.5 287.6,240.5 Z M312.069501,240.903077 L312.5,240.9 C314.633333,240.9 316.716667,240.383333 318.75,239.35 C320.783333,238.316667 322.7,237 324.5,235.4 C326.3,233.8 327.983333,232 329.55,230 C331.116667,228 332.5,226.033333 333.7,224.1 C333.966667,223.633333 333.9,223.166667 333.5,222.7 C333.1,222.233333 332.55,221.866667 331.85,221.6 C331.15,221.333333 330.433333,221.2 329.7,221.2 C328.966667,221.2 328.466667,221.433333 328.2,221.9 C327.266667,223.366667 326.25,224.8 325.15,226.2 C324.05,227.6 322.9,228.85 321.7,229.95 C320.5,231.05 319.3,231.95 318.1,232.65 C316.9,233.35 315.7,233.7 314.5,233.7 C312.9,233.7 311.766667,233.066667 311.1,231.8 C310.433333,230.533333 310.1,229.1 310.1,227.5 C310.1,226.633333 310.183333,225.75 310.35,224.85 C310.516667,223.95 310.733333,223.1 311,222.3 C311.4,221.3 311.966667,220.05 312.7,218.55 C313.433333,217.05 314.266667,215.583333 315.2,214.15 C316.133333,212.716667 317.116667,211.483333 318.15,210.45 C319.183333,209.416667 320.2,208.866667 321.2,208.8 C321.333333,208.8 321.35,208.983333 321.25,209.35 C321.15,209.716667 321,210.15 320.8,210.65 C320.6,211.15 320.383333,211.633333 320.15,212.1 C319.916667,212.566667 319.766667,212.9 319.7,213.1 C319.166667,214.433333 318.566667,215.75 317.9,217.05 C317.233333,218.35 316.466667,219.566667 315.6,220.7 C315.2,221.166667 315.166667,221.666667 315.5,222.2 C315.833333,222.733333 316.333333,223.166667 317,223.5 C317.666667,223.833333 318.383333,224.016667 319.15,224.05 C319.916667,224.083333 320.5,223.833333 320.9,223.3 C322.033333,221.9 323.066667,220.416667 324,218.85 C324.933333,217.283333 325.766667,215.733333 326.5,214.2 C326.833333,213.4 327.166667,212.383333 327.5,211.15 C327.833333,209.916667 328,208.666667 328,207.4 C328,205.666667 327.583333,204.183333 326.75,202.95 C325.916667,201.716667 324.433333,201.1 322.3,201.1 C319.966667,201.1 317.75,201.7 315.65,202.9 C313.55,204.1 311.633333,205.6 309.9,207.4 C308.166667,209.2 306.65,211.183333 305.35,213.35 C304.05,215.516667 303.033333,217.566667 302.3,219.5 C301.633333,221.166667 301.133333,222.866667 300.8,224.6 C300.466667,226.333333 300.3,227.9 300.3,229.3 C300.3,232.9 301.283333,235.75 303.25,237.85 C305.216667,239.95 308.3,240.966667 312.5,240.9 L312.069501,240.903077 Z M337.6,240.4 C339.866667,240.4 342.033333,239.916667 344.1,238.95 C346.166667,237.983333 348.1,236.733333 349.9,235.2 C351.7,233.666667 353.4,231.933333 355,230 C356.6,228.066667 358.066667,226.133333 359.4,224.2 C359.733333,223.733333 359.716667,223.25 359.35,222.75 C358.983333,222.25 358.483333,221.85 357.85,221.55 C357.216667,221.25 356.533333,221.1 355.8,221.1 C355.066667,221.1 354.533333,221.333333 354.2,221.8 C353.066667,223.266667 351.916667,224.683333 350.75,226.05 C349.583333,227.416667 348.433333,228.633333 347.3,229.7 C346.166667,230.766667 345.05,231.616667 343.95,232.25 C342.85,232.883333 341.833333,233.2 340.9,233.2 L340.9,233.2 L340.6,233.2 C339.6,233.4 338.933333,232.9 338.6,231.7 C338.266667,230.5 338.2,228.833333 338.4,226.7 L338.4,226.7 L339,226 C340.533333,224.333333 342.333333,222.333333 344.4,220 C346.466667,217.666667 348.633333,214.966667 350.9,211.9 C353.166667,208.833333 355.416667,205.383333 357.65,201.55 C359.883333,197.716667 361.966667,193.5 363.9,188.9 C364.233333,188.033333 364.633333,186.966667 365.1,185.7 C365.566667,184.433333 366,183.116667 366.4,181.75 C366.8,180.383333 367.15,179 367.45,177.6 C367.75,176.2 367.9,174.9 367.9,173.7 C367.9,171.766667 367.416667,170.166667 366.45,168.9 C365.483333,167.633333 363.966667,166.933333 361.9,166.8 C359.633333,167.066667 357.233333,168.25 354.7,170.35 C352.166667,172.45 349.666667,175.15 347.2,178.45 C344.733333,181.75 342.35,185.483333 340.05,189.65 C337.75,193.816667 335.733333,198.066667 334,202.4 C332.266667,206.733333 330.883333,211 329.85,215.2 C328.816667,219.4 328.3,223.2 328.3,226.6 C328.3,230.533333 329.016667,233.75 330.45,236.25 C331.883333,238.75 334.266667,240.133333 337.6,240.4 Z M340.3,215.6 C340.966667,212.733333 341.783333,209.766667 342.75,206.7 C343.716667,203.633333 344.783333,200.633333 345.95,197.7 C347.116667,194.766667 348.333333,191.983333 349.6,189.35 C350.866667,186.716667 352.15,184.383333 353.45,182.35 C354.75,180.316667 356,178.7 357.2,177.5 C358.4,176.3 359.533333,175.633333 360.6,175.5 C361.066667,175.566667 361.166667,176.216667 360.9,177.45 C360.633333,178.683333 360.233333,180.066667 359.7,181.6 C359.166667,183.133333 358.616667,184.6 358.05,186 C357.483333,187.4 357.1,188.266667 356.9,188.6 C353.766667,195.466667 350.8,201 348,205.2 C345.2,209.4 342.633333,212.866667 340.3,215.6 Z M364.269501,240.903077 L364.7,240.9 C366.833333,240.9 368.916667,240.383333 370.95,239.35 C372.983333,238.316667 374.9,237 376.7,235.4 C378.5,233.8 380.183333,232 381.75,230 C383.316667,228 384.7,226.033333 385.9,224.1 C386.166667,223.633333 386.1,223.166667 385.7,222.7 C385.3,222.233333 384.75,221.866667 384.05,221.6 C383.35,221.333333 382.633333,221.2 381.9,221.2 C381.166667,221.2 380.666667,221.433333 380.4,221.9 C379.466667,223.366667 378.45,224.8 377.35,226.2 C376.25,227.6 375.1,228.85 373.9,229.95 C372.7,231.05 371.5,231.95 370.3,232.65 C369.1,233.35 367.9,233.7 366.7,233.7 C365.033333,233.7 363.866667,233.066667 363.2,231.8 C367.133333,229.2 370.3,226.466667 372.7,223.6 C375.1,220.733333 377.1,217.6 378.7,214.2 C379.033333,213.4 379.366667,212.383333 379.7,211.15 C380.033333,209.916667 380.2,208.666667 380.2,207.4 C380.2,205.666667 379.783333,204.183333 378.95,202.95 C378.116667,201.716667 376.633333,201.1 374.5,201.1 C372.166667,201.1 369.95,201.7 367.85,202.9 C365.75,204.1 363.833333,205.6 362.1,207.4 C360.366667,209.2 358.85,211.183333 357.55,213.35 C356.25,215.516667 355.233333,217.566667 354.5,219.5 C353.833333,221.166667 353.333333,222.866667 353,224.6 C352.666667,226.333333 352.5,227.9 352.5,229.3 C352.5,232.9 353.483333,235.75 355.45,237.85 C357.416667,239.95 360.5,240.966667 364.7,240.9 L364.269501,240.903077 Z M362.4,225.6 C362.466667,225.066667 362.583333,224.483333 362.75,223.85 C362.916667,223.216667 363.066667,222.666667 363.2,222.2 L363.2,222.2 L363.2,222.3 C363.533333,221.433333 364.05,220.25 364.75,218.75 C365.45,217.25 366.266667,215.766667 367.2,214.3 C368.133333,212.833333 369.133333,211.566667 370.2,210.5 C371.266667,209.433333 372.333333,208.866667 373.4,208.8 C373.533333,208.8 373.55,208.983333 373.45,209.35 C373.35,209.716667 373.2,210.133333 373,210.6 C372.8,211.066667 372.583333,211.533333 372.35,212 C372.116667,212.466667 371.966667,212.8 371.9,213 C370.766667,215.8 369.466667,218.15 368,220.05 C366.533333,221.95 364.666667,223.8 362.4,225.6 Z" id="APCircle-Copy-2"></path>
        </g>
    </g>
</svg>