<?xml version="1.0" encoding="UTF-8"?>
<svg width="21px" height="22px" viewBox="0 0 21 22" version="1.1" xmlns="http://www.w3.org/2000/svg" xmlns:xlink="http://www.w3.org/1999/xlink">
    <title>ic_articles_notselected</title>
    <g id="icon" stroke="none" stroke-width="1" fill="none" fill-rule="evenodd">
        <g id="Artboard" transform="translate(-28.000000, -162.000000)" fill="#000000" fill-rule="nonzero">
            <path d="M45.0652969,162 C45.5365352,162 45.8506797,162.314145 45.8506367,162.78534 L45.8506367,162.78534 L45.8506367,173.544801 L47.8140508,173.544801 C48.2852461,173.544801 48.5993906,173.937449 48.6780234,174.408688 L48.6780234,174.408688 L48.6780234,182.02666 C48.6780234,183.126145 47.7355898,183.990074 46.5575156,183.990074 L46.5575156,183.990074 L30.1434961,183.990074 C28.6512773,183.990074 28.0229883,182.733496 28.0229883,181.869566 L28.0229883,181.869566 L28.0229883,162.78534 C28.0229883,162.314145 28.3371328,162 28.8083711,162 L28.8083711,162 Z M44.3584609,163.570723 L29.5937109,163.570723 L29.5937109,181.869566 C29.5937109,182.183754 29.7507617,182.419395 30.1434531,182.419395 L30.1434531,182.419395 L44.4370078,182.419395 C44.3584609,182.183754 44.3584609,182.02666 44.3584609,181.869609 L44.3584609,181.869609 L44.3584609,163.570723 Z M47.1072148,175.11548 L45.9291406,175.11548 L45.9291406,181.869609 C45.9291406,182.262344 46.1647813,182.419395 46.4789258,182.419395 C46.5575156,182.419395 47.0287109,182.419395 47.0287109,182.026703 L47.0287109,182.026703 L47.1072148,182.02666 L47.1072148,175.11548 Z M42.2155164,177.544801 C42.5513877,177.544801 42.8872222,177.937449 42.8872222,178.330141 C42.8872222,178.801336 42.6185325,179.11548 42.2155164,179.11548 L42.2155164,179.11548 L31.7366551,179.11548 C31.3336389,179.11548 31.0649492,178.801336 31.0649492,178.330141 C31.0649492,177.858945 31.3336389,177.544801 31.7366551,177.544801 L31.7366551,177.544801 Z M42.2155164,173.874594 C42.5513877,173.874594 42.8872222,174.188738 42.8872222,174.659934 C42.8872222,175.131129 42.6185325,175.445273 42.2155164,175.445273 L42.2155164,175.445273 L31.7366551,175.445273 C31.3336389,175.445273 31.0649492,175.131129 31.0649492,174.659934 C31.0649492,174.188738 31.3336389,173.874594 31.7366551,173.874594 L31.7366551,173.874594 Z M42.2155164,166.748797 C42.5513877,166.748797 42.8872222,167.062941 42.8872222,167.534137 L42.8872222,167.534137 L42.8872222,170.91118 C42.8872222,171.382375 42.6185325,171.69652 42.2155164,171.69652 L42.2155164,171.69652 L31.7366551,171.69652 C31.3336389,171.69652 31.0649492,171.382375 31.0649492,170.91118 L31.0649492,170.91118 L31.0649492,167.534137 C31.0649492,167.062941 31.3336389,166.748797 31.7366551,166.748797 L31.7366551,166.748797 Z M41.5438105,168.319434 L32.4083609,168.319434 L32.4083609,170.125797 L41.5438105,170.125797 L41.5438105,168.319434 Z" id="ic_articles_notselected"></path>
        </g>
    </g>
</svg>