<?xml version="1.0" encoding="UTF-8"?>
<svg width="49px" height="45px" viewBox="0 0 49 45" version="1.1" xmlns="http://www.w3.org/2000/svg" xmlns:xlink="http://www.w3.org/1999/xlink">
    <title>ic_error</title>
    <g id="icon" stroke="none" stroke-width="1" fill="none" fill-rule="evenodd">
        <g id="Artboard" transform="translate(-353.000000, -249.000000)" fill-rule="nonzero">
            <g id="ic_error" transform="translate(353.000000, 249.000000)">
                <path d="M24.4993051,32.1360468 C22.9616761,32.1360468 21.6727812,33.4178098 21.6727812,34.9469305 C21.6727812,36.4760513 22.9616761,37.7578143 24.4993051,37.7578143 C25.9804037,37.7578143 27.325829,36.4760513 27.2579925,35.0143917 C27.325829,33.4065662 26.0482402,32.1360468 24.4993051,32.1360468 Z" id="Path" fill="#FF7A37"></path>
                <path d="M24.5094536,1.2 C25.8730667,1.2 27.1635966,1.55152238 28.280808,2.20336406 C29.3960795,2.85407391 30.3372556,3.80330411 31.0135227,4.99983839 L31.0135227,4.99983839 L46.7875302,32.4433264 C48.1438208,34.8015842 48.1326374,37.6223165 46.767822,39.989015 C46.0799967,41.1829565 45.1259965,42.1382309 44.0013556,42.7932921 C42.8804653,43.4461686 41.591152,43.8 40.2329436,43.8 L40.2329436,43.8 L8.72552743,43.8 C6.01627601,43.8 3.59402639,42.3949756 2.23909866,40.0565392 C0.863889624,37.6869108 0.856489288,34.845331 2.21134158,32.4633737 L2.21134158,32.4633737 L18.0078326,4.98543994 C18.6814746,3.80221826 19.6257023,2.85343035 20.7443939,2.20222545 C21.860157,1.55272532 23.1483367,1.2 24.5094536,1.2 Z" id="Path" stroke="#FFAB81" stroke-width="2.4"></path>
                <path d="M23.7983272,12.4036429 C22.4529018,12.7859231 21.6162507,14.0002249 21.6162507,15.473128 C21.6840873,16.3613672 21.7406178,17.26085 21.8084544,18.1490893 C22.000658,21.5333933 22.1928616,24.8502361 22.3850653,28.2345401 C22.4529018,29.3813807 23.3460834,30.2134023 24.4993051,30.2134023 C25.6525269,30.2134023 26.5570145,29.325163 26.613545,28.1670789 C26.613545,27.4699798 26.613545,26.8290983 26.6813816,26.1207556 C26.8057486,23.9507533 26.9414218,21.7807511 27.0657888,19.6107488 C27.1336254,18.2053069 27.2579925,16.7998651 27.325829,15.3944232 C27.325829,14.8884641 27.2579925,14.4387227 27.0657888,13.9889813 C26.489178,12.7297054 25.1437526,12.0888239 23.7983272,12.4036429 Z" id="Path" fill="#FF7A37"></path>
            </g>
        </g>
    </g>
</svg>