<?xml version="1.0" encoding="UTF-8"?>
<svg width="32px" height="19px" viewBox="0 0 32 19" version="1.1" xmlns="http://www.w3.org/2000/svg" xmlns:xlink="http://www.w3.org/1999/xlink">
    <title>ic_font</title>
    <g id="icon" stroke="none" stroke-width="1" fill="none" fill-rule="evenodd">
        <g id="Artboard" transform="translate(-94.000000, -162.000000)" fill="#000000" fill-rule="nonzero">
            <path d="M100.335186,168.84 L104.569255,179.55751 L104.622579,179.681015 C104.799264,180.032029 105.12637,180.207536 105.603896,180.207536 L105.603896,180.207536 L105.97,180.207536 L105.97,180.81 L101.274322,180.81 L101.274322,180.207536 L101.656343,180.207536 L101.827376,180.205029 C102.541067,180.183297 102.897912,180.020305 102.897912,179.716053 C102.897912,179.620927 102.876689,179.525801 102.834242,179.430675 L102.834242,179.430675 L101.863271,176.925695 L97.1994282,176.925695 L96.6582314,178.368437 L96.614016,178.487344 C96.546219,178.672311 96.5078989,178.791219 96.4990559,178.844066 C96.456609,179.002609 96.4353856,179.161152 96.4353856,179.319695 C96.4353856,179.552225 96.565379,179.758331 96.8253657,179.938013 C97.0853524,180.117695 97.4328856,180.207536 97.8679654,180.207536 L97.8679654,180.207536 L98.2659043,180.207536 L98.2659043,180.81 L94,180.81 L94,180.207536 L94.1273404,180.207536 L94.2714473,180.201195 C94.9330516,180.142005 95.4421303,179.66849 95.7986835,178.780649 L95.7986835,178.780649 L99.8099069,168.84 L100.335186,168.84 Z M116.780293,162 L123.43383,178.841801 L123.491896,178.982514 C123.762874,179.569686 124.285473,179.863272 125.059694,179.863272 L125.059694,179.863272 L125.635,179.863272 L125.635,180.81 L118.256077,180.81 L118.256077,179.863272 L118.856396,179.863272 L119.079179,179.860599 C120.231349,179.832093 120.807434,179.57554 120.807434,179.09094 C120.807434,178.941457 120.774082,178.791974 120.70738,178.64249 L120.70738,178.64249 L119.181569,174.706093 L111.852673,174.706093 L111.002221,176.973258 L110.949067,177.115735 C110.832339,177.43183 110.766679,177.633477 110.752088,177.720675 C110.685386,177.969815 110.652035,178.218954 110.652035,178.468093 C110.652035,178.833497 110.85631,179.157377 111.26486,179.439735 C111.673411,179.722093 112.219535,179.863272 112.903231,179.863272 L112.903231,179.863272 L113.528564,179.863272 L113.528564,180.81 L106.825,180.81 L106.825,179.863272 L107.025106,179.863272 L107.204495,179.85706 C108.26711,179.782526 109.082779,179.037179 109.651503,177.62102 L109.651503,177.62102 L115.954854,162 L116.780293,162 Z M99.5711436,171.107166 L97.4700266,176.323232 L101.624508,176.323232 L99.5711436,171.107166 Z M115.579654,165.562689 L112.277899,173.759364 L118.80637,173.759364 L115.579654,165.562689 Z" id="ic_font"></path>
        </g>
    </g>
</svg>