<?xml version="1.0" encoding="UTF-8"?>
<svg width="23px" height="24px" viewBox="0 0 23 24" version="1.1" xmlns="http://www.w3.org/2000/svg" xmlns:xlink="http://www.w3.org/1999/xlink">
    <title>ic_home</title>
    <g id="icon" stroke="none" stroke-width="1" fill="none" fill-rule="evenodd" stroke-linecap="round" stroke-linejoin="round">
        <g id="Artboard" transform="translate(-273.000000, -209.000000)" stroke="#000000" stroke-width="1.49837838">
            <path d="M274,220.702703 L276.333333,218.324324 M276.333333,218.324324 L284.5,210 L292.666667,218.324324 M276.333333,218.324324 L276.333333,230.216216 C276.333333,230.873005 276.855673,231.405405 277.5,231.405405 L281,231.405405 M292.666667,218.324324 L295,220.702703 M292.666667,218.324324 L292.666667,230.216216 C292.666667,230.873005 292.14435,231.405405 291.5,231.405405 L288,231.405405 M281,231.405405 C281.644327,231.405405 282.166667,230.873005 282.166667,230.216216 L282.166667,225.459459 C282.166667,224.80267 282.688983,224.27027 283.333333,224.27027 L285.666667,224.27027 C286.311017,224.27027 286.833333,224.80267 286.833333,225.459459 L286.833333,230.216216 C286.833333,230.873005 287.35565,231.405405 288,231.405405 M281,231.405405 L288,231.405405" id="ic_home"></path>
        </g>
    </g>
</svg>