<?xml version="1.0" encoding="UTF-8"?>
<svg width="23px" height="22px" viewBox="0 0 23 22" version="1.1" xmlns="http://www.w3.org/2000/svg" xmlns:xlink="http://www.w3.org/1999/xlink">
    <title>ic_settings_notselected</title>
    <g id="icon" stroke="none" stroke-width="1" fill="none" fill-rule="evenodd">
        <g id="Artboard" transform="translate(-25.000000, -214.000000)" fill="#000000" fill-rule="nonzero">
            <g id="ic_settings_notselected" transform="translate(25.000000, 214.000000)">
                <path d="M11.0385216,6.44354118 C8.50028235,6.44354118 6.43530196,8.50856471 6.43530196,11.0467608 C6.43530196,13.5849569 8.50032549,15.6499804 11.0385216,15.6499804 C13.5767176,15.6499804 15.6417412,13.5849569 15.6417412,11.0467608 C15.6417412,8.50856471 13.5767608,6.44354118 11.0385216,6.44354118 Z M11.04,14.1515451 C9.33087729,14.1515451 7.94,12.7606678 7.94,11.0515451 C7.94,9.34242238 9.33087729,7.9515451 11.04,7.9515451 C12.7501395,7.9515451 14.14,9.34242238 14.14,11.0515451 C14.14,12.7606678 12.7491227,14.1515451 11.04,14.1515451 Z" id="Shape"></path>
                <path d="M21.2963451,8.29589804 L18.678949,7.87423137 L20.2440549,5.79359216 C20.5184078,5.4280902 20.4843294,4.91807843 20.163949,4.59308235 L17.5484078,1.94070196 C17.2243176,1.6110902 16.7087843,1.5733451 16.3414275,1.84955294 L14.2027686,3.35206667 L13.7884784,0.774270588 C13.7166549,0.327756863 13.3318275,1.95399252e-14 12.8797922,1.95399252e-14 L9.19720784,1.95399252e-14 C8.7387451,1.95399252e-14 8.35020784,0.336945098 8.28576078,0.789929412 L7.85490588,3.39904314 L5.72733333,1.84308235 C5.35997647,1.57425098 4.85458039,1.61290196 4.53325098,1.93423137 L1.92784706,4.53044706 C1.6019451,4.85449412 1.56601176,5.36916471 1.84221961,5.73647843 L3.36772549,7.87147059 L0.789929412,8.23973333 C0.336945098,8.30418039 -3.90798505e-14,8.69271765 -3.90798505e-14,9.15118039 L-3.90798505e-14,12.8337647 C-3.90798505e-14,13.2922275 0.336945098,13.6807647 0.789929412,13.7433569 L3.40732549,14.1650235 L1.84221961,16.2456627 C1.56601176,16.6130196 1.6019451,17.1257922 1.92694118,17.4507882 L4.5323451,20.0561922 C4.85734118,20.383 5.37106275,20.4161725 5.73747059,20.1408706 L7.87151373,18.6153647 L8.23977647,21.1931608 C8.30422353,21.646102 8.69271765,21.9830902 9.15122353,21.9830902 L12.8338078,21.9830902 C13.2922706,21.9830902 13.6808078,21.647051 13.7452549,21.1959216 L14.1669216,18.5785255 L16.2475608,20.1436314 C16.6158235,20.4198392 17.1285961,20.3848549 17.4526863,20.0589529 L20.0580902,17.453549 C20.3830863,17.1285529 20.4189765,16.6148314 20.1427686,16.2484235 L18.5933216,14.1171412 L21.2724039,13.8041373 C21.7364314,13.7507333 22.0862745,13.3576235 22.0862745,12.8899294 L22.0862745,9.2073451 C22.0862745,8.74883922 21.7493294,8.3603451 21.2963451,8.29589804 Z M20.79,12.1348438 L18.7991538,12.3670885 C18.0744161,12.4617423 17.4686475,12.9477688 17.2433239,13.5742671 C16.9604582,14.2144376 17.0433663,14.9629797 17.4647626,15.5319541 L18.6138217,17.0592636 L17.0511818,18.6226513 L15.5177928,17.4681496 C14.9530212,17.0504841 14.2048371,16.9674906 13.6283651,17.2280857 C12.9416537,17.4769291 12.4559053,18.0829877 12.3612511,18.7973264 L12.0920511,20.6915451 L9.88168575,20.6915451 L9.61148022,18.8090324 C9.51687172,18.0839479 9.03107764,17.4778894 8.40583887,17.2534639 C7.76693442,16.9704628 7.02071559,17.0514444 6.4481285,17.4740026 L4.92154953,18.6236116 L3.35890963,17.0602239 L4.51285909,15.5261011 C4.92936501,14.9630255 5.01227314,14.2154435 4.75280818,13.6357692 C4.50307831,12.9487291 3.89831519,12.4617423 3.1833126,12.3680488 L1.29,12.0987199 L1.29,9.88729678 L3.17257202,9.61696194 C3.89730969,9.52230816 4.50307831,9.03628161 4.72744214,8.41074361 C5.01131334,7.77057315 4.92835951,7.02399721 4.5079687,6.45209636 L3.35986943,4.9257928 L4.92739971,3.36240509 L6.50466508,4.51594653 C7.06847689,4.93361203 7.81469571,5.01367906 8.39409279,4.75601045 C9.08176403,4.50616107 9.56655261,3.89818203 9.65924151,3.18676975 L9.92944704,1.2915451 L12.1544378,1.2915451 L12.4568194,3.17309753 C12.5504681,3.89918802 13.0352567,4.50616107 13.6634206,4.7325985 C14.302325,5.01367906 15.0495036,4.93361203 15.6172003,4.51302004 L17.1408542,3.3731508 L18.7259351,4.97947567 L17.5681007,6.51849118 C17.1515948,7.08161256 17.0686867,7.82914875 17.3281516,8.40978336 C17.5778815,9.0977837 18.1855697,9.58280427 18.8966417,9.67553754 L20.79,9.94587238 L20.79,12.1348438 L20.79,12.1348438 Z" id="Shape"></path>
            </g>
        </g>
    </g>
</svg>