<svg xmlns="http://www.w3.org/2000/svg" width="15" height="13" viewBox="0 0 15 13"><path fill-rule="evenodd" d="M6.74372125,11.7489638 C6.4020075,12.0836787 5.8479925,12.0836787 5.50627875,11.7489638 L0.25627875,6.60609751 C-0.08542625,6.27138263 -0.08542625,5.72865594 0.25627875,5.39391535 L5.50627875,0.25104902 C5.8479925,-0.0836830066 6.4020075,-0.0836830066 6.74372125,0.25104902 C7.0854,0.585789617 7.0854,1.12849916 6.74372125,1.46323976 L2.98743375,5.14286633 L13.125,5.14286633 C13.6082625,5.14286633 14,5.52662701 14,6.00001071 C14,6.47341156 13.6082625,6.8571551 13.125,6.8571551 L2.98743375,6.8571551 L6.74372125,10.5367902 C7.0854,10.8715051 7.0854,11.414249 6.74372125,11.7489638 Z" transform="translate(.5 .5)"/></svg>