<svg xmlns="http://www.w3.org/2000/svg" width="31" height="30" viewBox="0 0 31 30"><path d="M15.5000925,0 C6.93971621,0 0,6.74393114 0,15.0627998 C0,22.5238532 5.58808758,28.7028552 12.9149871,29.8993765 L12.9149871,18.2053079 L9.17591273,18.2053079 L9.17591273,13.9970891 L12.9149871,13.9970891 L12.9149871,10.8941117 C12.9149871,7.29376673 15.1778095,5.33178804 18.4832903,5.33178804 C20.0664154,5.33178804 21.4269192,5.44642697 21.8218685,5.49691841 L21.8218685,9.26023754 L19.529277,9.26131565 C17.7320362,9.26131565 17.3855312,10.0911002 17.3855312,11.3091837 L17.3855312,13.9949329 L21.6739474,13.9949329 L21.1146209,18.2031517 L17.3855312,18.2031517 L17.3855312,30 C25.0544982,29.092951 31,22.756545 31,15.0584874 C31,6.74393114 24.0602838,0 15.5000925,0 Z"/></svg>