<svg xmlns="http://www.w3.org/2000/svg" width="30" height="30" viewBox="0 0 30 30"><path fill-rule="evenodd" d="M15,0 C23.2842712,0 30,6.71572875 30,15 C30,23.2842712 23.2842712,30 15,30 C6.71572875,30 0,23.2842712 0,15 C0,6.71572875 6.71572875,0 15,0 Z M19.2233992,8.2 C17.0522127,8.2 15.2921184,9.8672419 15.2921184,11.9238892 C15.2921184,12.197178 15.3231969,12.4635909 15.3821886,12.7201297 C12.1620321,12.5216864 9.30527845,11.0607851 7.35805695,8.85474222 C7.01440679,9.39862486 6.81688953,10.0348801 6.81688953,10.7148343 C6.81688953,12.0244564 7.54960896,13.1719707 8.64790928,13.8096068 C7.9831052,13.8002504 7.35934931,13.6304125 6.81789489,13.33917 C6.81722585,13.3670758 6.81688953,13.3950594 6.81688953,13.4231174 C6.81688953,15.2322337 8.21511991,16.7320039 10.0437717,17.0056707 C9.67073767,17.1205175 9.27257834,17.1825918 8.85911335,17.1825918 C8.62427195,17.1825918 8.39436824,17.1625663 8.17120111,17.1242193 C8.66373402,18.5884758 10.1112812,19.6490639 11.8552437,19.6489163 C10.4931309,20.6359457 8.79029805,21.2223519 6.94287486,21.2223519 C6.62393745,21.2223519 6.30930944,21.2048745 6,21.1708757 C7.74020678,22.2434881 9.81749193,22.8666667 12.0484344,22.8666667 C18.1813315,22.8666667 23.1530264,18.1572496 23.1530264,12.3478886 L23.1530264,12.3478886 L23.1536085,12.1894688 C23.1537673,12.1550873 23.1539393,12.118962 23.154098,12.0844609 L23.1544462,11.8828394 L23.1544462,11.8828394 L23.153746,11.8418954 C23.9259994,11.3479491 24.5798841,10.7005798 25.0666667,9.94595034 C24.3871629,10.2481882 23.6477281,10.4495455 22.8650824,10.518491 C23.6646291,10.0709878 24.2710794,9.34678024 24.5375604,8.48499247 C23.8151641,8.93633305 22.9876815,9.24899794 22.0973601,9.38296839 C21.3798188,8.65506075 20.3577112,8.2 19.2233992,8.2 Z"/></svg>