<svg xmlns="http://www.w3.org/2000/svg" width="30" height="30" viewBox="0 0 30 30"><path fill-rule="evenodd" d="M15,0 C23.2842712,0 30,6.71572875 30,15 C30,23.2842712 23.2842712,30 15,30 C6.71572875,30 0,23.2842712 0,15 C0,6.71572875 6.71572875,0 15,0 Z M15.98016,4.5768 C12.5290792,4.58562909 9.34215173,6.42601247 7.60954094,9.41065588 C5.87693015,12.3952993 5.85916503,16.0754083 7.56288,19.07664 L7.56288,19.07664 L6.2112,24.11472 L11.31072,22.7016 L11.6031251,22.8451776 C14.5445084,24.2288662 17.9929094,24.0504149 20.7818752,22.3527836 C23.6638066,20.5985645 25.4282384,17.4738147 25.44192,14.1 C25.44192,8.81616 21.264,4.5768 15.98016,4.5768 Z M16.00608,6.384 C20.184,6.384 23.74752,9.64032 23.74752,14.18688 C23.74752,18.61056 20.184,22.23552 15.82176,22.29696 C13.30272,22.29696 11.39808,20.94528 11.39808,20.94528 L11.39808,20.94528 L8.38752,21.744 L9.1248,18.79488 C9.04151629,18.6629411 7.896,16.8076138 7.896,14.49408 C7.896,10.0704 11.52096,6.384 16.00608,6.384 Z M13.06176,9.79692444 L12.9696,9.7992 L12.47808,9.7992 L12.42648,9.80232 C12.29376,9.81744 12.07872,9.89136 11.86368,10.1064 C10.512,11.45808 11.06496,13.36272 12.048,14.59152 C12.23232,14.83728 13.46112,17.04912 16.10304,18.21648 C18.06912,19.07664 18.4992,18.95376 19.05216,18.83088 C19.728,18.76944 20.40384,18.21648 20.71104,17.66352 C20.77248,17.4792 21.07968,16.68048 20.83392,16.5576 L20.83392,16.5576 L18.68352,15.51312 L18.62208,15.4747727 C18.45824,15.3803793 18.2944,15.3561067 18.13056,15.57456 L18.13056,15.57456 L17.39328,16.5576 L17.32668,16.60056 C17.17632,16.69296 17.05536,16.72656 16.84032,16.61904 C15.91872,16.12752 14.62848,15.57456 13.52256,13.73136 C13.46112,13.4856 13.584,13.36272 13.70688,13.23984 L13.70688,13.23984 L14.25984,12.37968 L14.3017553,12.3270171 C14.3651657,12.2216914 14.3125029,12.1163657 14.25984,12.01104 L14.25984,12.01104 L13.52256,10.22928 L13.47648,10.1175644 C13.33824,9.81484444 13.2,9.79436444 13.06176,9.79692444 L13.06176,9.79692444 Z"/></svg>