<svg width="19" height="16" viewBox="0 0 19 16" xmlns="http://www.w3.org/2000/svg"><path d="M9.5,2.5 L9.5,-0.5 M9.5,2.5 C8.3954,2.5 7.5,3.39543 7.5,4.5 C7.5,5.60457 8.3954,6.5 9.5,6.5 M9.5,2.5 C10.6046,2.5 11.5,3.39543 11.5,4.5 C11.5,5.60457 10.6046,6.5 9.5,6.5 M4.5,13.5 C5.60457,13.5 6.5,12.6046 6.5,11.5 C6.5,10.3954 5.60457,9.5 4.5,9.5 M4.5,13.5 C3.39543,13.5 2.5,12.6046 2.5,11.5 C2.5,10.3954 3.39543,9.5 4.5,9.5 M4.5,13.5 L4.5,16.5 M4.5,9.5 L4.5,-0.5 M9.5,6.5 L9.5,16.5 M14.5,13.5 C15.6046,13.5 16.5,12.6046 16.5,11.5 C16.5,10.3954 15.6046,9.5 14.5,9.5 M14.5,13.5 C13.3954,13.5 12.5,12.6046 12.5,11.5 C12.5,10.3954 13.3954,9.5 14.5,9.5 M14.5,13.5 L14.5,16.5 M14.5,9.5 L14.5,-0.5" transform="rotate(90 9.5 8)" stroke="#4A5568" stroke-width="1.5" fill="none" stroke-linecap="round" stroke-linejoin="round"/></svg>