<svg xmlns="http://www.w3.org/2000/svg" width="15" height="16" viewBox="0 0 15 16"><path d="M4.59615385,0 C5.04931056,-8.32435386e-17 5.41666667,0.367356103 5.41666667,0.820512821 L5.416,1.934 L9.583,1.934 L9.58333333,0.820512821 C9.58333333,0.367356103 9.95068944,8.32435386e-17 10.4038462,0 L10.4294872,0 C10.8826439,2.77787639e-17 11.25,0.367356103 11.25,0.820512821 L11.25,1.934 L12.6062992,1.93406593 C13.3244094,1.93406593 13.8809449,2.09862293 14.2759055,2.42773692 L14.4015748,2.54353628 C14.8005249,2.94984985 15,3.55130085 15,4.34788928 L15,4.34788928 L15,13.594196 C15,14.3907844 14.8005249,14.9908989 14.4015748,15.3945393 C14.0026247,15.7981798 13.4041995,16 12.6062992,16 L12.6062992,16 L2.39370079,16 C1.60629921,16 1.01049869,15.7995163 0.606299213,15.398549 C0.202099738,14.9975817 0,14.3961307 0,13.594196 L0,13.594196 L0,4.34788928 C0,3.54595462 0.202099738,2.94316706 0.606299213,2.53952661 C1.01049869,2.13588616 1.60629921,1.93406593 2.39370079,1.93406593 L2.39370079,1.93406593 L3.749,1.934 L3.75,0.820512821 C3.75,0.367356103 4.1173561,-2.77787639e-17 4.57051282,0 L4.59615385,0 Z M12.6614173,5.5187139 L2.33070866,5.5187139 C2.01049869,5.5187139 1.7664042,5.6042536 1.5984252,5.77533299 C1.43044619,5.94641239 1.34645669,6.20303148 1.34645669,6.54519027 L1.34645669,6.54519027 L1.34645669,13.6102347 C1.34645669,13.9577397 1.43044619,14.2170319 1.5984252,14.3881113 C1.7664042,14.5591907 2.01049869,14.6447304 2.33070866,14.6447304 L2.33070866,14.6447304 L12.6614173,14.6447304 C12.9816273,14.6447304 13.2296588,14.5591907 13.4055118,14.3881113 C13.5813648,14.2170319 13.6692913,13.9577397 13.6692913,13.6102347 L13.6692913,13.6102347 L13.6692913,6.54519027 C13.6692913,6.20303148 13.5813648,5.94641239 13.4055118,5.77533299 C13.2296588,5.6042536 12.9816273,5.5187139 12.6614173,5.5187139 L12.6614173,5.5187139 Z M4.03937008,11.974288 C4.17585302,11.974288 4.26902887,11.998346 4.31889764,12.0464621 C4.3687664,12.0945782 4.39370079,12.1881372 4.39370079,12.3271392 L4.39370079,12.3271392 L4.39370079,12.7682033 C4.39370079,12.9018591 4.3687664,12.992745 4.31889764,13.0408611 C4.26902887,13.0889772 4.17585302,13.1130352 4.03937008,13.1130352 L4.03937008,13.1130352 L3.60629921,13.1130352 C3.46981627,13.1130352 3.37664042,13.0889772 3.32677165,13.0408611 C3.27690289,12.992745 3.2519685,12.9018591 3.2519685,12.7682033 L3.2519685,12.7682033 L3.2519685,12.3271392 C3.2519685,12.1881372 3.27690289,12.0945782 3.32677165,12.0464621 C3.37664042,11.998346 3.46981627,11.974288 3.60629921,11.974288 L3.60629921,11.974288 Z M6.49606299,11.974288 C6.62729659,11.974288 6.71784777,11.998346 6.76771654,12.0464621 C6.8175853,12.0945782 6.84251969,12.1881372 6.84251969,12.3271392 L6.84251969,12.3271392 L6.84251969,12.7682033 C6.84251969,12.9018591 6.8175853,12.992745 6.76771654,13.0408611 C6.71784777,13.0889772 6.62729659,13.1130352 6.49606299,13.1130352 L6.49606299,13.1130352 L6.06299213,13.1130352 C5.93175853,13.1130352 5.83858268,13.0889772 5.78346457,13.0408611 C5.72834646,12.992745 5.7007874,12.9018591 5.7007874,12.7682033 L5.7007874,12.7682033 L5.7007874,12.3271392 C5.7007874,12.1881372 5.72834646,12.0945782 5.78346457,12.0464621 C5.83858268,11.998346 5.93175853,11.974288 6.06299213,11.974288 L6.06299213,11.974288 Z M8.95275591,11.974288 C9.0839895,11.974288 9.17585302,11.998346 9.22834646,12.0464621 C9.2808399,12.0945782 9.30708661,12.1881372 9.30708661,12.3271392 L9.30708661,12.3271392 L9.30708661,12.7682033 C9.30708661,12.9018591 9.2808399,12.992745 9.22834646,13.0408611 C9.17585302,13.0889772 9.0839895,13.1130352 8.95275591,13.1130352 L8.95275591,13.1130352 L8.51181102,13.1130352 C8.38057743,13.1130352 8.29002625,13.0889772 8.24015748,13.0408611 C8.19028871,12.992745 8.16535433,12.9018591 8.16535433,12.7682033 L8.16535433,12.7682033 L8.16535433,12.3271392 C8.16535433,12.1881372 8.19028871,12.0945782 8.24015748,12.0464621 C8.29002625,11.998346 8.38057743,11.974288 8.51181102,11.974288 L8.51181102,11.974288 Z M4.03937008,9.51234854 C4.17585302,9.51234854 4.26902887,9.53640658 4.31889764,9.58452266 C4.3687664,9.63263874 4.39370079,9.72352467 4.39370079,9.85718045 L4.39370079,9.85718045 L4.39370079,10.3062639 C4.39370079,10.4399196 4.3687664,10.5321421 4.31889764,10.5829313 C4.26902887,10.6337205 4.17585302,10.6591151 4.03937008,10.6591151 L4.03937008,10.6591151 L3.60629921,10.6591151 C3.46981627,10.6591151 3.37664042,10.6337205 3.32677165,10.5829313 C3.27690289,10.5321421 3.2519685,10.4399196 3.2519685,10.3062639 L3.2519685,10.3062639 L3.2519685,9.85718045 C3.2519685,9.72352467 3.27690289,9.63263874 3.32677165,9.58452266 C3.37664042,9.53640658 3.46981627,9.51234854 3.60629921,9.51234854 L3.60629921,9.51234854 Z M6.49606299,9.51234854 C6.62729659,9.51234854 6.71784777,9.53640658 6.76771654,9.58452266 C6.8175853,9.63263874 6.84251969,9.72352467 6.84251969,9.85718045 L6.84251969,9.85718045 L6.84251969,10.3062639 C6.84251969,10.4399196 6.8175853,10.5321421 6.76771654,10.5829313 C6.71784777,10.6337205 6.62729659,10.6591151 6.49606299,10.6591151 L6.49606299,10.6591151 L6.06299213,10.6591151 C5.93175853,10.6591151 5.83858268,10.6337205 5.78346457,10.5829313 C5.72834646,10.5321421 5.7007874,10.4399196 5.7007874,10.3062639 L5.7007874,10.3062639 L5.7007874,9.85718045 C5.7007874,9.72352467 5.72834646,9.63263874 5.78346457,9.58452266 C5.83858268,9.53640658 5.93175853,9.51234854 6.06299213,9.51234854 L6.06299213,9.51234854 Z M8.95275591,9.51234854 C9.0839895,9.51234854 9.17585302,9.53640658 9.22834646,9.58452266 C9.2808399,9.63263874 9.30708661,9.72352467 9.30708661,9.85718045 L9.30708661,9.85718045 L9.30708661,10.3062639 C9.30708661,10.4399196 9.2808399,10.5321421 9.22834646,10.5829313 C9.17585302,10.6337205 9.0839895,10.6591151 8.95275591,10.6591151 L8.95275591,10.6591151 L8.51181102,10.6591151 C8.38057743,10.6591151 8.29002625,10.6337205 8.24015748,10.5829313 C8.19028871,10.5321421 8.16535433,10.4399196 8.16535433,10.3062639 L8.16535433,10.3062639 L8.16535433,9.85718045 C8.16535433,9.72352467 8.19028871,9.63263874 8.24015748,9.58452266 C8.29002625,9.53640658 8.38057743,9.51234854 8.51181102,9.51234854 L8.51181102,9.51234854 Z M11.4094488,9.51234854 C11.5406824,9.51234854 11.6312336,9.53640658 11.6811024,9.58452266 C11.7309711,9.63263874 11.7559055,9.72352467 11.7559055,9.85718045 L11.7559055,9.85718045 L11.7559055,10.3062639 C11.7559055,10.4399196 11.7309711,10.5321421 11.6811024,10.5829313 C11.6312336,10.6337205 11.5406824,10.6591151 11.4094488,10.6591151 L11.4094488,10.6591151 L10.9685039,10.6591151 C10.832021,10.6591151 10.7388451,10.6337205 10.6889764,10.5829313 C10.6391076,10.5321421 10.6141732,10.4399196 10.6141732,10.3062639 L10.6141732,10.3062639 L10.6141732,9.85718045 C10.6141732,9.72352467 10.6391076,9.63263874 10.6889764,9.58452266 C10.7388451,9.53640658 10.832021,9.51234854 10.9685039,9.51234854 L10.9685039,9.51234854 Z M6.49606299,7.05040911 C6.62729659,7.05040911 6.71784777,7.07580371 6.76771654,7.12659291 C6.8175853,7.1773821 6.84251969,7.26960459 6.84251969,7.40326037 L6.84251969,7.40326037 L6.84251969,7.84432443 C6.84251969,7.97798021 6.8175853,8.06886614 6.76771654,8.11698222 C6.71784777,8.1650983 6.62729659,8.18915634 6.49606299,8.18915634 L6.49606299,8.18915634 L6.06299213,8.18915634 C5.93175853,8.18915634 5.83858268,8.1650983 5.78346457,8.11698222 C5.72834646,8.06886614 5.7007874,7.97798021 5.7007874,7.84432443 L5.7007874,7.84432443 L5.7007874,7.40326037 C5.7007874,7.26960459 5.72834646,7.1773821 5.78346457,7.12659291 C5.83858268,7.07580371 5.93175853,7.05040911 6.06299213,7.05040911 L6.06299213,7.05040911 Z M8.95275591,7.05040911 C9.0839895,7.05040911 9.17585302,7.07580371 9.22834646,7.12659291 C9.2808399,7.1773821 9.30708661,7.26960459 9.30708661,7.40326037 L9.30708661,7.40326037 L9.30708661,7.84432443 C9.30708661,7.97798021 9.2808399,8.06886614 9.22834646,8.11698222 C9.17585302,8.1650983 9.0839895,8.18915634 8.95275591,8.18915634 L8.95275591,8.18915634 L8.51181102,8.18915634 C8.38057743,8.18915634 8.29002625,8.1650983 8.24015748,8.11698222 C8.19028871,8.06886614 8.16535433,7.97798021 8.16535433,7.84432443 L8.16535433,7.84432443 L8.16535433,7.40326037 C8.16535433,7.26960459 8.19028871,7.1773821 8.24015748,7.12659291 C8.29002625,7.07580371 8.38057743,7.05040911 8.51181102,7.05040911 L8.51181102,7.05040911 Z M11.4094488,7.05040911 C11.5406824,7.05040911 11.6312336,7.07580371 11.6811024,7.12659291 C11.7309711,7.1773821 11.7559055,7.26960459 11.7559055,7.40326037 L11.7559055,7.40326037 L11.7559055,7.84432443 C11.7559055,7.97798021 11.7309711,8.06886614 11.6811024,8.11698222 C11.6312336,8.1650983 11.5406824,8.18915634 11.4094488,8.18915634 L11.4094488,8.18915634 L10.9685039,8.18915634 C10.832021,8.18915634 10.7388451,8.1650983 10.6889764,8.11698222 C10.6391076,8.06886614 10.6141732,7.97798021 10.6141732,7.84432443 L10.6141732,7.84432443 L10.6141732,7.40326037 C10.6141732,7.26960459 10.6391076,7.1773821 10.6889764,7.12659291 C10.7388451,7.07580371 10.832021,7.05040911 10.9685039,7.05040911 L10.9685039,7.05040911 Z"/></svg>