<svg xmlns="http://www.w3.org/2000/svg" width="14" height="19" viewBox="0 0 14 19"><path fill="#19202C" fill-rule="evenodd" d="M113.681818,28 C115.481267,28 116.97921,29.2908993 117.300093,30.9971434 C117.957285,30.3787348 118.843505,30 119.818182,30 C121.851594,30 123.5,31.6484061 123.5,33.6818182 L123.5,43.3181818 C123.5,45.3515939 121.851594,47 119.818182,47 C118.018733,47 116.52079,45.7091007 116.199907,44.0028566 C115.542715,44.6212652 114.656495,45 113.681818,45 C111.648406,45 110,43.3515939 110,41.3181818 L110,31.6818182 C110,29.6484061 111.648406,28 113.681818,28 Z M114,34.7788132 L114,40.2212068 C114,41.2408784 115.027582,41.8490812 115.794834,41.2833913 L119.485863,38.5623095 C120.171379,38.0568781 120.171379,36.9431164 119.485863,36.437685 L115.794834,33.7165649 C115.027582,33.1509516 114,33.7591416 114,34.7788132 Z" transform="translate(-110 -28)"/></svg>