<svg xmlns="http://www.w3.org/2000/svg" width="16" height="14" viewBox="0 0 16 14"><path fill="#19202C" fill-rule="evenodd" d="M145,31 C147.209139,31 149,32.790861 149,35 L149,41 C149,43.209139 147.209139,45 145,45 L137,45 C134.790861,45 133,43.209139 133,41 L133,35 C133,32.790861 134.790861,31 137,31 L145,31 Z M138.5,35.2788132 L138.5,40.7212068 C138.5,41.7408784 139.527582,42.3490812 140.294834,41.7833913 L143.985863,39.0623095 C144.671379,38.5568781 144.671379,37.4431164 143.985863,36.937685 L140.294834,34.2165649 C139.527582,33.6509516 138.5,34.2591416 138.5,35.2788132 Z" transform="translate(-133 -31)"/></svg>