<svg xmlns="http://www.w3.org/2000/svg" width="37" height="31" viewBox="0 0 37 31"><defs><linearGradient id="a" x1="50%" x2="50%" y1="0%" y2="100%"><stop offset="0%" stop-color="#FF7E66"/><stop offset="100%" stop-color="#CA0E17"/></linearGradient></defs><path fill="none" stroke="url(#a)" stroke-width="2.833" d="M31.591954,1.5 C33.7503082,1.5 35.5,3.24969178 35.5,5.40804598 L35.5,25.591954 C35.5,27.7503082 33.7503082,29.5 31.591954,29.5 L5.40804598,29.5 C3.24969178,29.5 1.5,27.7503082 1.5,25.591954 L1.5,5.40804598 C1.5,3.24969178 3.24969178,1.5 5.40804598,1.5 L31.591954,1.5 Z M15.343341,6.92127262 C14.9836153,6.92127262 14.692,7.21288792 14.692,7.57261362 L14.692,7.57261362 L14.692,17.4814633 C14.692,17.6126193 14.7315952,17.7407201 14.8056036,17.8490005 C15.0085888,18.1459847 15.413894,18.2221859 15.7108782,18.0192007 L15.7108782,18.0192007 L22.8761843,13.1217979 C22.9410524,13.0774613 22.9973632,13.0217536 23.0423957,12.9573666 C23.248567,12.6625854 23.1767345,12.2564831 22.8819533,12.0503118 L22.8819533,12.0503118 L15.7166472,7.03886498 C15.6072096,6.9623239 15.4768891,6.92127262 15.343341,6.92127262 Z M1.63821138,23.8225575 L35.3617886,23.8225575"/></svg>