<svg xmlns="http://www.w3.org/2000/svg" width="30" height="30" viewBox="0 0 30 30"><defs><linearGradient id="a" x1="50%" x2="50%" y1="0%" y2="100%"><stop offset="0%" stop-color="#7AC3FF"/><stop offset="100%" stop-color="#1177CB"/></linearGradient></defs><path fill="url(#a)" d="M15.0000895,0 C6.71585439,0 0,6.74393114 0,15.0627998 C0,22.5238532 5.40782669,28.7028552 12.4983747,29.8993765 L12.4983747,18.2053079 L8.87991554,18.2053079 L8.87991554,13.9970891 L12.4983747,13.9970891 L12.4983747,10.8941117 C12.4983747,7.29376673 14.6882027,5.33178804 17.8870551,5.33178804 C19.4191116,5.33178804 20.7357283,5.44642697 21.1179372,5.49691841 L21.1179372,9.26023754 L18.8993004,9.26131565 C17.1600351,9.26131565 16.8247076,10.0911002 16.8247076,11.3091837 L16.8247076,13.9949329 L20.9747878,13.9949329 L20.4335041,18.2031517 L16.8247076,18.2031517 L16.8247076,30 C24.2462886,29.092951 30,22.756545 30,15.0584874 C30,6.74393114 23.2841456,0 15.0000895,0 Z"/></svg>