<svg xmlns="http://www.w3.org/2000/svg" width="61" height="30" viewBox="0 0 61 30"><defs><linearGradient id="a" x1="50%" x2="50%" y1="0%" y2="100%"><stop offset="0%" stop-color="#FF7E66"/><stop offset="100%" stop-color="#CA0E17"/></linearGradient></defs><path fill="url(#a)" d="M20.5461305,30 L40.4370697,30 C43.0914349,30 44.4186175,29.1139955 44.4186175,27.3419865 C44.4186175,26.2697517 44.0966217,25.1382619 43.4526301,23.9475169 C42.8086386,22.756772 41.8818507,21.6422122 40.6722666,20.6038375 C39.4626825,19.5654628 37.9983017,18.71614 36.2791242,18.0558691 C34.5599468,17.3955982 32.6251721,17.0654628 30.4748003,17.0654628 C28.3356284,17.0654628 26.4092536,17.3955982 24.6956761,18.0558691 C22.9820986,18.71614 21.5177178,19.5654628 20.3025337,20.6038375 C19.0873497,21.6422122 18.1577619,22.756772 17.5137703,23.9475169 C16.8697788,25.1382619 16.547783,26.2697517 16.547783,27.3419865 C16.547783,29.1139955 17.8805655,30 20.5461305,30 Z M19.9077389,27.3927765 C19.7061416,27.3927765 19.5633434,27.3617381 19.4793445,27.2996614 C19.3953456,27.2375847 19.3533462,27.1275395 19.3533462,26.969526 C19.3533462,26.3374718 19.599743,25.6066591 20.0925365,24.777088 C20.58533,23.9475169 21.3049206,23.1461625 22.2513082,22.3730248 C23.1976958,21.5998871 24.3596805,20.9565463 25.7372625,20.4430023 C27.1148444,19.9294582 28.6940237,19.6726862 30.4748003,19.6726862 C32.2667768,19.6726862 33.854356,19.9294582 35.2375379,20.4430023 C36.6207197,20.9565463 37.7855045,21.5998871 38.731892,22.3730248 C39.6782796,23.1461625 40.3950702,23.9475169 40.8822638,24.777088 C41.3694574,25.6066591 41.6130543,26.3374718 41.6130543,26.969526 C41.6130543,27.1275395 41.5710548,27.2375847 41.4870559,27.2996614 C41.403057,27.3617381 41.2658588,27.3927765 41.0754613,27.3927765 L19.9077389,27.3927765 Z M30.4916001,14.9322799 C31.7571835,14.9322799 32.9135683,14.5908578 33.9607546,13.9080135 C35.0079409,13.2251693 35.8451299,12.3109481 36.4723217,11.1653499 C37.0995134,10.0197517 37.4131093,8.75282167 37.4131093,7.36455982 C37.4131093,5.99887133 37.1023134,4.75733634 36.4807216,3.63995485 C35.8591297,2.52257336 35.0275406,1.63656885 33.9859543,0.981941309 C32.9443679,0.32731377 31.7795832,0 30.4916001,0 C29.2260167,0 28.0696319,0.332957111 27.0224456,0.998871332 C25.9752593,1.66478555 25.1380703,2.55925508 24.5108785,3.68227991 C23.8836868,4.80530474 23.5700909,6.04401806 23.5700909,7.39841986 C23.5812907,8.78668172 23.8976866,10.0507901 24.5192784,11.1907449 C25.1408703,12.3306998 25.9752593,13.2392777 27.0224456,13.9164786 C28.0696319,14.5936795 29.2260167,14.9322799 30.4916001,14.9322799 Z M30.4916001,12.3419865 C29.74121,12.3419865 29.049619,12.1218962 28.4168273,11.6817156 C27.7840356,11.241535 27.2772423,10.6489842 26.8964473,9.90406321 C26.5156523,9.15914221 26.3252548,8.32392777 26.3252548,7.39841986 C26.3140549,6.50677201 26.4988525,5.6969526 26.8796475,4.96896163 C27.2604425,4.24097065 27.7672358,3.66534989 28.4000275,3.24209932 C29.0328192,2.81884876 29.7300101,2.60722348 30.4916001,2.60722348 C31.26439,2.60722348 31.9671808,2.81602709 32.5999725,3.23363431 C33.2327642,3.65124153 33.7367576,4.22121896 34.1119526,4.94356659 C34.4871477,5.66591422 34.6747452,6.47291196 34.6747452,7.36455982 C34.6747452,8.29006772 34.4843477,9.12810384 34.1035527,9.87866817 C33.7227577,10.6292325 33.2159644,11.2274266 32.5831727,11.6732506 C31.950381,12.1190745 31.2531901,12.3419865 30.4916001,12.3419865 Z M3.32635638,30 L15.7413936,30 C15.326999,29.7629797 14.9938034,29.4074492 14.7418067,28.9334086 C14.48981,28.4593679 14.3918113,27.962754 14.4478105,27.4435666 L3.0575599,27.4435666 C2.90076196,27.4435666 2.78596346,27.4097065 2.71316442,27.3419865 C2.64036537,27.2742664 2.60396585,27.1670429 2.60396585,27.020316 C2.60396585,26.0722348 2.85596254,25.1523702 3.35995594,24.2607223 C3.86394933,23.3690745 4.55554026,22.5733634 5.43472872,21.8735892 C6.31391719,21.1738149 7.3275039,20.6179458 8.47548885,20.2059819 C9.62347379,19.7940181 10.8358579,19.5880361 12.1126411,19.5880361 C12.7398329,19.5880361 13.3530249,19.6388262 13.952217,19.7404063 C14.5514092,19.8419865 15.1282016,19.991535 15.6825943,20.1890519 C16.2369871,20.3865688 16.7549803,20.6207675 17.2365739,20.8916479 C17.5053704,20.5417607 17.7965666,20.2116253 18.1101625,19.9012415 C18.4237584,19.5908578 18.7821537,19.3058691 19.1853484,19.0462754 C18.1661618,18.3916479 17.0517764,17.8950339 15.8421922,17.5564334 C14.6326081,17.217833 13.3894244,17.0485327 12.1126411,17.0485327 C10.4326632,17.0485327 8.86188378,17.3250564 7.40030295,17.8781038 C5.93872212,18.4311512 4.65353897,19.1873589 3.54475351,20.1467269 C2.43596805,21.1060948 1.56797944,22.1924379 0.940787662,23.4057562 C0.313595887,24.6190745 0,25.8916479 0,27.2234763 C0,28.1489842 0.277196365,28.8431151 0.831589094,29.3058691 C1.38598182,29.768623 2.21757092,30 3.32635638,30 Z M12.1294409,15.3047404 C13.2270265,15.3047404 14.2322133,15.0028217 15.1450014,14.3989842 C16.0577894,13.7951467 16.7857799,12.9909707 17.3289727,11.986456 C17.8721656,10.9819413 18.143762,9.87020316 18.143762,8.65124153 C18.143762,7.46613995 17.8721656,6.38261851 17.3289727,5.4006772 C16.7857799,4.41873589 16.0605894,3.63713318 15.1534013,3.05586907 C14.2462132,2.47460497 13.2382264,2.18397291 12.1294409,2.18397291 C11.0206555,2.18397291 10.0126687,2.47742664 9.10548058,3.06433409 C8.19829248,3.65124153 7.47310199,4.43848758 6.92990912,5.42607223 C6.38671624,6.41365688 6.1151198,7.5 6.1151198,8.68510158 C6.1151198,9.90406321 6.3895162,11.0129797 6.93830901,12.011851 C7.48710181,13.0107223 8.2122923,13.8092551 9.11388047,14.4074492 C10.0154686,15.0056433 11.0206555,15.3047404 12.1294409,15.3047404 Z M12.1294409,12.731377 C11.5022492,12.731377 10.9254567,12.5479684 10.3990636,12.1811512 C9.87267052,11.8143341 9.45267603,11.3261851 9.13908014,10.7167043 C8.82548426,10.1072235 8.66868631,9.43002257 8.66868631,8.68510158 C8.66868631,7.96275395 8.82548426,7.30248307 9.13908014,6.70428894 C9.45267603,6.10609481 9.86987056,5.62923251 10.3906637,5.27370203 C10.9114569,4.91817156 11.4910493,4.74040632 12.1294409,4.74040632 C12.7566327,4.74040632 13.3362251,4.91534989 13.8682181,5.26523702 C14.4002111,5.61512415 14.8230056,6.08634312 15.1366015,6.67889391 C15.4501974,7.2714447 15.6069953,7.92889391 15.6069953,8.65124153 C15.6069953,9.40744921 15.4473974,10.0931151 15.1282016,10.7082393 C14.8090058,11.3233634 14.3862113,11.8143341 13.8598182,12.1811512 C13.3334251,12.5479684 12.7566327,12.731377 12.1294409,12.731377 Z M57.6568438,30 C58.7656293,30 59.6000184,29.768623 60.160011,29.3058691 C60.7200037,28.8431151 61,28.1489842 61,27.2234763 C61,25.8916479 60.6836041,24.6190745 60.0508124,23.4057562 C59.4180207,22.1924379 58.5472322,21.1060948 57.4384467,20.1467269 C56.3296613,19.1873589 55.0416781,18.4311512 53.5744974,17.8781038 C52.1073166,17.3250564 50.5449371,17.0485327 48.8873589,17.0485327 C47.6105756,17.0485327 46.3673919,17.217833 45.1578078,17.5564334 C43.9482236,17.8950339 42.8338382,18.3916479 41.8146516,19.0462754 C42.2066465,19.3058691 42.5622418,19.5908578 42.8814376,19.9012415 C43.2006334,20.2116253 43.4834297,20.5417607 43.7298265,20.8916479 C44.22262,20.6207675 44.7462132,20.3865688 45.3006059,20.1890519 C45.8549986,19.991535 46.4317911,19.8419865 47.0309832,19.7404063 C47.6301753,19.6388262 48.2489672,19.5880361 48.8873589,19.5880361 C50.1641421,19.5880361 51.3737262,19.7940181 52.5161113,20.2059819 C53.6584963,20.6179458 54.672083,21.1738149 55.5568714,21.8735892 C56.4416598,22.5733634 57.1332507,23.3690745 57.6316442,24.2607223 C58.1300376,25.1523702 58.3792344,26.0722348 58.3792344,27.020316 C58.3792344,27.1670429 58.3428348,27.2742664 58.2700358,27.3419865 C58.1972368,27.4097065 58.0880382,27.4435666 57.9424401,27.4435666 L46.5353897,27.4435666 C46.591389,27.962754 46.4933903,28.4593679 46.2413936,28.9334086 C45.9893969,29.4074492 45.6618012,29.7629797 45.2586064,30 L57.6568438,30 Z M48.8705591,15.3047404 C49.9681447,15.3047404 50.9705315,15.0056433 51.8777196,14.4074492 C52.7849077,13.8092551 53.5100982,13.0107223 54.0532911,12.011851 C54.596484,11.0129797 54.8736803,9.90406321 54.8848802,8.68510158 C54.8848802,7.5 54.6132838,6.41365688 54.0700909,5.42607223 C53.526898,4.43848758 52.7961076,3.65124153 51.8777196,3.06433409 C50.9593317,2.47742664 49.9569448,2.18397291 48.8705591,2.18397291 C47.7617736,2.18397291 46.7537868,2.47460497 45.8465987,3.05586907 C44.9394106,3.63713318 44.2142201,4.41873589 43.6710273,5.4006772 C43.1278344,6.38261851 42.856238,7.46613995 42.856238,8.65124153 C42.856238,9.87020316 43.1250344,10.9819413 43.6626274,11.986456 C44.2002203,12.9909707 44.9254108,13.7951467 45.8381988,14.3989842 C46.7509869,15.0028217 47.7617736,15.3047404 48.8705591,15.3047404 Z M48.8705591,12.731377 C48.2433673,12.731377 47.6637749,12.5479684 47.1317819,12.1811512 C46.5997889,11.8143341 46.1769944,11.3233634 45.8633985,10.7082393 C45.5498026,10.0931151 45.3930047,9.40744921 45.3930047,8.65124153 C45.3930047,7.92889391 45.5498026,7.2714447 45.8633985,6.67889391 C46.1769944,6.08634312 46.5941889,5.61512415 47.1149821,5.26523702 C47.6357753,4.91534989 48.2209676,4.74040632 48.8705591,4.74040632 C49.486551,4.74040632 50.0577435,4.91817156 50.5841366,5.27370203 C51.1105297,5.62923251 51.5333242,6.10609481 51.85252,6.70428894 C52.1717158,7.30248307 52.3313137,7.96275395 52.3313137,8.68510158 C52.3313137,9.43002257 52.1717158,10.1072235 51.85252,10.7167043 C51.5333242,11.3261851 51.1105297,11.8143341 50.5841366,12.1811512 C50.0577435,12.5479684 49.486551,12.731377 48.8705591,12.731377 Z"/></svg>