<svg xmlns="http://www.w3.org/2000/svg" width="30" height="30" viewBox="0 0 30 30"><defs><linearGradient id="a" x1="50%" x2="50%" y1="0%" y2="100%"><stop offset="0%" stop-color="#FF7E66"/><stop offset="100%" stop-color="#CA0E17"/></linearGradient></defs><path fill="url(#a)" d="M15.00772,28.9809573 C16.0267627,28.9809573 16.9840453,28.630983 17.8795677,27.9310345 C18.7750901,27.2310859 19.5625322,26.2532167 20.241894,24.9974267 C20.9212558,23.7416366 21.4565106,22.2645394 21.8476583,20.5661348 C22.238806,18.8677303 22.4343798,17.0200721 22.4343798,15.0231601 C22.4343798,13.0262481 22.2413793,11.1734431 21.8553783,9.46474524 C21.4693773,7.75604735 20.9341225,6.27123006 20.249614,5.01029336 C19.5651055,3.74935666 18.7750901,2.76891405 17.8795677,2.06896552 C16.9840453,1.36901698 16.0267627,1.01904272 15.00772,1.01904272 C13.9783839,1.01904272 13.0159547,1.36901698 12.1204323,2.06896552 C11.2249099,2.76891405 10.4374678,3.74935666 9.75810602,5.01029336 C9.07874421,6.27123006 8.54606279,7.75604735 8.16006176,9.46474524 C7.77406073,11.1734431 7.58106022,13.0262481 7.58106022,15.0231601 C7.58106022,17.0200721 7.77406073,18.8677303 8.16006176,20.5661348 C8.54606279,22.2645394 9.07874421,23.7416366 9.75810602,24.9974267 C10.4374678,26.2532167 11.2274833,27.2310859 12.1281523,27.9310345 C13.0288214,28.630983 13.9886773,28.9809573 15.00772,28.9809573 Z M15.00772,2.87184766 C15.7179619,2.87184766 16.3973237,3.19608852 17.0458055,3.84457025 C17.6942872,4.49305198 18.268142,5.38085435 18.76737,6.50797735 C19.266598,7.63510036 19.6628924,8.92949048 19.9562532,10.3911477 C20.249614,11.8528049 20.3962944,13.3968091 20.3962944,15.0231601 C20.3962944,16.618631 20.249614,18.1446217 19.9562532,19.6011323 C19.6628924,21.0576428 19.266598,22.3520329 18.76737,23.4843026 C18.268142,24.6165723 17.6942872,25.506948 17.0458055,26.1554297 C16.3973237,26.8039115 15.7179619,27.1281523 15.00772,27.1281523 C14.2974781,27.1281523 13.6181163,26.8039115 12.9696346,26.1554297 C12.3211529,25.506948 11.7447247,24.6165723 11.24035,23.4843026 C10.7359753,22.3520329 10.3371076,21.0576428 10.0437468,19.6011323 C9.750386,18.1446217 9.60370561,16.618631 9.60370561,15.0231601 C9.60370561,13.3968091 9.750386,11.8528049 10.0437468,10.3911477 C10.3371076,8.92949048 10.7359753,7.63510036 11.24035,6.50797735 C11.7447247,5.38085435 12.3211529,4.49305198 12.9696346,3.84457025 C13.6181163,3.19608852 14.2974781,2.87184766 15.00772,2.87184766 Z M14.0041173,1.21976325 L14.0041173,28.7030365 L15.9958827,28.7030365 L15.9958827,1.21976325 L14.0041173,1.21976325 Z M15.00772,20.2727741 C13.494596,20.2727741 12.0586722,20.3988677 10.6999485,20.6510551 C9.34122491,20.9032424 8.124035,21.2583634 7.0483788,21.7164179 C5.97272259,22.1744725 5.09521359,22.7174472 4.41585178,23.3453423 L5.92897581,24.6114256 C6.88625836,23.8600103 8.14204838,23.2810087 9.69634586,22.874421 C11.2506433,22.4678332 13.0211014,22.2645394 15.00772,22.2645394 C16.9943387,22.2645394 18.7622234,22.4678332 20.3113742,22.874421 C21.860525,23.2810087 23.1137416,23.8600103 24.0710242,24.6114256 L25.5841482,23.3453423 C24.9150798,22.7174472 24.0401441,22.1744725 22.9593412,21.7164179 C21.8785383,21.2583634 20.6613484,20.9032424 19.3077715,20.6510551 C17.9541945,20.3988677 16.5208441,20.2727741 15.00772,20.2727741 Z M28.4251158,14.0041173 L1.5748842,14.0041173 L1.5748842,15.9804426 L28.4251158,15.9804426 L28.4251158,14.0041173 Z M15.00772,9.77354606 C16.5208441,9.77354606 17.9541945,9.65002573 19.3077715,9.40298507 C20.6613484,9.15594442 21.8785383,8.80082347 22.9593412,8.33762223 C24.0401441,7.874421 24.9150798,7.32887288 25.5841482,6.70097787 L24.0710242,5.45033453 C23.1137416,6.20174987 21.860525,6.77817808 20.3113742,7.17961915 C18.7622234,7.58106022 16.9943387,7.78178075 15.00772,7.78178075 C13.0211014,7.78178075 11.2506433,7.58106022 9.69634586,7.17961915 C8.14204838,6.77817808 6.88625836,6.20174987 5.92897581,5.45033453 L4.41585178,6.70097787 C5.09521359,7.32887288 5.97272259,7.874421 7.0483788,8.33762223 C8.124035,8.80082347 9.34122491,9.15594442 10.6999485,9.40298507 C12.0586722,9.65002573 13.494596,9.77354606 15.00772,9.77354606 Z M15.00772,30 C17.0560988,30 18.986104,29.606279 20.7977355,28.8188369 C22.609367,28.0313948 24.2048379,26.9480185 25.5841482,25.5687082 C26.9634586,24.1893978 28.0442615,22.5965003 28.8265569,20.7900154 C29.6088523,18.9835306 30,17.0509521 30,14.99228 C30,12.9439012 29.606279,11.013896 28.8188369,9.20226454 C28.0313948,7.39063304 26.9480185,5.79258878 25.5687082,4.40813176 C24.1893978,3.02367473 22.5939269,1.94287185 20.7822954,1.16572311 C18.9706639,0.38857437 17.0406588,0 14.99228,0 C12.9439012,0 11.0164694,0.38857437 9.20998456,1.16572311 C7.40349974,1.94287185 5.80802882,3.02367473 4.4235718,4.40813176 C3.03911477,5.79258878 1.95573855,7.39063304 1.17344313,9.20226454 C0.39114771,11.013896 0,12.9439012 0,14.99228 C0,17.0509521 0.39372105,18.9835306 1.18116315,20.7900154 C1.96860525,22.5965003 3.05198147,24.1893978 4.43129182,25.5687082 C5.81060216,26.9480185 7.40349974,28.0313948 9.20998456,28.8188369 C11.0164694,29.606279 12.9490479,30 15.00772,30 Z M15.00772,27.8075142 C13.2578487,27.8075142 11.6083376,27.4729799 10.0591868,26.8039115 C8.51003603,26.134843 7.14359238,25.2110139 5.95985589,24.0324241 C4.7761194,22.8538343 3.84971693,21.489964 3.18064848,19.9408132 C2.51158003,18.3916624 2.17704581,16.7421513 2.17704581,14.99228 C2.17704581,13.2424086 2.51158003,11.5928976 3.18064848,10.0437468 C3.84971693,8.49459599 4.7761194,7.13072568 5.95985589,5.95213587 C7.14359238,4.77354606 8.50746269,3.84971693 10.0514668,3.18064848 C11.5954709,2.51158003 13.2424086,2.17704581 14.99228,2.17704581 C16.7524447,2.17704581 18.4045291,2.51158003 19.9485332,3.18064848 C21.4925373,3.84971693 22.8564076,4.77354606 24.0401441,5.95213587 C25.2238806,7.13072568 26.1502831,8.49459599 26.8193515,10.0437468 C27.48842,11.5928976 27.8229542,13.2424086 27.8229542,14.99228 C27.8229542,16.7421513 27.48842,18.3916624 26.8193515,19.9408132 C26.1502831,21.489964 25.2238806,22.8538343 24.0401441,24.0324241 C22.8564076,25.2110139 21.4925373,26.134843 19.9485332,26.8039115 C18.4045291,27.4729799 16.7575914,27.8075142 15.00772,27.8075142 Z"/></svg>