<svg xmlns="http://www.w3.org/2000/svg" width="28" height="30" viewBox="0 0 28 30"><defs><linearGradient id="a" x1="50%" x2="50%" y1="0%" y2="100%"><stop offset="0%" stop-color="#FF7E66"/><stop offset="100%" stop-color="#CA0E17"/></linearGradient></defs><path fill="url(#a)" d="M0,20.2920723 C0,21.4232731 0.168230453,22.4895688 0.504691358,23.4909597 C0.841152263,24.4923505 1.30897119,25.3732035 1.90814815,26.1335188 C2.5073251,26.893834 3.20098765,27.4872508 3.9891358,27.9137691 C4.77728395,28.3402874 5.62304527,28.5535466 6.52641975,28.5535466 L10.854321,28.5535466 C11.720823,29.0171535 12.6725926,29.3741307 13.7096296,29.6244784 C14.7466667,29.8748261 15.8459259,30 17.0074074,30 L18.8325926,30 C19.6622222,30 20.4250206,29.9745016 21.1209877,29.9235049 C21.8169547,29.8725081 22.3953909,29.7913769 22.8562963,29.6801113 C23.7873251,29.4483078 24.5247737,29.0241076 25.068642,28.4075104 C25.6125103,27.7909133 25.8844444,27.0653686 25.8844444,26.2308762 C25.8844444,25.9156236 25.842963,25.609643 25.76,25.3129346 C26.7002469,24.5897079 27.1703704,23.6532221 27.1703704,22.5034771 C27.1703704,21.956421 27.0689712,21.4603616 26.8661728,21.015299 C27.1703704,20.7000464 27.4077366,20.3222068 27.5782716,19.8817803 C27.7488066,19.4413537 27.8340741,18.984701 27.8340741,18.511822 C27.8340741,18.1965693 27.7972016,17.8836347 27.7234568,17.5730181 C27.6497119,17.2624015 27.5437037,16.9865554 27.4054321,16.7454798 C27.8018107,16.1706073 28,15.470561 28,14.6453408 C28,13.9684747 27.8409877,13.3565137 27.522963,12.8094576 C27.2049383,12.2624015 26.7786008,11.8289291 26.2439506,11.5090403 C25.7093004,11.1891516 25.1055144,11.0292072 24.4325926,11.0292072 L19.5239506,11.0292072 C19.3764609,11.0292072 19.2566255,10.9967548 19.1644444,10.9318498 C19.0722634,10.8669448 19.0261728,10.7649513 19.0261728,10.6258693 C19.0353909,10.2828002 19.1529218,9.83310153 19.3787654,9.2767733 C19.6046091,8.72044506 19.862716,8.10616597 20.1530864,7.43393602 C20.4434568,6.76170607 20.6992593,6.06629578 20.9204938,5.34770515 C21.1417284,4.62911451 21.2523457,3.94065832 21.2523457,3.28233658 C21.2523457,2.64255911 21.1140741,2.07695874 20.8375309,1.58553547 C20.5609877,1.09411219 20.1876543,0.707000464 19.7175309,0.424200278 C19.2474074,0.141400093 18.7127572,0 18.1135802,0 C17.4498765,0 16.8760494,0.187760779 16.3920988,0.563282337 C15.9081481,0.938803894 15.4449383,1.54381085 15.0024691,2.3783032 C14.6060905,3.16643486 14.1820576,3.93370422 13.7303704,4.68011127 C13.2786831,5.42651831 12.7878189,6.1821975 12.2577778,6.94714882 C11.7277366,7.71210014 11.1493004,8.50486787 10.5224691,9.32545202 C9.89563786,10.1460362 9.20888889,11.0245712 8.46222222,11.961057 L6.02864198,11.961057 C4.90403292,11.961057 3.88773663,12.3342605 2.97975309,13.0806676 C2.07176955,13.8270746 1.34814815,14.8331015 0.808888889,16.0987483 C0.26962963,17.364395 0,18.7621697 0,20.2920723 Z M7.86765432,20.2086231 C7.86765432,19.2628651 7.94600823,18.4121465 8.10271605,17.6564673 C8.25942387,16.9007881 8.51292181,16.1659713 8.86320988,15.4520167 C9.21349794,14.7380621 9.68823045,13.9823829 10.2874074,13.1849791 C10.941893,12.3041261 11.6609053,11.3606861 12.4444444,10.3546592 C13.2279835,9.34863236 14.0115226,8.26842837 14.7950617,7.11404729 C15.5786008,5.9596662 16.2976132,4.71951785 16.9520988,3.39360223 C17.1825514,2.9392675 17.3853498,2.63792304 17.5604938,2.48956885 C17.7356379,2.34121465 17.9384362,2.26703755 18.1688889,2.26703755 C18.436214,2.26703755 18.650535,2.35975892 18.8118519,2.54520167 C18.9731687,2.73064441 19.0538272,2.99953639 19.0538272,3.35187761 C19.0538272,3.85257302 18.9432099,4.42049142 18.7219753,5.05563282 C18.5007407,5.69077422 18.2426337,6.3444599 17.9476543,7.01668985 C17.6526749,7.6889198 17.3945679,8.3449235 17.1733333,8.98470097 C16.9520988,9.62447844 16.8414815,10.2086231 16.8414815,10.7371349 C16.8414815,11.4974502 17.1180247,12.1024571 17.6711111,12.5521558 C18.2241975,13.0018544 18.9063374,13.2267038 19.7175309,13.2267038 L24.3911111,13.2267038 C24.8059259,13.2267038 25.1446914,13.3634678 25.4074074,13.6369958 C25.6701235,13.9105239 25.8014815,14.2512749 25.8014815,14.659249 C25.8014815,15.1877608 25.5802469,15.6699119 25.1377778,16.1057024 C24.9902881,16.2540566 24.9096296,16.416319 24.8958025,16.5924896 C24.8819753,16.7686602 24.9395885,16.9262865 25.068642,17.0653686 C25.2622222,17.362077 25.4051029,17.6170607 25.497284,17.8303199 C25.589465,18.043579 25.6355556,18.2707464 25.6355556,18.511822 C25.6355556,18.7992582 25.5664198,19.0681502 25.4281481,19.3184979 C25.2898765,19.5688456 25.0824691,19.796013 24.8059259,20 C24.6123457,20.1483542 24.4832922,20.3268428 24.4187654,20.5354659 C24.3542387,20.744089 24.381893,20.9596662 24.5017284,21.1821975 C24.6584362,21.4789059 24.7736626,21.7153454 24.8474074,21.891516 C24.9211523,22.0676866 24.9580247,22.2670376 24.9580247,22.4895688 C24.9580247,23.1200742 24.5247737,23.6671303 23.6582716,24.1307371 C23.4646914,24.2327306 23.344856,24.3648586 23.2987654,24.527121 C23.2526749,24.6893834 23.2665021,24.863236 23.3402469,25.0486787 C23.4969547,25.4102921 23.5937449,25.6583217 23.6306173,25.7927677 C23.6674897,25.9272137 23.6859259,26.0686138 23.6859259,26.216968 C23.6859259,26.5229485 23.5730041,26.7895225 23.3471605,27.0166898 C23.1213169,27.2438572 22.7779424,27.4177098 22.317037,27.5382476 C21.9298765,27.6402411 21.4367078,27.7121001 20.8375309,27.7538248 C20.2383539,27.7955494 19.5516049,27.8164117 18.777284,27.8164117 L17.0212346,27.7885953 C15.2052675,27.770051 13.610535,27.4385721 12.237037,26.7941586 C10.8635391,26.149745 9.79193416,25.2619379 9.02222222,24.1307371 C8.25251029,22.9995364 7.86765432,21.692165 7.86765432,20.2086231 Z M2.1708642,20.2920723 C2.1708642,19.1701437 2.34600823,18.1455726 2.6962963,17.2183588 C3.04658436,16.2911451 3.50748971,15.5516922 4.07901235,15 C4.65053498,14.4483078 5.26814815,14.1631896 5.93185185,14.1446453 C6.11621399,14.1446453 6.30288066,14.1446453 6.49185185,14.1446453 C6.68082305,14.1446453 6.86748971,14.1446453 7.05185185,14.1446453 C6.5817284,15.0625869 6.23604938,16.012981 6.01481481,16.9958275 C5.79358025,17.9786741 5.68296296,19.0403338 5.68296296,20.1808067 C5.68296296,21.4047288 5.89037037,22.5428836 6.30518519,23.5952712 C6.72,24.6476588 7.31917695,25.5864627 8.10271605,26.4116829 C7.83539095,26.4116829 7.56345679,26.4116829 7.28691358,26.4116829 C7.01037037,26.4116829 6.73382716,26.4116829 6.45728395,26.4116829 C5.70139918,26.3931386 4.99851852,26.1057024 4.34864198,25.5493741 C3.69876543,24.9930459 3.17333333,24.253593 2.77234568,23.3310153 C2.37135802,22.4084376 2.1708642,21.3954567 2.1708642,20.2920723 Z"/></svg>