<svg xmlns="http://www.w3.org/2000/svg" width="53" height="40" viewBox="0 0 53 40"><defs><linearGradient id="a" x1="50%" x2="50%" y1="0%" y2="100%"><stop offset="0%" stop-color="#7BEB8D"/><stop offset="100%" stop-color="#45D354"/></linearGradient><linearGradient id="b" x1="50%" x2="50%" y1="3.283%" y2="100%"><stop offset="0%" stop-color="#903DAB"/><stop offset="49.302%" stop-color="#D22E8B"/><stop offset="79.592%" stop-color="#F2673B"/><stop offset="100%" stop-color="#FCA948"/></linearGradient><linearGradient id="c" x1="50%" x2="50%" y1="0%" y2="100%"><stop offset="0%" stop-color="#FF7E66"/><stop offset="100%" stop-color="#CA0E17"/></linearGradient></defs><g fill="none" fill-rule="evenodd"><path fill="#3682D9" fill-rule="nonzero" d="M13.3653883,17.9388139 L13.3653883,10.8280014 L11,10.8280014 L11,8.26910974 L13.3653883,8.26910974 L13.3653883,6.38228224 C13.3653883,4.19302041 14.7968798,3 16.887971,3 C17.889477,3 18.7501499,3.06970849 19,3.10041082 L19,5.38877234 L17.5496761,5.38942791 C16.4127177,5.38942791 16.193514,5.89399502 16.193514,6.63467506 L16.193514,8.26779861 L18.9064232,8.26779861 L18.5525858,10.8266903 L16.193514,10.8266903 L16.193514,18"/><path fill="url(#a)" d="M37.6198083,0 C41.7412141,0 45,3.25471698 45,7.31132075 C44.9893283,9.90152589 43.613068,12.3005144 41.3651558,13.6472948 C39.1172435,14.9940751 36.3201084,15.095472 33.9776358,13.9150943 L33.9776358,13.9150943 L30,15 L31.0543131,11.1320755 C29.725412,8.8279164 29.7392688,6.00255756 31.0907087,3.71113395 C32.4421486,1.41971034 34.9279584,0.00677842621 37.6198083,0 Z M37.640026,1.38745578 C34.1416234,1.38745578 31.3141474,4.21764446 31.3141474,7.61387087 C31.3141474,9.45349351 32.2726138,10.9157577 32.2726138,10.9157577 L32.2726138,10.9157577 L31.6975339,13.1799086 L34.0457768,12.5667011 C34.0457768,12.5667011 35.5313998,13.6044369 37.496256,13.6044369 C40.8988119,13.5572671 43.6783646,10.7742482 43.6783646,7.37802182 C43.6783646,3.88745578 40.8988119,1.38745578 37.640026,1.38745578 Z M35.3578275,4.00754717 C35.4728435,4.00754717 35.5878594,4.03773585 35.7028754,4.33962264 L35.7028754,4.33962264 L36.2779553,5.70754717 C36.3258786,5.80188679 36.3738019,5.89622642 36.2779553,5.99056604 L36.2779553,5.99056604 L35.8466454,6.6509434 C35.7507987,6.74528302 35.6549521,6.83962264 35.7028754,7.02830189 C36.5654952,8.44339623 37.571885,8.86792453 38.2907348,9.24528302 C38.4824281,9.33962264 38.5782748,9.29245283 38.7220447,9.19811321 L38.7220447,9.19811321 L39.2971246,8.44339623 C39.4408946,8.25471698 39.5846645,8.30188679 39.7284345,8.39622642 L39.7284345,8.39622642 L41.4057508,9.19811321 C41.5974441,9.29245283 41.3578275,9.90566038 41.3099042,10.0471698 C41.0702875,10.4716981 40.543131,10.8962264 40.0159744,10.9433962 C39.5846645,11.0377358 39.2492013,11.1320755 37.715655,10.4716981 C35.6549521,9.5754717 34.6964856,7.87735849 34.5527157,7.68867925 C33.7859425,6.74528302 33.3546326,5.28301887 34.4089457,4.24528302 C34.600639,4.05660377 34.7923323,4.00943396 34.8881789,4.00943396 L34.8881789,4.00943396 L35.2715655,4.00943396 L35.2715655,4.00943396 Z"/><path fill="url(#b)" fill-rule="nonzero" d="M8.41302004,25.0000012 C9.18920796,25.0018831 9.59057947,25.0070431 9.94744211,25.0182118 L10.2119047,25.0277576 C10.3303222,25.0325389 10.4529695,25.0380637 10.5920801,25.0444331 C11.3904785,25.0807138 11.9356006,25.2074101 12.4127398,25.3927049 C12.9132266,25.5810899 13.3666748,25.8764857 13.7412674,26.2580625 C14.1228414,26.6327723 14.4181206,27.0861094 14.6063897,27.5866 C14.7917976,28.0636282 14.9186075,28.6088688 14.9551168,29.4072731 C14.9630287,29.5811627 14.9696317,29.7293226 14.975121,29.8756504 L14.981186,30.0518937 C14.9922969,30.4087393 14.9974423,30.8100913 14.9993206,31.5863085 L15,32.0071853 C15.000144,32.1589102 15.0002098,32.3225774 15.0002098,32.4997163 L15.0001589,32.7554979 C15.0001245,32.8375181 15.000072,32.9163618 15,32.9922201 L14.9993206,33.4130749 C14.9974423,34.1892532 14.9922969,34.5905974 14.981186,34.9474663 L14.975121,35.1237239 C14.9696317,35.2700657 14.9630287,35.4182451 14.9551168,35.5921596 C14.9186075,36.3904495 14.7919121,36.93569 14.6063897,37.4128327 C14.2168043,38.4203375 13.4203515,39.2167961 12.4128542,39.6063844 C11.935715,39.7919081 11.390593,39.9186045 10.5921946,39.9551141 C10.4183062,39.9630509 10.270142,39.9696681 10.123808,39.9751641 L9.94755655,39.9812341 C9.59069391,39.9923486 9.1893224,39.9974639 8.41313449,39.9993268 L7.99227662,40 C7.84055964,40.0001425 7.67690188,40.0002074 7.49977415,40.0002074 L7.24399451,40.0001572 C7.16197489,40.0001231 7.0831318,40.0000713 7.00727406,40 L6.58642241,39.9993268 C5.81024985,39.9974639 5.4089086,39.9923486 5.05204234,39.9812341 L4.87578603,39.9751641 C4.72944527,39.9696681 4.58126694,39.9630509 4.40735375,39.9551141 C3.60895535,39.9186045 3.06371883,39.7919081 2.5866941,39.6063844 C2.08620726,39.4181139 1.63275908,39.1228325 1.25816649,38.7412557 C0.876592495,38.3666603 0.581313271,37.9132088 0.393044131,37.4128327 C0.207636276,36.93569 0.080826409,36.3904495 0.0444315425,35.5921596 C0.0380621895,35.4530479 0.0325374681,35.3303998 0.0277562392,35.2119808 L0.0182104498,34.9475136 C0.00704180738,34.5906428 0.00188190902,34.1892533 -1.44318151e-15,33.4130189 L-1.44307309e-15,31.5862434 C0.00188190902,30.8100651 0.00704180738,30.4087209 0.0182104498,30.051852 L0.0277562392,29.7873776 C0.0325374681,29.6689514 0.0380621895,29.5462902 0.0444315425,29.4071586 C0.080711967,28.6088688 0.207407362,28.0636282 0.392700805,27.5864855 C0.581084358,27.085995 0.876478024,26.6326579 1.25805204,26.2580625 C1.63275908,25.8764857 2.08609282,25.5812043 2.58657965,25.3929338 C3.06371883,25.2075245 3.60884091,25.0807138 4.40723931,25.0442042 C5.06801489,25.0141386 5.35733517,25.002974 6.58629937,25 Z M8.1982657,26.3509759 L6.80093952,26.3509756 C5.83820229,26.3524078 5.41752384,26.3576822 5.01588508,26.3714708 L4.84339504,26.3779151 C4.7271457,26.382577 4.60635126,26.3879884 4.46881305,26.3942582 C3.73748193,26.4276777 3.34034281,26.549796 3.07607935,26.6525722 C2.75024219,26.7727449 2.4555352,26.9644489 2.21358934,27.2136069 C1.96454764,27.4555546 1.77273059,27.7502637 1.65244439,28.0761033 C1.54978333,28.3403687 1.42766591,28.7375108 1.39424674,29.4688473 C1.38797691,29.6064064 1.38256555,29.7272147 1.37790371,29.8434734 L1.37145946,30.0159743 C1.35767096,30.417632 1.35239658,30.8382889 1.35096444,31.8010713 L1.35096444,33.1985561 C1.35301036,34.5739052 1.36289757,34.8430037 1.39424674,35.5306999 C1.42755147,36.2620364 1.54978333,36.6591784 1.65244439,36.9234438 C1.77273059,37.2492834 1.9644332,37.5438781 2.21358934,37.7858258 C2.4555352,38.0349838 2.75024219,38.2266878 3.07596491,38.3469749 C3.34034281,38.4496367 3.73748193,38.5718695 4.46869858,38.6051744 C4.6062368,38.6114642 4.72702777,38.6168886 4.8432726,38.6215583 L5.01575539,38.6280108 C5.41737677,38.6418106 5.83803969,38.6470446 6.80086646,38.6484621 L8.19841884,38.6484621 C9.16120756,38.6470446 9.5818951,38.6418106 9.98350054,38.6280108 L10.1559737,38.6215583 C10.2722101,38.6168886 10.3929881,38.6114642 10.5305064,38.6051744 C11.2618375,38.5718695 11.6589766,38.4496367 11.9232401,38.3469749 C12.5774323,38.0946123 13.0943999,37.5776409 13.3467606,36.9234438 C13.4494216,36.6591784 13.5716535,36.2620364 13.6049582,35.5306999 C13.611248,35.3931407 13.6166723,35.2723324 13.621342,35.1560738 L13.6277944,34.9835728 C13.6415941,34.5819152 13.6468281,34.1612582 13.6482456,33.1984758 L13.6482405,31.800991 C13.6468084,30.8382466 13.641534,30.4175651 13.6277455,30.0159234 L13.6213013,29.843432 C13.6166394,29.7271818 13.6112281,29.6063865 13.6049582,29.4688473 C13.5716535,28.7375108 13.4494216,28.3403687 13.3466461,28.0761033 C13.2264744,27.7502637 13.0347718,27.4555546 12.7856156,27.2136069 C12.5436698,26.9645634 12.2489628,26.7728593 11.9232401,26.6525722 C11.6588621,26.5499105 11.2618375,26.4276777 10.5305064,26.3943727 C10.3929483,26.3880829 10.2721374,26.3826551 10.1558744,26.3779796 L9.98336611,26.371517 C9.58168928,26.3576904 9.16100411,26.3524092 8.1982657,26.3509759 Z M7.49954527,28.6480107 C9.6268146,28.6480107 11.3512224,30.3725457 11.3512224,32.4997163 C11.3512224,34.626887 9.6268146,36.3513075 7.49954527,36.3513075 C5.37239034,36.3513075 3.64798256,34.626887 3.64798256,32.4997163 C3.64798256,30.3725457 5.37239034,28.6480107 7.49954527,28.6480107 Z M7.49965971,29.9994382 C6.11882877,29.9994382 4.9995145,31.1188752 4.9995145,32.4996019 C4.99940003,33.880443 6.11882877,34.9997656 7.49954527,34.99988 C8.88037621,34.99988 9.99980492,33.880443 9.99980492,32.4996019 C9.99980492,31.1188752 8.88049065,29.9995527 7.49965971,29.9994382 Z M11.50344,27.595756 C12.0004934,27.595756 12.4034694,27.998735 12.4034694,28.4959065 C12.4034694,28.9929635 12.0004934,29.3959425 11.50344,29.3959425 C11.0062722,29.3959425 10.6032962,28.9929635 10.6032962,28.4959065 C10.6032962,27.998735 11.0062722,27.595756 11.50344,27.595756 Z"/><path fill="#08BBEE" d="M37.0497353,31.518573 C37.2604176,31.5551769 37.4774595,31.5742921 37.699163,31.5742921 C38.089497,31.5742921 38.4653817,31.5150395 38.8175467,31.405413 C37.0911971,31.1441855 35.7711894,29.7125867 35.7711894,27.985703 C35.7711894,27.9589203 35.7715069,27.9322087 35.7721385,27.9055714 C36.2833018,28.1835755 36.8721622,28.3456935 37.4997745,28.3546247 C36.4629176,27.745972 35.7711894,26.6506174 35.7711894,25.4005236 C35.7711894,24.7514765 35.9576568,24.1441419 36.2820817,23.6249812 C38.1203678,25.7307494 40.8173031,27.1252461 43.857311,27.3146693 C43.8016194,27.0697913 43.7722796,26.8154881 43.7722796,26.5546215 C43.7722796,24.5914582 45.4339071,23 47.4836287,23 C48.5544826,23 49.5194093,23.4343762 50.1968085,24.1291971 C51.0373217,24.0013162 51.8185116,23.7028634 52.5004941,23.2720383 C52.2489211,24.0946539 51.6763981,24.7859429 50.9215813,25.2131051 C51.6604426,25.1472934 52.3585104,24.9550888 53,24.666589 C52.5404501,25.3869171 51.9231463,26.0048605 51.1940958,26.4763547 C51.1946828,26.5023758 51.1949777,26.5284657 51.1949777,26.5546215 C51.1949777,26.6239796 51.1934166,26.892843 51.1934166,26.9593482 C51.1934166,32.5046474 46.4998584,37 40.7100605,37 C38.603926,37 36.6428526,36.4051477 35,35.3812904 C35.2920054,35.4137439 35.5890319,35.4304268 35.8901266,35.4304268 C37.6341975,35.4304268 39.2417669,34.8706755 40.5276777,33.928511 C38.8812795,33.9286519 37.5147139,32.9162724 37.0497353,31.518573 Z"/><path fill="url(#c)" fill-rule="nonzero" d="M25.006176,36.1847658 C25.8214102,36.1847658 26.5872362,35.9047864 27.3036541,35.3448276 C28.0200721,34.7848688 28.6500257,34.0025733 29.1935152,32.9979413 C29.7370046,31.9933093 30.1652084,30.8116315 30.4781266,29.4529079 C30.7910448,28.0941843 30.9475039,26.6160576 30.9475039,25.018528 C30.9475039,23.4209985 30.7931034,21.9387545 30.4843026,20.5717962 C30.1755018,19.2048379 29.747298,18.016984 29.1996912,17.0082347 C28.6520844,15.9994853 28.0200721,15.2151312 27.3036541,14.6551724 C26.5872362,14.0952136 25.8214102,13.8152342 25.006176,13.8152342 C24.1827072,13.8152342 23.4127638,14.0952136 22.6963459,14.6551724 C21.9799279,15.2151312 21.3499743,15.9994853 20.8064848,17.0082347 C20.2629954,18.016984 19.8368502,19.2048379 19.5280494,20.5717962 C19.2192486,21.9387545 19.0648482,23.4209985 19.0648482,25.018528 C19.0648482,26.6160576 19.2192486,28.0941843 19.5280494,29.4529079 C19.8368502,30.8116315 20.2629954,31.9933093 20.8064848,32.9979413 C21.3499743,34.0025733 21.9819866,34.7848688 22.7025219,35.3448276 C23.4230571,35.9047864 24.1909418,36.1847658 25.006176,36.1847658 Z M25.006176,15.2974781 C25.5743695,15.2974781 26.117859,15.5568708 26.6366444,16.0756562 C27.1554297,16.5944416 27.6145136,17.3046835 28.013896,18.2063819 C28.4132784,19.1080803 28.7303139,20.1435924 28.9650026,21.3129182 C29.1996912,22.482244 29.3170355,23.7174472 29.3170355,25.018528 C29.3170355,26.2949048 29.1996912,27.5156974 28.9650026,28.6809058 C28.7303139,29.8461143 28.4132784,30.8816264 28.013896,31.7874421 C27.6145136,32.6932578 27.1554297,33.4055584 26.6366444,33.9243438 C26.117859,34.4431292 25.5743695,34.7025219 25.006176,34.7025219 C24.4379825,34.7025219 23.8944931,34.4431292 23.3757077,33.9243438 C22.8569223,33.4055584 22.3957797,32.6932578 21.99228,31.7874421 C21.5887802,30.8816264 21.2696861,29.8461143 21.0349974,28.6809058 C20.8003088,27.5156974 20.6829645,26.2949048 20.6829645,25.018528 C20.6829645,23.7174472 20.8003088,22.482244 21.0349974,21.3129182 C21.2696861,20.1435924 21.5887802,19.1080803 21.99228,18.2063819 C22.3957797,17.3046835 22.8569223,16.5944416 23.3757077,16.0756562 C23.8944931,15.5568708 24.4379825,15.2974781 25.006176,15.2974781 Z M24.2032939,13.9758106 L24.2032939,35.9624292 L25.7967061,35.9624292 L25.7967061,13.9758106 L24.2032939,13.9758106 Z M25.006176,29.2182192 C23.7956768,29.2182192 22.6469377,29.3190942 21.5599588,29.5208441 C20.4729799,29.7225939 19.499228,30.0066907 18.638703,30.3731343 C17.7781781,30.739578 17.0761709,31.1739578 16.5326814,31.6762738 L17.7431806,32.6891405 C18.5090067,32.0880082 19.5136387,31.624807 20.7570767,31.2995368 C22.0005147,30.9742666 23.4168811,30.8116315 25.006176,30.8116315 C26.5954709,30.8116315 28.0097787,30.9742666 29.2490993,31.2995368 C30.48842,31.624807 31.4909933,32.0880082 32.2568194,32.6891405 L33.4673186,31.6762738 C32.9320638,31.1739578 32.2321153,30.739578 31.367473,30.3731343 C30.5028307,30.0066907 29.5290787,29.7225939 28.4462172,29.5208441 C27.3633556,29.3190942 26.2166752,29.2182192 25.006176,29.2182192 Z M35.7400926,24.2032939 L14.2599074,24.2032939 L14.2599074,25.7843541 L35.7400926,25.7843541 L35.7400926,24.2032939 Z M25.006176,20.8188369 C26.2166752,20.8188369 27.3633556,20.7200206 28.4462172,20.5223881 C29.5290787,20.3247555 30.5028307,20.0406588 31.367473,19.6700978 C32.2321153,19.2995368 32.9320638,18.8630983 33.4673186,18.3607823 L32.2568194,17.3602676 C31.4909933,17.9613999 30.48842,18.4225425 29.2490993,18.7436953 C28.0097787,19.0648482 26.5954709,19.2254246 25.006176,19.2254246 C23.4168811,19.2254246 22.0005147,19.0648482 20.7570767,18.7436953 C19.5136387,18.4225425 18.5090067,17.9613999 17.7431806,17.3602676 L16.5326814,18.3607823 C17.0761709,18.8630983 17.7781781,19.2995368 18.638703,19.6700978 C19.499228,20.0406588 20.4729799,20.3247555 21.5599588,20.5223881 C22.6469377,20.7200206 23.7956768,20.8188369 25.006176,20.8188369 Z M25.006176,37 C26.6448791,37 28.1888832,36.6850232 29.6381884,36.0550695 C31.0874936,35.4251158 32.3638703,34.5584148 33.4673186,33.4549665 C34.5707669,32.3515183 35.4354092,31.0772002 36.0612455,29.6320124 C36.6870818,28.1868245 37,26.6407617 37,24.993824 C37,23.3551209 36.6850232,21.8111168 36.0550695,20.3618116 C35.4251158,18.9125064 34.5584148,17.634071 33.4549665,16.5265054 C32.3515183,15.4189398 31.0751415,14.5542975 29.6258363,13.9325785 C28.1765311,13.3108595 26.632527,13 24.993824,13 C23.3551209,13 21.8131755,13.3108595 20.3679876,13.9325785 C18.9227998,14.5542975 17.6464231,15.4189398 16.5388574,16.5265054 C15.4312918,17.634071 14.5645908,18.9125064 13.9387545,20.3618116 C13.3129182,21.8111168 13,23.3551209 13,24.993824 C13,26.6407617 13.3149768,28.1868245 13.9449305,29.6320124 C14.5748842,31.0772002 15.4415852,32.3515183 16.5450335,33.4549665 C17.6484817,34.5584148 18.9227998,35.4251158 20.3679876,36.0550695 C21.8131755,36.6850232 23.3592383,37 25.006176,37 Z M25.006176,35.2460113 C23.606279,35.2460113 22.2866701,34.9783839 21.0473495,34.4431292 C19.8080288,33.9078744 18.7148739,33.1688111 17.7678847,32.2259393 C16.8208955,31.2830674 16.0797735,30.1919712 15.5445188,28.9526505 C15.009264,27.7133299 14.7416366,26.393721 14.7416366,24.993824 C14.7416366,23.5939269 15.009264,22.2743181 15.5445188,21.0349974 C16.0797735,19.7956768 16.8208955,18.7045805 17.7678847,17.7617087 C18.7148739,16.8188369 19.8059701,16.0797735 21.0411734,15.5445188 C22.2763767,15.009264 23.5939269,14.7416366 24.993824,14.7416366 C26.4019557,14.7416366 27.7236233,15.009264 28.9588266,15.5445188 C30.1940299,16.0797735 31.2851261,16.8188369 32.2321153,17.7617087 C33.1791045,18.7045805 33.9202265,19.7956768 34.4554812,21.0349974 C34.990736,22.2743181 35.2583634,23.5939269 35.2583634,24.993824 C35.2583634,26.393721 34.990736,27.7133299 34.4554812,28.9526505 C33.9202265,30.1919712 33.1791045,31.2830674 32.2321153,32.2259393 C31.2851261,33.1688111 30.1940299,33.9078744 28.9588266,34.4431292 C27.7236233,34.9783839 26.4060731,35.2460113 25.006176,35.2460113 Z"/></g></svg>