<svg xmlns="http://www.w3.org/2000/svg" width="37" height="33" viewBox="0 0 37 33"><defs><linearGradient id="a" x1="50%" x2="50%" y1="0%" y2="100%"><stop offset="0%" stop-color="#FF7E66"/><stop offset="100%" stop-color="#CA0E17"/></linearGradient></defs><path fill="none" stroke="url(#a)" stroke-linecap="round" stroke-linejoin="round" stroke-width="2.655" d="M18.5,20.1851858 L35.5,10.8425929 L18.5,1.5 L1.5,10.8425929 L18.5,20.1851858 Z M18.5,20.1851858 L30.1338556,13.7916757 C31.1587667,16.3483697 31.7222222,19.1358257 31.7222222,22.0535175 C31.7222222,23.3640964 31.6085111,24.6481424 31.3905333,25.8970602 C26.4603444,26.3711034 21.9925556,28.4077886 18.5,31.5 C15.0074444,28.4077886 10.5396744,26.3711034 5.60950444,25.8970602 C5.39143222,24.6481424 5.27777778,23.3639096 5.27777778,22.0535175 C5.27777778,19.1358257 5.84112,16.3483697 6.86610667,13.7914889 L18.5,20.1851858 Z M10.9444444,31.3961104 L10.9444444,17.3824079 L18.5,13.2301859"/></svg>