<svg xmlns="http://www.w3.org/2000/svg" width="44" height="32" viewBox="0 0 44 32"><path fill="none" stroke="red" stroke-width="2.5" d="M22.0814112,1.99896243 C22.0995508,1.99899325 22.1205823,1.99903436 22.1444179,1.99908916 L22.5594385,2.00062364 C25.0271286,2.01268026 34.9171678,2.10762614 37.6499418,2.85532498 C39.3632426,3.31665736 40.7142905,4.6670919 41.175423,6.38030706 C41.4432216,7.35819745 41.6241309,8.66748217 41.7463044,10.0055426 L41.792108,10.5415842 C41.9704599,12.7755078 41.9960843,14.9772831 41.9993222,15.7458982 L41.9991102,16.1617809 C41.9938657,17.090529 41.9309321,22.7825495 41.1757282,25.6513076 C40.7142905,27.3642177 39.3635479,28.7149573 37.6499418,29.1759846 C36.3083982,29.5290451 33.2420689,29.730794 30.1757476,29.846079 L29.495044,29.870301 C26.3249709,29.976941 23.292308,29.9957598 22.3206784,29.9990808 L21.6779355,29.9990526 C19.7047989,29.9920241 9.20956048,29.9182253 6.34786819,29.1433374 C4.63426214,28.682005 3.28351948,27.3312653 2.82208184,25.6183553 C2.11851278,22.9733411 2.01590895,17.8288462 2.0009459,16.384621 L1.99932223,16.2004054 C1.99913603,16.1743451 1.99898707,16.150666 1.9988679,16.1294579 L1.9988679,15.869828 C1.99898707,15.8487192 1.99913603,15.8251498 1.99932223,15.7992091 L2.0009459,15.6158207 C2.01590895,14.1779497 2.11851278,9.05320745 2.82208184,6.38030706 C3.28321423,4.667397 4.66722197,3.28370504 6.34756303,2.82267776 C9.08033701,2.10348046 18.9701437,2.01215382 21.4377747,2.00055679 L21.8527853,1.9990808 C21.8766204,1.99902809 21.8976513,1.99898855 21.9157905,1.9989589 Z M18.1236394,11.0339317 C18.0504884,11.160968 18.0119862,11.3049892 18.0119862,11.4515815 L18.0119862,20.5470809 C18.0119862,21.0093192 18.3867044,21.3840374 18.8489427,21.3840374 C18.995535,21.3840374 19.1395562,21.3455352 19.2665925,21.2723842 L27.1643521,16.7246345 C27.5649261,16.4939729 27.7026672,15.9822554 27.4720056,15.5816814 C27.3983691,15.453802 27.2922316,15.3476645 27.1643521,15.2740279 L19.2665925,10.7262782 C18.8660186,10.4956166 18.354301,10.6333578 18.1236394,11.0339317 Z"/></svg>