<svg xmlns="http://www.w3.org/2000/svg" width="32" height="32" viewBox="0 0 32 32"><path d="M16.0082347,32 C18.1931721,32 20.2518442,31.5800309 22.1842512,30.7400926 C24.1166581,29.9001544 25.8184937,28.7445531 27.2897581,27.2732887 C28.7610225,25.8020244 29.9138789,24.1029336 30.7483273,22.1760165 C31.5827758,20.2490993 32,18.1876823 32,15.9917653 C32,13.8068279 31.5800309,11.7481558 30.7400926,9.81574884 C29.9001544,7.88334191 28.7445531,6.17876137 27.2732887,4.70200721 C25.8020244,3.22525305 24.1001887,2.07239664 22.1677818,1.24343798 C20.2353748,0.414479328 18.1767027,0 15.9917653,0 C13.8068279,0 11.7509007,0.414479328 9.82398353,1.24343798 C7.89706639,2.07239664 6.19523074,3.22525305 4.71847658,4.70200721 C3.24172242,6.17876137 2.08612112,7.88334191 1.25167267,9.81574884 C0.417224224,11.7481558 0,13.8068279 0,15.9917653 C0,18.1876823 0.41996912,20.2490993 1.25990736,22.1760165 C2.0998456,24.1029336 3.2554469,25.8020244 4.72671127,27.2732887 C6.19797564,28.7445531 7.89706639,29.9001544 9.82398353,30.7400926 C11.7509007,31.5800309 13.8123177,32 16.0082347,32 Z M15.9998689,29 C14.1966084,29 12.5081008,28.6641462 10.9343462,27.9924386 C9.36059157,27.3207309 7.97809186,26.389624 6.78684704,25.1991178 C5.59560223,24.0086116 4.66664985,22.6269691 3.99998991,21.0541903 C3.33332997,19.4814115 3,17.7939509 3,15.9918084 C3,14.189666 3.33332997,12.5022054 3.99998991,10.9294266 C4.66664985,9.35664776 5.59560223,7.97500525 6.78684704,6.78449905 C7.97809186,5.59399286 9.35785936,4.66561647 10.9261495,3.99936988 C12.4944397,3.33312329 14.1802151,3 15.9834756,3 C17.7867361,3 19.4752436,3.33312329 21.0489982,3.99936988 C22.6227529,4.66561647 24.0052526,5.59399286 25.1964974,6.78449905 C26.3877422,7.97500525 27.3194268,9.35664776 27.9915512,10.9294266 C28.6636755,12.5022054 28.9997377,14.189666 28.9997377,15.9918084 C29.0106666,17.7939509 28.6800688,19.4814115 28.0079444,21.0541903 C27.3358201,22.6269691 26.4068677,24.0086116 25.2210873,25.1991178 C24.0353069,26.389624 22.6528072,27.3207309 21.0735882,27.9924386 C19.4943691,28.6641462 17.8031294,29 15.9998689,29 Z M19.0110405,23.6664951 C19.273488,23.4139647 19.399244,23.114771 19.3883087,22.7689141 C19.3773734,22.4230571 19.2516173,22.134843 19.0110405,21.9042717 L12.7779124,15.9917653 L19.0110405,10.0957283 C19.2625526,9.85417739 19.3855749,9.5577286 19.3801073,9.20638188 C19.3746396,8.85503517 19.2461497,8.55858638 18.9946375,8.31703551 C18.7540606,8.09744382 18.4670087,7.99313776 18.1334816,8.00411734 C17.7999546,8.01509693 17.507435,8.13587236 17.2559228,8.36644364 L10.8751681,14.4107051 C10.415885,14.8389089 10.1862434,15.3686739 10.1862434,16 C10.1862434,16.6313261 10.415885,17.1610911 10.8751681,17.5892949 L17.2559228,23.6335564 C17.4855644,23.8531481 17.7808178,23.9684337 18.1416831,23.9794133 C18.5025484,23.9903929 18.7923342,23.8860868 19.0110405,23.6664951 Z"/></svg>