<svg xmlns="http://www.w3.org/2000/svg" width="16" height="16" viewBox="0 0 16 16"><path d="M11.8950187,16 C12.6034637,16 13.2090698,15.8956237 13.7118372,15.6868711 C14.2146045,15.4781185 14.677379,15.1392529 15.1001607,14.6702744 C15.1344403,14.635959 15.1658632,14.6016435 15.1944296,14.567328 C15.2229959,14.5330125 15.2515622,14.498697 15.2801285,14.4643815 C15.525799,14.1955767 15.7071951,13.9253422 15.8243171,13.6536778 C15.941439,13.3820135 16,13.1203578 16,12.8687108 C16,12.5713098 15.914301,12.2839175 15.7429031,12.0065339 C15.5715051,11.7291503 15.3029816,11.4674946 14.9373326,11.2215669 L12.5549009,9.55726523 C12.1835387,9.299899 11.7936083,9.16978607 11.3851098,9.16692644 C10.9766113,9.16406682 10.6038207,9.33135487 10.2667381,9.6687906 L9.64970541,10.2778907 C9.5525799,10.3808372 9.4568827,10.4365999 9.36261382,10.4451787 C9.26834494,10.4537576 9.16693448,10.4237316 9.05838243,10.3551006 C8.91555079,10.2578733 8.73415462,10.1191815 8.51419389,9.93902515 C8.29423317,9.75886879 8.06570255,9.56155467 7.82860204,9.34708281 C7.59150152,9.13261095 7.37582575,8.92814777 7.18157472,8.73369328 C6.97589716,8.53351954 6.77736119,8.32905637 6.58596679,8.12030375 C6.3945724,7.91155114 6.21888948,7.70708796 6.05891805,7.50691422 C5.89894662,7.30674048 5.76754151,7.12086487 5.66470273,6.94928738 C5.59043028,6.84634089 5.55900732,6.74768383 5.57043385,6.65331621 C5.58186038,6.55894859 5.6361364,6.46315116 5.73326192,6.36592391 L6.34172469,5.74824495 C6.68452062,5.40508997 6.85449027,5.0290493 6.85163364,4.62012295 C6.848777,4.2111966 6.71594358,3.82371743 6.45313337,3.45768545 L4.78200321,1.04702171 C4.5363328,0.692428229 4.2749509,0.430772556 3.99785753,0.26205469 C3.72076415,0.0933368247 3.43367256,0.0061182671 3.13658275,0.00039901742 C2.61096233,-0.0110394819 2.07962864,0.223449755 1.54258168,0.703866728 C1.50258882,0.732462977 1.46688091,0.762489037 1.43545795,0.793944911 C1.40403499,0.825400784 1.37118372,0.85256722 1.33690412,0.875444219 C0.868416354,1.30438794 0.528477058,1.77193661 0.317086235,2.2780902 C0.105695412,2.7842438 0,3.39763333 0,4.11825879 C0,4.90179599 0.152829852,5.72965739 0.458489555,6.60184296 C0.764149259,7.47402854 1.21978218,8.36194205 1.82538832,9.2655835 C2.43099447,10.169225 3.17657561,11.0642875 4.06213176,11.9507712 C4.94768791,12.8258164 5.83895733,13.5650294 6.73594001,14.1684103 C7.63292269,14.7717911 8.51847884,15.2279013 9.39260846,15.5367408 C10.2667381,15.8455803 11.1008748,16 11.8950187,16 Z M11.8950187,14.7045899 C11.2037136,14.7103092 10.4667024,14.5587491 9.683985,14.2499096 C8.90126763,13.9410701 8.11283699,13.5092668 7.31869309,12.9544995 C6.52454919,12.3997323 5.76468488,11.7591764 5.03910016,11.0328317 C4.31351544,10.3122062 3.66648813,9.54582673 3.09801821,8.73369328 C2.52954829,7.92155983 2.0853419,7.11657543 1.76539904,6.3187401 C1.44545617,5.52090477 1.291198,4.7759725 1.30262453,4.08394329 C1.3083378,3.64356106 1.38975183,3.23749434 1.54686663,2.86574311 C1.70398143,2.49399188 1.93965363,2.17085427 2.25388324,1.89633029 C2.28244956,1.87345329 2.30958757,1.85057629 2.33529727,1.82769929 C2.36100696,1.80482229 2.38814497,1.78194529 2.4167113,1.75906829 C2.53097661,1.66184105 2.64952687,1.58606099 2.77236208,1.53172812 C2.89519729,1.47739525 3.01660418,1.45022881 3.13658275,1.45022881 C3.38796643,1.45022881 3.58793073,1.56461381 3.73647563,1.79338379 L5.28762721,4.10967991 C5.37903946,4.24122266 5.42188895,4.37848465 5.41617568,4.52146589 C5.41046242,4.66444713 5.34190323,4.80170912 5.21049813,4.93325187 L4.52490627,5.61098295 C4.23352973,5.90266469 4.08784146,6.21007436 4.08784146,6.53321197 C4.08784146,6.85634957 4.1878236,7.15803999 4.3877879,7.43828323 C4.61060525,7.74712271 4.90341011,8.10743544 5.26620246,8.51922142 C5.62899482,8.93100739 5.97321907,9.299899 6.2988752,9.62589623 C6.52740582,9.84894697 6.7787895,10.0877256 7.05302625,10.3422323 C7.32726299,10.5967389 7.5986431,10.8383772 7.86716658,11.0671472 C8.13569006,11.2959171 8.36993394,11.4846524 8.56989823,11.6333529 C8.84984824,11.8335266 9.151223,11.9336135 9.4740225,11.9336135 C9.796822,11.9336135 10.10391,11.784913 10.3952866,11.487512 L11.0723085,10.8097809 C11.2037136,10.6725189 11.3422603,10.6024581 11.4879486,10.5995985 C11.6336369,10.5967389 11.7721835,10.641063 11.9035886,10.732571 L14.2003214,12.2596107 C14.3202999,12.3396802 14.4059989,12.4311882 14.4574183,12.5341347 C14.5088377,12.6370812 14.5345474,12.7486066 14.5345474,12.8687108 C14.5345474,13.1032 14.4317086,13.3434085 14.2260311,13.5893363 C14.203178,13.6179325 14.1803249,13.6450989 14.1574719,13.6708356 C14.1346188,13.6965722 14.1117658,13.720879 14.0889127,13.743756 C13.8203892,14.0583147 13.4975897,14.2942338 13.1205142,14.4515131 C12.7434387,14.6087925 12.3349402,14.6931514 11.8950187,14.7045899 Z"/></svg>