<svg xmlns="http://www.w3.org/2000/svg" width="16" height="28" viewBox="0 0 16 28"><path d="M0,14 C0,14.2361446 0.0423280423,14.4582329 0.126984127,14.6662651 C0.211640212,14.8742972 0.349911817,15.0682731 0.541798942,15.2481928 L13.1386243,27.5108434 C13.4546737,27.8369478 13.8440917,28 14.3068783,28 C14.6229277,28 14.9079365,27.9269076 15.1619048,27.7807229 C15.415873,27.6345382 15.6190476,27.4349398 15.7714286,27.1819277 C15.9238095,26.9289157 16,26.6449799 16,26.3301205 C16,25.8803213 15.8306878,25.486747 15.4920635,25.1493976 L4.04656085,14 L15.4920635,2.85060241 C15.8306878,2.51325301 16,2.11967871 16,1.66987952 C16,1.3437751 15.9238095,1.05702811 15.7714286,0.809638554 C15.6190476,0.562248996 15.415873,0.365461847 15.1619048,0.219277108 C14.9079365,0.0730923695 14.6229277,0 14.3068783,0 C13.8440917,0 13.4546737,0.163052209 13.1386243,0.489156627 L0.541798942,12.7518072 C0.349911817,12.9317269 0.211640212,13.1257028 0.126984127,13.3337349 C0.0423280423,13.5417671 0,13.7638554 0,14 Z"/></svg>