<svg xmlns="http://www.w3.org/2000/svg" width="11" height="6" viewBox="0 0 11 6"><path d="M5.50331126,6 C5.59602649,6 5.68432671,5.98201058 5.76821192,5.94603175 C5.85209713,5.91005291 5.92715232,5.85608466 5.99337748,5.78412698 L10.807947,1.07301587 C10.9359823,0.946031746 11,0.797883598 11,0.628571429 C11,0.51005291 10.9713024,0.403174603 10.9139073,0.307936508 C10.8565121,0.212698413 10.7781457,0.137566138 10.6788079,0.0825396825 C10.5794702,0.0275132275 10.4679912,0 10.3443709,0 C10.1677704,0 10.00883,0.0613756614 9.86754967,0.184126984 L5.17880795,4.79365079 L5.82119205,4.79365079 L1.12582781,0.184126984 C0.993377483,0.0613756614 0.836644592,0 0.655629139,0 C0.53200883,0 0.420529801,0.0275132275 0.321192053,0.0825396825 C0.221854305,0.137566138 0.143487859,0.212698413 0.0860927152,0.307936508 C0.0286975717,0.403174603 0,0.51005291 0,0.628571429 C0,0.717460317 0.0176600442,0.798941799 0.0529801325,0.873015873 C0.0883002208,0.947089947 0.134657837,1.01375661 0.19205298,1.07301587 L5,5.79047619 C5.15011038,5.93015873 5.31788079,6 5.50331126,6 Z"/></svg>