<svg xmlns="http://www.w3.org/2000/svg" width="40" height="38" viewBox="0 0 40 38"><path d="M11.4101148,37.8 C11.8871593,37.8 12.3234039,37.6766447 12.7188486,37.4299342 C13.1142934,37.1832237 13.6070301,36.806832 14.1970588,36.3007591 L20.3170373,30.8161943 L31.4083214,30.8161943 C33.1784075,30.8161943 34.6785868,30.4904099 35.9088594,29.8388411 C37.139132,29.1872723 38.0743902,28.2415486 38.7146341,27.00167 C39.354878,25.7617915 39.675,24.2562247 39.675,22.4849696 L39.675,8.65020243 C39.675,6.87894737 39.354878,5.37338057 38.7146341,4.13350202 C38.0743902,2.89362348 37.139132,1.94473684 35.9088594,1.28684211 C34.6785868,0.628947368 33.1784075,0.3 31.4083214,0.3 L8.56667862,0.3 C6.79659254,0.3 5.2964132,0.625784413 4.0661406,1.27735324 C2.83586801,1.92892206 1.90060976,2.8778087 1.26036585,4.12401316 C0.620121951,5.37021761 0.3,6.87894737 0.3,8.65020243 L0.3,22.4849696 C0.3,24.2562247 0.623260402,25.7649545 1.26978121,27.0111589 C1.91630201,28.2573634 2.85156026,29.203087 4.07555595,29.84833 C5.29955165,30.4935729 6.77776184,30.8161943 8.51018651,30.8161943 L9.30107604,30.8161943 L9.30107604,35.3708502 C9.30107604,36.1046559 9.48310617,36.6929656 9.84716643,37.1357794 C10.2112267,37.5785931 10.7322095,37.8 11.4101148,37.8 Z M12.219835,34.1562753 L12.219835,29.0133097 C12.219835,28.494585 12.1099892,28.1276822 11.8902977,27.9126012 C11.6706062,27.6975202 11.3096844,27.5899798 10.8075323,27.5899798 L8.64200143,27.5899798 C6.89702296,27.5899798 5.6071198,27.1534919 4.77229197,26.2805162 C3.93746413,25.4075405 3.52005022,24.1233806 3.52005022,22.4280364 L3.52005022,8.70713563 C3.52005022,7.0117915 3.93746413,5.72763158 4.77229197,4.85465587 C5.6071198,3.98168016 6.89702296,3.54519231 8.64200143,3.54519231 L31.3329986,3.54519231 C33.077977,3.54519231 34.3710187,3.98168016 35.2121234,4.85465587 C36.0532281,5.72763158 36.4737805,7.0117915 36.4737805,8.70713563 L36.4737805,22.4280364 C36.4737805,24.1233806 36.0532281,25.4075405 35.2121234,26.2805162 C34.3710187,27.1534919 33.077977,27.5899798 31.3329986,27.5899798 L20.1663917,27.5899798 C19.639132,27.5899798 19.2154412,27.646913 18.8953192,27.7607794 C18.5751973,27.8746457 18.2393831,28.1213563 17.8878766,28.5009109 L12.219835,34.1562753 Z M15.6846844,19.7521761 C16.7266499,20.8022773 17.8156923,21.7290233 18.9518113,22.532414 C20.0879304,23.3358047 21.2177726,23.9430921 22.3413379,24.3542763 C23.4649032,24.7654605 24.5288379,24.9141194 25.533142,24.800253 C26.5374462,24.6863866 27.4287661,24.237247 28.2071019,23.452834 C28.2698709,23.4022267 28.326363,23.3452935 28.3765782,23.2820344 C28.4267934,23.2187753 28.4770086,23.1555162 28.5272238,23.0922571 C28.9163917,22.6367915 29.1392217,22.1370445 29.1957138,21.5930162 C29.2522059,21.0489879 29.023099,20.5808704 28.5083931,20.188664 C28.2196557,19.9862348 27.9277798,19.7774798 27.6327654,19.5623988 C27.3377511,19.3473178 27.0050753,19.1100962 26.6347382,18.8507338 C26.264401,18.5913715 25.8407102,18.2972166 25.3636657,17.9682692 C24.836406,17.6013664 24.3844692,17.4495445 24.0078551,17.5128036 C23.631241,17.5760628 23.2420732,17.8037955 22.8403515,18.196002 L22.1436155,18.8792004 C22.0306313,18.9930668 21.8988164,19.046837 21.7481707,19.0405111 C21.5975251,19.0341852 21.4719871,18.9930668 21.3715567,18.9171559 C21.0577116,18.7273785 20.6591284,18.4395496 20.175807,18.053669 C19.6924857,17.6677885 19.1997489,17.2218117 18.6975968,16.7157389 C18.2205524,16.2223178 17.7811693,15.7288968 17.3794476,15.2354757 C16.977726,14.7420547 16.6889885,14.3435223 16.5132353,14.0398785 C16.4504663,13.938664 16.4096664,13.8184717 16.3908357,13.6793016 C16.372005,13.5401316 16.4253587,13.4072874 16.5508967,13.2807692 L17.2476327,12.5406377 C17.6368006,12.1104757 17.8659075,11.7119433 17.9349534,11.3450405 C18.0039993,10.9781377 17.8439383,10.5353239 17.4547704,10.0165992 L15.2704089,6.90425101 C15.0318867,6.55 14.755703,6.32543016 14.441858,6.2305415 C14.1280129,6.13565283 13.7859218,6.15463057 13.4155846,6.2874747 C13.0452475,6.42031883 12.665495,6.63223684 12.2763271,6.92322874 C12.2261119,6.94853239 12.1821736,6.98016194 12.1445122,7.01811741 C12.1068508,7.05607287 12.0691894,7.09402834 12.031528,7.13198381 C11.2531923,7.91639676 10.8075323,8.81783907 10.6945481,9.83631073 C10.5815638,10.8547824 10.729071,11.9301872 11.1370696,13.0625253 C11.5450681,14.1948634 12.1445122,15.3335273 12.9354017,16.4785172 C13.7262912,17.6235071 14.6427188,18.7147267 15.6846844,19.7521761 Z"/></svg>