<svg xmlns="http://www.w3.org/2000/svg" width="22" height="22" viewBox="0 0 22 22"><defs><linearGradient id="a" x1="50%" x2="50%" y1="0%" y2="100%"><stop offset="0%" stop-color="#119CF7"/><stop offset="100%" stop-color="#066DD8"/></linearGradient></defs><path fill="url(#a)" d="M11.0000656,0 C4.92495989,0 0,4.94554951 0,11.0460532 C0,16.5174923 3.96573958,21.0487605 9.16547475,21.9262094 L9.16547475,13.3505591 L6.51193806,13.3505591 L6.51193806,10.264532 L9.16547475,10.264532 L9.16547475,7.98901527 C9.16547475,5.34876227 10.7713486,3.9099779 13.1171738,3.9099779 C14.2406819,3.9099779 15.2062008,3.99404644 15.4864873,4.0310735 L15.4864873,6.79084087 L13.8594869,6.79163148 C12.5840257,6.79163148 12.3381189,7.40014015 12.3381189,8.29340137 L12.3381189,10.2629508 L15.3815111,10.2629508 L14.9845697,13.3489779 L12.3381189,13.3489779 L12.3381189,22 C17.7806116,21.3348307 22,16.688133 22,11.0428908 C22,4.94554951 17.0750401,0 11.0000656,0 Z"/></svg>