<svg xmlns="http://www.w3.org/2000/svg" width="22" height="22" viewBox="0 0 22 22"><defs><linearGradient id="a" x1="50%" x2="50%" y1="3.283%" y2="100%"><stop offset="0%" stop-color="#903DAB"/><stop offset="49.302%" stop-color="#D22E8B"/><stop offset="79.592%" stop-color="#F2673B"/><stop offset="100%" stop-color="#FCA948"/></linearGradient></defs><path fill="url(#a)" d="M11.5814041,-0.00108922277 C11.6725553,-0.00102392087 11.7608796,-0.000941137238 11.8465168,-0.000839715583 L12.5484762,0.000607525185 C14.176264,0.00575161832 14.604539,0.0225902285 15.5349755,0.0651917285 C16.7059523,0.118403075 17.5054596,0.304223188 18.2052593,0.575987197 C18.939302,0.852283372 19.6043551,1.28552788 20.153754,1.84517038 C20.7133924,2.39474129 21.1464658,3.05963149 21.4225921,3.79367964 C21.6945219,4.49331667 21.8805085,5.29299776 21.9340552,6.46398334 C21.9432584,6.66625364 21.9512541,6.84478713 21.9581851,7.01706901 L21.9660003,7.22192554 L21.9660003,7.22192554 L21.9728483,7.42749483 C21.991996,8.05198616 21.9988256,8.77674296 22,10.4175541 L22,11.5814899 C21.9988256,13.2222112 21.991996,13.9469428 21.9728483,14.5714737 L21.9660003,14.7770585 L21.9660003,14.7770585 L21.9581851,14.9819354 C21.9512541,15.1542363 21.9432584,15.3327937 21.9340552,15.5350929 C21.8805085,16.7059107 21.6946898,17.5055918 21.4225921,18.2053966 C20.8512037,19.6830609 19.6830804,20.8511929 18.2054271,21.4225855 C17.5056275,21.6946852 16.7061202,21.8805054 15.5351433,21.9340524 C15.251967,21.9469776 15.0153047,21.9575164 14.7771845,21.9660678 L14.5716056,21.9729202 C14.0164756,21.9899449 13.3821206,21.9971821 12.0956747,21.999396 L11.5815719,22 C11.3992695,22.0001291 11.2056592,22.0001889 10.9996223,22.0001889 L10.6997477,22.0001429 C10.6028031,22.0001118 10.5088255,22.0000645 10.417675,22 L9.90357818,21.999396 C7.89353826,21.9959368 7.47559,21.9802137 6.46410131,21.9340524 C5.29312445,21.8805054 4.49344932,21.6946852 3.7938175,21.4225855 C3.05977483,21.1464572 2.39472172,20.7133805 1.84532276,20.1537381 C1.28568447,19.604335 0.852611039,18.9392769 0.576484727,18.2053966 C0.304554938,17.5055918 0.118568319,16.7059107 0.0651895221,15.5350929 C0.0225883394,14.6046496 0.00574985473,14.1763714 0.000605799917,12.5484877 L-0.000841430069,11.8464858 C-0.000942850969,11.7608433 -0.00102563399,11.6725135 -0.00109093539,11.5813566 L-0.00109093539,10.4174186 C-0.00102563399,10.3262674 -0.000942850969,10.2379433 -0.000841430069,10.1523065 L0.000605799917,9.45035412 C0.00574985473,7.82259215 0.0225883394,7.39439199 0.0651895221,6.46381549 C0.118400472,5.29299776 0.304219201,4.49331667 0.575981186,3.79351179 C0.852275302,3.0594636 1.28551658,2.39457344 1.84515491,1.84517038 C2.39472172,1.28552788 3.05960698,0.852451263 3.79364966,0.576322894 C4.49344932,0.304391037 5.2929566,0.118403075 6.46393346,0.0648559886 C6.66620225,0.0556526792 6.84473941,0.0476569172 7.0170274,0.0407258893 L7.22189228,0.0329105883 L7.22189228,0.0329105883 L7.42747123,0.0260625916 C7.91320997,0.0111698011 8.45960537,0.00372880076 9.45043275,0.000604551721 L10.1523922,-0.000840087266 C10.2380294,-0.000941385027 10.3263537,-0.00102408607 10.4175049,-0.00108933289 Z M11.571182,1.98097109 L10.4275592,1.98097103 C10.3380293,1.98102951 10.2512993,1.98110384 10.16723,1.98119529 L9.69362453,1.98195927 C7.91798343,1.98591621 7.5141568,2.00116366 6.55424104,2.04492282 C5.48162891,2.09393765 4.8991619,2.2730434 4.51157797,2.42378095 C4.03368651,2.60003306 3.60145235,2.88119719 3.24660068,3.24662659 C2.88134185,3.6014809 2.60001197,4.03371828 2.42359333,4.5116133 C2.27302474,4.89920012 2.09392033,5.48167147 2.04490586,6.55429159 C2.00114703,7.51435341 1.98589969,7.91809204 1.98194279,9.693806 L1.98117881,10.1674332 C1.98108736,10.2515069 1.98101303,10.3382414 1.98095455,10.4277763 L1.98095455,11.5716055 C1.98101303,11.6611361 1.98108736,11.7478667 1.98117881,11.8319367 L1.98194279,12.3055457 C1.98474559,13.5633008 1.99321322,14.132762 2.01346597,14.6991043 L2.02111331,14.899976 C2.02791049,15.0691207 2.03578944,15.2449686 2.04490586,15.4449526 C2.09375248,16.5175727 2.27302474,17.100044 2.42359333,17.4876308 C2.60001197,17.9655259 2.881174,18.3975954 3.24660068,18.7524497 C3.60145235,19.1178791 4.03368651,19.3990432 4.51141013,19.5754632 C4.8991619,19.7260329 5.48162891,19.9053065 6.55407315,19.9541535 C7.51398895,19.9980516 7.91770062,20.013208 9.69349236,20.0171294 L10.1671412,20.0178858 C10.2512188,20.0179763 10.3379575,20.0180497 10.4274967,20.0181075 L11.5713821,20.0181075 C11.660917,20.0180497 11.7476517,20.0179763 11.8317257,20.0178858 L12.3053563,20.0171294 C13.4891777,20.0145151 14.0632527,20.0069075 14.5988119,19.9891194 L14.7989569,19.9819615 C14.9995279,19.9743062 15.2047237,19.965128 15.4446679,19.9541535 C16.51728,19.9053065 17.0997471,19.7260329 17.487331,19.5754632 C18.4468069,19.2053337 19.2050211,18.4471139 19.5751478,17.4876308 C19.7257163,17.100044 19.9049886,16.5175727 19.9538352,15.4449526 C19.9629806,15.2449397 19.9708785,15.0690728 19.9776873,14.8999157 L19.9853451,14.699032 C20.006811,14.0993475 20.014982,13.4962334 20.0172436,12.0761887 L20.0172354,9.92293964 C20.0140625,7.95073117 19.9994174,7.55421129 19.9538352,6.55429159 C19.9049886,5.48167147 19.7257163,4.89920012 19.5749799,4.5116133 C19.3987291,4.03371828 19.1175671,3.6014809 18.7521404,3.24662659 C18.3972888,2.88136503 17.9650546,2.60020091 17.487331,2.42378095 C17.0995792,2.27321129 16.51728,2.09393765 15.4446679,2.04509066 C14.4846132,2.0011926 14.0807626,1.9859212 12.3051174,1.98196013 L11.8315113,1.98119548 C11.7474419,1.98110397 11.6607119,1.98102959 11.571182,1.98097109 Z M10.9992866,5.35040557 C14.1192618,5.35040557 16.6483771,7.87970761 16.6483771,10.9995381 C16.6483771,14.1193687 14.1192618,16.6485028 10.9992866,16.6485028 C7.87947929,16.6485028 5.35036399,14.1193687 5.35036399,10.9995381 C5.35036399,7.87970761 7.87947929,5.35040557 10.9992866,5.35040557 Z M10.9994545,7.33248667 C8.97424867,7.33248667 7.33259821,8.97431725 7.33259821,10.9993703 C7.33243032,13.0245912 8.97424867,14.6662539 10.9992866,14.6664217 C13.0244924,14.6664217 14.6663107,13.0245912 14.6663107,10.9993703 C14.6663107,8.97431725 13.0246603,7.33265456 10.9994545,7.33248667 Z M16.8716281,3.80710837 C17.6006351,3.80710837 18.1916628,4.3981405 18.1916628,5.12732074 C18.1916628,5.85633314 17.6006351,6.44736527 16.8716281,6.44736527 C16.1424533,6.44736527 15.5514256,5.85633314 15.5514256,5.12732074 C15.5514256,4.3981405 16.1424533,3.80710837 16.8716281,3.80710837 Z"/></svg>