<svg xmlns="http://www.w3.org/2000/svg" width="22" height="17" viewBox="0 0 22 17"><path d="M7.73203125,4.5 L7.73203125,7.75195312 L11.0894531,7.75195312 L11.0894531,4.5 L12.6773437,4.5 L12.6773437,12.4980469 L11.0894531,12.4980469 L11.0894531,9.0703125 L7.73203125,9.0703125 L7.73203125,12.4980469 L6.15,12.4980469 L6.15,4.5 L7.73203125,4.5 Z M15.8235938,4.5 L15.8235938,12.4980469 L14.2415625,12.4980469 L14.2415625,4.5 L15.8235938,4.5 Z M2.99105546,17 L19.0089445,17 C20.005963,17 20.7537269,16.7560813 21.2522361,16.268244 C21.7507454,15.7804067 22,15.0551121 22,14.0923603 L22,2.90763968 C22,1.94488788 21.7507454,1.21959331 21.2522361,0.731755986 C20.7537269,0.243918662 20.005963,0 19.0089445,0 L2.99105546,0 C2.00715564,0 1.26267144,0.243918662 0.757602862,0.731755986 C0.252534287,1.21959331 0,1.94488788 0,2.90763968 L0,14.0923603 C0,15.0551121 0.252534287,15.7804067 0.757602862,16.268244 C1.26267144,16.7560813 2.00715564,17 2.99105546,17 Z M3.05992844,15.3523375 C2.61389386,15.3523375 2.27280859,15.2360319 2.03667263,15.0034208 C1.80053667,14.7708096 1.68246869,14.4283542 1.68246869,13.9760547 L1.68246869,3.02394527 C1.68246869,2.56518434 1.80053667,2.21949829 2.03667263,1.98688712 C2.27280859,1.75427594 2.61389386,1.63797035 3.05992844,1.63797035 L18.9400716,1.63797035 C19.3861061,1.63797035 19.7304711,1.75427594 19.9731664,1.98688712 C20.2158617,2.21949829 20.3372093,2.56518434 20.3372093,3.02394527 L20.3372093,13.9760547 C20.3372093,14.4283542 20.2158617,14.7708096 19.9731664,15.0034208 C19.7304711,15.2360319 19.3861061,15.3523375 18.9400716,15.3523375 L3.05992844,15.3523375 Z"/></svg>