<svg xmlns="http://www.w3.org/2000/svg" width="16" height="15" viewBox="0 0 16 15"><path d="M15.196754,10.8227018 L12.220916,9.96141911 C11.829684,9.84821428 11.4083742,9.96007499 11.1233031,10.2528693 L10.3955862,11.0002004 C10.0887347,11.315322 9.62312333,11.4165791 9.2170006,11.2509536 C7.8092764,10.6767154 4.84803275,8.02282368 4.09179401,6.69535513 C3.87361972,6.31243007 3.90969812,5.83369908 4.17758206,5.48430236 L4.81291744,4.65580129 C5.06183615,4.33119614 5.11436096,3.89525299 4.94974864,3.52001929 L3.6977468,0.665778954 C3.39785902,-0.0178557755 2.5311626,-0.216860314 1.96494662,0.265828368 C1.13440267,0.973881291 0.148951283,2.04984992 0.0291591542,3.24186097 C-0.182051334,5.34346838 0.712129863,7.99273031 4.09349792,11.173816 C7.99989183,14.848866 11.1281184,15.3343923 13.164881,14.8370677 C14.3201305,14.5550263 15.2433522,13.4243221 15.8260146,12.4985216 C16.2232474,11.8673076 15.9095802,11.0290243 15.196754,10.8227018 Z"/></svg>