<svg xmlns="http://www.w3.org/2000/svg" width="19" height="15" viewBox="0 0 19 15"><g fill="none" fill-rule="evenodd"><rect width="19" height="15"/><path fill="#000" fill-rule="nonzero" d="M17.196754,10.8227018 L14.220916,9.96141911 C13.829684,9.84821428 13.4083742,9.96007499 13.1233031,10.2528693 L12.3955862,11.0002004 C12.0887347,11.315322 11.6231233,11.4165791 11.2170006,11.2509536 C9.8092764,10.6767154 6.84803275,8.02282368 6.09179401,6.69535513 C5.87361972,6.31243007 5.90969812,5.83369908 6.17758206,5.48430236 L6.81291744,4.65580129 C7.06183615,4.33119614 7.11436096,3.89525299 6.94974864,3.52001929 L5.6977468,0.665778954 C5.39785902,-0.0178557755 4.5311626,-0.216860314 3.96494662,0.265828368 C3.13440267,0.973881291 2.14895128,2.04984992 2.02915915,3.24186097 C1.81794867,5.34346838 2.71212986,7.99273031 6.09349792,11.173816 C9.99989183,14.848866 13.1281184,15.3343923 15.164881,14.8370677 C16.3201305,14.5550263 17.2433522,13.4243221 17.8260146,12.4985216 C18.2232474,11.8673076 17.9095802,11.0290243 17.196754,10.8227018 Z"/></g></svg>