<svg xmlns="http://www.w3.org/2000/svg" width="19" height="16" viewBox="0 0 19 16"><g fill="none" fill-rule="evenodd"><rect width="19" height="16"/><path fill="#000" fill-rule="nonzero" d="M10.1277955,0 C14.5239617,0 18,3.47169811 18,7.79874214 C17.9886169,10.5616276 16.5206058,13.1205487 14.1228328,14.5571144 C11.7250598,15.9936801 8.74144893,16.1018368 6.2428115,14.8427673 L6.2428115,14.8427673 L2,16 L3.12460064,11.8742138 C1.70710615,9.41644416 1.72188677,6.40272806 3.16342264,3.95854288 C4.60495851,1.5143577 7.25648898,0.00723032129 10.1277955,0 Z M10.149361,1.47995283 C6.41773163,1.47995283 3.40175719,4.49848565 3.40175719,8.12072503 C3.40175719,10.0827714 4.42412141,11.6423467 4.42412141,11.6423467 L4.42412141,11.6423467 L3.81070288,14.0571729 L6.31549521,13.4031575 C6.31549521,13.4031575 7.90015974,14.5099528 9.99600639,14.5099528 C13.6253994,14.4596439 16.5902556,11.49142 16.5902556,7.86918063 C16.5902556,4.14632349 13.6253994,1.47995283 10.149361,1.47995283 Z M7.71501597,4.27471698 C7.83769968,4.27471698 7.96038339,4.30691824 8.08306709,4.62893082 L8.08306709,4.62893082 L8.69648562,6.08805031 C8.74760383,6.18867925 8.79872204,6.28930818 8.69648562,6.38993711 L8.69648562,6.38993711 L8.23642173,7.09433962 C8.1341853,7.19496855 8.03194888,7.29559748 8.08306709,7.49685535 C9.00319489,9.00628931 10.0766773,9.4591195 10.8434505,9.86163522 C11.0479233,9.96226415 11.1501597,9.91194969 11.3035144,9.81132075 L11.3035144,9.81132075 L11.9169329,9.00628931 C12.0702875,8.80503145 12.2236422,8.85534591 12.3769968,8.95597484 L12.3769968,8.95597484 L14.1661342,9.81132075 C14.370607,9.91194969 14.115016,10.5660377 14.0638978,10.7169811 C13.8083067,11.1698113 13.2460064,11.6226415 12.6837061,11.672956 C12.2236422,11.7735849 11.8658147,11.8742138 10.2300319,11.1698113 C8.03194888,10.2138365 7.00958466,8.40251572 6.85623003,8.20125786 C6.03833866,7.19496855 5.57827476,5.63522013 6.7028754,4.52830189 C6.90734824,4.32704403 7.11182109,4.27672956 7.21405751,4.27672956 L7.21405751,4.27672956 L7.62300319,4.27672956 L7.62300319,4.27672956 Z"/></g></svg>