<svg xmlns="http://www.w3.org/2000/svg" width="16" height="16" viewBox="0 0 16 16"><path d="M8.12779553,0 C12.5239617,0 16,3.47169811 16,7.79874214 C15.9886169,10.5616276 14.5206058,13.1205487 12.1228328,14.5571144 C9.72505978,15.9936801 6.74144893,16.1018368 4.2428115,14.8427673 L4.2428115,14.8427673 L0,16 L1.12460064,11.8742138 C-0.292893846,9.41644416 -0.278113231,6.40272806 1.16342264,3.95854288 C2.60495851,1.5143577 5.25648898,0.00723032129 8.12779553,0 Z M8.14936102,1.47995283 C4.41773163,1.47995283 1.40175719,4.49882075 1.40175719,8.12146226 C1.40175719,10.0837264 2.42412141,11.6434748 2.42412141,11.6434748 L2.42412141,11.6434748 L1.81070288,14.0585692 L4.31549521,13.4044811 C4.31549521,13.4044811 5.90015974,14.5113994 7.99600639,14.5113994 C11.6253994,14.4610849 14.5902556,11.4925314 14.5902556,7.86988994 C14.5902556,4.1466195 11.6253994,1.47995283 8.14936102,1.47995283 Z M5.71501597,4.27471698 C5.83769968,4.27471698 5.96038339,4.30691824 6.08306709,4.62893082 L6.08306709,4.62893082 L6.69648562,6.08805031 C6.74760383,6.18867925 6.79872204,6.28930818 6.69648562,6.38993711 L6.69648562,6.38993711 L6.23642173,7.09433962 C6.1341853,7.19496855 6.03194888,7.29559748 6.08306709,7.49685535 C7.00319489,9.00628931 8.07667732,9.4591195 8.84345048,9.86163522 C9.04792332,9.96226415 9.15015974,9.91194969 9.30351438,9.81132075 L9.30351438,9.81132075 L9.91693291,9.00628931 C10.0702875,8.80503145 10.2236422,8.85534591 10.3769968,8.95597484 L10.3769968,8.95597484 L12.1661342,9.81132075 C12.370607,9.91194969 12.115016,10.5660377 12.0638978,10.7169811 C11.8083067,11.1698113 11.2460064,11.6226415 10.6837061,11.672956 C10.2236422,11.7735849 9.8658147,11.8742138 8.23003195,11.1698113 C6.03194888,10.2138365 5.00958466,8.40251572 4.85623003,8.20125786 C4.03833866,7.19496855 3.57827476,5.63522013 4.7028754,4.52830189 C4.90734824,4.32704403 5.11182109,4.27672956 5.21405751,4.27672956 L5.21405751,4.27672956 L5.62300319,4.27672956 L5.62300319,4.27672956 Z"/></svg>