<svg xmlns="http://www.w3.org/2000/svg" width="36" height="36" viewBox="0 0 36 36"><path d="M18.0090067,35.5 C20.398782,35.5 22.6504546,35.0406588 24.7640247,34.1219763 C26.8775948,33.2032939 28.7389775,31.9393549 30.3481729,30.3301595 C31.9573683,28.7209641 33.218305,26.8625836 34.130983,24.755018 C35.043661,22.6474524 35.5,20.3927775 35.5,17.9909933 C35.5,15.601218 35.0406588,13.3495454 34.1219763,11.2359753 C33.2032939,9.12240522 31.9393549,7.25802024 30.3301595,5.64282038 C28.7209641,4.02762052 26.8595814,2.76668382 24.7460113,1.86001029 C22.6324412,0.953336764 20.3807686,0.5 17.9909933,0.5 C15.601218,0.5 13.3525476,0.953336764 11.244982,1.86001029 C9.13741637,2.76668382 7.27603362,4.02762052 5.66083376,5.64282038 C4.0456339,7.25802024 2.78169497,9.12240522 1.86901698,11.2359753 C0.956338995,13.3495454 0.5,15.601218 0.5,17.9909933 C0.5,20.3927775 0.959341225,22.6474524 1.87802367,24.755018 C2.79670612,26.8625836 4.06064505,28.7209641 5.66984045,30.3301595 C7.27903586,31.9393549 9.13741637,33.2032939 11.244982,34.1219763 C13.3525476,35.0406588 15.6072225,35.5 18.0090067,35.5 Z M17.9998436,33.5 C15.8498023,33.5 13.8365817,33.0995589 11.960182,32.2986767 C10.0837823,31.4977946 8.43541721,30.3876286 7.01508686,28.968179 C5.59475651,27.5487293 4.48715944,25.9013863 3.69229566,24.02615 C2.89743189,22.1509137 2.5,20.1389414 2.5,17.9902331 C2.5,15.8415249 2.89743189,13.8295526 3.69229566,11.9543163 C4.48715944,10.07908 5.59475651,8.43173703 7.01508686,7.01228733 C8.43541721,5.59283764 10.0805246,4.48592733 11.9504091,3.6915564 C13.8202935,2.89718547 15.8302564,2.5 17.9802978,2.5 C20.1303392,2.5 22.1435597,2.89718547 24.0199594,3.6915564 C25.8963592,4.48592733 27.5447242,5.59283764 28.9650546,7.01228733 C30.3853849,8.43173703 31.4962396,10.07908 32.2976187,11.9543163 C33.0989977,13.8295526 33.4996873,15.8415249 33.4996873,17.9902331 C33.5127178,20.1389414 33.1185436,22.1509137 32.3171645,24.02615 C31.5157855,25.9013863 30.4081884,27.5487293 28.9943733,28.968179 C27.5805582,30.3876286 25.9321932,31.4977946 24.0492782,32.2986767 C22.1663632,33.0995589 20.149885,33.5 17.9998436,33.5 Z M29.4835306,29.2133299 L29.4294905,28.9971693 C29.1172585,28.1565449 28.444759,27.3399382 27.4119918,26.5473495 C26.3792246,25.7547607 25.0582433,25.1032767 23.4490479,24.5928976 C21.8398525,24.0825184 20.0205009,23.8273289 17.9909933,23.8273289 C15.9734946,23.8273289 14.1631498,24.0825184 12.5599588,24.5928976 C10.9567679,25.1032767 9.63878881,25.7547607 8.60602162,26.5473495 C7.57325442,27.3399382 6.88874593,28.1505404 6.55249614,28.9791559 L6.498456,29.2133299 C7.54323212,30.2100703 8.7531309,31.0597015 10.1281523,31.7622234 C11.5031738,32.4647452 12.8841997,32.9991422 14.2712301,33.3654143 C15.6582604,33.7316864 16.8981815,33.9148224 17.9909933,33.9148224 C19.095814,33.9148224 20.3387373,33.7316864 21.7197633,33.3654143 C23.1007892,32.9991422 24.4758106,32.4677475 25.8448276,31.7712301 C27.2138446,31.0747126 28.4267456,30.2220793 29.4835306,29.2133299 Z M17.9909933,20.9812146 C19.095814,20.9932235 20.0895522,20.7170184 20.9722079,20.1525991 C21.8548636,19.5881798 22.5573855,18.8196089 23.0797735,17.8468863 C23.6021616,16.8741637 23.8633556,15.7753474 23.8633556,14.5504375 C23.8633556,13.3975811 23.6021616,12.3437983 23.0797735,11.389089 C22.5573855,10.4343798 21.8518614,9.66881112 20.9632012,9.09238291 C20.0745411,8.51595471 19.0838051,8.22774061 17.9909933,8.22774061 C16.9101904,8.22774061 15.9254589,8.51595471 15.0367988,9.09238291 C14.1481386,9.66881112 13.4426145,10.4343798 12.9202265,11.389089 C12.3978384,12.3437983 12.1366444,13.3975811 12.1366444,14.5504375 C12.1366444,15.7753474 12.4008406,16.8681592 12.9292331,17.8288729 C13.4576257,18.7895866 14.1601475,19.552153 15.0367988,20.1165723 C15.91345,20.6809916 16.8981815,20.9692057 17.9909933,20.9812146 Z"/></svg>