<svg xmlns="http://www.w3.org/2000/svg" width="17" height="16" viewBox="0 0 17 16"><path fill="#CBD5E1" d="M15.696754,11.3227018 L12.720916,10.4614191 C12.329684,10.3482143 11.9083742,10.460075 11.6233031,10.7528693 L10.8955862,11.5002004 C10.5887347,11.815322 10.1231233,11.9165791 9.7170006,11.7509536 C8.3092764,11.1767154 5.34803275,8.52282368 4.59179401,7.19535513 C4.37361972,6.81243007 4.40969812,6.33369908 4.67758206,5.98430236 L5.31291744,5.15580129 C5.56183615,4.83119614 5.61436096,4.39525299 5.44974864,4.02001929 L4.1977468,1.16577895 C3.89785902,0.482144224 3.0311626,0.283139686 2.46494662,0.765828368 C1.63440267,1.47388129 0.648951283,2.54984992 0.529159154,3.74186097 C0.317948666,5.84346838 1.21212986,8.49273031 4.59349792,11.673816 C8.49989183,15.348866 11.6281184,15.8343923 13.664881,15.3370677 C14.8201305,15.0550263 15.7433522,13.9243221 16.3260146,12.9985216 C16.7232474,12.3673076 16.4095802,11.5290243 15.696754,11.3227018 Z"/></svg>