<svg xmlns="http://www.w3.org/2000/svg" width="15" height="15" viewBox="0 0 15 15"><path fill="#CBD5E1" fill-rule="evenodd" d="M7.99284261,1.50516558e-07 C8.06870111,7.22427339e-05 8.14157441,0.000163938315 8.21165367,0.00027681757 L8.77208893,0.0019073584 C9.70769006,0.00622882779 10.0015403,0.0180425072 10.5927605,0.0451124575 C11.3911589,0.0813931502 11.936281,0.208089482 12.4134202,0.393384295 C12.913907,0.581769239 13.3673552,0.877165089 13.7419478,1.25874193 C14.1235218,1.63345173 14.418801,2.08678883 14.6070702,2.58727936 C14.792478,3.06430762 14.9192879,3.60954817 14.9557972,4.40795247 C14.9874449,5.10351085 14.9981499,5.38739484 15.0004041,6.78904308 L15.0004041,8.21170944 C14.9988262,9.19281171 14.9931074,9.62625191 14.9789629,10.0366275 L14.9723727,10.21262 C14.9676186,10.3310463 14.9621268,10.4537074 14.9557972,10.592839 C14.9192879,11.3911288 14.7925925,11.9363694 14.6070702,12.4135121 C14.2174847,13.4210168 13.4210319,14.2174755 12.4135346,14.6070638 C11.9363955,14.7925875 11.3912734,14.9192839 10.592875,14.9557934 C10.4537643,14.9621429 10.3311171,14.9676478 10.2126996,14.9724098 L9.94823698,14.9819135 C9.56163579,14.9939542 9.12279849,14.9989541 8.21176811,15.0004058 L6.78914614,15.0004058 C5.87812934,14.9989541 5.43932788,14.9939542 5.05272277,14.9819135 L4.78825032,14.9724098 C4.66982498,14.9676478 4.54716474,14.9621429 4.40803418,14.9557934 C3.60963578,14.9192839 3.06439926,14.7925875 2.58737453,14.6070638 C2.0868877,14.4187933 1.63343951,14.1235119 1.25884692,13.7419351 C0.877272927,13.3673397 0.581993702,12.9138882 0.393724562,12.4135121 C0.208316707,11.9363694 0.0815068401,11.3911288 0.0451119736,10.592839 C0.0180422233,10.0016144 0.00622863124,9.70776196 0.00190719379,8.77210771 L0.000276665008,8.21163927 C0.000163786588,8.14155573 7.20916845e-05,8.06867793 -6.86777024e-15,7.99281473 L-6.8675534e-15,7.00777754 C7.20916845e-05,6.93191924 0.000163786588,6.85904631 0.000276665008,6.78896758 L0.00190719379,6.22854036 C0.00622863124,5.29295918 0.0180422233,4.99914724 0.0451119736,4.40783802 C0.0813923981,3.60954817 0.208087794,3.06430762 0.393381237,2.58716492 C0.581764789,2.08667436 0.877158455,1.63333729 1.25873248,1.25874193 C1.63343951,0.877165089 2.08677325,0.581883712 2.58726009,0.39361318 C3.06439926,0.208203925 3.60952134,0.0813931502 4.40791974,0.0448835426 C4.99914,0.0179827903 5.29299022,0.00621324946 6.22859135,0.00190329449 L6.78902661,0.000276309581 C6.85910587,0.000163599656 6.93197917,7.20169609e-05 7.00783767,1.25275051e-12 Z M7.5002257,1.35121766 L7.24893373,1.35126285 L7.24893373,1.35126285 L6.60342533,1.35202241 C5.39832492,1.35474333 5.1228,1.3651557 4.46949348,1.39493763 C3.73816236,1.42835705 3.34102324,1.55047537 3.07675978,1.65325163 C2.75092262,1.77342428 2.45621563,1.9651283 2.21426977,2.21428629 C1.96522807,2.45623394 1.77341102,2.7509431 1.65312482,3.07678268 C1.55046376,3.34104808 1.42834634,3.73819014 1.39492717,4.46952667 C1.36514546,5.12293255 1.35473317,5.39839785 1.35201227,6.60354738 L1.35125271,7.24908823 L1.35125271,7.24908823 L1.35120752,7.50051017 C1.35120752,7.58758684 1.35122201,7.67132606 1.35125271,7.75191844 L1.35201227,8.39743161 C1.35473317,9.60254093 1.36514546,9.87806789 1.39492717,10.5313793 C1.4282319,11.2627158 1.55046376,11.6598578 1.65312482,11.9241232 C1.77341102,12.2499628 1.96511363,12.5445575 2.21426977,12.7865052 C2.45621563,13.0356632 2.75092262,13.2273672 3.07664534,13.3476543 C3.34102324,13.4503161 3.73816236,13.5725488 4.46937901,13.6058538 C4.64130178,13.6137161 4.78705699,13.6202261 4.9304749,13.6256003 L5.10297964,13.6315179 C5.42277368,13.6414182 5.77739066,13.6462398 6.42057542,13.6482865 L6.80154689,13.6491415 C6.87032024,13.6492428 6.94185972,13.6493246 7.01635599,13.6493886 L7.98429933,13.6493886 C8.0587922,13.6493246 8.13032865,13.6492428 8.19909927,13.6491415 L8.58005798,13.6482865 C9.22322524,13.6462398 9.57785433,13.6414182 9.89763998,13.6315179 L10.0701378,13.6256003 C10.2135478,13.6202261 10.3592889,13.6137161 10.5311868,13.6058538 C11.2625179,13.5725488 11.659657,13.4503161 11.9239205,13.3476543 C12.5781128,13.0952917 13.0950803,12.5783203 13.347441,11.9241232 C13.450102,11.6598578 13.5723339,11.2627158 13.6056387,10.5313793 C13.6355149,9.87797335 13.6458656,9.60250805 13.6485621,8.39735852 L13.6491731,7.9843562 C13.6493012,7.83537079 13.6493583,7.67455901 13.6493583,7.50039573 L13.6493131,7.24898746 C13.6492824,7.16839507 13.6492355,7.09094953 13.6491708,7.01646022 L13.6485536,6.60347429 C13.6468351,5.84235261 13.6420486,5.45203387 13.631252,5.10315085 L13.6253392,4.93063747 C13.6199719,4.78721239 13.613476,4.64145071 13.6056387,4.46952667 C13.5723339,3.73819014 13.450102,3.34104808 13.3473266,3.07678268 C13.2271548,2.7509431 13.0354522,2.45623394 12.786296,2.21428629 C12.5443502,1.96524275 12.2496432,1.77353872 11.9239205,1.65325163 C11.6595426,1.55058985 11.2625179,1.42835705 10.5311868,1.39505207 C9.87778574,1.36517561 9.60224436,1.35474679 8.3971411,1.35202301 L7.75163212,1.35126286 L7.75163212,1.35126286 L7.5002257,1.35121766 Z M7.5002257,3.64869011 C9.62749503,3.64869011 11.3519028,5.37322511 11.3519028,7.50039573 C11.3519028,9.62756634 9.62749503,11.3519869 7.5002257,11.3519869 C5.37307078,11.3519869 3.64866299,9.62756634 3.64866299,7.50039573 C3.64866299,5.37322511 5.37307078,3.64869011 7.5002257,3.64869011 Z M7.50034014,5.00011757 C6.1195092,5.00011757 5.00019493,6.11955458 5.00019493,7.50028128 C5.00008046,8.88112243 6.1195092,10.000445 7.5002257,10.0005594 C8.88105664,10.0005594 10.0004853,8.88112243 10.0004853,7.50028128 C10.0004853,6.11955458 8.88117108,5.00023204 7.50034014,5.00011757 Z M11.5041204,2.59643537 C12.0011738,2.59643537 12.4041498,2.99941437 12.4041498,3.49658585 C12.4041498,3.9936429 12.0011738,4.39662189 11.5041204,4.39662189 C11.0069526,4.39662189 10.6039766,3.9936429 10.6039766,3.49658585 C10.6039766,2.99941437 11.0069526,2.59643537 11.5041204,2.59643537 Z"/></svg>