<svg xmlns="http://www.w3.org/2000/svg" width="20" height="15" viewBox="0 0 20 15"><path fill="#CBD5E1" fill-rule="evenodd" d="M2.67120111,9.1242193 C2.89436824,9.16256627 3.12427195,9.18259176 3.35911335,9.18259176 C3.77257834,9.18259176 4.17073767,9.12051754 4.54377168,9.00567073 C2.71511991,8.73200386 1.31688953,7.23223373 1.31688953,5.42311738 C1.31688953,5.39505938 1.31722585,5.36707579 1.31789489,5.33917003 C1.85934931,5.63041246 2.4831052,5.80025038 3.14790928,5.8096068 C2.04960896,5.17197068 1.31688953,4.02445637 1.31688953,2.71483429 C1.31688953,2.0348801 1.51440679,1.39862486 1.85805695,0.854742217 C3.80527845,3.06078512 6.66203212,4.52168636 9.88218864,4.72012974 C9.82319686,4.46359088 9.79211838,4.19717798 9.79211838,3.92388924 C9.79211838,1.8672419 11.5522127,0.2 13.7233992,0.2 C14.8577112,0.2 15.8798188,0.655060752 16.5973601,1.38296839 C17.4876815,1.24899794 18.3151641,0.936333046 19.0375604,0.484992471 C18.7710794,1.34678024 18.1646291,2.07098776 17.3650824,2.51849103 C18.1477281,2.44954548 18.8871629,2.24818824 19.5666667,1.94595034 C19.0798841,2.70057981 18.4259994,3.34794908 17.653746,3.84189545 C17.6543677,3.86915557 17.6546801,3.89648785 17.6546801,3.92388924 C17.6546801,3.99655008 17.6530264,4.27821647 17.6530264,4.34788862 C17.6530264,10.1572496 12.6813315,14.8666667 6.54843441,14.8666667 C4.31749193,14.8666667 2.24020678,14.2434881 0.5,13.1708757 C0.809309439,13.2048745 1.12393745,13.2223519 1.44287486,13.2223519 C3.29029805,13.2223519 4.9931309,12.6359457 6.35524374,11.6489163 C4.61128122,11.6490639 3.16373402,10.5884758 2.67120111,9.1242193 Z"/></svg>