<svg xmlns="http://www.w3.org/2000/svg" width="18" height="19" viewBox="0 0 18 19"><g fill="none" transform="translate(1 1.5)"><path stroke="#CBD5E1" stroke-width="1.714" d="M7.6089548,0.00930719086 C3.34897955,0.211684115 -0.0127395988,3.75139431 0.000183561894,8.00654428 C0.004118375,9.30255717 0.317707549,10.5258252 0.870895979,11.6066827 L0.103860553,16 L4.43815125,15.1301889 C5.47605464,15.646023 6.64183947,15.9439689 7.87563483,15.9627517 C12.229737,16.0291073 15.8602965,12.5796546 15.9960089,8.23701841 C16.1414813,3.58200275 12.2908423,-0.213161166 7.6089548,0.00930719086 Z"/><path fill="#CBD5E1" d="M11.8825862,9.71281499 L10.3330028,9.268879 C10.1292797,9.21052917 9.90989463,9.26818619 9.76145188,9.41910288 L9.38251394,9.80430414 C9.22272967,9.96672914 8.98027575,10.0189207 8.76879883,9.93355133 C8.0357663,9.63756834 6.49378248,8.26965737 6.09999256,7.58543246 C5.98638447,7.38805915 6.00517127,7.14130402 6.14466426,6.96121242 L6.47549717,6.53417325 C6.60511454,6.36686011 6.63246535,6.14215937 6.54674815,5.94875046 L5.89480363,4.4775726 C5.73864555,4.12520274 5.28733792,4.02262866 4.99249697,4.27142372 C4.56001472,4.6363796 4.0468688,5.19097243 3.98449044,5.80537769 C3.87450856,6.88862154 4.34012811,8.25414617 6.10087982,9.89379185 C8.13502388,11.7880445 9.76395936,12.0383021 10.8245458,11.7819632 C11.4261093,11.6365889 11.9068509,11.0537834 12.2102558,10.5765927 C12.4171035,10.2512423 12.2537702,9.81916103 11.8825862,9.71281499 Z"/></g></svg>