<svg xmlns="http://www.w3.org/2000/svg" width="20" height="15" viewBox="0 0 20 15"><path fill="#CBD5E1" d="M19.9996674,0.516941531 C19.9996674,0.639571612 19.9007871,0.73901346 19.7788494,0.73901346 L19.1608469,0.73901346 C18.9354839,0.73901346 18.7326239,0.876136186 18.6476,1.08605659 L13.0087573,15 L10.1687174,8.58856493 L7.13002993,15 L1.31448842,1.08059398 C1.2280235,0.873683585 1.02660459,0.739124941 0.803458597,0.739124941 L0.220818091,0.739124941 C0.0988803902,0.739124941 0,0.639683094 0,0.517053013 L0,0 L5.0247201,0 L5.01064184,0.523073036 C5.00742711,0.643361997 4.9095444,0.739236423 4.78982374,0.739236423 L3.94889702,0.739236423 C3.63596054,0.739236423 3.42146104,1.05640241 3.53652588,1.34904237 L7.61944352,11.7363676 L9.68440306,7.23550921 L7.07493626,1.07791841 C6.98780623,0.872457284 6.78716329,0.73901346 6.56501497,0.73901346 L6.15907327,0.73901346 C6.03713557,0.73901346 5.93825518,0.639571612 5.93825518,0.516941531 L5.93825518,0 L9.71178362,0 L9.71178362,0.516941531 C9.71178362,0.639571612 9.61290323,0.73901346 9.49096552,0.73901346 C9.17248642,0.73901346 8.95787607,1.06654726 9.0834719,1.36085945 L10.6254296,4.97343015 L12.199867,1.36420391 C12.328345,1.06955727 12.1137346,0.739124941 11.7938144,0.739124941 L11.2038577,0.739124941 C11.08192,0.739124941 10.9830396,0.639683094 10.9830396,0.517053013 L10.9830396,0 L14.9352622,0 L14.9352622,0.517053013 C14.9352622,0.639683094 14.8363818,0.739124941 14.7144441,0.739124941 L14.0566456,0.739124941 C13.841481,0.739124941 13.6457156,0.864430588 13.5545948,1.06041575 L11.1221594,6.29170352 L13.3933045,11.6589992 L17.367365,1.34402569 C17.4781066,1.05216609 17.263718,0.739236423 16.9531094,0.739236423 L15.9706241,0.739236423 C15.8486864,0.739236423 15.749806,0.639794576 15.749806,0.517164495 L15.749806,0.000222963783 L20,0.000222963783 L20,0.516941531 L19.9996674,0.516941531 Z"/></svg>