<svg xmlns="http://www.w3.org/2000/svg" width="21" height="15" viewBox="0 0 21 15"><path fill="#CBD5E1" d="M10.5390549,-0.00107604311 C10.5520967,-0.00105449707 10.5682639,-0.00102217801 10.5874215,-0.000973699418 L10.9522066,0.000728437687 C11.647841,0.00521540037 13.0515729,0.0205992724 14.4999094,0.0733439767 L15.0118587,0.0935541616 C16.5467805,0.159097213 18.0441974,0.270016224 18.7165071,0.457725318 C19.6160079,0.704883422 20.3253221,1.42837663 20.5674215,2.34622899 C20.9737924,3.8604784 20.9990735,6.85792408 21.0001609,7.42389354 L21.0001016,7.52793669 C21.0000871,7.5349952 21.0000581,7.5454944 21,7.55925716 L20.9991869,7.6795795 C20.9929147,8.38450936 20.9443053,11.2103262 20.5675817,12.6706376 C20.3253221,13.5883265 19.6161681,14.3119832 18.7165071,14.5589778 C17.2971867,14.940147 12.2006558,14.9921246 10.8370852,14.9992125 L10.6538867,15 C10.6288841,15.0000829 10.6067367,15.0001451 10.5875796,15.0001917 L10.4117421,15.0001862 C10.3926326,15.0001377 10.37054,15.000073 10.3455985,14.9999869 L10.1628396,14.9991681 C8.80248107,14.9917994 3.71671834,14.9377619 2.28259177,14.5414871 C1.38293071,14.294329 0.673776716,13.5706723 0.431517143,12.6529835 C0.0688203577,11.2615643 0.0103208763,8.57907824 0.000885476022,7.74995731 L0.000885476022,7.25040006 C0.0103208763,6.42486639 0.0688203577,3.75231773 0.431517143,2.34622899 C0.673616461,1.42854009 1.40023497,0.687229272 2.28243156,0.440234622 C2.99209173,0.249650045 4.62105454,0.141363353 6.24304864,0.0798368243 L6.75394529,0.061920299 C8.10995675,0.0180667796 9.39188354,0.00472005626 10.0465827,0.000658010038 L10.4113591,-0.000979243286 C10.4305162,-0.00102587392 10.446683,-0.00105696101 10.4597245,-0.00107768573 Z M8.46817326,4.84388895 C8.42771006,4.91275013 8.40637543,4.99116989 8.40637543,5.07103937 L8.40637543,9.9281731 C8.40637543,10.1757997 8.60711645,10.3765407 8.85474305,10.3765407 C8.93461252,10.3765407 9.01303228,10.3552061 9.08189346,10.3147429 L13.2148843,7.88617604 C13.4283809,7.76072433 13.4997554,7.48595243 13.3743036,7.27245583 C13.3356095,7.20660518 13.2807349,7.15173064 13.2148843,7.11303646 L9.08189347,4.68446957 C8.86839687,4.55901786 8.59362497,4.63039235 8.46817326,4.84388895 Z"/></svg>