<svg xmlns="http://www.w3.org/2000/svg" width="7" height="4" viewBox="0 0 7 4"><path fill="#475569" d="M4.19983881,3.65523926 L6.83412995,0.925297053 C6.93969353,0.808031494 6.9948745,0.677866724 6.99967284,0.534802743 C7.00447118,0.391738761 6.95648774,0.270955236 6.8557225,0.172452166 C6.74536058,0.0645678525 6.61460569,0.00828038434 6.46345784,0.003589762 C6.31230999,-0.00110086035 6.18635344,0.0528412966 6.08558821,0.165416233 L3.49448217,2.83907097 L0.917771164,0.165416233 C0.812207584,0.0528412966 0.683851868,-0.00227351593 0.532704016,7.179524e-05 C0.381556164,0.00241710641 0.250801276,0.0598772301 0.140439352,0.172452166 C0.0444724614,0.270955236 -0.00231139766,0.391738761 8.77745948e-05,0.534802743 C0.00248694685,0.677866724 0.0540691504,0.808031494 0.154834385,0.925297053 L2.80352056,3.65523926 C3.01464772,3.88507975 3.24616784,4 3.49808093,4 C3.74999402,4 3.98391331,3.88507975 4.19983881,3.65523926 Z"/></svg>