<svg xmlns="http://www.w3.org/2000/svg" width="17" height="22" viewBox="0 0 17 22"><path fill="#2D3748" fill-rule="evenodd" d="M5.5,0.5 C7.96016469,0.5 10.0053397,2.27678199 10.4222982,4.61711914 C10.7684712,4.54029128 11.1295304,4.5 11.5,4.5 C14.2614237,4.5 16.5,6.73857625 16.5,9.5 L16.5,16.5 C16.5,19.2614237 14.2614237,21.5 11.5,21.5 C9.03983531,21.5 6.99466028,19.723218 6.57770176,17.3828809 C6.23152876,17.4597087 5.87046965,17.5 5.5,17.5 C2.73857625,17.5 0.5,15.2614237 0.5,12.5 L0.5,5.5 C0.5,2.73857625 2.73857625,0.5 5.5,0.5 Z M5.55,2.2 C3.76151789,2.2 2.30037897,3.60152284 2.20495691,5.36619488 L2.2,5.55 L2.2,12.45 C2.2,14.3001539 3.69984609,15.8 5.55,15.8 C6.55688278,15.8 7.46001464,15.3557895 8.07411215,14.652652 L8.20121296,14.498084 L8.2,16.5 C8.2,18.3225397 9.67746033,19.8 11.5,19.8 C13.2596935,19.8 14.6976959,18.4226767 14.7947761,16.6872612 L14.8,16.5 L14.8,9.5 C14.8,7.67746033 13.3225397,6.2 11.5,6.2 C10.5144854,6.2 9.62987077,6.63200421 9.02519644,7.31697233 L8.89997342,7.46755786 L8.9,5.55 C8.9,3.69984609 7.40015391,2.2 5.55,2.2 Z M6.3,8.45910992 C6.3,7.69435621 7.15631825,7.23821369 7.79569484,7.66242364 L7.79569484,7.66242364 L10.8715523,9.70326378 C11.4428159,10.0823373 11.4428159,10.9176586 10.8715523,11.2967321 L10.8715523,11.2967321 L7.79569484,13.3375435 C7.15631825,13.7618109 6.3,13.3056588 6.3,12.5409051 L6.3,12.5409051 Z"/></svg>