<svg xmlns="http://www.w3.org/2000/svg" width="18" height="20" viewBox="0 0 18 20"><path fill="#718096" fill-rule="evenodd" d="M295.047619,820 C295.573605,820 296,820.426395 296,820.952381 L296,839.047619 C296,839.573605 295.573605,840 295.047619,840 L278.952381,840 C278.426395,840 278,839.573605 278,839.047619 L278,820.952381 C278,820.426395 278.426395,820 278.952381,820 L295.047619,820 Z M294.12782,821.428571 L279.87218,821.428571 C279.650713,821.428571 279.466519,821.588158 279.428321,821.798608 L279.421053,821.879699 L279.421053,838.120301 C279.421053,838.341768 279.580639,838.525962 279.79109,838.56416 L279.87218,838.571429 L294.12782,838.571429 C294.349287,838.571429 294.533481,838.411842 294.571679,838.201392 L294.578947,838.120301 L294.578947,821.879699 C294.578947,821.630548 294.376971,821.428571 294.12782,821.428571 Z M291.969925,833.809524 C292.364414,833.809524 292.684211,834.12932 292.684211,834.52381 C292.684211,834.918299 292.364414,835.238095 291.969925,835.238095 L282.030075,835.238095 C281.635586,835.238095 281.315789,834.918299 281.315789,834.52381 C281.315789,834.12932 281.635586,833.809524 282.030075,833.809524 L291.969925,833.809524 Z M290.00801,823.757804 C290.066112,823.781491 290.110708,823.829737 290.129761,823.889519 L292.640245,831.766809 C292.657991,831.822493 292.627237,831.882019 292.571554,831.899765 C292.561165,831.903077 292.550326,831.904762 292.539422,831.904762 L281.520447,831.904762 C281.462004,831.904762 281.414627,831.857385 281.414627,831.798942 C281.414627,831.777026 281.421431,831.75565 281.434101,831.737768 L284.78633,827.006168 C284.853901,826.910793 284.985995,826.888254 285.08137,826.955825 C285.094479,826.965112 285.106488,826.975862 285.117165,826.987867 L287.29821,829.440171 C287.337049,829.483841 287.403936,829.487757 287.447606,829.448918 C287.459698,829.438163 287.469162,829.424779 287.475271,829.409794 L289.732133,823.873887 C289.776259,823.76565 289.899773,823.713678 290.00801,823.757804 Z" transform="translate(-278 -820)"/></svg>